<svg xmlns="http://www.w3.org/2000/svg" xmlns:xlink="http://www.w3.org/1999/xlink" width="250" height="103" viewBox="0 0 250 103">
  <defs>
    <clipPath id="clip-MAHE_White">
      <rect width="250" height="103"/>
    </clipPath>
  </defs>
  <g id="MAHE_White" clip-path="url(#clip-MAHE_White)">
    <g id="logo" transform="translate(4.24 20)">
      <path id="Path_8416" data-name="Path 8416" d="M182.437,52.958c-.039.079-.118.118-.157.157a.556.556,0,0,1-.235.079h-.431v.314h2.665a5.52,5.52,0,0,1,.862.039,3.216,3.216,0,0,0,1.489-.236,3.4,3.4,0,0,0,1.215-.786,3.55,3.55,0,0,0,.823-1.178,3.725,3.725,0,0,0,.313-1.453,3.687,3.687,0,0,0-.274-1.453,3.394,3.394,0,0,0-.823-1.139,3.488,3.488,0,0,0-1.293-.707,5.048,5.048,0,0,0-1.685-.275h-3.292v.314h.431a.556.556,0,0,1,.235.079.392.392,0,0,1,.157.2.741.741,0,0,1,.078.314V52.6A.585.585,0,0,1,182.437,52.958Zm1.411-6.206.353-.039h.353a4.036,4.036,0,0,1,1.176.157,2.046,2.046,0,0,1,.98.55,2.57,2.57,0,0,1,.666,1.021,4.113,4.113,0,0,1,.235,1.689,3.639,3.639,0,0,1-.157,1.139,3.353,3.353,0,0,1-.509.982,2.547,2.547,0,0,1-1.959.943,1.9,1.9,0,0,1-.47-.039.444.444,0,0,1-.313-.118.577.577,0,0,1-.2-.236,1.675,1.675,0,0,1-.078-.432Zm-23.472,6.716H161a3.363,3.363,0,0,1,.627.039v-.314h-.392c-.078,0-.157-.039-.235-.039-.078-.039-.118-.079-.2-.118a.3.3,0,0,1-.078-.2,1.149,1.149,0,0,1,.078-.353,3.283,3.283,0,0,0,.157-.471l.313-1.06h2.351l.392,1.178c.039.157.118.314.157.432.039.079.039.2.078.314a.277.277,0,0,1-.235.236.5.5,0,0,1-.235.039h-.314v.314a5.239,5.239,0,0,1,.784-.039h1.489a4.248,4.248,0,0,1,.705.039v-.314h-.078a.634.634,0,0,1-.666-.393c-.078-.157-.118-.314-.2-.511l-.2-.55-1.881-5.342c0-.039-.039-.079-.039-.118s-.039-.079-.039-.118-.039-.039-.078-.039-.039,0-.078.039a4.27,4.27,0,0,1-.431.236c-.157.079-.353.157-.509.236a2.951,2.951,0,0,1-.157.628c-.078.236-.157.432-.235.628l-1.646,4.713a1.2,1.2,0,0,1-.353.511.9.9,0,0,1-.549.157h-.078v.314a2.581,2.581,0,0,1,.549-.039A3.161,3.161,0,0,1,160.376,53.469Zm2.077-5.97h0l.98,2.906h-1.92Zm28.017,5.459c-.039.079-.118.118-.157.157a.556.556,0,0,1-.235.079h-.431v.314h5.525c.039-.275.118-.55.157-.825a6.288,6.288,0,0,1,.2-.825l-.274-.079a2.637,2.637,0,0,1-.274.707,1.4,1.4,0,0,1-.431.393,1.639,1.639,0,0,1-.588.157,4.983,4.983,0,0,1-.784.039h-.47a1.39,1.39,0,0,1-.392-.079.7.7,0,0,1-.274-.2.665.665,0,0,1-.118-.393v-2.4h1.254a.842.842,0,0,1,.431.079.666.666,0,0,1,.235.236c.039.118.078.2.118.314a1.475,1.475,0,0,1,.039.432l.313-.079c-.039-.393-.039-.786-.039-1.178s0-.786.039-1.218H194a1.734,1.734,0,0,1-.078.393,1.913,1.913,0,0,1-.118.275,1.039,1.039,0,0,1-.235.2,1.157,1.157,0,0,1-.392.079h-1.215v-2.71h1.411a3.853,3.853,0,0,1,.666.079.625.625,0,0,1,.353.275,1.229,1.229,0,0,1,.2.393c.039.157.039.314.078.471l.313-.079V46.438h-5.212v.314h.431a.556.556,0,0,1,.235.079.392.392,0,0,1,.157.2.741.741,0,0,1,.078.314v5.381C190.509,52.722,190.509,52.84,190.47,52.958ZM163.432,64.9c-.47,0-.666.039-.98.039a5.24,5.24,0,0,1-.784-.039l-.039.2h.118c.313.039.47.079.47.314a3.037,3.037,0,0,1-.078.589l-.549,3.338c-.078.432-.157.511-.47.511h-.157l-.039.2h2.194a2.67,2.67,0,0,0,2.7-2.828,2.165,2.165,0,0,0-.745-1.767A2.107,2.107,0,0,0,163.432,64.9Zm-.392,4.909c-.431,0-.94-.039-.862-.471l.705-4.2c.157,0,.313-.039.47-.039a1.965,1.965,0,0,1,.94.236,1.932,1.932,0,0,1,.9,1.728C165.2,68.59,164.412,69.808,163.04,69.808Zm13.284-.314c-.039,0-.118-.039-.118-.079a1.15,1.15,0,0,1,.078-.353l.509-1.728a1.149,1.149,0,0,0,.078-.353c0-.157-.039-.314-.274-.314-.627,0-1.607,1.218-1.959,1.728h0l.313-1.1a1.4,1.4,0,0,0,.078-.393c0-.157-.078-.236-.314-.236-.588,0-1.567,1.218-1.881,1.728h0l.313-1.1a1.149,1.149,0,0,0,.078-.353c0-.157-.039-.275-.235-.275-.431,0-.9.589-1.136.943l.078.118.2-.236c.118-.118.235-.275.392-.275.078,0,.118.079.118.157a.355.355,0,0,1-.039.2l-.705,2.357c.039.079.118.079.235.079.078,0,.235-.039.235-.079l.118-.432A3.734,3.734,0,0,1,173.307,68c.2-.275.588-.786.94-.786.078,0,.118.079.118.2a1.388,1.388,0,0,1-.118.55l-.588,1.964c0,.039.2.118.235.118a.556.556,0,0,0,.235-.079l.118-.353a5.319,5.319,0,0,1,.666-1.335c.2-.275.823-1.021,1.136-1.021h0a.169.169,0,0,1,.157.157.926.926,0,0,1-.078.314l-.549,1.689a1.149,1.149,0,0,0-.078.353v.079a.22.22,0,0,0,.235.2c.353,0,.666-.314.94-.668l.2-.236-.118-.118C176.794,69.14,176.441,69.493,176.324,69.493ZM164.255,41.136c.862,0,1.724,0,2.586.039l2.586.118V40.154h-.47c-.549-.039-.98-.039-1.411-.079a2.374,2.374,0,0,1-1.019-.314,1.783,1.783,0,0,1-.588-.746A4.283,4.283,0,0,1,165.7,37.6L167,20.948h.078l9.169,20.973h.9l9.679-21.366h.078l1.058,16.025c.039.511.039.9.039,1.139v.707a1.473,1.473,0,0,1-.235.982,1.168,1.168,0,0,1-.666.471,5.121,5.121,0,0,1-1.058.236c-.392.039-.862.079-1.332.079v1.139l3.1-.118c1.019-.039,2.077-.039,3.135-.039.9,0,1.842,0,2.743.039s1.842.079,2.7.118V40.193c-.588-.039-1.058-.039-1.489-.079a3.018,3.018,0,0,1-1.019-.275,1.609,1.609,0,0,1-.627-.628,2.862,2.862,0,0,1-.274-1.139l-1.332-17.439c-.039-.432-.118-.9-.157-1.414a10.006,10.006,0,0,1-.039-1.532,1.256,1.256,0,0,1,.431-.943,2.208,2.208,0,0,1,.94-.511A5.306,5.306,0,0,1,193.957,16a9.912,9.912,0,0,1,1.019-.039h.353V14.821c-.666,0-1.332.039-2,.079s-1.371.079-2,.079c-.666,0-1.332-.039-2-.079s-1.293-.079-1.842-.079l-8.973,19.874-8.856-19.874c-.588,0-1.136.039-1.724.079-.549.039-1.136.079-1.685.079-.784,0-1.567-.039-2.312-.079s-1.528-.079-2.312-.079V15.96h.509a6.434,6.434,0,0,1,1.215.157,2.582,2.582,0,0,1,1.058.471,2.489,2.489,0,0,1,1.019,2.2c0,.746-.039,1.728-.118,2.867-.078,1.178-.2,2.435-.353,3.81l-1.136,10.526c-.078.668-.157,1.3-.235,1.767a3.224,3.224,0,0,1-.47,1.257,2.139,2.139,0,0,1-.98.786,5.378,5.378,0,0,1-1.763.314h-.549v1.139l2.234-.118C162.8,41.1,163.51,41.136,164.255,41.136Zm-3.1,23.723L161,64.78a7.854,7.854,0,0,0-1.724,4.556,4.968,4.968,0,0,0,.509,2.121l.157-.079a9.516,9.516,0,0,1-.235-1.846A9.365,9.365,0,0,1,161.159,64.859Zm175.9-6.127H159.2v.275H337.021v-.275Zm-168.1,8.444c0-.393-.353-.511-.666-.511-.94,0-1.881,1.3-1.881,2.474,0,.511.235.982.823.982a2.1,2.1,0,0,0,1.489-.943l-.078-.118a1.669,1.669,0,0,1-1.136.668h-.078a.55.55,0,0,1-.47-.55,2.42,2.42,0,0,1,.039-.55C167.7,68.511,168.957,68.2,168.957,67.176Zm-.823-.275a.28.28,0,0,1,.274.314h0a1.36,1.36,0,0,1-1.371,1.218C167.115,67.922,167.625,66.9,168.134,66.9Zm4.741-20.345-.549-.157c-.2-.039-.392-.118-.588-.157a5.3,5.3,0,0,0-.784-.079,5.161,5.161,0,0,0-1.528.236,3.585,3.585,0,0,0-1.254.707,3.505,3.505,0,0,0-.862,1.139A3,3,0,0,0,167,49.777a4.171,4.171,0,0,0,.313,1.689,3.3,3.3,0,0,0,.862,1.218,3.209,3.209,0,0,0,1.293.707,5.485,5.485,0,0,0,1.607.236,7.2,7.2,0,0,0,1.293-.118,10.8,10.8,0,0,0,1.058-.314,5.87,5.87,0,0,0,.078-.825,6.118,6.118,0,0,1,.157-.825l-.274-.039a2.458,2.458,0,0,1-.745,1.257,1.952,1.952,0,0,1-1.371.471,2.517,2.517,0,0,1-2.116-1.1,3.112,3.112,0,0,1-.509-1.1,4.6,4.6,0,0,1-.157-1.257,4.422,4.422,0,0,1,.157-1.257,3.793,3.793,0,0,1,.47-.982,2.16,2.16,0,0,1,.784-.668,2.76,2.76,0,0,1,1.1-.236,2.841,2.841,0,0,1,.98.157,1.862,1.862,0,0,1,1.1.982,5.251,5.251,0,0,1,.274.707l.313-.039a6.445,6.445,0,0,1-.078-.864v-.864C173.307,46.674,173.111,46.6,172.876,46.556Zm6,6.6a.5.5,0,0,1-.235.039h-.313v.314a5.24,5.24,0,0,1,.784-.039h1.489a4.249,4.249,0,0,1,.705.039v-.314h-.039a.689.689,0,0,1-.666-.393c-.078-.157-.118-.314-.2-.511l-.2-.55-1.881-5.381c0-.039-.039-.079-.039-.118s-.039-.079-.039-.118-.039-.039-.078-.039-.039,0-.078.039a4.264,4.264,0,0,1-.431.236c-.157.079-.353.157-.509.236a2.951,2.951,0,0,1-.157.628c-.078.236-.157.432-.235.628l-1.646,4.713a1.2,1.2,0,0,1-.353.511.9.9,0,0,1-.549.157h-.078v.314a2.582,2.582,0,0,1,.549-.039h1.176a3.364,3.364,0,0,1,.627.039v-.314h-.392c-.078,0-.157-.039-.274-.039-.078-.039-.118-.079-.2-.118a.3.3,0,0,1-.078-.2,1.15,1.15,0,0,1,.078-.353,3.276,3.276,0,0,0,.157-.471l.313-1.06h2.351l.392,1.218c.039.157.118.314.157.432.039.079.039.2.078.314a.3.3,0,0,1-.078.157A.171.171,0,0,1,178.871,53.155Zm-2.508-2.749.94-2.906h0l.94,2.906Zm-4.624,16.771c0-.393-.353-.511-.666-.511-.94,0-1.881,1.3-1.881,2.474,0,.511.235.982.823.982a2.1,2.1,0,0,0,1.489-.943l-.078-.118a1.669,1.669,0,0,1-1.136.668h-.078a.55.55,0,0,1-.47-.55,2.418,2.418,0,0,1,.039-.55C170.524,68.511,171.739,68.2,171.739,67.176Zm-.784-.275a.28.28,0,0,1,.274.314c0,.786-.784,1.178-1.411,1.218C169.937,67.922,170.446,66.9,170.955,66.9ZM280.673,52.958c-.039.079-.118.118-.157.157a.556.556,0,0,1-.235.079h-.431v.314h2.665a5.52,5.52,0,0,1,.862.039,3.216,3.216,0,0,0,1.489-.236,3.4,3.4,0,0,0,1.215-.786,3.55,3.55,0,0,0,.823-1.178,3.724,3.724,0,0,0,.313-1.453,3.685,3.685,0,0,0-.274-1.453,3.393,3.393,0,0,0-.823-1.139,3.488,3.488,0,0,0-1.293-.707,5.048,5.048,0,0,0-1.685-.275H279.85v.314h.431a.556.556,0,0,1,.235.079.392.392,0,0,1,.157.2.742.742,0,0,1,.078.314V52.6A1.15,1.15,0,0,1,280.673,52.958Zm1.724-6.245h.353a4.036,4.036,0,0,1,1.176.157,2.046,2.046,0,0,1,.98.55,2.57,2.57,0,0,1,.666,1.021,4.112,4.112,0,0,1,.235,1.689,3.639,3.639,0,0,1-.157,1.139,3.353,3.353,0,0,1-.509.982,2.547,2.547,0,0,1-1.959.943,1.9,1.9,0,0,1-.47-.039.444.444,0,0,1-.313-.118.577.577,0,0,1-.2-.236,1.674,1.674,0,0,1-.078-.432V46.792Zm19.553-.157L301.4,46.4c-.2-.039-.392-.118-.588-.157a5.3,5.3,0,0,0-.784-.079,5.162,5.162,0,0,0-1.528.236,3.586,3.586,0,0,0-1.254.707,3.505,3.505,0,0,0-.862,1.139,3,3,0,0,0-.314,1.532,4.171,4.171,0,0,0,.314,1.689,3.3,3.3,0,0,0,.862,1.218,3.208,3.208,0,0,0,1.293.707,5.484,5.484,0,0,0,1.607.236,7.2,7.2,0,0,0,1.293-.118,10.787,10.787,0,0,0,1.058-.314,5.872,5.872,0,0,0,.078-.825,6.106,6.106,0,0,1,.157-.825l-.274-.039a2.458,2.458,0,0,1-.745,1.257,1.952,1.952,0,0,1-1.371.471,2.517,2.517,0,0,1-2.116-1.1,3.115,3.115,0,0,1-.509-1.1,4.609,4.609,0,0,1-.157-1.257,4.425,4.425,0,0,1,.157-1.257,3.793,3.793,0,0,1,.47-.982,2.161,2.161,0,0,1,.784-.668,2.76,2.76,0,0,1,1.1-.236,2.841,2.841,0,0,1,.98.157,1.862,1.862,0,0,1,1.1.982,5.257,5.257,0,0,1,.274.707l.313-.039a6.437,6.437,0,0,1-.078-.864v-.864C302.382,46.674,302.186,46.6,301.951,46.556ZM288.941,52.29a1.673,1.673,0,0,0,.588.786,2.212,2.212,0,0,0,.98.432,7.269,7.269,0,0,0,1.293.157,3.532,3.532,0,0,0,1.1-.157,1.867,1.867,0,0,0,.862-.471,2.388,2.388,0,0,0,.588-.943,4.517,4.517,0,0,0,.235-1.453v-3.3a.847.847,0,0,1,.078-.432.822.822,0,0,1,.157-.236.556.556,0,0,1,.235-.079h.47v-.314h-2.429V46.6h.509a.556.556,0,0,1,.235.079.265.265,0,0,1,.157.236,1.674,1.674,0,0,1,.078.432v3.535a2.474,2.474,0,0,1-.47,1.65,1.829,1.829,0,0,1-1.489.628,2.629,2.629,0,0,1-.94-.157,1.134,1.134,0,0,1-.588-.471,1.457,1.457,0,0,1-.313-.707,2.361,2.361,0,0,1-.078-.9V47.381a.778.778,0,0,1,.078-.432,1.04,1.04,0,0,1,.2-.236.565.565,0,0,1,.274-.079h.431V46.32h-3.213v.314h.431a.556.556,0,0,1,.235.079.265.265,0,0,1,.157.236,1.675,1.675,0,0,1,.078.432v3.731A1.544,1.544,0,0,0,288.941,52.29Zm-14.538.668c-.039.079-.118.118-.157.157a.556.556,0,0,1-.235.079h-.47v.314h5.525c.039-.275.118-.55.157-.825a6.3,6.3,0,0,1,.2-.825l-.274-.079a2.632,2.632,0,0,1-.274.707,1.4,1.4,0,0,1-.431.393,1.639,1.639,0,0,1-.588.157,4.984,4.984,0,0,1-.784.039h-.47a1.39,1.39,0,0,1-.392-.079.7.7,0,0,1-.274-.2.665.665,0,0,1-.117-.393v-2.4h1.254a.842.842,0,0,1,.431.079.666.666,0,0,1,.235.236c.039.118.078.2.118.314a1.476,1.476,0,0,1,.039.432l.313-.079c-.039-.393-.039-.786-.039-1.178s0-.786.039-1.218h-.313a1.729,1.729,0,0,1-.078.393,1.918,1.918,0,0,1-.118.275,1.039,1.039,0,0,1-.235.2,1.157,1.157,0,0,1-.392.079h-1.215v-2.71h1.411a3.852,3.852,0,0,1,.666.079.625.625,0,0,1,.353.275.7.7,0,0,1,.157.393c.039.157.039.314.078.471l.313-.079V46.438h-5.29v.314h.431a.556.556,0,0,1,.235.079.392.392,0,0,1,.157.2.741.741,0,0,1,.078.314v5.381C274.482,52.722,274.443,52.84,274.4,52.958Zm13.636-12.8v1.139l2.038-.118c.666-.039,1.371-.039,2.038-.039.745,0,1.528,0,2.273.039.784.039,1.528.079,2.273.118V40.154h-.392a8.5,8.5,0,0,1-.98-.039,4.016,4.016,0,0,1-.94-.2,1.511,1.511,0,0,1-.666-.432.921.921,0,0,1-.274-.668,3.444,3.444,0,0,1,.274-1.257c.2-.471.353-1.06.588-1.728l1.215-3.967h8.621l1.489,4.4c.2.589.392,1.139.549,1.65a4.982,4.982,0,0,1,.235,1.1.8.8,0,0,1-.235.589,1.808,1.808,0,0,1-.588.353,4.857,4.857,0,0,1-1.489.2h-.431v1.139l2.861-.118c.94-.039,1.881-.039,2.821-.039.9,0,1.8,0,2.665.039l2.586.118V40.154h-.235a2.454,2.454,0,0,1-2.508-1.532c-.235-.589-.509-1.218-.705-1.885-.235-.668-.47-1.335-.666-2L303.479,14.86c-.039-.157-.118-.314-.157-.471a2.226,2.226,0,0,1-.157-.471.355.355,0,0,0-.274-.118.921.921,0,0,0-.314.079,14.538,14.538,0,0,1-1.528.825,11.6,11.6,0,0,1-1.92.786q-.235,1.178-.588,2.357c-.274.864-.549,1.65-.784,2.357l-6.074,17.4a3.627,3.627,0,0,1-1.293,1.846,3.353,3.353,0,0,1-2,.628h-.353Zm11.677-21.091h.078l3.487,10.762H296.19ZM275.736,41.136c.94,0,1.92.039,2.86.079s1.92.079,2.86.079V40.154h-.588c-.47,0-.94,0-1.371-.039a2.755,2.755,0,0,1-1.136-.353,2.042,2.042,0,0,1-.784-.943,4.632,4.632,0,0,1-.274-1.767V16.157h1.1a5.413,5.413,0,0,1,4.35,1.65,6.5,6.5,0,0,1,1.371,4.4,11.659,11.659,0,0,1-.274,2.592,6.576,6.576,0,0,1-.823,2.042,3.841,3.841,0,0,1-1.411,1.335,3.886,3.886,0,0,1-2,.511h-.784v1.139h1.411c.509,0,1.058-.039,1.646-.079a9.021,9.021,0,0,0,2.9-.746,7.9,7.9,0,0,0,2.312-1.61,7.015,7.015,0,0,0,1.528-2.317,7.956,7.956,0,0,0,.549-3.024,8.1,8.1,0,0,0-.666-3.456,6.024,6.024,0,0,0-1.842-2.239,7.45,7.45,0,0,0-2.821-1.178,18,18,0,0,0-3.566-.353c-.862,0-1.763.039-2.665.079-.941.039-1.881.079-2.861.079-.94,0-1.92-.039-2.86-.079s-1.763-.079-2.429-.079V15.96h.47a5.308,5.308,0,0,1,1.136.118,1.7,1.7,0,0,1,.784.432,2,2,0,0,1,.47.9,5.064,5.064,0,0,1,.118,1.532V37.051a5.491,5.491,0,0,1-.235,1.767,1.671,1.671,0,0,1-.549.9,1.575,1.575,0,0,1-.784.353,6.053,6.053,0,0,1-.862.039h-.588v1.139c1.1,0,2.155-.039,3.174-.079C273.659,41.175,274.678,41.136,275.736,41.136Zm32.171,12.018a.5.5,0,0,1-.235.039h-.313v.314a5.239,5.239,0,0,1,.784-.039h1.489a4.249,4.249,0,0,1,.705.039v-.314h-.078a.689.689,0,0,1-.666-.393c-.078-.157-.117-.314-.2-.511l-.2-.55-1.881-5.381c0-.039-.039-.079-.039-.118s-.039-.079-.039-.118-.039-.039-.078-.039-.039,0-.078.039a4.274,4.274,0,0,1-.431.236c-.157.079-.353.157-.509.236a2.944,2.944,0,0,1-.157.628c-.078.236-.157.432-.235.628l-1.646,4.713a1.2,1.2,0,0,1-.353.511.9.9,0,0,1-.549.157h-.039v.314a2.581,2.581,0,0,1,.549-.039h1.176a3.365,3.365,0,0,1,.627.039v-.314h-.392c-.078,0-.157-.039-.235-.039-.078-.039-.118-.079-.2-.118a.3.3,0,0,1-.078-.2,1.146,1.146,0,0,1,.078-.353,3.285,3.285,0,0,0,.157-.471l.314-1.06h2.351l.392,1.178c.039.157.118.314.157.432.039.079.039.2.078.314a.3.3,0,0,1-.078.157A.2.2,0,0,1,307.907,53.155ZM305.4,50.405l.98-2.906h0l.94,2.906Zm22.179-3.26a3.585,3.585,0,0,0-1.254-.707A5.161,5.161,0,0,0,324.8,46.2a3.279,3.279,0,0,0-1.489.314,3.7,3.7,0,0,0-2,2,3.917,3.917,0,0,0-.314,1.492,4.279,4.279,0,0,0,.314,1.532,4,4,0,0,0,.823,1.178,4.017,4.017,0,0,0,2.743,1.021,4.051,4.051,0,0,0,1.528-.275,4.209,4.209,0,0,0,1.254-.786,3.881,3.881,0,0,0,.823-1.257,4.528,4.528,0,0,0,.313-1.61,3.3,3.3,0,0,0-.313-1.492A3.593,3.593,0,0,0,327.577,47.145Zm-.392,3.967a2.822,2.822,0,0,1-.353,1.06,2.266,2.266,0,0,1-.705.786,2.54,2.54,0,0,1-1.215.314,1.8,1.8,0,0,1-1.1-.314,2.266,2.266,0,0,1-.784-.825,3.2,3.2,0,0,1-.47-1.139,5.18,5.18,0,0,1-.157-1.335,4.884,4.884,0,0,1,.118-1.06,3.033,3.033,0,0,1,.392-.982,2.064,2.064,0,0,1,1.842-.982,2.1,2.1,0,0,1,1.1.314,2.5,2.5,0,0,1,.784.786,5.135,5.135,0,0,1,.47,1.06,3.8,3.8,0,0,1,.157,1.139A5.957,5.957,0,0,1,327.186,51.112ZM266.567,46.32h-3.213v.314h.431a.556.556,0,0,1,.235.079c.078.079.157.157.157.236a1.672,1.672,0,0,1,.078.432V52.6a.543.543,0,0,1-.235.432.76.76,0,0,1-.509.118h-.157v.314h.744c.235,0,.47-.039.745-.039a7.225,7.225,0,0,1,.9.039h.9v-.314h-.509a.725.725,0,0,1-.274-.079,1.039,1.039,0,0,1-.2-.236,1.973,1.973,0,0,1-.078-.471v-2.2h.666c.353.589.666,1.178,1.019,1.728s.705,1.1,1.1,1.61h.47c.157,0,.314-.039.47-.039a2.23,2.23,0,0,1,.509.039h.509v-.314a.737.737,0,0,1-.313-.079L269.78,53c-.078-.039-.157-.118-.235-.157a1.71,1.71,0,0,1-.235-.275l-1.763-2.631a2.393,2.393,0,0,0,.549-.275,4.158,4.158,0,0,0,.47-.393,1.507,1.507,0,0,0,.392-1.139,1.794,1.794,0,0,0-.2-.9,1.24,1.24,0,0,0-.549-.55,1.875,1.875,0,0,0-.784-.275A5.389,5.389,0,0,0,266.567,46.32Zm.98,2.631a1.013,1.013,0,0,1-.313.511,1.289,1.289,0,0,1-.509.275,3.851,3.851,0,0,1-.666.079h-.509V46.753l.235-.039h.549a1.4,1.4,0,0,1,1.293,1.492A2.425,2.425,0,0,1,267.546,48.952Zm58.268-7.816c1.685,0,3.331.039,5.016.079s3.331.079,5.016.079c.235-1.06.47-2.16.705-3.221s.47-2.121.666-3.221h-1.1a11.453,11.453,0,0,1-.47,1.375,9.094,9.094,0,0,1-.705,1.375,4.747,4.747,0,0,1-1.489,1.3,5.435,5.435,0,0,1-2.155.746,19.047,19.047,0,0,1-2.586.157c-.823,0-1.646-.039-2.429-.079a4.122,4.122,0,0,1-1.607-.55,1.673,1.673,0,0,1-.666-1.571V18a2.446,2.446,0,0,1,.235-1.178,1.33,1.33,0,0,1,.549-.589,2.845,2.845,0,0,1,.823-.236,8.5,8.5,0,0,1,1.019-.039h.94V14.821c-.94,0-1.92.039-2.861.079s-1.92.079-2.86.079c-1.019,0-2-.039-2.978-.079s-2-.079-2.978-.079V15.96h.549a8.836,8.836,0,0,1,1.019.039,2.849,2.849,0,0,1,.94.275,1.813,1.813,0,0,1,.666.668,1.937,1.937,0,0,1,.235,1.139V37.6a3.284,3.284,0,0,1-.235,1.375,2.163,2.163,0,0,1-.666.786,1.917,1.917,0,0,1-.94.314,8.838,8.838,0,0,1-1.019.039H315.9v1.139c1.685,0,3.331-.039,5.016-.079C322.444,41.175,324.129,41.136,325.814,41.136Zm-6.23,5.774c.039-.079.118-.118.157-.2a.556.556,0,0,1,.235-.079h.431V46.32h-3.1v.314h.431a.556.556,0,0,1,.235.079.392.392,0,0,1,.157.2.742.742,0,0,1,.078.314V52.6a.424.424,0,0,1-.078.314c-.039.079-.118.118-.157.157a.556.556,0,0,1-.235.079h-.431v.314h.705c.274,0,.549-.039.784-.039a5.773,5.773,0,0,1,.823.039h.784v-.314h-.431a.556.556,0,0,1-.235-.079c-.078-.039-.118-.118-.157-.157a.927.927,0,0,1-.078-.314V47.224A.927.927,0,0,1,319.584,46.91Zm-3.762-.039a.661.661,0,0,1,.392.118l.235.236a.928.928,0,0,1,.078.314.978.978,0,0,1,.039.314l.313-.118V46.91c0-.157.039-.275.039-.432l.078-.432-.235-.039a.262.262,0,0,1-.2.275,1.083,1.083,0,0,1-.353.039h-5.486a.352.352,0,0,1-.2-.039.277.277,0,0,1-.235-.236h-.235a6.437,6.437,0,0,1-.078.864c0,.157-.039.275-.039.432-.039.157-.039.275-.078.432h.313a4.09,4.09,0,0,1,.118-.471.6.6,0,0,1,.431-.432,1.9,1.9,0,0,1,.47-.039h1.685v5.5a1.921,1.921,0,0,1-.039.471.634.634,0,0,1-.157.275.355.355,0,0,1-.274.118,1.3,1.3,0,0,1-.392,0h-.2v.314h3.409v-.314h-.2a1.083,1.083,0,0,1-.353-.039.355.355,0,0,1-.274-.118.7.7,0,0,1-.2-.275,1.976,1.976,0,0,1-.078-.471V46.87Zm-96.316,1.964a2.788,2.788,0,0,0-2.743,2.789A1.926,1.926,0,0,0,218.8,53.7a2.835,2.835,0,0,0,2.7-2.789A2,2,0,0,0,219.506,48.834Zm-.745,4.6c-.9,0-1.176-.668-1.176-1.453,0-1.139.549-2.867,1.92-2.867.9,0,1.176.707,1.176,1.453C220.642,51.583,220.093,53.429,218.761,53.429Zm17.006-6.52c.039-.079.118-.118.157-.2a.556.556,0,0,1,.235-.079h.431V46.32h-3.213v.314h.47a.725.725,0,0,1,.274.079.854.854,0,0,1,.2.157.926.926,0,0,1,.078.314v2.278h-3.723V47.224a.424.424,0,0,1,.078-.314.391.391,0,0,1,.2-.157.565.565,0,0,1,.274-.079h.47V46.36h-3.213v.314h.431a.556.556,0,0,1,.235.079.392.392,0,0,1,.157.2.418.418,0,0,1,.039.314v5.42a.424.424,0,0,1-.078.314c-.039.079-.118.118-.157.157a.556.556,0,0,1-.235.079h-.392v.314h.745c.274,0,.549-.039.823-.039a6.627,6.627,0,0,1,.862.039h.784v-.314h-.47a1,1,0,0,1-.274-.079.856.856,0,0,1-.2-.157.926.926,0,0,1-.078-.314V50.13H234.4v2.553a.424.424,0,0,1-.078.314.391.391,0,0,1-.2.157.565.565,0,0,1-.274.079h-.47v.314h.784c.313,0,.588-.039.862-.039a5.774,5.774,0,0,1,.823.039h.745v-.314h-.431a.556.556,0,0,1-.235-.079c-.078-.039-.118-.118-.157-.157a.927.927,0,0,1-.078-.314V47.224A.927.927,0,0,1,235.767,46.91ZM201.6,41.136c.745,0,1.528,0,2.273.039.784.039,1.528.079,2.273.118V40.154h-.431a8.5,8.5,0,0,1-.98-.039,4.015,4.015,0,0,1-.94-.2,1.512,1.512,0,0,1-.666-.432.921.921,0,0,1-.274-.668,3.446,3.446,0,0,1,.274-1.257c.2-.471.353-1.06.588-1.728l1.215-3.967h8.66l1.489,4.4c.2.589.392,1.139.549,1.65a4.984,4.984,0,0,1,.235,1.1.8.8,0,0,1-.235.589,1.808,1.808,0,0,1-.588.353,4.856,4.856,0,0,1-1.489.2h-.431v1.139l2.861-.118c.94-.039,1.881-.039,2.821-.039.9,0,1.8,0,2.665.039l2.586.118V40.154h-.235a2.454,2.454,0,0,1-2.508-1.532c-.235-.589-.509-1.218-.705-1.885-.235-.668-.47-1.335-.666-2L212.962,14.86c-.039-.157-.118-.314-.157-.471a2.216,2.216,0,0,1-.157-.471.355.355,0,0,0-.274-.118.921.921,0,0,0-.313.079,14.549,14.549,0,0,1-1.528.825,11.6,11.6,0,0,1-1.92.786q-.235,1.178-.588,2.357-.411,1.3-.823,2.357l-6.034,17.439a3.627,3.627,0,0,1-1.293,1.846,3.353,3.353,0,0,1-2,.628h-.353v1.139l2.038-.118C200.227,41.1,200.932,41.136,201.6,41.136Zm7.641-22.073h.078L212.8,29.825h-7.093Zm13.519,29.889-.118.432h.94l-1.567,6.4.039.079.627-.2,1.724-6.284h1.136l.118-.432h-1.136l.353-1.414c.157-.589.313-1.3.94-1.3.235,0,.47.236.666.236s.274-.353.274-.511c0-.236-.2-.314-.431-.314a1.689,1.689,0,0,0-1.1.511,5.045,5.045,0,0,0-1.528,2.828h-.94Zm-10.266-1.807a1.2,1.2,0,0,1,.314-.314.752.752,0,0,1,.47-.157V46.36H211.12v.314h.313c.078,0,.118.039.2.039a.2.2,0,0,1,.157.079c.039.039.078.079.078.118a.569.569,0,0,1-.078.275,1.472,1.472,0,0,1-.235.393l-1.293,1.846-1.567-2.2-.118-.157a.3.3,0,0,1-.078-.157.2.2,0,0,1,.157-.2,1.082,1.082,0,0,1,.353-.039h.118V46.36h-3.174v.314h.118a.861.861,0,0,1,.314.039.819.819,0,0,1,.235.157l.235.236a2.178,2.178,0,0,1,.235.314l2.038,2.828v2.2a1.614,1.614,0,0,1-.039.432.634.634,0,0,1-.157.275.355.355,0,0,1-.274.118,1.33,1.33,0,0,1-.392.039h-.2v.353h.9c.313,0,.588-.039.823-.039a5.786,5.786,0,0,1,.784.039h.9v-.314h-.549a.355.355,0,0,1-.274-.118.632.632,0,0,1-.157-.275,1.133,1.133,0,0,1-.039-.511V49.973Zm47.1-7.973a1.813,1.813,0,0,1-.666.668,2.407,2.407,0,0,1-.9.275,8.837,8.837,0,0,1-1.019.039h-.549v1.139c.745,0,1.607-.039,2.625-.079s2-.079,2.939-.079,1.959.039,3.017.079,2.038.079,2.939.079V40.154h-.549a8.837,8.837,0,0,1-1.019-.039,2.407,2.407,0,0,1-.9-.275,1.813,1.813,0,0,1-.666-.668,2.064,2.064,0,0,1-.235-1.178V18.081a2.539,2.539,0,0,1,.235-1.178,1.812,1.812,0,0,1,.666-.668,2.407,2.407,0,0,1,.9-.275,8.837,8.837,0,0,1,1.019-.039h.549V14.782c-.9,0-1.842.039-2.9.079s-2.077.079-3.017.079-1.92-.039-2.939-.079-1.92-.079-2.665-.079v1.139h.549a8.9,8.9,0,0,1,1.019.079,2.408,2.408,0,0,1,.9.275,1.813,1.813,0,0,1,.666.668,1.938,1.938,0,0,1,.235,1.139V37.955A2.132,2.132,0,0,1,259.592,39.172Zm-63.244,7.462h.118a.762.762,0,0,1,.313.039,1.909,1.909,0,0,1,.274.118,1.042,1.042,0,0,1,.2.236,1.15,1.15,0,0,1,.078.353,6.117,6.117,0,0,1-.039.786c-.039.314-.039.668-.078,1.021l-.313,2.867c-.039.2-.039.353-.078.471a1.25,1.25,0,0,1-.118.353,1.706,1.706,0,0,1-.274.236,1.963,1.963,0,0,1-.47.079H195.8v.314a3.16,3.16,0,0,1,.627-.039h1.293a4.25,4.25,0,0,1,.705.039v-.314h-.118a1.205,1.205,0,0,1-.392-.039.725.725,0,0,1-.274-.079.361.361,0,0,1-.157-.236.648.648,0,0,1-.039-.393l.353-4.517h.039l2.508,5.7h.235l2.625-5.813h.039l.274,4.36v.511a.374.374,0,0,1-.078.275.215.215,0,0,1-.2.118c-.078.039-.2.039-.274.079-.118,0-.235.039-.353.039v.314a6.335,6.335,0,0,1,.862-.039h1.607a4.731,4.731,0,0,1,.744.039v-.314a1.205,1.205,0,0,1-.392-.039.725.725,0,0,1-.274-.079c-.078-.039-.118-.118-.157-.157a.742.742,0,0,1-.078-.314l-.392-4.713c0-.118-.039-.236-.039-.393v-.432a.357.357,0,0,1,.118-.275.82.82,0,0,1,.235-.157.861.861,0,0,1,.313-.039h.353v-.314h-2.155l-2.429,5.381-2.429-5.42h-2.194v.393Zm57.837-.275H253.4v.314h.47a.725.725,0,0,1,.274.079.852.852,0,0,1,.2.157.925.925,0,0,1,.078.314v2.239H250.7V47.224a.424.424,0,0,1,.078-.314.391.391,0,0,1,.2-.157.566.566,0,0,1,.274-.079h.47V46.36H248.5v.314h.431a.556.556,0,0,1,.235.079.392.392,0,0,1,.157.2.741.741,0,0,1,.078.314v5.381a.424.424,0,0,1-.078.314c-.039.079-.118.118-.157.157a.556.556,0,0,1-.235.079H248.5v.314h.744c.274,0,.549-.039.823-.039a6.627,6.627,0,0,1,.862.039h.784v-.314h-.47a1,1,0,0,1-.274-.079.855.855,0,0,1-.2-.157.926.926,0,0,1-.078-.314V50.091h3.723v2.553a.424.424,0,0,1-.078.314.391.391,0,0,1-.2.157.565.565,0,0,1-.274.079h-.47v.314h.784c.314,0,.588-.039.862-.039a5.775,5.775,0,0,1,.823.039h.745v-.314h-.431a.556.556,0,0,1-.235-.079c-.078-.039-.118-.118-.157-.157a.927.927,0,0,1-.078-.314v-5.42a.424.424,0,0,1,.078-.314c.039-.079.118-.118.157-.2a.556.556,0,0,1,.235-.079h.431V46.32h-1.567A6.334,6.334,0,0,1,254.184,46.36Zm3.644,6.6c-.039.079-.118.118-.157.157a.556.556,0,0,1-.235.079h-.431v.314h5.525c.039-.275.118-.55.157-.825a6.291,6.291,0,0,1,.2-.825l-.274-.079a2.635,2.635,0,0,1-.274.707,1.4,1.4,0,0,1-.431.393,1.639,1.639,0,0,1-.588.157,4.982,4.982,0,0,1-.784.039h-.47A1.39,1.39,0,0,1,259.67,53a.7.7,0,0,1-.274-.2.664.664,0,0,1-.118-.393v-2.4h1.254a.842.842,0,0,1,.431.079.666.666,0,0,1,.235.236c.039.118.078.2.117.314a1.476,1.476,0,0,1,.039.432l.314-.079c-.039-.393-.039-.786-.039-1.178s0-.786.039-1.218h-.314a1.732,1.732,0,0,1-.078.393,1.921,1.921,0,0,1-.118.275,1.038,1.038,0,0,1-.235.2,1.157,1.157,0,0,1-.392.079h-1.215v-2.71h1.411a3.852,3.852,0,0,1,.666.079.625.625,0,0,1,.353.275.7.7,0,0,1,.157.393c.039.157.039.314.078.471l.313-.079V46.438h-5.212v.314h.431a.556.556,0,0,1,.235.079.392.392,0,0,1,.157.2.418.418,0,0,1,.039.314v5.42C257.907,52.762,257.868,52.84,257.828,52.958Zm-20.024,0c-.039.079-.118.118-.157.157a.556.556,0,0,1-.235.079h-.431v.314h.705c.274,0,.549-.039.784-.039a5.774,5.774,0,0,1,.823.039h.784v-.314h-.431a.556.556,0,0,1-.235-.079c-.078-.039-.118-.118-.157-.157a.926.926,0,0,1-.078-.314v-5.42a.424.424,0,0,1,.078-.314c.039-.079.118-.118.157-.2a.556.556,0,0,1,.235-.079h.431V46.32h-3.1v.314h.431a.556.556,0,0,1,.235.079.392.392,0,0,1,.157.2.741.741,0,0,1,.078.314V52.6A1.148,1.148,0,0,1,237.8,52.958Zm10.071-2.121h.118v-.314a4.249,4.249,0,0,1-.705.039H245.8a5.507,5.507,0,0,1-.784-.039v.314h.392a.556.556,0,0,1,.235.079.688.688,0,0,1,.2.157.569.569,0,0,1,.078.275v1.689a1.4,1.4,0,0,1-.431.157,4.249,4.249,0,0,1-.705.039,2.383,2.383,0,0,1-1.254-.314,2.473,2.473,0,0,1-.862-.825,4.232,4.232,0,0,1-.509-1.139A4.607,4.607,0,0,1,242,49.7a4.332,4.332,0,0,1,.157-1.218,2.93,2.93,0,0,1,.509-.982,2.835,2.835,0,0,1,.862-.668,3.2,3.2,0,0,1,2.743.157,1.969,1.969,0,0,1,.862,1.335h.274a1.975,1.975,0,0,1-.078-.471c0-.157-.039-.353-.039-.471V46.6a3.018,3.018,0,0,1-.588-.079l-.588-.118c-.2-.039-.431-.079-.666-.118a2.9,2.9,0,0,0-.823-.039,5.161,5.161,0,0,0-1.528.236,4.353,4.353,0,0,0-1.332.707,3.749,3.749,0,0,0-.94,1.139,3.55,3.55,0,0,0-.353,1.571,3.988,3.988,0,0,0,.313,1.65,3.487,3.487,0,0,0,2.155,1.964,4.432,4.432,0,0,0,1.607.236,9.512,9.512,0,0,0,1.489-.118c.47-.079.9-.2,1.371-.314v-.2L247.17,53V51.426C247.327,50.994,247.523,50.837,247.875,50.837Zm-21.16-34.681a2.938,2.938,0,0,1,1.1.707,3.734,3.734,0,0,1,.784,1.1,3.537,3.537,0,0,1,.313,1.414V35.363A7.227,7.227,0,0,1,228.2,38.9a2.775,2.775,0,0,1-2.7,1.257h-.549v1.139c.862,0,1.724-.039,2.586-.079s1.724-.079,2.586-.079c.823,0,1.607.039,2.429.079s1.646.079,2.43.079V40.154h-.627a5.316,5.316,0,0,1-1.763-.236,2.127,2.127,0,0,1-1.1-.746,3.277,3.277,0,0,1-.549-1.375,12.412,12.412,0,0,1-.157-2.082V20.084l19.514,21.8h1.45a15.556,15.556,0,0,1-.2-1.846c-.039-.668-.039-1.3-.039-1.964V20.791a8.753,8.753,0,0,1,.313-2.671,4.021,4.021,0,0,1,.784-1.453,1.887,1.887,0,0,1,1.1-.589,6.364,6.364,0,0,1,1.215-.118h.588V14.821c-.784,0-1.567.039-2.312.079-.784.039-1.567.079-2.312.079-.9,0-1.763-.039-2.665-.079s-1.763-.079-2.665-.079V15.96h.823a4.175,4.175,0,0,1,.98.118,2.543,2.543,0,0,1,1.1.511,3,3,0,0,1,.862,1.1,3.861,3.861,0,0,1,.353,1.885V33.831l-.078.079L232.75,14.9c-.588,0-1.136.039-1.685.079s-1.1.079-1.685.079c-.744,0-1.45-.039-2.194-.079-.705-.039-1.45-.079-2.194-.079v1.139h.509A1.909,1.909,0,0,1,226.716,16.157Zm85.972,53.219-.705-4.556-.039-.039a.556.556,0,0,1-.235.079l-2.234,4.477c-.118.275-.274.511-.588.511l-.039.2h1.372l.039-.2h-.2c-.118,0-.274,0-.274-.236a.729.729,0,0,1,.078-.275l.549-1.257h1.528l.2,1.453c.039.314-.274.275-.47.275l-.039.2h1.528l.039-.2C312.844,69.847,312.726,69.69,312.687,69.375ZM310.493,67.8l1.058-2.2h0l.274,2.2ZM281.1,64.387a1.215,1.215,0,0,0-.705.353,3.863,3.863,0,0,0-.98,2h-.588l-.078.314h.588l-1.019,4.6v.039l.392-.118,1.1-4.517h.705l.078-.314h-.705l.235-1.021c.078-.432.2-.9.627-.9.157,0,.314.157.431.157s.2-.236.2-.353A.259.259,0,0,0,281.1,64.387Zm14.969.471-.039.2h.078c.353,0,.549.118.549.471V65.8l-.313,2c-.157,1.06-.274,2-1.411,2h-.118a1.077,1.077,0,0,1-.98-1.1v-.314l.353-2.474c.118-.746.274-.9.588-.9h.157l.039-.2h-1.881l-.039.2h.118c.274,0,.509,0,.509.393,0,.157-.039.314-.039.471l-.313,1.885a7.644,7.644,0,0,0-.078.943,1.347,1.347,0,0,0,1.528,1.335,1.765,1.765,0,0,0,1.293-.471,2.532,2.532,0,0,0,.549-1.492l.274-1.964c.039-.393.078-1.139.588-1.139h.078l.039-.2H296.9A1.546,1.546,0,0,1,296.073,64.859Zm-19.2,1.807a1.978,1.978,0,0,0-1.763,2,1.317,1.317,0,0,0,1.293,1.492,1.906,1.906,0,0,0,1.724-1.964C278.126,67.294,277.617,66.665,276.872,66.665Zm-.47,3.3h0c-.588,0-.745-.471-.745-1.021,0-.825.353-2.042,1.215-2.042.549,0,.745.511.745,1.021C277.617,68.629,277.264,69.965,276.4,69.965Zm14.146-2.789c0-.393-.353-.511-.666-.511-.94,0-1.881,1.3-1.881,2.474,0,.511.235.982.823.982a2.1,2.1,0,0,0,1.489-.943l-.078-.118a1.669,1.669,0,0,1-1.136.668h-.078a.55.55,0,0,1-.47-.55,2.424,2.424,0,0,1,.039-.55C289.333,68.511,290.548,68.2,290.548,67.176Zm-.784-.275a.28.28,0,0,1,.274.314c0,.786-.784,1.178-1.411,1.218C288.745,67.922,289.255,66.9,289.764,66.9Zm-2.7-.236c-.627,0-1.489,1.139-1.763,1.65h0l.9-3.888-.078-.039-.47.118c-.157.039-.313.039-.431.079v.079l.314.236-1.019,4.752c0,.079-.039.157-.039.236s.117.118.235.118c.235,0,.274-.039.274-.118a4.688,4.688,0,0,1,.392-1.257c.2-.393.98-1.532,1.411-1.532.2,0,.274.2.274.432a5.586,5.586,0,0,1-.47,1.807h-.509l-.157.353c0,.039-.039.079-.039.157a.144.144,0,0,0,.157.157c.666,0,1.489-1.964,1.489-2.71C287.53,66.94,287.413,66.665,287.06,66.665Zm-15.4-1.846a1.6,1.6,0,0,0-1.215.668l.118.118a1.22,1.22,0,0,1,.823-.432c.47,0,.705.393.705.9a1.306,1.306,0,0,1-1.254,1.178l-.039.2h.274c.549,0,.823.471.823,1.06,0,.707-.431,1.453-1.136,1.453a.8.8,0,0,1-.784-.589l-.274.079.078.393a1.288,1.288,0,0,0,.98.314,1.775,1.775,0,0,0,1.763-1.728h0a1.119,1.119,0,0,0-.98-1.178h0c.588-.275,1.136-.628,1.136-1.453v-.079A1.117,1.117,0,0,0,271.661,64.819ZM284,65.841h-.509l-.274.9h-.627l-.078.314h.666l-.627,2.2a1.974,1.974,0,0,0-.078.471c0,.2.078.393.274.393.47,0,1.019-.707,1.293-1.06l-.078-.118c-.157.2-.549.668-.823.668-.118,0-.118-.079-.118-.157a.5.5,0,0,1,.039-.236l.588-2.121h.705l.078-.314h-.705Zm-23.55,1.414a1.4,1.4,0,0,0,.078-.393c0-.118-.039-.2-.2-.2-.353,0-.862.628-1.019.943l.078.118c.078-.118.313-.471.47-.471a.084.084,0,0,1,.078.079c0,.079-.039.2-.039.275l-.549,1.885a1.15,1.15,0,0,0-.078.353c0,.157.039.314.235.314.353,0,.823-.668,1.058-.982l-.118-.079c-.078.079-.431.471-.509.471s-.078-.039-.078-.118a.926.926,0,0,1,.078-.314Zm-1.724-1.414h-.509l-.274.9h-.627l-.078.314h.666l-.588,2.2a1.974,1.974,0,0,0-.078.471c0,.2.078.393.274.393.47,0,1.019-.707,1.293-1.06l-.078-.118c-.157.2-.549.668-.823.668-.118,0-.118-.079-.118-.157a.5.5,0,0,1,.039-.236l.588-2.121h.705l.078-.314h-.705Zm4.036.825a1.948,1.948,0,0,0-1.763,2,1.317,1.317,0,0,0,1.293,1.492A1.906,1.906,0,0,0,264.02,68.2C264.02,67.294,263.549,66.665,262.766,66.665Zm-.47,3.3h0c-.588,0-.745-.471-.745-1.021,0-.825.353-2.042,1.215-2.042.549,0,.744.511.744,1.021C263.51,68.629,263.158,69.965,262.3,69.965Zm-1.842-5.027a.306.306,0,0,0-.235.353v.079a.316.316,0,1,0,.627-.079v-.118A.372.372,0,0,0,260.454,64.937Zm6.583,4.556c-.078,0-.118-.079-.118-.157a1.4,1.4,0,0,1,.078-.393l.509-1.61a1.149,1.149,0,0,0,.078-.353c0-.157-.039-.314-.274-.314-.627,0-1.607,1.218-1.92,1.728h0l.353-1.1a1.149,1.149,0,0,0,.078-.353c0-.157-.039-.236-.235-.236-.431,0-.9.589-1.136.943l.078.157.2-.236a.519.519,0,0,1,.392-.236.1.1,0,0,1,.118.118,1.15,1.15,0,0,1-.078.353l-.666,2.16c.039.079.118.079.235.079.078,0,.235-.039.235-.079l.118-.432a3.734,3.734,0,0,1,.823-1.492c.235-.275.588-.786.94-.786h0a.169.169,0,0,1,.157.157,1.149,1.149,0,0,1-.078.353l-.509,1.571a1.976,1.976,0,0,0-.078.471v.039a.2.2,0,0,0,.235.2,1.244,1.244,0,0,0,.9-.668l.235-.314-.118-.079C267.507,69.14,267.194,69.493,267.037,69.493Zm52.077-.314h-.078a.46.46,0,0,0-.353.432.422.422,0,0,0,.078.236c.118.157.235.118.353.2a.145.145,0,0,1,.039.118c0,.55-.47.668-.862.746l.039.157h.039a1.189,1.189,0,0,0,1.215-1.178C319.623,69.533,319.466,69.179,319.114,69.179Zm10.658-2.357a2.151,2.151,0,0,1,1.136,1.846c0,.628-.313,1.3-.94,1.3-.431,0-.627-.2-.823-.589l-.274.118.078.314a1.267,1.267,0,0,0,.98.353,1.663,1.663,0,0,0,1.567-1.807,2.6,2.6,0,0,0-1.254-2.042l.274-.786h1.45l.2-.589h-1.646Zm4.7.353a1.367,1.367,0,0,0-.862.314l-.078.275a.8.8,0,0,1,.588-.236c.549,0,.784.471.784,1.021,0,.589-.274,1.375-.9,1.375s-.784-.746-.784-1.218a3.917,3.917,0,0,1,.47-1.846,3.244,3.244,0,0,1,2.038-1.767l-.039-.157a3.988,3.988,0,0,0-3.017,3.574c0,.825.431,1.61,1.293,1.61a1.629,1.629,0,0,0,1.489-1.728C335.414,67.687,334.983,67.176,334.474,67.176Zm-7.328-2.357a1.629,1.629,0,0,0-1.489,1.728,1.133,1.133,0,0,0,.98,1.257,1.368,1.368,0,0,0,.862-.314l.078-.275a.8.8,0,0,1-.588.236c-.549,0-.784-.471-.784-1.021,0-.589.274-1.375.9-1.375s.784.746.784,1.218a3.917,3.917,0,0,1-.47,1.846,3.244,3.244,0,0,1-2.038,1.767l.039.157a3.988,3.988,0,0,0,3.017-3.574C328.44,65.644,328.009,64.819,327.146,64.819Zm-26.489,3.1-.039.2h.157c.235,0,.549,0,.509.353l-.118.746c-.117.589-.549.707-1.019.707-.98,0-1.567-1.139-1.567-2.2a2.559,2.559,0,0,1,2.194-2.671,1.512,1.512,0,0,1,1.058.432,1.268,1.268,0,0,1,.235.9h.117l.157-1.257-.118-.039a.393.393,0,0,1-.118.039.994.994,0,0,1-.274-.079,3.187,3.187,0,0,0-1.215-.236,2.852,2.852,0,0,0-2.743,2.946A2.212,2.212,0,0,0,300.07,70.2a4.388,4.388,0,0,0,1.567-.393l.157-1.021c.039-.353.118-.628.509-.628h.078l.039-.2c-.235,0-.47.039-.705.039A4.632,4.632,0,0,0,300.657,67.922Zm36.129-3.064a9.512,9.512,0,0,1,.235,1.846,8.992,8.992,0,0,1-1.45,4.674l.157.079a7.854,7.854,0,0,0,1.724-4.556,4.968,4.968,0,0,0-.509-2.121Zm.157-18.5h-2.038v.314h.235a.665.665,0,0,1,.274.039,1.9,1.9,0,0,1,.274.118.611.611,0,0,1,.235.314.787.787,0,0,1,.078.511V51.5h-.039l-4.585-5.145h-2.116v.314h.118a1.142,1.142,0,0,1,.353.079,1.374,1.374,0,0,1,.313.2c.078.079.157.2.235.275a1.165,1.165,0,0,1,.078.393v4.32a2.2,2.2,0,0,1-.2.982.776.776,0,0,1-.745.353h-.157v.314h.705c.235,0,.47-.039.705-.039a3.793,3.793,0,0,1,.666.039h.666v-.314h-.157a.992.992,0,0,1-.47-.079.61.61,0,0,1-.314-.236,1.4,1.4,0,0,1-.157-.353,2.791,2.791,0,0,1-.039-.55V47.813l5.29,5.931h.392a2.246,2.246,0,0,1-.039-.511V48.009a2.18,2.18,0,0,1,.078-.707.816.816,0,0,1,.235-.393.5.5,0,0,1,.274-.157.971.971,0,0,1,.313-.039h.157V46.4A1.14,1.14,0,0,0,336.943,46.36ZM307.162,65.134c-.235,0-.313-.353-1.293-.353a2.769,2.769,0,0,0-2.586,2.906,2.247,2.247,0,0,0,2.194,2.474A1.923,1.923,0,0,0,306.3,70c.157-.079.274-.118.431-.2.078,0,.118.039.2.039l.274-1.257-.157-.039c-.313.825-.744,1.335-1.567,1.335-1.019,0-1.528-.943-1.528-2.239,0-1.218.705-2.671,2.038-2.671a1.214,1.214,0,0,1,.862.353,1.246,1.246,0,0,1,.274.9l.118.039.235-1.3-.078-.039C307.319,65.016,307.241,65.134,307.162,65.134Zm8.777,1.532a2.36,2.36,0,0,0-.744.236,2.535,2.535,0,0,0-1.45,2.239c0,.55.274.982.784.982a2.206,2.206,0,0,0,1.607-1.06l-.078-.157a1.819,1.819,0,0,1-1.176.786.608.608,0,0,1-.627-.668c0-.589.47-1.964,1.136-1.964.2,0,.313.236.549.236h0a.382.382,0,0,0,.314-.393C316.253,66.783,316.1,66.665,315.94,66.665Zm1.332,2.946c-.118,0-.118-.079-.118-.157a.5.5,0,0,1,.039-.236l.588-2.121h.705l.078-.314h-.744l.274-.943h-.509l-.274.9h-.627l-.078.314h.666l-.627,2.2a1.977,1.977,0,0,0-.078.471c0,.2.078.393.274.393.47,0,1.019-.707,1.293-1.06l-.078-.118C317.938,69.14,317.546,69.611,317.272,69.611Zm-60.7-2.946a2.36,2.36,0,0,0-.745.236,2.535,2.535,0,0,0-1.45,2.239c0,.55.274.982.784.982a2.206,2.206,0,0,0,1.607-1.06l-.078-.157a1.819,1.819,0,0,1-1.176.786.608.608,0,0,1-.627-.668c0-.589.47-1.964,1.136-1.964.2,0,.314.236.549.236h0a.382.382,0,0,0,.313-.393C256.888,66.783,256.731,66.665,256.574,66.665Zm66.889,2.946a1.477,1.477,0,0,1,.039-.393l.666-4.36-.078-.039-1.724,1.1.078.157,1.058-.589-.666,4.045c-.039.314-.2.314-.549.314h-.235l-.039.2h2.155l.039-.2h-.274C323.659,69.847,323.463,69.847,323.463,69.611ZM210.689,67.255a1.4,1.4,0,0,0,.078-.393c0-.118-.039-.2-.2-.2-.353,0-.862.628-1.019.943l.078.118c.078-.118.313-.471.47-.471a.084.084,0,0,1,.078.079c0,.079-.039.2-.039.275l-.549,1.885a1.148,1.148,0,0,0-.078.353c0,.157.039.314.235.314.353,0,.823-.668,1.058-.982l-.118-.079c-.078.079-.431.471-.509.471s-.078-.039-.078-.118a.926.926,0,0,1,.078-.314Zm0-2.317a.306.306,0,0,0-.235.353v.079a.316.316,0,1,0,.627-.079v-.118A.372.372,0,0,0,210.689,64.937Zm-4.781-.079H204.38l-.039.2h.078c.353,0,.549.118.549.471V65.8l-.314,2c-.157,1.06-.274,2-1.411,2h-.118a1.078,1.078,0,0,1-.98-1.1v-.314l.353-2.474c.118-.746.274-.9.588-.9h.157l.039-.2H201.4l-.039.2h.118c.274,0,.509,0,.509.393,0,.157-.039.314-.039.471l-.314,1.885a7.644,7.644,0,0,0-.078.943,1.347,1.347,0,0,0,1.528,1.335,1.765,1.765,0,0,0,1.293-.471,2.533,2.533,0,0,0,.549-1.492l.274-1.964c.039-.393.078-1.139.588-1.139h.078Zm2.547,4.635c-.078,0-.118-.079-.118-.157a1.4,1.4,0,0,1,.078-.393l.509-1.61A1.149,1.149,0,0,0,209,66.98c0-.157-.039-.314-.274-.314-.627,0-1.607,1.218-1.92,1.728h0l.313-1.1a1.149,1.149,0,0,0,.078-.353c0-.157-.039-.236-.235-.236-.431,0-.9.589-1.136.943l.118.118.2-.236a.52.52,0,0,1,.392-.236.1.1,0,0,1,.118.118,1.149,1.149,0,0,1-.078.353l-.666,2.16c.039.079.118.079.235.079.078,0,.235-.039.235-.079l.118-.393a3.734,3.734,0,0,1,.823-1.492c.235-.275.588-.786.94-.786h0a.169.169,0,0,1,.157.157,1.149,1.149,0,0,1-.078.353l-.509,1.571a1.976,1.976,0,0,0-.078.471v.039a.2.2,0,0,0,.235.2,1.245,1.245,0,0,0,.9-.668l.235-.314L209,68.983C208.926,69.14,208.651,69.493,208.455,69.493Zm-28.527-2.317c0-.393-.353-.511-.666-.511-.94,0-1.881,1.3-1.881,2.474,0,.511.235.982.823.982a2.1,2.1,0,0,0,1.489-.943l-.078-.118a1.669,1.669,0,0,1-1.136.668H178.4a.55.55,0,0,1-.47-.55,2.42,2.42,0,0,1,.039-.55C178.675,68.511,179.929,68.2,179.929,67.176Zm-.784-.275a.28.28,0,0,1,.274.314c0,.786-.784,1.178-1.411,1.218C178.126,67.922,178.636,66.9,179.145,66.9Zm34.8-.236c-.235,0-.313.236-.313.432v.393a2.229,2.229,0,0,1-.118.707c-.157.511-.784,1.532-1.332,1.532h-.039a.268.268,0,0,1-.274-.275,1.4,1.4,0,0,1,.078-.393l.431-1.689a1.415,1.415,0,0,0,.078-.432c0-.157-.039-.275-.235-.275-.431,0-.823.55-1.1.825l.118.157c.078-.118.353-.393.509-.393.117,0,.117.079.117.2s-.039.236-.039.314l-.392,1.453a1.675,1.675,0,0,0-.078.432v.079a.486.486,0,0,0,.509.471c.47,0,1.019-.55,1.332-.943a4.525,4.525,0,0,0,.98-2.16C214.176,66.862,214.1,66.665,213.941,66.665Zm2.939.511c0-.393-.353-.511-.666-.511-.94,0-1.881,1.3-1.881,2.474,0,.511.235.982.823.982a2.1,2.1,0,0,0,1.489-.943l-.078-.118a1.669,1.669,0,0,1-1.136.668h-.078a.55.55,0,0,1-.47-.55,2.423,2.423,0,0,1,.039-.55C215.626,68.511,216.88,68.2,216.88,67.176Zm-.823-.275a.28.28,0,0,1,.274.314c0,.786-.784,1.178-1.411,1.218C215.038,67.922,215.587,66.9,216.057,66.9Zm-17.124.275c0-.393-.353-.511-.666-.511-.94,0-1.881,1.3-1.881,2.474,0,.511.235.982.823.982a2.1,2.1,0,0,0,1.489-.943l-.078-.118a1.669,1.669,0,0,1-1.136.668h-.078a.55.55,0,0,1-.47-.55,2.42,2.42,0,0,1,.039-.55C197.68,68.511,198.933,68.2,198.933,67.176Zm-.823-.275a.28.28,0,0,1,.274.314c0,.786-.784,1.178-1.411,1.218C197.092,67.922,197.6,66.9,198.111,66.9Zm-14.42-2.474-.078-.039c-.157.039-.313.118-.47.157a1.963,1.963,0,0,1-.47.079l-.039.118.392.236-.313,1.846a.787.787,0,0,0-.509-.157c-.588,0-1.254.707-1.528,1.178a2.58,2.58,0,0,0-.431,1.375c0,.471.157.9.627.9.588,0,1.019-.55,1.411-1.021h0l-.039.157a1.839,1.839,0,0,0-.118.668.22.22,0,0,0,.2.236c.431,0,.862-.628,1.1-.982l-.078-.118c-.118.157-.353.511-.549.511a.1.1,0,0,1-.118-.118.5.5,0,0,1,.039-.236Zm-2.508,5.3h0c-.353,0-.47-.353-.47-.668,0-.668.588-2.082,1.332-2.082.353,0,.47.314.47.668C182.515,68.236,181.888,69.729,181.183,69.729Zm5.878-3.888h-.509l-.274.9h-.627l-.078.314h.666l-.588,2.2a1.975,1.975,0,0,0-.078.471c0,.2.078.393.274.393.47,0,1.019-.707,1.293-1.06l-.078-.118c-.157.2-.549.668-.823.668-.118,0-.118-.079-.118-.157a.5.5,0,0,1,.039-.236l.588-2.121h.705l.078-.314h-.705Zm8.15.825c-.588,0-1.136.589-1.489,1.06h0l.862-3.3-.039-.039c-.118.039-.313.079-.431.118a2.288,2.288,0,0,1-.509.079V64.7l.314.236-.862,3.888a2.658,2.658,0,0,0-.078.55v.118a.738.738,0,0,0,.784.668,2.771,2.771,0,0,0,2.234-2.553C195.955,67.019,195.72,66.665,195.211,66.665Zm-1.371,3.3c-.313,0-.392-.314-.392-.628,0-.825.784-2.357,1.607-2.357.313,0,.392.236.392.511C195.446,68.315,194.623,69.965,193.839,69.965Zm25.431-3.3c-.431,0-1.019,1.3-1.215,1.689h0l.235-1.021c.039-.118.039-.236.078-.393v-.079a.214.214,0,0,0-.274-.2c-.313,0-.823.707-.98.982l.078.118c.118-.157.353-.511.549-.511.078,0,.118.118.118.2a1.672,1.672,0,0,1-.078.432l-.509,2.042V70c0,.079.118.118.235.118s.235,0,.235-.039l.118-.471c.2-.746.666-2.2,1.136-2.2.078,0,.157.039.235.039.2,0,.274-.393.274-.55Q219.447,66.665,219.27,66.665Zm-29.859,0a1.948,1.948,0,0,0-1.763,2,1.317,1.317,0,0,0,1.293,1.492,1.906,1.906,0,0,0,1.724-1.964C190.665,67.294,190.156,66.665,189.412,66.665Zm-.47,3.3h0c-.588,0-.744-.471-.744-1.021,0-.825.353-2.042,1.215-2.042.549,0,.745.511.745,1.021C190.117,68.629,189.764,69.965,188.941,69.965Zm62.069-4.988c-.078,0-.117-.039-.2-.039a1.488,1.488,0,0,0-.705-.118,1.208,1.208,0,0,0-1.215,1.335c0,1.218,1.45,1.807,1.45,2.867a.909.909,0,0,1-.549.825.84.84,0,0,1-1.136-.511,3,3,0,0,1-.118-.825h-.118l-.2,1.571h.157l.235-.236a2.008,2.008,0,0,0,.94.275h.039a1.433,1.433,0,0,0,1.371-1.453c0-1.218-1.528-1.885-1.528-2.906,0-.511.274-.786.705-.786a.765.765,0,0,1,.784.864v.314h.157l.2-1.3h-.118C251.128,64.937,251.089,64.977,251.01,64.977Zm-14.224,4.517c-.078,0-.117-.079-.117-.157a1.4,1.4,0,0,1,.078-.393l.509-1.61a1.149,1.149,0,0,0,.078-.353c0-.157-.039-.314-.274-.314-.627,0-1.607,1.218-1.92,1.728h0l.353-1.1a1.148,1.148,0,0,0,.078-.353c0-.157-.039-.236-.235-.236-.431,0-.9.589-1.136.943l.118.118.2-.236a.52.52,0,0,1,.392-.236.1.1,0,0,1,.118.118,1.149,1.149,0,0,1-.078.353l-.666,2.16c.039.079.118.079.235.079.078,0,.235-.039.235-.079l.118-.393a3.734,3.734,0,0,1,.823-1.492c.235-.275.588-.786.94-.786h0a.169.169,0,0,1,.157.157,1.15,1.15,0,0,1-.078.353l-.509,1.571a1.975,1.975,0,0,0-.078.471v.039a.2.2,0,0,0,.235.2,1.245,1.245,0,0,0,.9-.668l.235-.314-.118-.079C237.256,69.14,236.943,69.493,236.786,69.493Zm7.093-2.317c0-.393-.353-.511-.666-.511-.94,0-1.881,1.3-1.881,2.474,0,.511.235.982.823.982a2.1,2.1,0,0,0,1.489-.943l-.078-.118a1.669,1.669,0,0,1-1.136.668h-.078a.55.55,0,0,1-.47-.55,2.42,2.42,0,0,1,.039-.55C242.625,68.511,243.879,68.2,243.879,67.176Zm-.823-.275a.28.28,0,0,1,.274.314c0,.786-.784,1.178-1.411,1.218C242.037,67.922,242.585,66.9,243.056,66.9Zm-1.8-2.474-.078-.039c-.157.039-.313.118-.47.157a1.962,1.962,0,0,1-.47.079l-.039.118.392.236-.314,1.846a.786.786,0,0,0-.509-.157c-.588,0-1.254.707-1.528,1.178a2.58,2.58,0,0,0-.431,1.375c0,.471.157.9.627.9.588,0,1.019-.55,1.411-1.021h0l-.039.157a1.838,1.838,0,0,0-.118.668.22.22,0,0,0,.2.236c.431,0,.862-.628,1.1-.982l-.078-.118c-.118.157-.353.511-.549.511a.1.1,0,0,1-.118-.118.5.5,0,0,1,.039-.236Zm-2.469,5.3h0c-.353,0-.47-.353-.47-.668,0-.668.588-2.082,1.332-2.082.353,0,.47.314.47.668C240.117,68.236,239.451,69.729,238.785,69.729Zm7.484-3.064c-.431,0-1.019,1.3-1.215,1.689h0l.235-1.021c.039-.118.039-.236.078-.393v-.079a.214.214,0,0,0-.274-.2c-.313,0-.823.707-.98.982l.078.118c.118-.157.353-.511.549-.511.078,0,.118.118.118.2a1.673,1.673,0,0,1-.078.432l-.509,2.042V70c0,.079.117.118.235.118s.235,0,.235-.039l.118-.471c.2-.746.666-2.2,1.136-2.2.078,0,.157.039.235.039.2,0,.274-.393.274-.55Q246.445,66.665,246.269,66.665Zm7.759.511c0-.393-.353-.511-.666-.511-.94,0-1.881,1.3-1.881,2.474,0,.511.235.982.823.982a2.1,2.1,0,0,0,1.489-.943l-.078-.118a1.669,1.669,0,0,1-1.136.668H252.5a.55.55,0,0,1-.47-.55,2.422,2.422,0,0,1,.039-.55C252.773,68.511,254.027,68.2,254.027,67.176Zm-.784-.275a.28.28,0,0,1,.274.314c0,.786-.784,1.178-1.411,1.218C252.225,67.922,252.734,66.9,253.244,66.9Zm-30.055.353a1.4,1.4,0,0,0,.078-.393c0-.118-.039-.2-.2-.2-.353,0-.862.628-1.019.943l.078.118c.078-.118.313-.471.47-.471a.084.084,0,0,1,.078.079c0,.079-.039.2-.039.275l-.549,1.885a1.149,1.149,0,0,0-.078.353c0,.157.039.314.235.314.353,0,.823-.668,1.058-.982l-.118-.079c-.078.079-.431.471-.509.471s-.078-.039-.078-.118a.926.926,0,0,1,.078-.314Zm0-2.317a.306.306,0,0,0-.235.353v.079a.316.316,0,1,0,.627-.079v-.118A.372.372,0,0,0,223.189,64.937Zm-2.155,1.728a.683.683,0,0,0-.47.157c-.274.2-.705.511-.705.9a1.089,1.089,0,0,0,.039.353c.2.471,1.136.786,1.136,1.3,0,.275-.392.314-.588.314-.353,0-.784-.157-.823-.589h-.078a1.118,1.118,0,0,0-.157.471c0,.471.509.589.823.589a.986.986,0,0,0,.784-.353,1.316,1.316,0,0,0,.431-.786c0-.746-1.176-.943-1.176-1.532h0a.435.435,0,0,1,.47-.393.684.684,0,0,1,.549.275c.039.039.039.118.078.118h.078c.078,0,.118-.236.118-.314C221.582,66.744,221.308,66.665,221.034,66.665Zm12.147,2.828h0c-.078,0-.118-.039-.078-.118v-.118l.705-2.4c-.078-.079-.157-.236-.314-.236-.117,0-.157.079-.235.236-.235.668-1.45,2.553-1.92,2.553-.039,0-.118-.039-.118-.079v-.118l.588-1.964a1.165,1.165,0,0,0,.078-.393v-.039a.183.183,0,0,0-.235-.2c-.314,0-.666.393-.94.668l-.235.275.118.118c.118-.157.353-.471.549-.471.078,0,.078.039.078.118a.237.237,0,0,1-.039.157l-.588,1.885c-.039.118-.039.2-.078.314a.268.268,0,0,0,.274.275c.627,0,1.724-1.65,2.038-2.121h0l-.392,1.3a1.257,1.257,0,0,0-.118.55v.079a.22.22,0,0,0,.235.2c.431,0,.862-.55,1.136-.9l-.118-.079C233.612,69.14,233.377,69.493,233.181,69.493Zm-8.7.118c-.118,0-.118-.079-.118-.157a.5.5,0,0,1,.039-.236l.588-2.121h.705l.078-.314h-.705l.274-.943h-.509l-.235.9h-.666l-.078.314h.666l-.588,2.2a1.975,1.975,0,0,0-.078.471c0,.2.078.393.274.393.47,0,1.019-.707,1.293-1.06l-.078-.118C225.148,69.14,224.756,69.611,224.482,69.611Zm3.958-2.946c-.2,0-.314.236-.314.432s.078.314.078.589a5.151,5.151,0,0,1-.705,1.964c-.118-.707-.118-3.024-1.058-3.024-.549,0-.705.628-.705,1.1l.157.118.039-.039a.67.67,0,0,1-.039-.275V67.49a.337.337,0,0,1,.314-.314c.431,0,.666,1.3.784,2.16l.039.628v.393l-.353.471a.762.762,0,0,1-.549.353c-.118,0-.2-.039-.274-.039-.157,0-.235.157-.235.314h0a.3.3,0,0,0,.274.314c.509,0,.98-.746,1.254-1.139a9.916,9.916,0,0,0,1.528-3.5C228.675,66.862,228.636,66.665,228.44,66.665Z" transform="translate(-96.787 -7.481)" fill="#fff" fill-rule="evenodd"/>
      <path id="Path_8417" data-name="Path 8417" d="M53.6,26.763c-.709.632-1.733.671-2.284,1.5.079-1.539,2.205-1.3,2.442-2.645-.63,1.184-2.324,1.105-2.481,2.092a9.99,9.99,0,0,1-.591,2.605.781.781,0,0,0-.512.237,6.958,6.958,0,0,0,.394-1.184c-.354-1.737-2.127-2.763-2.875-4.7.63,1.934,2.166,3,2.284,3.987-.669-1.3-2.717-1.974-2.52-5.408.985,2.447,2.954,1.855,3.19,4.421-.551-.75-2.127-2.211-2.678-2.961.945,1.618,2.284,2.487,2.835,3.829a6.115,6.115,0,0,0,.158-1.224c0-.987,2.717-1.066,2.8-2.329-.354.789-1.575.947-2.245,1.421a1.532,1.532,0,0,1,1.339-1.5c.669-.039.866-.355.945-.75C53.993,24.947,54.308,26.171,53.6,26.763Zm-.551-3.474c-.473.434-1.457.632-1.772,1.3-.236-1.026,1.654-1.066,1.772-2.211-.709,1.105-2.166,1.145-1.969,2.013a13.449,13.449,0,0,1,.236,1.816.774.774,0,0,0-.354.355s-.039-.553-.079-.947a1.5,1.5,0,0,0-.315-.671c-.788-1.026-2.324-1.934-2.914-2.645.394.947,1.89,1.776,2.442,2.526-1.024-.987-2.717-.908-3.151-4.145,0,0,.433.987,1.181,1.184a3.083,3.083,0,0,1,2.284,1.855,17.71,17.71,0,0,1-2.757-1.855c.748,1.066,2.639,1.895,3.111,2.684a2.13,2.13,0,0,1-.039-.316c-.079-.474.276-.829,1.3-1.263s.985-1.066.985-1.066c-.354,1.026-1.457.711-2.087,1.461.079-1.066.906-1.263,1.5-1.342S52.929,21,52.929,21C53.205,21.829,53.559,22.776,53.047,23.289Zm-2.442-1.461c-.276-.711,1.142-.947,1.457-1.974-.354.789-1.89,1.105-1.654,1.855.079.276.236.829.354,1.224-.236.2-.236.355-.236.355s-.158-.671-.236-.987c-.039-.158-.2-.276-.315-.395-.788-.75-2.127-.987-2.678-1.658.473.868,2.008.987,2.284,1.7-.591-.474-1.3-.434-1.93-.908a3.358,3.358,0,0,1-1.1-1.974c.827.987,2.166.513,3.111,2.013-.748-.632-1.772-.632-2.442-1.184.276.711,1.693.671,2.835,1.618-.236-.789,1.733-1.184,2.008-2.013-.512.75-1.536.711-1.812,1.224a1.265,1.265,0,0,1,1.1-1.184.8.8,0,0,0,.669-.789,2.018,2.018,0,0,1,.039,1.895C51.63,21.276,50.8,21.316,50.606,21.829Zm-.788-2.289c0-.75,1.26-.947,1.26-2.132-.394.947-1.693,1.421-1.418,2.132.158.395.315.868.315.868a2.189,2.189,0,0,0-.236.316c-.079-.276-.236-.671-.236-.671-.236-.711-2.284-1.263-2.993-2.053.669.947,1.89,1.184,2.166,1.579-.866-.434-2.363-.355-2.835-2.447,1.142.987,2.205.632,2.954,1.737-.669-.474-1.654-.553-2.284-.947.788.632,2.205.908,2.717,1.421-.236-.632,1.536-1.184,1.733-2.211-.354.908-1.142.789-1.418,1.421a1.282,1.282,0,0,1,.788-1.263.841.841,0,0,0,.512-1.026c.2.276.669,1.342.394,1.895S50.291,18.829,49.818,19.539Zm-.748-1.974c-.079-.592.985-1.3,1.063-2.092-.2.671-.866,1.105-1.142,1.658a.509.509,0,0,0-.039.474c.118.276.315.789.315.789-.118.039-.158.118-.236.237-.079-.276-.315-.868-.315-.868a.692.692,0,0,0-.394-.355,15.443,15.443,0,0,1-2.52-1.342c.709.789,2.284,1.3,2.52,1.658A4.405,4.405,0,0,1,44.9,15.039c1.1.947,2.284.671,3.032,1.7a9.7,9.7,0,0,1-2.087-.947c.788.789,2.087.987,2.757,1.382.315-.632,1.221-1.145,1.457-1.776-.473.671-.985.789-1.378,1.342.158-1.3,1.3-1.224,1.378-2.053a1.623,1.623,0,0,1,.118,1.658C49.779,16.855,49.306,17.013,49.07,17.566ZM48.2,15.434c-.118-.395.748-1.066.906-1.737-.315.711-1.26,1.421-1.024,1.934.079.158.236.513.236.513a.826.826,0,0,0-.158.237c-.118-.237-.315-.711-.315-.711-.748-.908-2.324-1.145-3.19-1.934.512.711,2.087,1.105,2.678,1.658-.788-.592-2.52-.316-3.229-2.408.551.711,2.52.671,3.19,1.737-.827-.513-1.733-.671-2.6-1.145.709.553,2.166.947,3.072,1.579.276-.789,1.181-.987,1.3-1.974-.236.75-.906.829-1.1,1.421-.079-1.105,1.024-1.184,1.024-1.934C49.858,14.092,48.637,14.645,48.2,15.434ZM47.14,13.382c-.079-.395.669-.789.669-1.421-.433.829-1.1,1.145-.827,1.658l.158.316a.559.559,0,0,0-.236.079s-.2-.355-.276-.513c-.827-.75-1.733-.868-2.835-1.579.354.434,1.418.789,1.851,1.145-.394-.316-1.93-.237-2.56-1.934,1.024.75,2.087.513,2.757,1.461a6.581,6.581,0,0,0-1.536-.553c.709.395,1.733.75,2.363,1.184-.079-.474.748-.829,1.024-1.539-.2.355-.906.75-1.024,1.145-.079-.908,1.063-1.184,1.063-1.7C48.479,12.513,47.495,12.671,47.14,13.382Zm-1.26-2.053c-.039-.276.473-.829.591-1.145-.236.434-.945.908-.709,1.342l.2.395a.3.3,0,0,0-.2.079l-.276-.513c-.236-.474-1.654-.868-2.639-1.5.236.316,1.26.671,1.536.987-.236-.237-1.654-.079-2.481-1.816,1.063.671,1.772.474,2.757,1.461-.433-.237-1.1-.434-1.575-.671.473.355,1.772.711,2.363,1.184.2-.553.906-.75,1.1-1.461-.354.632-.748.671-1.024,1.026.2-.868.827-.711.906-1.5C47.258,10.145,46.2,10.855,45.88,11.329Zm-.788-1.776c-.079-.474.473-.553.551-1.026-.079.355-.985.711-.748,1.184l.158.276c-.079-.039-.2-.079-.276-.118,0,0-.039-.079-.2-.355-.236-.434-1.5-.789-2.205-1.184a6.932,6.932,0,0,0,.906.553A3.462,3.462,0,0,1,41.272,7.5c.827.592,2.127.868,2.639,1.263a11.756,11.756,0,0,1-1.142-.355c.63.355,1.733.592,1.969,1.026-.158-.276.945-.829.866-1.342-.2.592-.63.553-.906,1.105.039-.671.748-.711.866-1.3C46.274,8.8,45.289,8.8,45.092,9.553ZM43.871,7.816c-.079-.395.394-.513.433-.908-.079.316-.866.632-.63,1.026l.158.237L43.6,8.053a1.406,1.406,0,0,1-.158-.316c-.236-.395-1.3-.632-1.969-.987a5.042,5.042,0,0,0,.788.434A3.041,3.041,0,0,1,40.485,6c.709.513,1.851.711,2.324,1.066-.158,0-.748-.237-1.024-.276.551.316,1.536.513,1.733.868-.158-.237.788-.711.709-1.184-.158.513-.551.474-.748.947.039-.592.63-.632.748-1.145C44.9,7.145,44.068,7.184,43.871,7.816Zm-1.378,8.566a11.1,11.1,0,0,1,.63,1.934,2.756,2.756,0,0,1-1.654,3.158,7.206,7.206,0,0,1-2.245.553,5.853,5.853,0,0,0-2.166.553,2.3,2.3,0,0,0-1.339,2.092c-.039,1.145-.039,2.289-.039,3.434v4.658a8.556,8.556,0,0,1-.354,2.447,2.044,2.044,0,0,1-.236.513,1.44,1.44,0,0,1-2.481.158,3.612,3.612,0,0,1-.63-1.855c-.079-.947-.158-1.934-.158-2.882-.039-1.934,0-3.908,0-5.842a3.8,3.8,0,0,0-.276-1.618,1.775,1.775,0,0,0-2.166-.987,1.624,1.624,0,0,0-1.024,1.066,4.522,4.522,0,0,0-.276,1.263c-.039,1.776-.039,3.513-.039,5.289,0,.987,0,2.013-.039,3a4.232,4.232,0,0,1-.354,1.7A1.757,1.757,0,0,1,25.6,36.158a1.6,1.6,0,0,1-1.024-.789,3.663,3.663,0,0,1-.473-1.7c-.039-1.461-.039-2.921-.079-4.382,0-1.3-.039-2.605-.079-3.908a5.824,5.824,0,0,0-.158-1.421,1.59,1.59,0,0,0-1.457-1.342,1.7,1.7,0,0,0-1.89,1.066,3.223,3.223,0,0,0-.236,1.224c-.039,1.539-.039,3.079-.079,4.658-.039,1.263-.118,2.566-.236,3.829a3.245,3.245,0,0,1-.433,1.224,1.532,1.532,0,0,1-1.615.789,1.12,1.12,0,0,1-.827-.474,3.282,3.282,0,0,1-.709-1.855c-.039-1.5-.039-3.039-.079-4.539,0-1.224-.039-2.487-.039-3.71V23.013a3.776,3.776,0,0,0-2.166-3.592,3.935,3.935,0,0,1-2.087-3.079,1.511,1.511,0,0,1,.788-1.618,4.2,4.2,0,0,1,1.733-.632,25,25,0,0,1,2.954-.316c5.947-.2,9.727-.2,13.744-.118,1.812.039,3.584.118,5.356.237,1.063.079,2.087.158,3.151.316A3.42,3.42,0,0,1,42.493,16.381ZM30.482,11.763a6.1,6.1,0,0,1-3.5-.947,11.491,11.491,0,0,1-5.238-6.079A4.329,4.329,0,0,1,21.5,2.092,2.547,2.547,0,0,1,24.023,0h.354a6.531,6.531,0,0,1,3.19.947,11.255,11.255,0,0,1,5.2,5.921,5.03,5.03,0,0,1,.315,2.645A2.6,2.6,0,0,1,30.482,11.763ZM11.854,7.224a5.042,5.042,0,0,0,.788-.434c-.669.355-1.733.632-1.969.987a2.538,2.538,0,0,1-.2.276l-.236.118.158-.237c.236-.395-.551-.711-.63-1.026.079.395.551.513.473.908-.2-.632-1.024-.671-.394-1.461.118.513.709.553.748,1.145-.2-.474-.591-.434-.748-.947-.079.434.866.947.709,1.184.236-.355,1.181-.553,1.733-.868-.236.039-.866.276-1.024.276.473-.316,1.575-.553,2.324-1.026A2.9,2.9,0,0,1,11.854,7.224Zm-.433,1.145a11.756,11.756,0,0,1-1.142.355c.512-.395,1.812-.671,2.639-1.263a3.293,3.293,0,0,1-2.008,1.382,6.933,6.933,0,0,0,.906-.553c-.709.434-1.969.75-2.205,1.184-.158.276-.2.355-.2.355-.079.039-.2.079-.276.118l.158-.276c.276-.434-.63-.829-.748-1.184.079.434.63.553.551,1.026-.236-.711-1.181-.75-.512-1.7.158.553.827.632.866,1.3-.236-.513-.669-.513-.906-1.105-.039.513,1.024,1.066.866,1.342C9.688,8.96,10.791,8.724,11.421,8.368Zm-3.859,1.3c.236.671.906.908,1.1,1.461.591-.474,1.851-.829,2.363-1.184-.473.2-1.142.434-1.575.671.985-.987,1.693-.789,2.757-1.461-.827,1.737-2.245,1.579-2.481,1.816.276-.316,1.3-.671,1.536-.987-.945.632-2.4,1.066-2.639,1.5-.079.118-.276.513-.276.513a.3.3,0,0,0-.2-.079l.2-.395c.236-.434-.473-.908-.709-1.342.118.316.63.868.591,1.145-.315-.474-1.378-1.145-.591-2.092.079.789.709.632.906,1.5C8.31,10.342,7.916,10.3,7.561,9.671ZM6.38,11.724c.276.671,1.1,1.026,1.024,1.539.63-.434,1.654-.789,2.363-1.184a7.283,7.283,0,0,0-1.536.553c.709-.987,1.772-.75,2.757-1.461-.63,1.737-2.166,1.658-2.56,1.934.433-.355,1.5-.711,1.851-1.145-1.063.711-2.008.829-2.835,1.579l-.276.513a.422.422,0,0,0-.236-.079l.158-.316c.276-.513-.354-.829-.827-1.658,0,.592.748,1.026.669,1.421-.354-.711-1.339-.829-.669-2.211,0,.513,1.142.789,1.063,1.7C7.286,12.434,6.577,12.079,6.38,11.724Zm-.158,2.842c-.2-.592-.827-.671-1.1-1.421.118.987,1.024,1.224,1.3,1.974.945-.671,2.4-1.026,3.111-1.579-.866.474-1.772.632-2.6,1.145.63-1.066,2.639-1.026,3.19-1.737-.669,2.092-2.442,1.816-3.229,2.408.591-.553,2.166-.947,2.678-1.658-.906.829-2.481,1.026-3.19,1.934,0,0-.236.474-.315.711-.039-.079-.118-.158-.158-.237l.236-.513c.236-.513-.748-1.224-1.024-1.934.158.671,1.024,1.3.906,1.737-.433-.789-1.654-1.342-.748-2.8C5.238,13.382,6.3,13.46,6.222,14.566ZM5.513,16.7c-.394-.553-.906-.671-1.378-1.342.236.632,1.142,1.145,1.457,1.776.63-.395,1.969-.592,2.757-1.382a12.17,12.17,0,0,1-2.087.947c.748-1.026,1.93-.789,3.032-1.7a4.405,4.405,0,0,1-3.426,2.684c.236-.316,1.812-.829,2.52-1.658a15.442,15.442,0,0,1-2.52,1.342.863.863,0,0,0-.394.355s-.236.592-.354.908a.4.4,0,0,0-.2-.237s.2-.513.315-.789a.662.662,0,0,0-.039-.474c-.276-.592-.945-1.026-1.142-1.658.079.789,1.142,1.5,1.063,2.092-.236-.553-.709-.711-1.1-1.263a1.633,1.633,0,0,1,.118-1.658C4.174,15.474,5.317,15.395,5.513,16.7Zm-.945,1.855c-.315-.632-1.063-.513-1.418-1.421.2,1.066,1.93,1.579,1.733,2.211.512-.553,1.93-.789,2.717-1.421-.63.395-1.575.474-2.284.947.788-1.105,1.812-.75,2.954-1.737C7.8,19.224,6.3,19.145,5.435,19.579c.236-.395,1.5-.592,2.166-1.579-.748.75-2.757,1.342-2.993,2.053,0,0-.118.395-.236.671a.614.614,0,0,0-.236-.316s.158-.474.315-.868c.276-.711-1.024-1.184-1.418-2.132,0,1.145,1.3,1.342,1.26,2.132-.473-.711-1.181-.789-1.457-1.342s.2-1.618.394-1.895a.841.841,0,0,0,.512,1.026A1.266,1.266,0,0,1,4.568,18.553Zm-.709,2.211c-.276-.513-1.3-.513-1.812-1.224.276.868,2.245,1.263,2.008,2.013,1.142-.947,2.56-.947,2.835-1.618-.669.553-1.693.553-2.442,1.184.985-1.5,2.324-1.026,3.151-2.013a3.358,3.358,0,0,1-1.1,1.974c-.63.474-1.339.395-1.93.908.276-.671,1.812-.829,2.284-1.7-.591.671-1.89.908-2.678,1.658-.118.118-.276.237-.315.395-.079.276-.236.947-.236.947s0-.158-.236-.355c.118-.395.236-.947.354-1.224.236-.789-1.3-1.105-1.654-1.855.315,1.026,1.772,1.263,1.457,1.974-.158-.513-1.024-.592-1.457-1.145a1.913,1.913,0,0,1,.039-1.895.842.842,0,0,0,.669.789C3.347,19.737,3.859,20.053,3.859,20.763Zm-.63,2.645c-.669-.789-1.772-.434-2.087-1.461,0,0-.039.632.985,1.066s1.378.789,1.3,1.263a1.272,1.272,0,0,0-.039.316c.473-.829,2.363-1.618,3.111-2.684a19.8,19.8,0,0,1-2.757,1.855,3.149,3.149,0,0,1,2.284-1.855c.748-.2,1.181-1.184,1.181-1.184-.473,3.237-2.166,3.158-3.151,4.145.551-.75,2.008-1.579,2.442-2.526-.591.711-2.127,1.618-2.914,2.645a1.33,1.33,0,0,0-.315.671c-.039.395-.079.947-.079.947a.774.774,0,0,0-.354-.355,15.315,15.315,0,0,1,.236-1.816c.2-.868-1.26-.908-1.969-2.013.158,1.145,2.048,1.224,1.772,2.211-.315-.711-1.3-.908-1.772-1.342-.512-.513-.158-1.461.118-2.25,0,0-.039.947.512,1.026C2.324,22.184,3.151,22.342,3.229,23.408Zm-.591,3c-.709-.474-1.89-.632-2.245-1.421.079,1.263,2.757,1.342,2.8,2.329.039.395.079.829.158,1.224C3.9,27.2,5.238,26.329,6.183,24.71c-.551.75-2.127,2.211-2.678,2.961.236-2.526,2.205-1.934,3.19-4.421.236,3.434-1.851,4.105-2.52,5.408.118-.987,1.615-2.053,2.284-3.987-.788,1.934-2.52,2.961-2.875,4.7.118.395.236.789.394,1.184a.693.693,0,0,0-.512-.237,9.642,9.642,0,0,1-.591-2.605c-.158-.947-1.851-.908-2.481-2.092.236,1.342,2.4,1.105,2.442,2.645-.551-.829-1.575-.868-2.284-1.5S.2,24.947.354,24.158c.079.395.276.671.945.75A1.443,1.443,0,0,1,2.639,26.408ZM.827,29.368c.512.039,1.772-.553,2.481,1.184-.866-.474-2.245-.079-2.914-.868.669,1.342,3.466.513,3.978,1.737.394.75.827,1.5.827,1.5.079-2.329,1.457-3,1.575-4.934-.354,1.618-1.654,2.566-1.812,4.224-1.26-3.355,1.5-3.316,1.851-5.645,0,0,.945,2.171.433,3.592-.551,1.461-1.221,1.974-1.339,2.8.158-2.329,1.3-2.447,1.1-4.658-.236,2.132-1.575,2.882-1.3,5.408l.709.947A1.292,1.292,0,0,0,5.75,34.5,17.675,17.675,0,0,1,4.1,31.737C3.584,30.75,1.418,31.3.512,30.079c.788,1.461,2.757.789,3.387,1.855-.669-.316-1.93.2-2.717-.355A3.931,3.931,0,0,1,0,28.658S.315,29.329.827,29.368ZM5.75,34.855c-1.181-.2-2.363.513-3.7-.237,1.3,1.5,3.978-.434,5.277,1.3.354.395.709.829.985,1.105-.118-1.974,1.142-3,.118-5.645.748,2.882-.551,3.908-.433,5.013-1.772-2.605.394-2.724.039-6.434.276.592,1.733,2.605,1.812,3.908.039,1.3-.512,1.895-.788,2.882.039-1.421.788-2.368-.158-4.737.827,2.211-.512,4.421.079,5.763l.906.947a2.674,2.674,0,0,0-.788-.079c-.591-.632-1.378-1.461-2.048-2.25-1.063-1.382-3.781-.276-4.8-1.263.827,1.224,3.151.316,4.411,1.105-.669-.158-1.733.158-2.6.079C2.52,36.2,1.693,35.131,1.221,33.631,2.205,34.816,3.7,33.316,5.75,34.855ZM2.087,52.223,4.135,50.21c.276-.276.158-.434-.079-.671l.118-.118c.2.2.354.395.551.592l.591.592-.118.118c-.236-.237-.354-.355-.669-.079L2.481,52.658c-.276.237-.118.395.079.632l-.118.118c-.2-.2-.354-.395-.512-.553a8.36,8.36,0,0,0-.591-.592l.118-.118C1.654,52.342,1.812,52.5,2.087,52.223ZM4.1,53.763l1.457-1.776c.315-.395.276-.671-.118-.947l.079-.118c.118.118.276.237.394.355a2.166,2.166,0,0,0,.354.276c-.039.434.039,1.145.079,2.132.039.711.079,1.5.118,2.092L7.876,54c.315-.395.354-.592-.118-.987l.079-.118c.2.158.394.355.591.513s.354.276.512.395l-.079.118c-.276-.237-.433-.316-.788.118L5.986,56.6l-.118-.079L5.632,52.1,4.293,53.763c-.512.632-.551.789-.079,1.184l-.079.118-.591-.474-.591-.474L3.032,54C3.426,54.158,3.623,54.316,4.1,53.763Zm3.9,2.921a.967.967,0,0,0,.315,1.184.714.714,0,0,0,1.024-.2.039.039,0,0,1,.039-.039c.551-.908-1.024-1.539-.315-2.684a1.085,1.085,0,0,1,1.615-.316,2.974,2.974,0,0,1,.551.434l-.315.671-.118-.079a.745.745,0,0,0-.276-.947.7.7,0,0,0-.945.2c0,.039-.039.039-.039.079-.551.908,1.1,1.579.394,2.724a1.255,1.255,0,0,1-1.772.276,1.617,1.617,0,0,1-.63-.632l.354-.75Zm2.914,2.171,1.181-2.447c.2-.395.2-.553-.236-.711l.079-.118c.236.118.473.237.669.355.158.079.354.158.591.276.512.276,1.181.868.788,1.658a1.218,1.218,0,0,1-1.615.474,1.917,1.917,0,0,1-.276-.118l.079-.158c.079.039.118.079.2.118.433.237.866-.118,1.024-.513A.932.932,0,0,0,13,56.329a.559.559,0,0,0-.236-.079l-1.418,2.921c-.158.355,0,.474.276.592l-.079.118-.709-.355c-.236-.118-.473-.237-.748-.355l.079-.118C10.554,59.092,10.751,59.21,10.909,58.855Zm3.308,1.5,1.024-2.684c.158-.355-.039-.474-.354-.553l.039-.158a5.733,5.733,0,0,0,.748.276c.236.079.512.2.748.276l-.039.158c-.276-.118-.473-.158-.63.2l-1.024,2.684c-.158.355.039.474.354.553l-.039.158c-.276-.079-.473-.2-.709-.276s-.512-.2-.788-.276l.039-.158C13.9,60.631,14.1,60.71,14.217,60.355Zm2.284.829.748-2.8c.118-.395-.118-.434-.394-.553l.039-.158c.315.079.551.158.827.237a5.375,5.375,0,0,1,.748.2c1.024.276,1.1.947,1.024,1.342a1.1,1.1,0,0,1-1.024.75,12.7,12.7,0,0,0,.63,1.7.827.827,0,0,0,.512.513l-.039.158c-.118-.039-.276-.079-.394-.118l-.473-.118a14.3,14.3,0,0,1-.788-2.171l-.512-.118L17.052,61.3c-.118.395.118.434.394.553l-.039.158c-.276-.079-.512-.158-.748-.237s-.512-.118-.788-.237l.039-.158C16.147,61.5,16.422,61.5,16.5,61.184Zm1.221-1.263a.887.887,0,0,0,1.181-.592.807.807,0,0,0-.669-1.066,1.088,1.088,0,0,0-.354-.039l-.433,1.618A.729.729,0,0,0,17.722,59.921Zm3.347,2.092.354-2.526c.079-.474-.039-.513-.473-.592l.039-.158a11.338,11.338,0,0,0,1.142.158c.551.079,1.1.158,1.615.237l-.118.829h-.118c0-.553-.236-.75-.788-.829l-.669-.079-.236,1.618.748.118c.473.079.512-.276.551-.434h.118c-.039.118-.079.434-.118.632s-.039.434-.079.632H22.92c.079-.553-.118-.553-.551-.632l-.591-.079-.118.947c-.079.632-.079.789.473.868l.354.039a.963.963,0,0,0,1.142-.553l.118.039-.354.829c-.551-.079-1.142-.158-1.693-.237-.433-.079-.827-.118-1.26-.158l.039-.158C20.951,62.684,20.991,62.565,21.069,62.013Zm3.9.671.039-2.763c0-.513-.276-.474-.512-.513V59.25a3.812,3.812,0,0,1,.669.039h.985a2.063,2.063,0,0,1,2.245,2.053c0,.553-.354,1.974-2.4,1.974a5.8,5.8,0,0,1-.827-.039h-.748v-.158C24.771,63.118,24.968,63.079,24.968,62.684Zm1.181.434A1.6,1.6,0,0,0,27.8,61.342a1.718,1.718,0,0,0-1.772-1.855H25.6L25.559,62.6C25.559,63.039,25.874,63.118,26.15,63.118Zm5.4-4.066a7.127,7.127,0,0,1,.748-.118c.433-.079,1.339-.079,1.457.711.079.513-.354.868-.748,1.066h0a1.213,1.213,0,0,1,1.457.829c.118.592-.354,1.145-1.339,1.3-.276.039-.551.079-.788.118-.276.039-.512.079-.748.118v-.158c.276-.039.512-.158.433-.474L31.506,59.6c-.079-.395-.276-.355-.591-.316l-.039-.158c.158-.039.315-.039.473-.079Zm.985,3.2c.039.237.079.474.591.395a.787.787,0,0,0,.748-.947c-.118-.789-.669-.908-1.221-.829l-.354.039Zm-.236-1.5.236-.039c.473-.079.827-.276.709-.987-.118-.671-.512-.671-.945-.592-.079,0-.158.039-.236.039Zm2.087-2.211c.118-.039.512-.158.748-.237s.433-.158.669-.237l.039.158c-.079.039-.315.079-.276.2a.921.921,0,0,0,.276.276l1.1.868.433-1.184a.681.681,0,0,0,.079-.474c-.039-.158-.158-.118-.433-.039l-.039-.158c.236-.039.433-.118.63-.158.158-.039.276-.118.433-.158l.039.158c-.236.079-.276.237-.354.474l-.63,1.737.433,1.421c.118.395.315.316.63.237l.039.158c-.276.079-.512.158-.788.237s-.512.158-.748.237l-.039-.158c.276-.079.512-.158.394-.553L36.625,60l-1.615-1.224c-.236-.2-.236-.158-.591-.079ZM13.941,42.158a1.8,1.8,0,0,0-1.024-.118c-.866-.711-1.851-1.618-2.481-2.211-.945-.908-3.663.395-5.2-.434,1.615,1.184,3.584-.237,5.238.711-1.3-.079-2.835.355-3.584.316C5.08,40.3,3.544,37.737,3.544,37.737c1.536,1.3,1.969.237,3.347.316a4.611,4.611,0,0,1,2.245.75c-.985-.2-2.56.789-4.411-.039,1.615,1.342,4.765-.553,6.025.671.276.276,1.1.987,1.418,1.263-.079-1.421.63-3.118-.079-5.013.354,1.658-.236,2.368-.079,4.421a4,4,0,0,1-.945-3.789c.473-1.618-.039-2.289-.039-2.289,1.418,1.145,2.205,2.25,2.284,3.276a9.25,9.25,0,0,1-.433,2.605c-.118-1.105.354-2.882-.709-4.579.985,1.737.079,4.618.866,6.039Zm4.45,3.276a2.716,2.716,0,0,0-1.26-.158c-.551-.395-2.442-1.816-2.442-1.816-1.378-1.105-3.781.671-5.986-.237,1.851,1.145,4.765-.395,5.671.395-.866-.237-2.757.711-4.214.592-1.181-.079-2.757-1.737-3.5-2.566a3.751,3.751,0,0,0,1.654.671c1.1.079,2.481-1.618,4.726,0-.827-.2-2.639,1.066-4.411.553,1.733,1.066,4.686-1.224,6.222.039.394.316,1.26.947,1.772,1.342-.354-1.5.709-4.145-1.26-6.158,1.181,1.658.866,3.987.827,5.447-.158-.513-1.378-2.092-1.418-3.158-.079-.908.748-1.658-.276-3.118,3.584,2.013,3.269,4.539,2.954,5.8-.2-.553.276-2.8-1.339-4.421,1.339,1.934.748,4.7,1.142,6.079Zm4.332,2.842a8.049,8.049,0,0,0-.945.2s-1.733-1.145-2.245-1.5c-1.693-1.184-5,.2-6.892-.474,1.851.987,4.529-.158,5.75.355-1.1-.079-2.442.711-4.214.592a7.3,7.3,0,0,1-3.544-1.895c1.615.789,2.875-.75,4.608-.632a6.3,6.3,0,0,1,2.363.711c-1.536-.079-3.229.947-5.159.592,2.087.711,5.277-1.263,7.207.079l1.221.829c-.315-1.974.866-4.3-.788-5.645,1.339,1.539.236,3.592.551,5.132,0,0-1.5-1.342-1.418-2.605s.985-2.132.158-3.276a4.6,4.6,0,0,1,2.481,5.724c-.2-.474.2-2.842-.906-4.342,1.063,1.579.158,3.711.827,5.566Zm8.94,1.737c.906-.158,3.032,1.5,5.553-.039-2.875,1.342-5.513-1.066-6.734-.276-.788.474-1.575.987-2.363,1.461-.118.079-.236.118-.354.2,1.812,1.026,3.623,2.013,5.435,3l-.394.711c-1.93-1.066-3.859-2.132-5.75-3.276-1.89,1.105-3.82,2.211-5.789,3.276h0l-.394-.711c1.812-.987,3.623-1.974,5.435-3-.118-.079-.236-.118-.354-.2-.788-.474-1.575-.947-2.363-1.461-1.221-.789-3.82,1.618-6.734.276,2.481,1.539,4.647-.118,5.553.039-2.324,1.461-5.12,1.658-7.679-1.539,3.072,1.658,3.741-1.618,7.089.395-.551-.039-3.269,1.539-5.513.592,1.851,1.145,4.214.158,5.041-.237a3.029,3.029,0,0,1,2.6-.158l2.363,1.421c.236.118.473.276.669.395.236-.118.473-.276.669-.395l2.363-1.421a2.9,2.9,0,0,1,2.6.158c.827.355,3.19,1.342,5.041.237-2.205.908-4.923-.671-5.513-.592,3.347-1.974,3.978,1.263,7.089-.395C36.783,51.671,33.987,51.434,31.663,50.013Zm1.181,5.013Zm2.914-8.171c1.26-.513,3.9.671,5.75-.355-1.89.671-5.2-.711-6.892.474-.551.355-2.245,1.5-2.245,1.5a8.05,8.05,0,0,0-.945-.2l.945-.592c.669-1.855-.236-3.987.827-5.566-1.142,1.461-.709,3.868-.906,4.342a4.6,4.6,0,0,1,2.481-5.724c-.827,1.145.079,2.053.158,3.276.079,1.263-1.418,2.605-1.418,2.605.315-1.579-.788-3.632.551-5.132-1.654,1.382-.512,3.71-.788,5.645L34.5,46.3c1.93-1.342,5.12.671,7.207-.079-1.93.355-3.623-.711-5.159-.592a5.493,5.493,0,0,1,2.363-.711c1.772-.118,2.993,1.382,4.608.632a7.3,7.3,0,0,1-3.544,1.895C38.2,47.605,36.862,46.776,35.759,46.855Zm5.829,9,.079.118c-.276.158-.473.237-.276.592l1.221,2.368c.2.395.354.474,1.1.118.591-.316.709-.553.63-1.105l.118-.039.2.868c-.433.237-.866.434-1.3.671s-.906.474-1.339.711l-.079-.118c.276-.118.433-.276.276-.592l-1.3-2.566c-.2-.355-.394-.276-.669-.118l-.079-.118.709-.355A5.586,5.586,0,0,1,41.587,55.855ZM45.6,57.513l-1.536-2.447c-.236-.355-.394-.237-.669-.079l-.079-.118c.236-.158.473-.276.669-.395a6.411,6.411,0,0,0,.669-.434l.079.118c-.236.158-.433.276-.236.632l1.536,2.447c.236.355.394.237.669.079l.079.118a5.925,5.925,0,0,1-.669.395,7.388,7.388,0,0,0-.709.474l-.079-.118C45.644,57.987,45.841,57.868,45.6,57.513Zm1.851-1.5L45.919,54c-.276-.355-.354-.355-.748-.079l-.079-.118c.315-.237.669-.474.985-.75.394-.316.827-.632,1.221-.947l.512.632-.079.079c-.354-.355-.63-.316-1.142.039l-.551.395.985,1.3.551-.395c.354-.276.354-.355.158-.75l.118-.079c.039.079.236.355.354.513a5.012,5.012,0,0,0,.394.474l-.079.079c-.276-.276-.354-.355-.788-.079l-.551.434.827,1.066c.236.316.433.2.669,0l.079.118c-.236.158-.433.316-.669.474a7.192,7.192,0,0,0-.63.513l-.079-.118C47.81,56.526,47.81,56.447,47.455,56.013Zm2.875-2.329-1.772-1.816c-.315-.355-.394-.276-.748,0l-.118-.118c.276-.276.551-.513.827-.789.394-.395.788-.75,1.181-1.145l.591.632-.079.118a.751.751,0,0,0-1.142.118l-.473.474,1.142,1.184.551-.513a.437.437,0,0,0,0-.671l.079-.079c.079.079.276.316.433.474a4.727,4.727,0,0,0,.473.434l-.079.079c-.394-.395-.512-.276-.827.039l-.433.434.669.711c.433.474.551.553.985.158l.276-.237a.875.875,0,0,0,.236-1.224l.118-.079a5.058,5.058,0,0,0,.433.789c-.394.395-.827.789-1.26,1.184-.315.276-.591.592-.906.908l-.118-.118C50.724,54.2,50.685,54.079,50.33,53.684ZM45.486,42.908c-1.733.513-3.584-.75-4.411-.553,2.245-1.579,3.584.079,4.726,0a3.751,3.751,0,0,0,1.654-.671c-.748.829-2.324,2.487-3.5,2.566-1.418.079-3.347-.829-4.214-.592.906-.789,3.82.711,5.671-.395-2.205.868-4.568-.868-5.986.237,0,0-1.851,1.421-2.442,1.816a2.286,2.286,0,0,0-1.26.158l.985-.711c.394-1.382-.2-4.145,1.142-6.079-1.615,1.579-1.1,3.868-1.339,4.421-.315-1.263-.63-3.75,2.954-5.8-.985,1.461-.2,2.211-.276,3.118-.079,1.026-1.3,2.605-1.418,3.158-.039-1.461-.315-3.75.827-5.447-1.93,1.974-.906,4.658-1.26,6.158.512-.355,1.418-1.026,1.812-1.342C40.8,41.684,43.714,43.973,45.486,42.908Zm3.859-4.066c-1.851.829-3.387-.158-4.411.039a4.611,4.611,0,0,1,2.245-.75c1.378-.079,1.812.947,3.347-.316,0,0-1.536,2.526-3.347,2.684-.748.039-2.284-.395-3.584-.316,1.693-.947,3.623.474,5.238-.711-1.536.829-4.253-.474-5.2.434-.669.592-1.615,1.5-2.481,2.211a1.522,1.522,0,0,0-1.024.118l.827-.671c.748-1.421-.158-4.3.827-6.039-1.063,1.7-.591,3.434-.709,4.579a9.25,9.25,0,0,1-.433-2.605c.079-1.026.866-2.132,2.284-3.276,0,0-.551.671-.039,2.289a4,4,0,0,1-.945,3.789c.2-2.053-.433-2.763-.079-4.421-.669,1.895,0,3.592-.079,5.013.315-.276,1.142-1.026,1.418-1.263C44.58,38.289,47.731,40.184,49.346,38.842Zm.748-2.526a20.009,20.009,0,0,0-2.6-.079c1.26-.789,3.584.118,4.411-1.105-1.024.987-3.741-.118-4.8,1.263a29.028,29.028,0,0,1-2.048,2.25,2.545,2.545,0,0,0-.788.079l.906-.947c.591-1.3-.748-3.553.079-5.763-.945,2.368-.158,3.316-.158,4.737-.276-.987-.866-1.579-.788-2.882s1.5-3.316,1.812-3.908c-.354,3.75,1.812,3.868.039,6.434.079-1.105-1.181-2.132-.433-5.013-.985,2.645.276,3.671.118,5.645.276-.276.63-.711.985-1.105,1.339-1.7,4.017.2,5.277-1.3-1.339.789-2.52.039-3.7.237,2.008-1.579,3.5-.079,4.49-1.263C52.417,35.131,51.59,36.2,50.094,36.316Zm.2-4.3c.63-1.066,2.6-.395,3.387-1.855-.945,1.224-3.072.671-3.623,1.658A19.707,19.707,0,0,1,48.4,34.579a1.292,1.292,0,0,0-.669.158l.669-.947c.276-2.526-1.024-3.276-1.3-5.408-.2,2.211.945,2.329,1.1,4.658-.158-.829-.827-1.342-1.339-2.8-.512-1.421.433-3.592.433-3.592.354,2.329,3.111,2.289,1.851,5.645-.158-1.658-1.5-2.605-1.812-4.224.118,1.934,1.5,2.605,1.575,4.934,0,0,.433-.75.827-1.5.512-1.224,3.308-.395,3.978-1.737-.63.789-2.048.395-2.914.868.709-1.737,1.969-1.145,2.481-1.184s.827-.711.827-.711a4,4,0,0,1-1.181,2.921C52.142,32.25,50.921,31.618,50.291,32.013Z" transform="translate(-0.24 1)" fill="#fff" fill-rule="evenodd"/>
    </g>
  </g>
</svg>
