<?xml version="1.0" encoding="UTF-8"?>
<svg width="218px" height="69px" viewBox="0 0 218 69" version="1.1" xmlns="http://www.w3.org/2000/svg" xmlns:xlink="http://www.w3.org/1999/xlink">
    <!-- Generator: Sketch 62 (91390) - https://sketch.com -->
    <title>bhms_logo_rgb-1</title>
    <desc>Created with Sketch.</desc>
    <defs>
        <polygon id="path-1" points="0.385871658 0.160220339 12.550738 0.160220339 12.550738 8.11627119 0.385871658 8.11627119"></polygon>
        <polygon id="path-3" points="0.429005348 0.839694915 24.7307594 0.839694915 24.7307594 42.8045593 0.429005348 42.8045593"></polygon>
    </defs>
    <g id="Symbols" stroke="none" stroke-width="1" fill="none" fill-rule="evenodd">
        <g id="header" transform="translate(-130.000000, -19.000000)">
            <g id="HEADER-bck">
                <g id="bhms_logo_rgb-1" transform="translate(130.000000, 19.000000)">
                    <path d="M2.68361497,66.0645763 L3.18140107,66.0645763 C3.7911016,66.0645763 4.06855615,65.9756949 4.3460107,65.7102203 C4.61180749,65.4424068 4.72255615,65.131322 4.72255615,64.6202542 C4.72255615,63.5969492 4.2131123,63.0847119 3.19305882,63.0847119 L2.68361497,63.0847119 L2.68361497,66.0645763 Z M2.68361497,62.585339 L3.13826738,62.585339 C3.95780749,62.585339 4.39031016,62.0742712 4.39031016,61.129322 C4.39031016,60.2065932 3.99161497,59.7621864 3.14875936,59.7621864 L2.68361497,59.7621864 L2.68361497,62.585339 Z M0.966427807,65.8435424 L0.966427807,59.9843898 L0.034973262,59.5505085 L0.034973262,59.2055085 L3.71416043,59.2055085 C4.578,59.2055085 5.14340107,59.3505254 5.56424599,59.6616102 C5.97459893,59.9843898 6.20775401,60.4732373 6.20775401,60.9948305 C6.20775401,61.6848305 5.80789305,62.2859492 5.17720856,62.5408983 C4.94405348,62.6414746 4.8006631,62.6859153 4.3460107,62.7631017 C4.77851337,62.7958475 4.93239572,62.8192373 5.18770053,62.8964237 C6.03055615,63.1408475 6.54,63.7864068 6.54,64.6085593 C6.54,65.2307288 6.19609626,65.8435424 5.66450267,66.1651525 C5.12125134,66.4984576 4.54535829,66.6212542 3.52530481,66.6212542 L0.034973262,66.6212542 L0.034973262,66.2762542 L0.966427807,65.8435424 L0.966427807,65.8435424 Z" id="Fill-1" fill="#BB2532"></path>
                    <path d="M11.4339251,66.8212373 L11.4339251,66.1651525 L10.8347166,66.3885254 C10.1037754,66.654 9.78202139,66.7323559 9.43928342,66.7323559 C9.01727273,66.7323559 8.60808556,66.5651186 8.34112299,66.2879492 C8.00887701,65.9429492 7.89812834,65.5979492 7.89812834,64.8085424 L7.89812834,62.0964915 L6.96783957,61.8076271 L6.96783957,61.4626271 L9.61648128,60.9948305 L9.61648128,64.4752373 C9.61648128,65.5874237 9.79367914,65.8201525 10.7018182,65.8201525 C11.0014225,65.8201525 11.1121711,65.8096271 11.4339251,65.7640169 L11.4339251,62.0964915 L10.4919786,61.8076271 L10.4919786,61.4626271 L13.1394545,60.9948305 L13.1394545,65.7102203 L14.0825668,65.9873898 L14.0825668,66.3323898 L11.4339251,66.8212373" id="Fill-2" fill="#2F3C63"></path>
                    <path d="M14.642139,66.3978814 L14.642139,65.0974068 L15.5292941,65.0974068 L16.0608877,66.1207119 C16.1494866,66.1207119 16.2275936,66.1324068 16.3045348,66.1324068 C16.9806845,66.1324068 17.2919465,65.8985085 17.2919465,65.409661 C17.2919465,65.0974068 17.1695401,64.9535593 16.692738,64.6752203 L15.7624492,64.1419322 C14.8531444,63.6191695 14.642139,63.3408305 14.642139,62.6964407 C14.642139,61.7631864 15.4849947,61.0837119 16.6705882,61.0837119 C17.1252406,61.0837119 17.6125348,61.1620678 18.332984,61.3281356 L18.6092727,61.3959661 L18.6092727,62.6075593 L17.7232834,62.6075593 L17.2243316,61.7175763 C17.1135829,61.7070508 17.024984,61.6965254 16.9701925,61.6965254 C16.4817326,61.6965254 16.1611444,61.9526441 16.1611444,62.3303898 C16.1611444,62.5958644 16.2940428,62.7420508 16.7265455,62.9853051 L17.7011337,63.5302881 C18.4775401,63.9536441 18.7759786,64.3641356 18.7759786,65.0202203 C18.7759786,66.0201356 17.8783316,66.7323559 16.5924813,66.7323559 C16.1494866,66.7323559 15.6400428,66.6423051 14.642139,66.3978814" id="Fill-3" fill="#2F3C63"></path>
                    <path d="M20.2250374,59.6276949 C20.2250374,59.1610678 20.5456257,58.928339 21.2101176,58.928339 C21.9084171,58.928339 22.2196791,59.1388475 22.2196791,59.6171695 C22.2196791,60.1071864 21.8979251,60.3176949 21.1996257,60.3176949 C20.5351337,60.3176949 20.2250374,60.0954915 20.2250374,59.6276949 Z M20.3905775,65.8435424 L20.3905775,62.0964915 L19.459123,61.8076271 L19.459123,61.4626271 L22.1077647,60.9948305 L22.1077647,65.8435424 L23.0392193,66.2762542 L23.0392193,66.6212542 L19.459123,66.6212542 L19.459123,66.2762542 L20.3905775,65.8435424 L20.3905775,65.8435424 Z" id="Fill-4" fill="#2F3C63"></path>
                    <path d="M26.0177754,62.0181356 L26.0177754,65.8435424 L26.7265668,66.2762542 L26.7265668,66.6212542 L23.3691337,66.6212542 L23.3691337,66.2762542 L24.3005882,65.8435424 L24.3005882,62.0964915 L23.3691337,61.8076271 L23.3691337,61.4626271 L26.0177754,60.9948305 L26.0177754,61.5959492 C26.2952299,61.5070678 26.5167273,61.4404068 26.6601176,61.3842712 C27.5694225,61.0837119 27.8025775,61.0299153 28.0788663,61.0299153 C28.4892193,61.0299153 28.854107,61.1959831 29.1210695,61.5070678 C29.4533155,61.8965085 29.5419144,62.2064237 29.5419144,62.997 L29.5419144,65.8435424 L30.483861,66.2762542 L30.483861,66.6212542 L27.1707273,66.6212542 L27.1707273,66.2762542 L27.8352193,65.8435424 L27.8352193,63.3408305 C27.8352193,62.2415085 27.6358717,61.9526441 26.871123,61.9526441 C26.5936684,61.9526441 26.4164706,61.962 26.0177754,62.0181356" id="Fill-5" fill="#2F3C63"></path>
                    <path d="M34.3239251,63.1525424 C34.2796257,62.0298305 34.0581283,61.6403898 33.4822353,61.6403898 C32.8282353,61.6403898 32.5729305,62.0964915 32.5507807,63.2963898 L34.3239251,63.1525424 Z M35.9979786,63.8530678 L32.5402888,63.8530678 C32.5402888,65.1652373 33.2385882,65.9312542 34.4241818,65.9312542 C34.7564278,65.9312542 35.144631,65.8762881 35.8312727,65.7429661 L35.9198717,66.2212881 C34.8671765,66.5768136 34.1362353,66.7323559 33.5381925,66.7323559 C31.8979465,66.7323559 30.8335936,65.6646102 30.8335936,64.0308305 C30.8335936,62.2964746 31.9970374,61.0837119 33.6594332,61.0837119 C34.5897219,61.0837119 35.2775294,61.4181864 35.6214332,62.0181356 C35.9093797,62.518678 35.9758289,62.8753729 35.9979786,63.8530678 L35.9979786,63.8530678 Z" id="Fill-6" fill="#2F3C63"></path>
                    <path d="M36.8583209,66.3978814 L36.8583209,65.0974068 L37.7443102,65.0974068 L38.2759037,66.1207119 C38.3656684,66.1207119 38.4437754,66.1324068 38.5207166,66.1324068 C39.1968663,66.1324068 39.5069626,65.8985085 39.5069626,65.409661 C39.5069626,65.0974068 39.3845561,64.9535593 38.907754,64.6752203 L37.9774652,64.1419322 C37.0681604,63.6191695 36.8583209,63.3408305 36.8583209,62.6964407 C36.8583209,61.7631864 37.7000107,61.0837119 38.8856043,61.0837119 C39.3414225,61.0837119 39.8287166,61.1620678 40.5491658,61.3281356 L40.8254545,61.3959661 L40.8254545,62.6075593 L39.9394652,62.6075593 L39.4405134,61.7175763 C39.3297647,61.7070508 39.2411658,61.6965254 39.1852086,61.6965254 C38.6979144,61.6965254 38.3761604,61.9526441 38.3761604,62.3303898 C38.3761604,62.5958644 38.5090588,62.7420508 38.9415615,62.9853051 L39.9173155,63.5302881 C40.6925561,63.9536441 40.9921604,64.3641356 40.9921604,65.0202203 C40.9921604,66.0201356 40.0945134,66.7323559 38.8086631,66.7323559 C38.3656684,66.7323559 37.8562246,66.6423051 36.8583209,66.3978814" id="Fill-7" fill="#2F3C63"></path>
                    <path d="M41.9411016,66.3978814 L41.9411016,65.0974068 L42.8282567,65.0974068 L43.3598503,66.1207119 C43.4484492,66.1207119 43.5265561,66.1324068 43.6034973,66.1324068 C44.2796471,66.1324068 44.5909091,65.8985085 44.5909091,65.409661 C44.5909091,65.0974068 44.4685027,64.9535593 43.9917005,64.6752203 L43.060246,64.1419322 C42.152107,63.6191695 41.9411016,63.3408305 41.9411016,62.6964407 C41.9411016,61.7631864 42.7839572,61.0837119 43.9695508,61.0837119 C44.4242032,61.0837119 44.9114973,61.1620678 45.6319465,61.3281356 L45.9082353,61.3959661 L45.9082353,62.6075593 L45.022246,62.6075593 L44.5232941,61.7175763 C44.4125455,61.7070508 44.3239465,61.6965254 44.2691551,61.6965254 C43.7806952,61.6965254 43.460107,61.9526441 43.460107,62.3303898 C43.460107,62.5958644 43.5930053,62.7420508 44.025508,62.9853051 L45.0000963,63.5302881 C45.7765027,63.9536441 46.0749412,64.3641356 46.0749412,65.0202203 C46.0749412,66.0201356 45.1772941,66.7323559 43.8914439,66.7323559 C43.4484492,66.7323559 42.9390053,66.6423051 41.9411016,66.3978814" id="Fill-8" fill="#2F3C63"></path>
                    <path d="M51.8327059,62.1853729 C52.2652086,61.8637627 52.4983636,61.4181864 52.4983636,60.8848983 C52.4983636,60.372661 52.2547166,60.0954915 51.7884064,60.0954915 C51.323262,60.0954915 51.069123,60.372661 51.069123,60.8848983 C51.069123,61.274339 51.1787059,61.5187627 51.6007166,61.9526441 L51.8327059,62.1853729 Z M50.9572086,63.4741525 C50.669262,63.8530678 50.5690053,64.1524576 50.5690053,64.5430678 C50.5690053,65.4213559 51.1565561,65.9546441 52.0880107,65.9546441 C52.5205134,65.9546441 52.8422674,65.9090339 53.1523636,65.7874068 L50.9572086,63.4741525 Z M52.3316578,62.718661 L54.271508,64.8202373 C54.4813476,64.3968814 54.5373048,64.1641525 54.5373048,63.5419831 L54.5373048,63.1408475 L53.6058503,62.7081356 L53.6058503,62.3631356 L56.576246,62.3631356 L56.576246,62.7081356 L55.6447914,63.1408475 L55.6447914,63.2297288 C55.6447914,63.5969492 55.6121497,63.9092034 55.5457005,64.1980678 C55.4571016,64.6413051 55.2799037,64.9535593 54.8590588,65.4213559 L55.257754,65.8435424 L56.1880428,66.2762542 L56.1880428,66.6212542 L53.939262,66.6212542 L53.617508,66.2762542 C52.9518503,66.5990339 52.387615,66.7323559 51.6671658,66.7323559 C50.0374118,66.7323559 48.9182674,65.9429492 48.9182674,64.7874915 C48.9182674,64.2085932 49.2516791,63.6647797 49.8159144,63.3303051 C50.0595615,63.1969831 50.1376684,63.1525424 50.5142139,62.9853051 L50.3032086,62.7514068 C49.771615,62.1631525 49.5722674,61.7514915 49.5722674,61.2065085 C49.5722674,60.0954915 50.3929733,59.4288814 51.7779144,59.4288814 C52.9856578,59.4288814 53.7177647,59.9949153 53.7177647,60.929339 C53.7177647,61.5187627 53.4403102,62.0181356 52.9297005,62.373661 C52.7420107,62.5069831 52.6534118,62.5514237 52.3316578,62.718661 L52.3316578,62.718661 Z" id="Fill-9" fill="#2F3C63"></path>
                    <polyline id="Fill-10" fill="#2F3C63" points="61.590246 63.0519661 61.590246 65.8435424 62.5205348 66.2762542 62.5205348 66.6212542 58.8856471 66.6212542 58.8856471 66.2762542 59.8171016 65.8435424 59.8171016 59.9843898 58.8856471 59.5505085 58.8856471 59.2055085 62.5205348 59.2055085 62.5205348 59.5505085 61.590246 59.9843898 61.590246 62.4414915 64.5594759 62.4414915 64.5594759 59.9843898 63.6291872 59.5505085 63.6291872 59.2055085 67.2640749 59.2055085 67.2640749 59.5505085 66.3326203 59.9843898 66.3326203 65.8435424 67.2640749 66.2762542 67.2640749 66.6212542 63.6291872 66.6212542 63.6291872 66.2762542 64.5594759 65.8435424 64.5594759 63.0519661 61.590246 63.0519661"></polyline>
                    <path d="M69.5851337,63.8191525 C69.5851337,64.5079831 69.7180321,65.1418475 69.9511872,65.5757288 C70.1610267,65.9651695 70.4279893,66.1207119 70.8593262,66.1207119 C71.6683743,66.1207119 72.1230267,65.3757458 72.1230267,64.0191356 C72.1230267,63.3408305 71.9901283,62.718661 71.7569733,62.2625593 C71.5471337,61.8731186 71.2580214,61.6965254 70.8371765,61.6965254 C70.0281283,61.6965254 69.5851337,62.4414915 69.5851337,63.8191525 Z M67.8236471,64.0425254 C67.8236471,62.2508644 69.0313904,61.0837119 70.9152834,61.0837119 C72.7327273,61.0837119 73.8845134,62.1631525 73.8845134,63.8530678 C73.8845134,65.6201695 72.6546203,66.787322 70.792877,66.787322 C68.9870909,66.787322 67.8236471,65.7102203 67.8236471,64.0425254 L67.8236471,64.0425254 Z" id="Fill-11" fill="#2F3C63"></path>
                    <path d="M75.1552086,61.8076271 L74.3356684,61.8076271 L74.3356684,61.3632203 C75.0444599,61.129322 75.3767059,60.9737797 75.5434118,60.8065424 C75.5982032,60.7504068 75.6984599,60.6170847 75.8313583,60.3843559 C75.942107,60.2065932 76.0307059,60.0510508 76.0971551,59.9165593 C76.1088128,59.8955085 76.1309626,59.8627627 76.1414545,59.8171525 L76.8619037,59.8171525 L76.8619037,61.1398475 L78.5790909,61.1398475 L78.5790909,61.8076271 L76.8619037,61.8076271 L76.8619037,64.9535593 C76.8619037,65.6763051 77.0834011,65.9312542 77.7035936,65.9312542 C77.9588984,65.9312542 78.2142032,65.9090339 78.5569412,65.8435424 L78.6793476,66.3440847 C77.9484064,66.5768136 77.1498503,66.7323559 76.6742139,66.7323559 C75.6203529,66.7323559 75.1552086,66.309 75.1552086,65.343 L75.1552086,61.8076271" id="Fill-12" fill="#2F3C63"></path>
                    <path d="M82.3060749,63.1525424 C82.2606096,62.0298305 82.0391123,61.6403898 81.4632193,61.6403898 C80.8092193,61.6403898 80.5550802,62.0964915 80.5329305,63.2963898 L82.3060749,63.1525424 Z M83.9789626,63.8530678 L80.5212727,63.8530678 C80.5212727,65.1652373 81.2195722,65.9312542 82.4051658,65.9312542 C82.7385775,65.9312542 83.125615,65.8762881 83.8134225,65.7429661 L83.9020214,66.2212881 C82.8481604,66.5768136 82.1172193,66.7323559 81.5191765,66.7323559 C79.8789305,66.7323559 78.8145775,65.6646102 78.8145775,64.0308305 C78.8145775,62.2964746 79.9780214,61.0837119 81.6404171,61.0837119 C82.5718717,61.0837119 83.2585134,61.4181864 83.6024171,62.0181356 C83.8903636,62.518678 83.9568128,62.8753729 83.9789626,63.8530678 L83.9789626,63.8530678 Z" id="Fill-13" fill="#2F3C63"></path>
                    <polyline id="Fill-14" fill="#2F3C63" points="85.4047059 65.8435424 85.4047059 59.8721186 84.4627594 59.5832542 84.4627594 59.2382542 87.1114011 58.7388814 87.1114011 65.8435424 88.0533476 66.2762542 88.0533476 66.6212542 84.4627594 66.6212542 84.4627594 66.2762542 85.4047059 65.8435424"></polyline>
                    <polyline id="Fill-15" fill="#2F3C63" points="95.8512193 64.1080169 97.8225455 59.2055085 100.438545 59.2055085 100.438545 59.5505085 99.5070909 59.9843898 99.5070909 65.8435424 100.438545 66.2762542 100.438545 66.6212542 96.9715294 66.6212542 96.9715294 66.2762542 97.845861 65.8435424 97.845861 61.0743559 95.4956578 66.6773898 95.208877 66.6773898 92.8586738 61.0743559 92.8586738 65.8435424 93.7458289 66.2762542 93.7458289 66.6212542 91.0412299 66.6212542 91.0412299 66.2762542 91.9726845 65.8435424 91.9726845 59.9843898 91.0412299 59.5505085 91.0412299 59.2055085 93.7563209 59.2055085 95.8512193 64.1080169"></polyline>
                    <path d="M104.23431,64.1524576 L104.057112,64.174678 C103.979005,64.1863729 103.85893,64.2085932 103.689893,64.2308136 C102.958952,64.3196949 102.693155,64.5524237 102.693155,65.0763559 C102.693155,65.5979492 102.982267,65.8435424 103.62461,65.8435424 C103.825123,65.8435424 103.968513,65.8318475 104.23431,65.7874068 L104.23431,64.1524576 Z M103.159465,61.6848305 L102.650021,62.6964407 L101.529711,62.6964407 L101.529711,61.5737288 C102.661679,61.2182034 103.337829,61.0837119 103.990663,61.0837119 C104.532749,61.0837119 104.898802,61.1620678 105.232214,61.3281356 C105.741658,61.5842542 105.885048,61.8637627 105.885048,62.518678 L105.885048,65.6646102 C105.896706,65.7312712 105.951497,65.7757119 106.097219,65.8096271 L106.82816,65.9873898 L106.82816,66.3206949 L106.572856,66.3978814 L106.097219,66.5323729 C105.830257,66.6095593 105.664717,66.654 105.598267,66.6773898 C105.452545,66.7101356 105.28584,66.7323559 105.120299,66.7323559 C104.678471,66.7323559 104.477957,66.6095593 104.289102,66.1978983 L103.868257,66.4095763 C103.348321,66.6656949 103.114,66.7323559 102.693155,66.7323559 C101.730225,66.7323559 101.030759,66.1324068 101.030759,65.2868644 C101.030759,64.5875085 101.49707,64.0869661 102.306118,63.9197288 C102.726963,63.8308475 103.62461,63.7185763 104.191176,63.6741356 L104.23431,63.6741356 L104.23431,62.4742373 C104.23431,61.8848136 104.057112,61.6626102 103.591968,61.6626102 C103.469561,61.6626102 103.326171,61.6626102 103.159465,61.6848305 L103.159465,61.6848305 Z" id="Fill-16" fill="#2F3C63"></path>
                    <path d="M109.771743,62.0181356 L109.771743,65.8435424 L110.480535,66.2762542 L110.480535,66.6212542 L107.124267,66.6212542 L107.124267,66.2762542 L108.05339,65.8435424 L108.05339,62.0964915 L107.124267,61.8076271 L107.124267,61.4626271 L109.771743,60.9948305 L109.771743,61.5959492 C110.050364,61.5070678 110.270695,61.4404068 110.414086,61.3842712 C111.32339,61.0837119 111.55538,61.0299153 111.832834,61.0299153 C112.243187,61.0299153 112.609241,61.1959831 112.876203,61.5070678 C113.208449,61.8965085 113.297048,62.2064237 113.297048,62.997 L113.297048,65.8435424 L114.237829,66.2762542 L114.237829,66.6212542 L110.924695,66.6212542 L110.924695,66.2762542 L111.589187,65.8435424 L111.589187,63.3408305 C111.589187,62.2415085 111.388674,61.9526441 110.626257,61.9526441 C110.348802,61.9526441 110.170439,61.962 109.771743,62.0181356" id="Fill-17" fill="#2F3C63"></path>
                    <g id="Group-21" transform="translate(114.245989, 60.813559)">
                        <mask id="mask-2" fill="white">
                            <use xlink:href="#path-1"></use>
                        </mask>
                        <g id="Clip-19"></g>
                        <path d="M3.58942246,3.33889831 L3.41105882,3.36111864 C3.33411765,3.37281356 3.21287701,3.3950339 3.04500535,3.41725424 C2.31406417,3.50613559 2.0471016,3.73886441 2.0471016,4.26279661 C2.0471016,4.78438983 2.3362139,5.02998305 2.97855615,5.02998305 C3.17906952,5.02998305 3.32245989,5.01828814 3.58942246,4.97384746 L3.58942246,3.33889831 Z M2.51457754,0.871271186 L2.00396791,1.88288136 L0.883657754,1.88288136 L0.883657754,0.760169492 C2.01562567,0.404644068 2.6917754,0.270152542 3.3457754,0.270152542 C3.88669519,0.270152542 4.25391444,0.348508475 4.58616043,0.514576271 C5.09677005,0.770694915 5.24016043,1.05020339 5.24016043,1.70511864 L5.24016043,4.85105085 C5.25065241,4.91771186 5.30544385,4.96215254 5.45116578,4.9960678 L6.18210695,5.17383051 L6.18210695,5.50713559 L5.92680214,5.58432203 L5.45116578,5.71881356 C5.18536898,5.796 5.0186631,5.84044068 4.95337968,5.86383051 C4.80765775,5.89657627 4.64095187,5.91879661 4.47424599,5.91879661 C4.03241711,5.91879661 3.83306952,5.796 3.64304813,5.38433898 L3.22220321,5.59601695 C2.70343316,5.85213559 2.4691123,5.91879661 2.0471016,5.91879661 C1.08417112,5.91879661 0.385871658,5.31884746 0.385871658,4.47330508 C0.385871658,3.77394915 0.852181818,3.27340678 1.66006417,3.10616949 C2.08207487,3.01728814 2.97855615,2.90501695 3.54628877,2.86057627 L3.58942246,2.86057627 L3.58942246,1.66067797 C3.58942246,1.07125424 3.41105882,0.849050847 2.94708021,0.849050847 C2.82350802,0.849050847 2.68011765,0.849050847 2.51457754,0.871271186 L2.51457754,0.871271186 Z" id="Fill-18" fill="#2F3C63" mask="url(#mask-2)"></path>
                        <path d="M8.30614973,1.87235593 C8.30614973,2.94010169 8.60458824,3.48508475 9.18048128,3.48508475 C9.75754011,3.48508475 10.0116791,3.14944068 10.0116791,2.37172881 C10.0116791,1.27123729 9.7248984,0.715728814 9.13734759,0.715728814 C8.5824385,0.715728814 8.30614973,1.104 8.30614973,1.87235593 Z M8.01703743,5.91879661 C7.73958289,6.25210169 7.64165775,6.46261017 7.64165775,6.69767797 C7.64165775,7.26371186 8.23853476,7.62976271 9.13734759,7.62976271 C10.1469091,7.62976271 10.9,7.16430508 10.9,6.51874576 C10.9,6.08486441 10.7111444,5.97376271 10.0011872,5.97376271 L8.47285561,5.97376271 C8.19540107,5.97376271 8.16042781,5.97376271 8.01703743,5.91879661 Z M12.550738,0.160220339 L12.550738,1.51683051 L11.0748663,1.05955932 C11.4304278,1.32737288 11.6192834,1.71681356 11.6192834,2.20566102 C11.6192834,3.27340678 10.6540214,3.92832203 9.10354011,3.92832203 C8.97180749,3.92832203 8.91468449,3.92832203 8.77129412,3.91779661 C8.62790374,4.15169492 8.5824385,4.25110169 8.5824385,4.35167797 C8.5824385,4.57271186 8.72816043,4.65223729 9.18048128,4.65223729 L10.6108877,4.65223729 C11.2532299,4.65223729 11.5190267,4.7060339 11.8197968,4.94110169 C12.1182353,5.18552542 12.2732834,5.51883051 12.2732834,5.95271186 C12.2732834,7.25201695 10.8778503,8.18644068 8.938,8.18644068 C7.38635294,8.18644068 6.26604278,7.66484746 6.26604278,6.93040678 C6.26604278,6.49769492 6.69971123,6.141 7.67429947,5.76325424 C7.33039572,5.5749661 7.15203209,5.32937288 7.15203209,5.0510339 C7.15203209,4.7060339 7.58453476,4.27332203 8.36094118,3.82774576 C7.37586096,3.69442373 6.65424599,2.9950678 6.65424599,2.17174576 C6.65424599,1.08294915 7.6964492,0.270152542 9.10354011,0.270152542 C9.76803209,0.270152542 10.266984,0.404644068 10.7426203,0.693508475 L12.550738,0.160220339 L12.550738,0.160220339 Z" id="Fill-20" fill="#2F3C63" mask="url(#mask-2)"></path>
                    </g>
                    <path d="M130.611144,63.1525424 C130.566845,62.0298305 130.344182,61.6403898 129.768289,61.6403898 C129.114289,61.6403898 128.86015,62.0964915 128.836834,63.2963898 L130.611144,63.1525424 Z M132.284032,63.8530678 L128.825176,63.8530678 C128.825176,65.1652373 129.524642,65.9312542 130.711401,65.9312542 C131.043647,65.9312542 131.430684,65.8762881 132.118492,65.7429661 L132.207091,66.2212881 C131.154396,66.5768136 130.421123,66.7323559 129.82308,66.7323559 C128.184,66.7323559 127.119647,65.6646102 127.119647,64.0308305 C127.119647,62.2964746 128.284257,61.0837119 129.945487,61.0837119 C130.876941,61.0837119 131.564749,61.4181864 131.908652,62.0181356 C132.195433,62.518678 132.261882,62.8753729 132.284032,63.8530678 L132.284032,63.8530678 Z" id="Fill-22" fill="#2F3C63"></path>
                    <path d="M135.528385,61.9853898 L135.528385,65.8435424 L136.127594,66.2762542 L136.127594,66.6212542 L132.880909,66.6212542 L132.880909,66.2762542 L133.810032,65.8435424 L133.810032,62.0964915 L132.880909,61.8076271 L132.880909,61.4626271 L135.528385,60.9948305 L135.528385,61.5959492 C135.807005,61.5070678 136.015679,61.4287119 136.15907,61.3842712 C137.035733,61.0837119 137.224588,61.0299153 137.56616,61.0299153 C138.055786,61.0299153 138.37754,61.2065085 138.709786,61.6626102 C140.08307,61.129322 140.415316,61.0392712 140.913102,61.0392712 C141.392235,61.0392712 141.767615,61.2065085 142.056727,61.5292881 C142.366824,61.8848136 142.477572,62.2415085 142.477572,62.9408644 L142.477572,65.8435424 L143.406695,66.2762542 L143.406695,66.6212542 L140.160011,66.6212542 L140.160011,66.2762542 L140.759219,65.8435424 L140.759219,63.208678 C140.759219,62.3303898 140.460781,61.9526441 139.749658,61.9526441 C139.506011,61.9526441 139.352128,61.962 138.864834,62.0298305 C138.984909,62.3970508 138.996567,62.4742373 138.996567,62.9408644 L138.996567,65.8435424 L139.606267,66.2762542 L139.606267,66.6212542 L136.681337,66.6212542 L136.681337,66.2762542 L137.291037,65.8435424 L137.291037,63.2192034 C137.291037,62.2742542 137.013583,61.9526441 136.225519,61.9526441 C136.015679,61.9526441 135.90493,61.9526441 135.528385,61.9853898" id="Fill-23" fill="#2F3C63"></path>
                    <path d="M147.268909,63.1525424 C147.225775,62.0298305 147.001947,61.6403898 146.426053,61.6403898 C145.772053,61.6403898 145.517914,62.0964915 145.494599,63.2963898 L147.268909,63.1525424 Z M148.941797,63.8530678 L145.482941,63.8530678 C145.482941,65.1652373 146.182406,65.9312542 147.369166,65.9312542 C147.701412,65.9312542 148.088449,65.8762881 148.776257,65.7429661 L148.864856,66.2212881 C147.81216,66.5768136 147.080053,66.7323559 146.480845,66.7323559 C144.841765,66.7323559 143.778578,65.6646102 143.778578,64.0308305 C143.778578,62.2964746 144.942021,61.0837119 146.603251,61.0837119 C147.534706,61.0837119 148.222513,61.4181864 148.566417,62.0181356 C148.853198,62.518678 148.919647,62.8753729 148.941797,63.8530678 L148.941797,63.8530678 Z" id="Fill-24" fill="#2F3C63"></path>
                    <path d="M152.183818,62.0181356 L152.183818,65.8435424 L152.89261,66.2762542 L152.89261,66.6212542 L149.536342,66.6212542 L149.536342,66.2762542 L150.465465,65.8435424 L150.465465,62.0964915 L149.536342,61.8076271 L149.536342,61.4626271 L152.183818,60.9948305 L152.183818,61.5959492 C152.462439,61.5070678 152.68277,61.4404068 152.82616,61.3842712 C153.735465,61.0837119 153.967455,61.0299153 154.244909,61.0299153 C154.655262,61.0299153 155.021316,61.1959831 155.288278,61.5070678 C155.620524,61.8965085 155.709123,62.2064237 155.709123,62.997 L155.709123,65.8435424 L156.649904,66.2762542 L156.649904,66.6212542 L153.33677,66.6212542 L153.33677,66.2762542 L154.001262,65.8435424 L154.001262,63.3408305 C154.001262,62.2415085 153.800749,61.9526441 153.038332,61.9526441 C152.760877,61.9526441 152.582513,61.962 152.183818,62.0181356" id="Fill-25" fill="#2F3C63"></path>
                    <path d="M157.610503,61.8076271 L156.788631,61.8076271 L156.788631,61.3632203 C157.498588,61.129322 157.830834,60.9737797 157.99754,60.8065424 C158.052332,60.7504068 158.152588,60.6170847 158.284321,60.3843559 C158.396235,60.2065932 158.484834,60.0510508 158.550118,59.9165593 C158.561775,59.8955085 158.585091,59.8627627 158.595583,59.8171525 L159.316032,59.8171525 L159.316032,61.1398475 L161.034385,61.1398475 L161.034385,61.8076271 L159.316032,61.8076271 L159.316032,64.9535593 C159.316032,65.6763051 159.536364,65.9312542 160.157722,65.9312542 C160.413027,65.9312542 160.668332,65.9090339 161.012235,65.8435424 L161.13231,66.3440847 C160.401369,66.5768136 159.605144,66.7323559 159.127176,66.7323559 C158.074481,66.7323559 157.610503,66.309 157.610503,65.343 L157.610503,61.8076271" id="Fill-26" fill="#2F3C63"></path>
                    <path d="M164.199465,66.2762542 L164.199465,64.4647119 L164.808,64.4647119 L165.383893,65.9651695 C165.749947,66.0201356 165.971444,66.0435254 166.148642,66.0435254 C167.068439,66.0435254 167.56739,65.6646102 167.56739,64.9757797 C167.56739,64.5079831 167.335401,64.1980678 166.693059,63.7747119 L165.618214,63.0519661 C165.329102,62.863678 165.128588,62.7303559 165.039989,62.6636949 C164.853465,62.5303729 164.675102,62.3526102 164.531711,62.1409322 C164.29739,61.828678 164.199465,61.5187627 164.199465,61.1398475 C164.199465,59.9399492 165.285968,59.0944068 166.836449,59.0944068 C167.400684,59.0944068 168.10015,59.2172034 169.051422,59.4838475 L169.051422,61.2509492 L168.444053,61.2509492 L167.876321,59.8066271 C167.534749,59.7504915 167.389027,59.7387966 167.113904,59.7387966 C166.237241,59.7387966 165.79308,60.0510508 165.79308,60.6849153 C165.79308,61.1071017 165.904995,61.2298983 166.704717,61.7737119 L167.767904,62.5069831 C168.38693,62.9186441 168.642235,63.1291525 168.864898,63.3759153 C169.129529,63.6858305 169.275251,64.0974915 169.275251,64.5641186 C169.275251,65.8318475 168.255198,66.6773898 166.736193,66.6773898 C166.337497,66.6773898 166.125326,66.654 165.262652,66.4879322 L164.541037,66.3534407 L164.199465,66.2762542" id="Fill-27" fill="#2F3C63"></path>
                    <path d="M174.975893,61.3842712 L174.975893,62.6964407 L173.936021,62.6964407 L173.413754,61.6626102 C172.371551,61.7737119 171.784,62.5748136 171.784,63.8530678 C171.784,65.209678 172.46015,65.9312542 173.712193,65.9312542 C174.044439,65.9312542 174.244952,65.8985085 174.932759,65.7757119 L175.021358,66.2645593 C173.944182,66.5990339 173.291348,66.7323559 172.715455,66.7323559 C171.13,66.7323559 170.021348,65.6318644 170.021348,64.0635763 C170.021348,62.307 171.320021,61.0837119 173.191091,61.0837119 C173.503519,61.0837119 173.790299,61.1176271 174.067754,61.1737627 C174.156353,61.1959831 174.354535,61.2404237 174.666963,61.3187797 C174.743904,61.3281356 174.84416,61.3515254 174.975893,61.3842712" id="Fill-28" fill="#2F3C63"></path>
                    <path d="M178.038385,62.0076102 L178.038385,65.8435424 L178.76,66.2762542 L178.76,66.6212542 L175.390909,66.6212542 L175.390909,66.2762542 L176.332856,65.8435424 L176.332856,59.8721186 L175.390909,59.5832542 L175.390909,59.2382542 L178.038385,58.7388814 L178.038385,61.5959492 C178.31584,61.4953729 178.525679,61.4287119 178.671401,61.3737458 C179.502599,61.0837119 179.712439,61.0299153 180.033027,61.0299153 C180.44338,61.0299153 180.852567,61.2065085 181.119529,61.4953729 C181.451775,61.8403729 181.574182,62.2415085 181.574182,62.9853051 L181.574182,65.8435424 L182.505636,66.2762542 L182.505636,66.6212542 L179.201829,66.6212542 L179.201829,66.2762542 L179.855829,65.8435424 L179.855829,63.2963898 C179.855829,62.2625593 179.612182,61.9526441 178.826449,61.9526441 C178.525679,61.9526441 178.382289,61.962 178.038385,62.0076102" id="Fill-29" fill="#2F3C63"></path>
                    <path d="M184.616856,63.8191525 C184.616856,64.5079831 184.748588,65.1418475 184.980578,65.5757288 C185.192749,65.9651695 185.458545,66.1207119 185.892214,66.1207119 C186.700096,66.1207119 187.153583,65.3757458 187.153583,64.0191356 C187.153583,63.3408305 187.020684,62.718661 186.788695,62.2625593 C186.576524,61.8731186 186.289743,61.6965254 185.868898,61.6965254 C185.058684,61.6965254 184.616856,62.4414915 184.616856,63.8191525 Z M182.854203,64.0425254 C182.854203,62.2508644 184.060781,61.0837119 185.94584,61.0837119 C187.763283,61.0837119 188.91507,62.1631525 188.91507,63.8530678 C188.91507,65.6201695 187.686342,66.787322 185.823433,66.787322 C184.017647,66.787322 182.854203,65.7102203 182.854203,64.0425254 L182.854203,64.0425254 Z" id="Fill-30" fill="#2F3C63"></path>
                    <path d="M191.339882,63.8191525 C191.339882,64.5079831 191.472781,65.1418475 191.70477,65.5757288 C191.915775,65.9651695 192.182738,66.1207119 192.615241,66.1207119 C193.423123,66.1207119 193.87661,65.3757458 193.87661,64.0191356 C193.87661,63.3408305 193.744877,62.718661 193.512888,62.2625593 C193.300717,61.8731186 193.013936,61.6965254 192.593091,61.6965254 C191.781711,61.6965254 191.339882,62.4414915 191.339882,63.8191525 Z M189.578396,64.0425254 C189.578396,62.2508644 190.784973,61.0837119 192.670032,61.0837119 C194.487476,61.0837119 195.639262,62.1631525 195.639262,63.8530678 C195.639262,65.6201695 194.409369,66.787322 192.547626,66.787322 C190.74184,66.787322 189.578396,65.7102203 189.578396,64.0425254 L189.578396,64.0425254 Z" id="Fill-31" fill="#2F3C63"></path>
                    <polyline id="Fill-32" fill="#2F3C63" points="197.075497 65.8435424 197.075497 59.8721186 196.133551 59.5832542 196.133551 59.2382542 198.781027 58.7388814 198.781027 65.8435424 199.724139 66.2762542 199.724139 66.6212542 196.133551 66.6212542 196.133551 66.2762542 197.075497 65.8435424"></polyline>
                    <polygon id="Fill-33" fill="#2F3C63" points="0 53.2492881 199.339433 53.2492881 199.339433 52.7814915 0 52.7814915"></polygon>
                    <path d="M12.0972513,39.7685593 L14.3716791,39.7685593 C17.1520535,39.7685593 18.415754,39.3849661 19.6806203,38.2318475 C20.8930267,37.0763898 21.3989733,35.7303051 21.3989733,33.5187966 C21.3989733,29.0957797 19.0732513,26.8842712 14.4229733,26.8842712 L12.0972513,26.8842712 L12.0972513,39.7685593 Z M12.0972513,24.7218814 L14.17,24.7218814 C17.9109733,24.7218814 19.8822995,22.5103729 19.8822995,18.423 C19.8822995,14.4338644 18.0625241,12.5100508 14.2201283,12.5100508 L12.0972513,12.5100508 L12.0972513,24.7218814 Z M4.26090909,38.8072373 L4.26090909,13.4725424 L0.0139893048,11.5978475 L0.0139893048,10.1067458 L16.7988235,10.1067458 C20.7414759,10.1067458 23.3201711,10.7312542 25.241369,12.0785085 C27.1112727,13.4725424 28.1732941,15.5869831 28.1732941,17.8464407 C28.1732941,20.8274746 26.3535187,23.4237458 23.4717219,24.5289153 C22.4097005,24.9616271 21.753369,25.1545932 19.6806203,25.4902373 C21.6519465,25.6352542 22.3595722,25.7311525 23.5218503,26.0679661 C27.364246,27.1251864 29.6899679,29.9132542 29.6899679,33.4708475 C29.6899679,36.1641864 28.1231658,38.8072373 25.6960214,40.2012712 C23.2187487,41.6432542 20.5899251,42.1730339 15.9384813,42.1730339 L0.0139893048,42.1730339 L0.0139893048,40.6819322 L4.26090909,38.8072373 L4.26090909,38.8072373 Z" id="Fill-34" fill="#BB2532"></path>
                    <path d="M37.0518396,42.8045593 C35.0933369,42.8045593 33.4845668,41.190661 33.4845668,39.1908305 C33.4845668,37.26 35.0933369,35.6472712 37.0518396,35.6472712 C39.0091765,35.6472712 40.6540856,37.26 40.6540856,39.1908305 C40.6540856,41.190661 39.0091765,42.8045593 37.0518396,42.8045593" id="Fill-35" fill="#BB2532"></path>
                    <polyline id="Fill-36" fill="#2F3C63" points="59.4475508 26.7404237 59.4475508 38.8072373 63.6944706 40.6819322 63.6944706 42.1730339 47.1124813 42.1730339 47.1124813 40.6819322 51.3594011 38.8072373 51.3594011 13.4725424 47.1124813 11.5978475 47.1124813 10.1067458 63.6944706 10.1067458 63.6944706 11.5978475 59.4475508 13.4725424 59.4475508 24.0962034 72.9961925 24.0962034 72.9961925 13.4725424 68.7492727 11.5978475 68.7492727 10.1067458 85.331262 10.1067458 85.331262 11.5978475 81.0843422 13.4725424 81.0843422 38.8072373 85.331262 40.6819322 85.331262 42.1730339 68.7492727 42.1730339 68.7492727 40.6819322 72.9961925 38.8072373 72.9961925 26.7404237 59.4475508 26.7404237"></polyline>
                    <path d="M93.6012727,42.8045593 C91.6439358,42.8045593 90.034,41.190661 90.034,39.1908305 C90.034,37.26 91.6439358,35.6472712 93.6012727,35.6472712 C95.5597754,35.6472712 97.2035187,37.26 97.2035187,39.1908305 C97.2035187,41.190661 95.5597754,42.8045593 93.6012727,42.8045593" id="Fill-37" fill="#2F3C63"></path>
                    <polyline id="Fill-38" fill="#2F3C63" points="125.604139 31.3084576 134.601594 10.1067458 146.533305 10.1067458 146.533305 11.5978475 142.286385 13.4725424 142.286385 38.8072373 146.533305 40.6819322 146.533305 42.1730339 130.711401 42.1730339 130.711401 40.6819322 134.704182 38.8072373 134.704182 18.1832542 123.987209 42.4139492 122.671048 42.4139492 111.954075 18.1832542 111.954075 38.8072373 115.999316 40.6819322 115.999316 42.1730339 103.66308 42.1730339 103.66308 40.6819322 107.908834 38.8072373 107.908834 13.4725424 103.66308 11.5978475 103.66308 10.1067458 116.049444 10.1067458 125.604139 31.3084576"></polyline>
                    <path d="M154.753187,42.8045593 C152.794684,42.8045593 151.184749,41.190661 151.184749,39.1908305 C151.184749,37.26 152.794684,35.6472712 154.753187,35.6472712 C156.710524,35.6472712 158.354267,37.26 158.354267,39.1908305 C158.354267,41.190661 156.710524,42.8045593 154.753187,42.8045593" id="Fill-39" fill="#2F3C63"></path>
                    <path d="M165.073797,40.6819322 L165.073797,32.846339 L167.856503,32.846339 L170.48416,39.3370169 C172.152385,39.5767627 173.164278,39.672661 173.97216,39.672661 C178.168952,39.672661 180.44338,38.0377119 180.44338,35.0578475 C180.44338,33.0381356 179.382524,31.6920508 176.449433,29.8653051 L171.545016,26.7404237 C170.231187,25.9241186 169.323048,25.3463898 168.917358,25.0575254 C168.057016,24.4809661 167.247968,23.7114407 166.592802,22.7980678 C165.529615,21.4519831 165.073797,20.1058983 165.073797,18.4721186 C165.073797,13.2795763 170.028342,9.62608475 177.10693,9.62608475 C179.68446,9.62608475 182.870524,10.1546949 187.216535,11.3089831 L187.216535,18.9527797 L184.43616,18.9527797 L181.859797,12.7030169 C180.292995,12.4621017 179.634332,12.4141525 178.370631,12.4141525 C174.37785,12.4141525 172.35523,13.7602373 172.35523,16.5003559 C172.35523,18.3271017 172.861176,18.8568814 176.499561,21.2122373 L181.35385,24.3850678 C184.184353,26.1638644 185.347797,27.0772373 186.358524,28.1344576 C187.572096,29.4805424 188.229594,31.259339 188.229594,33.2790508 C188.229594,38.7592881 183.57815,42.4139492 176.652278,42.4139492 C174.832503,42.4139492 173.871904,42.3180508 169.928086,41.5953051 L166.64293,41.0175763 L165.073797,40.6819322" id="Fill-40" fill="#2F3C63"></path>
                    <g id="Group-44" transform="translate(192.352941, 0.000000)">
                        <mask id="mask-4" fill="white">
                            <use xlink:href="#path-3"></use>
                        </mask>
                        <g id="Clip-42"></g>
                        <path d="M3.99627807,42.8045593 C2.03894118,42.8045593 0.429005348,41.190661 0.429005348,39.1908305 C0.429005348,37.26 2.03894118,35.6472712 3.99627807,35.6472712 C5.95478075,35.6472712 7.59852406,37.26 7.59852406,39.1908305 C7.59852406,41.190661 5.95478075,42.8045593 3.99627807,42.8045593" id="Fill-41" fill="#2F3C63" mask="url(#mask-4)"></path>
                        <path d="M6.9853262,19.4638475 C6.9853262,19.4638475 10.6761711,19.9632203 15.5188021,19.2007119 C20.3614332,18.4370339 24.7307594,18.9176949 24.7307594,18.9176949 L24.7307594,0.988220339 C24.7307594,0.988220339 20.3614332,0.508728814 15.5188021,1.27240678 C10.6761711,2.03491525 6.9853262,1.53554237 6.9853262,1.53554237 L6.9853262,19.4638475" id="Fill-43" fill="#BB2532" mask="url(#mask-4)"></path>
                    </g>
                    <path d="M209.761465,8.52208475 L209.761465,4.81947458 L206.705968,5.13757627 L206.705968,9.02028814 C204.290481,9.33254237 202.735337,9.13723729 202.735337,9.13723729 L202.737668,12.2001356 C202.737668,12.2001356 204.488663,12.3708814 206.705968,12.0925424 L206.705968,15.8524576 L209.761465,15.5343559 L209.761465,11.5756271 C211.976439,11.2972881 213.732096,11.4668644 213.732096,11.4668644 L213.732096,8.4039661 C213.732096,8.4039661 212.181615,8.20866102 209.761465,8.52208475" id="Fill-45" fill="#FFFFFE"></path>
                </g>
            </g>
        </g>
    </g>
</svg>