<svg xmlns="http://www.w3.org/2000/svg" width="320" height="73" viewBox="0 0 320 73">
  <g fill="#FFFFFF" transform="translate(0 3)">
    <path d="M10.037551 9.77617959L10.037551 35.0235265C10.037551 40.1533224 10.6938776 41.7941388 16.6171429 41.4643429L16.6171429 43.2455673.876734694 43.2455673.876734694 41.4643429C5.61142857 41.5949551 6.4 40.0831184 6.4 35.8088327L6.4 6.22842449C4.82612245 4.8472 3.37632653 4.32311837.876734694 4.12230204L.876734694 2.34760816 12.7983673 2.34760816 42.1387755 33.3255673 42.1387755 9.77617959C42.1387755 4.8472 41.3518367 4.06026122 35.6293878 4.12230204L35.6293878 2.34760816 51.562449 2.34760816 51.562449 4.12230204C47.157551 4.12230204 45.7779592 4.90924082 45.7779592 9.90679184L45.7779592 43.6455673 42.2089796 43.6455673 10.037551 9.77617959 10.037551 9.77617959zM53.9510204 2.34760816L72.2938776 2.34760816 72.2938776 4.12230204C67.8889796 4.12230204 66.64 5.10842449 66.64 9.77617959L66.64 35.3467918C66.64 40.282302 67.5591837 41.5949551 72.2938776 41.4643429L72.2938776 43.2455673 53.9510204 43.2455673 53.9510204 41.4643429C59.1493878 41.5949551 59.3436735 39.5590367 59.3436735 35.8088327L59.3436735 9.05128163C59.3436735 5.50352653 58.4881633 4.06026122 53.9510204 4.12230204L53.9510204 2.34760816zM76.3820408 43.2455673L96.6514286 43.2455673 96.6514286 41.4643429C90.5208163 41.402302 89.2016327 40.282302 89.2016327 35.2161796L89.2016327 26.2072C91.044898 26.532098 92.8261224 26.6627102 94.6073469 26.6627102 103.905306 26.6627102 110.285714 21.3402612 110.285714 13.6488327 110.285714 4.64638367 103.57551 1.81536327 91.115102 1.81536327 89.8579592 1.81536327 85.5232653 2.00964898 82.3689796 2.14026122 80.7869388 2.20883265 77.5020408 2.34760816 75.5967347 2.34760816L75.5967347 4.12230204C80.7885714 4.12230204 81.9069388 4.71658776 81.9069388 11.0888327L81.9069388 34.4912816C81.9069388 40.3459755 80.9208163 41.2635265 76.3836735 41.4643429L76.3836735 43.2455673 76.3820408 43.2455673zM89.2016327 3.85291429C90.1877551 3.72230204 91.1755102 3.66026122 92.4326531 3.66026122 100.35102 3.66026122 102.324898 9.11332245 102.324898 13.5182204 102.324898 19.9590367 98.1077551 24.5565878 92.0391837 24.5565878 91.044898 24.5565878 90.0587755 24.3557714 89.2016327 24.2251592L89.2016327 3.85291429zM113.213061 2.34760816L131.555918 2.34760816 131.555918 4.12230204C127.15102 4.12230204 125.900408 5.10842449 125.900408 9.77617959L125.900408 35.3467918C125.900408 40.282302 126.819592 41.5949551 131.555918 41.4643429L131.555918 43.2455673 113.213061 43.2455673 113.213061 41.4643429C118.411429 41.5949551 118.604082 39.5590367 118.604082 35.8088327L118.604082 9.05128163C118.604082 5.50352653 117.755102 4.06026122 113.213061 4.12230204L113.213061 2.34760816zM135.614694 32.4618939L137.582041 32.4618939C139.22449 38.5092408 143.297959 41.9280163 148.945306 41.9280163 153.737143 41.9280163 157.090612 39.1051592 157.090612 35.1557714 157.090612 25.9525061 136.4 22.3361796 136.4 10.889649 136.4 5.23577143 141.392653 1.28801633 148.419592 1.28801633 150.586122 1.28801633 152.161633 1.55087347 153.472653 1.81209796 154.791837 2.08148571 155.841633 2.34434286 156.96 2.34434286 157.810612 2.34434286 158.272653 2.14352653 158.796735 1.5427102L160.439184 1.5427102 161.882449 11.7467918 159.915102 11.7467918C157.947755 6.5549551 153.874286 3.39413878 149.206531 3.39413878 145.002449 3.39413878 142.773878 5.89373061 142.773878 8.79332245 142.773878 17.6031184 163.526531 20.2316898 163.526531 32.9206694 163.526531 39.6929143 157.810612 44.3051592 149.402449 44.3051592 144.478367 44.3051592 142.442449 43.1182204 140.605714 43.1182204 139.820408 43.1182204 139.294694 43.3174041 138.832653 43.8480163L137.257143 43.8480163 135.614694 32.4618939 135.614694 32.4618939zM167.38449 32.4618939L169.351837 32.4618939C170.995918 38.5092408 175.061224 41.9280163 180.715102 41.9280163 185.506939 41.9280163 188.862041 39.1051592 188.862041 35.1557714 188.862041 25.9525061 168.171429 22.3361796 168.171429 10.889649 168.171429 5.23577143 173.162449 1.28801633 180.189388 1.28801633 182.357551 1.28801633 183.931429 1.55087347 185.244082 1.81209796 186.556735 2.08148571 187.611429 2.34434286 188.723265 2.34434286 189.578776 2.34434286 190.042449 2.14352653 190.566531 1.5427102L192.202449 1.5427102 193.653878 11.7467918 191.678367 11.7467918C189.71102 6.5549551 185.645714 3.39413878 180.977959 3.39413878 176.767347 3.39413878 174.537143 5.89373061 174.537143 8.79332245 174.537143 17.6031184 195.289796 20.2316898 195.289796 32.9206694 195.289796 39.6929143 189.580408 44.3051592 181.172245 44.3051592 176.243265 44.3051592 174.213878 43.1182204 172.377143 43.1182204 171.590204 43.1182204 171.06449 43.3174041 170.602449 43.8480163L169.020408 43.8480163 167.38449 32.4618939 167.38449 32.4618939zM199.314286 2.34760816L217.650612 2.34760816 217.650612 4.12230204C213.245714 4.12230204 211.995102 5.10842449 211.995102 9.77617959L211.995102 35.3467918C211.995102 40.282302 212.914286 41.5949551 217.650612 41.4643429L217.650612 43.2455673 199.314286 43.2455673 199.314286 41.4643429C204.506122 41.5949551 204.706939 39.5590367 204.706939 35.8088327L204.706939 9.05128163C204.706939 5.50352653 203.851429 4.06026122 199.314286 4.12230204L199.314286 2.34760816zM230.574694 9.77617959L230.574694 35.0235265C230.574694 40.1533224 231.23102 41.7941388 237.154286 41.4643429L237.154286 43.2455673 221.413878 43.2455673 221.413878 41.4643429C226.148571 41.5949551 226.943673 40.0831184 226.943673 35.8088327L226.943673 6.22842449C225.361633 4.8472 223.913469 4.32311837 221.413878 4.12230204L221.413878 2.34760816 233.33551 2.34760816 262.677551 33.3255673 262.677551 9.77617959C262.677551 4.8472 261.890612 4.06026122 256.16 4.12230204L256.16 2.34760816 272.101224 2.34760816 272.101224 4.12230204C267.689796 4.12230204 266.308571 4.90924082 266.308571 9.90679184L266.308571 43.6455673 262.746122 43.6455673 230.574694 9.77617959 230.574694 9.77617959zM314.24 40.2839347C306.817959 43.2455673 302.083265 44.3018939 296.61551 44.3018939 283.263673 44.3018939 274.393469 36.0733224 274.393469 23.7092408 274.393469 14.9631184 279.454694 1.28638367 297.541224 1.28638367 303.988571 1.28638367 307.931429 3.06760816 310.086531 3.07413878 310.93551 3.07413878 311.397551 2.88148571 311.79102 2.34924082L313.702857 2.34924082 313.702857 14.4651592 311.72898 14.4374041C310.217143 7.34026122 305.55102 3.39087347 298.729796 3.39087347 288.857143 3.39087347 282.354286 11.1508735 282.354286 22.9827102 282.354286 36.1402612 290.569796 41.8643429 298.52898 41.8643429 301.490612 41.8643429 304.182857 41.1394449 306.943673 39.689649L306.943673 31.8610776C306.943673 27.3255673 305.632653 26.7312816 299.123265 26.7312816L299.123265 24.9565878 318.77551 24.9565878 318.77551 26.7312816C314.302041 26.7312816 314.24 29.4300571 314.24 31.929649L314.24 40.2839347 314.24 40.2839347zM.662857143 53.6635265L6.08979592 53.6635265 6.08979592 54.1876082C4.67428571 54.1876082 4.40489796 54.4912816 4.40489796 55.8235265L4.40489796 60.9386286C4.40489796 63.4741388 6.10285714 64.6333224 8.49142857 64.6333224 10.6106122 64.6333224 12.5991837 63.7206694 12.5991837 60.9059755L12.5991837 55.8251592C12.5991837 54.3410776 12.3102041 54.1892408 10.762449 54.1892408L10.762449 53.6651592 15.3877551 53.6651592 15.3877551 54.1892408C13.9379592 54.1892408 13.6538776 54.4929143 13.6538776 55.8251592L13.6538776 61.1133224C13.6538776 64.1027102 11.3355102 65.8218939 7.86285714 65.8218939 4.23020408 65.8218939 2.28408163 64.0831184 2.28408163 60.9810776L2.28408163 55.6325061C2.28408163 54.4716898 1.98040816 54.1892408.66122449 54.1892408L.66122449 53.6635265.662857143 53.6635265zM40.1436735 55.8235265L40.1436735 63.1345469C40.1436735 64.6186286 40.3297959 65.0953633 42.0489796 64.9990367L42.0489796 65.524751 37.4857143 65.524751 37.4857143 64.9974041C38.8604082 65.0382204 39.0873469 64.5974041 39.0873469 63.3614857L39.0873469 54.7949551C38.6318367 54.3949551 38.2106122 54.2414857 37.4857143 54.1876082L37.4857143 53.6635265 40.9453061 53.6635265 49.4302041 62.6382204 49.4302041 55.8235265C49.4302041 54.3949551 49.2016327 54.1663837 47.5461224 54.1876082L47.5461224 53.6635265 52.1714286 53.6635265 52.1714286 54.1876082C50.8865306 54.1876082 50.4865306 54.4161796 50.4865306 55.8578122L50.4865306 65.6259755 49.4514286 65.6259755 40.1436735 55.8235265 40.1436735 55.8235265zM74.6693878 53.6635265L79.9918367 53.6635265 79.9918367 54.1876082C78.715102 54.1876082 78.3493878 54.4700571 78.3493878 55.8235265L78.3493878 63.2308735C78.3493878 64.6529143 78.6187755 65.0382204 79.9918367 64.9974041L79.9918367 65.5231184 74.6693878 65.5231184 74.6693878 64.9974041C76.1746939 65.0382204 76.2302041 64.4455673 76.2302041 63.3614857L76.2302041 55.6161796C76.2302041 54.5876082 75.9820408 54.1663837 74.6693878 54.1876082L74.6693878 53.6635265zM104.204082 55.652098C103.671837 54.3394449 103.457959 54.1892408 102.236735 54.1892408L102.236735 53.6651592 108.119184 53.6651592 108.119184 54.1892408C106.551837 54.2104653 106.28898 54.6039347 106.28898 55.0039347L106.592653 56.1484245 109.479184 63.2178122 112.282449 56.4733224C112.626939 55.652098 112.724898 55.2929143 112.724898 55.0039347 112.724898 54.3753633 112.228571 54.1892408 111.005714 54.1892408L111.005714 53.6651592 115.637551 53.6651592 115.637551 54.1892408C114.284082 54.1892408 114.035918 54.8929143 113.426939 56.3557714L109.479184 65.8284245 108.313469 65.8284245 104.204082 55.652098 104.204082 55.652098zM137.500408 65.524751L137.500408 64.9974041C139.046531 64.9974041 139.433469 64.7508735 139.433469 63.6782204L139.433469 55.4708735C139.433469 54.2202612 138.798367 54.1876082 137.500408 54.1876082L137.500408 53.6635265 147.234286 53.6635265 147.405714 56.5141388 146.901224 56.5141388 146.804898 56.1141388C146.43102 54.5614857 146.127347 54.5190367 144.899592 54.5190367L141.55102 54.5190367 141.55102 58.9288327 144.497959 58.9288327C145.603265 58.9288327 145.810612 58.7982204 145.934694 57.5002612L146.452245 57.5002612 146.452245 61.3255673 145.934694 61.3255673C145.795918 59.9655673 145.549388 59.7941388 144.497959 59.7941388L141.55102 59.7941388 141.55102 63.2880163C141.55102 64.4749551 141.702857 64.6692408 142.674286 64.6692408L144.786939 64.6692408C146.721633 64.6692408 147.100408 64.3998531 147.617959 62.5157714L148.12898 62.5157714 147.844898 65.5263837 137.500408 65.5263837 137.500408 65.524751zM173.972245 60.5876082L175.663673 60.5876082C176.463673 61.1802612 176.747755 61.449649 177.720816 62.4227102L178.728163 63.4316898C180.45551 65.1574041 181.394286 65.8202612 185.149388 65.722302L185.149388 65.1933224C183.560816 65.0267918 182.262857 64.2610776 180.564898 62.5565878L179.322449 61.3125061 177.885714 60.0080163C179.500408 59.3451592 180.302041 58.3100571 180.302041 56.9010776 180.302041 55.1688327 178.974694 53.4904653 175.129796 53.4904653 174.75102 53.4904653 173.810612 53.4904653 172.803265 53.5312816 171.484082 53.5867918 170.512653 53.6635265 170.070204 53.6635265L170.070204 54.1876082C171.644082 54.1876082 171.851429 54.4912816 171.851429 55.7255673L171.851429 63.3549551C171.851429 64.6169959 171.678367 65.0594449 170.070204 64.9974041L170.070204 65.5231184 175.910204 65.5231184 175.910204 64.9974041C174.176327 65.0594449 173.970612 64.7508735 173.970612 63.1067918L173.970612 60.5876082 173.972245 60.5876082zM173.972245 54.0978122L174.884898 54.0227102C176.961633 54.0227102 177.983673 55.1688327 177.983673 57.0953633 177.983673 59.0349551 177.113469 60.0080163 174.579592 60.1255673L173.972245 60.0635265 173.972245 54.0978122 173.972245 54.0978122zM207.157551 62.3900571L207.732245 62.3900571C208.207347 64.1435265 209.395918 65.1312816 211.038367 65.1312816 212.445714 65.1312816 213.418776 64.3165878 213.418776 63.1704653 213.418776 60.4978122 207.386122 59.449649 207.386122 56.1353633 207.386122 54.4912816 208.844082 53.3598531 210.886531 53.3598531L212.364082 53.5051592 213.386122 53.6569959 213.910204 53.4284245 214.386939 53.4284245 214.8 56.3769959 214.233469 56.3769959C213.660408 54.8716898 212.481633 53.962302 211.121633 53.962302 209.892245 53.962302 209.244082 54.6872 209.244082 55.5214857 209.244082 58.0765878 215.276735 58.842302 215.276735 62.522302 215.276735 64.4831184 213.626122 65.8218939 211.17551 65.8218939 209.740408 65.8218939 209.146122 65.4757714 208.607347 65.4757714L208.096327 65.6978122 207.634286 65.6978122 207.157551 62.3900571zM238.223673 53.6635265L243.554286 53.6635265 243.554286 54.1876082C242.269388 54.1876082 241.910204 54.4700571 241.910204 55.8235265L241.910204 63.2308735C241.910204 64.6529143 242.173061 65.0382204 243.554286 64.9974041L243.554286 65.5231184 238.223673 65.5231184 238.223673 64.9974041C239.72898 65.0382204 239.78449 64.4455673 239.78449 63.3614857L239.78449 55.6161796C239.78449 54.5876082 239.536327 54.1663837 238.223673 54.1876082L238.223673 53.6635265zM266.266122 53.332098L266.790204 53.332098 267.09551 53.6014857 268.026122 53.6635265 276.102857 53.6635265C277.077551 53.6635265 277.227755 53.6227102 277.346939 53.332098L277.86449 53.332098 278.20898 56.6186286 277.64898 56.6186286C277.381224 54.6365878 277.000816 54.5206694 275.854694 54.5206694L273.126531 54.5206694 273.126531 63.4953633C273.126531 64.7933224 273.333878 64.9990367 275.337143 64.9990367L275.337143 65.524751 268.791837 65.524751 268.791837 64.9974041C270.697143 64.9974041 271.002449 64.7508735 271.002449 63.4937306L271.002449 54.5190367 268.274286 54.5190367C267.15102 54.5190367 266.762449 54.6349551 266.48 56.6169959L265.926531 56.6169959 266.266122 53.332098 266.266122 53.332098zM302.594286 55.7272C301.640816 54.3606694 301.392653 54.2431184 300.204082 54.1892408L300.204082 53.6651592 305.954286 53.6651592 305.954286 54.1892408C304.925714 54.1892408 304.623673 54.3965878 304.623673 54.7410776 304.623673 54.9892408 304.77551 55.3076082 305.271837 56.0178122L307.769796 59.5737306 309.94449 56.1288327C310.380408 55.4251592 310.573061 55.0463837 310.573061 54.7769959 310.573061 54.362302 310.213878 54.1908735 309.351837 54.1908735L309.351837 53.6667918 313.844898 53.6667918 313.844898 54.1908735C312.450612 54.3427102 312.106122 54.5908735 310.876735 56.5516898L308.302041 60.7002612 308.302041 63.3435265C308.302041 64.7525061 308.530612 65.0006694 310.117551 65.0006694L310.117551 65.5263837 304.346122 65.5263837 304.346122 64.9974041C305.804082 64.9974041 306.182857 64.8667918 306.182857 63.2863837L306.182857 60.8700571 302.594286 55.7272 302.594286 55.7272z"/>
  </g>
</svg>
