<svg xmlns="http://www.w3.org/2000/svg" viewBox="0 0 250 66.254"><path fill="#FFF" stroke="#161615" stroke-width=".5" stroke-miterlimit="10" d="M.197 66.254V0h168.096v66.254H.197z"/><path fill="#251B5B" d="M58.327 41.245c-.386-.411-1.091-1.343-1.474-2.958-.081-.519-.466-1.004-1.349-1.004-1.063 0-1.986.604-2.496 1.169-.417.462-.632.968-.589 1.39a.575.575 0 0 0 .121.303l-.002.001 1.506 1.807c-2.347 1.868-5.235 2.744-7.893 3.135 4.313-4.236 7.175-10.053 7.175-18.369L53.325 11.3C48.823 10.156 41.6 9.003 34.892 9.003S20.96 10.156 16.459 11.3l-.001 15.42c0 8.271 2.831 14.069 7.105 18.299-2.638-.362-5.502-1.2-7.844-3.066l1.506-1.807-.002-.001a.58.58 0 0 0 .121-.303c.043-.422-.171-.929-.588-1.39-.511-.565-1.434-1.169-2.496-1.169-.883 0-1.268.485-1.349 1.004-.383 1.616-1.088 2.547-1.474 2.958-.862.917-.367 1.833.081 2.441 1.275 1.733 4.47 4.776 11.568 5.763-.194.603-.43 1.143-.666 1.657-.265.576-.047 1.094.752 1.79 1.981 1.724 6.097 3.618 11.711 3.618s9.731-1.894 11.711-3.618c.8-.696 1.018-1.215.753-1.79a14.734 14.734 0 0 1-.666-1.657c7.097-.987 10.392-3.904 11.643-5.814.412-.634.865-1.473.003-2.39zm-5.57-1.437c-.033-.326.15-.737.503-1.128.58-.642 1.42-1.024 2.203-1.024.792 0 .995.393.995.826 0 .283-.151.92-.682 1.668l-.859-1.378c-.45.783-1.226 1.412-1.906 1.273-.235-.049-.249-.191-.254-.237zm.434.591c.56-.006 1.28-.356 1.731-.977l.636 1.021c-.262.351-.768.881-1.252 1.293l-1.115-1.337zm-9.385 6.738c.506-.127.993-.229 1.383-.229.477 0 .62.153.62.427 0 1.185-2.193 2.648-3.591 3.264a10.86 10.86 0 0 1-.825-1.758 31.74 31.74 0 0 0 2.413-1.704zm-8.914 5.079c2.144-.911 4.228-1.951 6.177-3.17.193.605.443 1.18.755 1.734-1.52.663-3.949 1.445-6.943 1.445s-5.351-.77-6.872-1.433a8.033 8.033 0 0 0 .718-1.738c1.945 1.216 4.025 2.253 6.165 3.162zm-6.493-3.369a8.829 8.829 0 0 1-.774 1.794c-1.399-.616-3.696-2.127-3.696-3.311 0-.275.144-.428.62-.428.402 0 .909.109 1.436.243a32.517 32.517 0 0 0 2.414 1.702zm-12.943-7.111c-.484-.413-.99-.943-1.252-1.293l.636-1.021c.451.621 1.171.971 1.731.977l-1.115 1.337zm-1.131-4.091c.783 0 1.597.393 2.177 1.035.353.391.488.734.455 1.061-.005.047-.019.188-.254.237-.68.14-1.408-.423-1.858-1.206l-.859 1.378c-.531-.748-.687-1.339-.687-1.623 0-.433.235-.882 1.026-.882zm-2.475 5.836c-.613-.834-.586-1.444-.048-2.017.345-.366.808-1.11 1.224-2.348.936 2.353 4.338 5.501 11.023 6.372.438.411.89.807 1.354 1.189a4.903 4.903 0 0 0-.943-.123c-.55 0-.947.227-.953.756h-.001a8.548 8.548 0 0 1-.311 1.747c-7.011-.962-10.099-3.881-11.345-5.576zm35.109 7.828c.129.281.194.643-.667 1.392-1.934 1.684-5.891 3.42-11.411 3.42s-9.475-1.748-11.409-3.432c-.861-.75-.795-1.112-.667-1.392a12.06 12.06 0 0 0 .947-3.174c1.123 1.907 5.836 4.501 11.129 4.501 5.294 0 10.007-2.594 11.13-4.501.2 1.249.535 2.289.948 3.186zm10.943-7.751c-1.119 1.657-4.311 4.599-11.323 5.561a9.224 9.224 0 0 1-.324-1.808c-.006-.529-.402-.756-.953-.756-.254 0-.57.047-.915.117.463-.381.914-.775 1.351-1.186 6.669-.875 10.064-4.019 10.999-6.368.415 1.238.927 2.067 1.272 2.434.538.572.472 1.148-.107 2.006z"/><path fill="#009FE3" d="M34.892 51.016c-9.54-3.984-17.67-10.781-17.67-24.623V11.975c3.635-.953 11.541-2.294 17.67-2.294s14.034 1.341 17.67 2.294v14.418c0 13.842-8.131 20.639-17.67 24.623z"/><g fill="#009640"><path d="M35.433 37.701c-.045.026-.118.089-.2.152 0-.1.014-.304.014-.376 0-.114-.015-.124-.096-.056-.039.034-.072.005-.087-.038-.026-.074-.163-.431-.19-.512s-.066-.066-.108.018a5.965 5.965 0 0 0-.176.452c-.034.1-.051.098-.115.047-.094-.075-.116-.041-.109.02.015.117.084.391.102.545-.045-.081-.147-.176-.199-.235-.056-.063-.097-.036-.099.054-.003.101-.018.442-.018.676l.74.516.658-.407c-.009-.18-.009-.713-.018-.794-.009-.08-.054-.089-.099-.062zM29.704 40.769c-.08-.017-.103.023-.091.074.012.051.032.134.067.23l-.452-.147c-.061-.02-.07.021-.013.106.041.062.034.066-.046.071-.092.006-.433.014-.518.014-.085.001-.083.043-.016.109.072.071.285.27.354.321.055.041.051.052.012.073-.071.038-.088.091.026.118.114.028.377.07.528.1l-.285.116c-.078.034-.065.094.019.121.087.028.348.122.57.193l.808-.48-.204-.793c-.173-.046-.679-.21-.759-.226zM31.227 46.93c-.098.151-.33.467-.371.538-.04.071-.009.105.043.109.052.005.14-.005.253-.021-.058.081-.4.415-.443.473-.042.058.14.024.196.011.045-.01.038 0 .025.08-.014.08-.129.404-.154.486-.026.082.029.115.113.071.089-.047.374-.247.443-.296.067-.048.075-.05.109.107.017.079.072.159.134.059.061-.1.272-.579.348-.768-.011.093.015.228.023.307.008.085.067.092.113.015.045-.079.274-.347.412-.537l-.171-.799-1.073.165zM38.86 47.949c-.076-.089-.267-.269-.372-.383.084.039.221.063.298.074.122.016.152-.019.071-.111a8.422 8.422 0 0 1-.448-.537l-.997-.141-.132.955c.113.141.361.492.416.552.055.06.097.041.117-.008.021-.048.046-.111.075-.21.059.08.2.286.243.345.049.067.078.083.099-.01.02-.092.027-.092.099-.055.071.038.316.21.385.26.07.05.132.028.116-.065a5.998 5.998 0 0 0-.098-.468c-.026-.081-.021-.068.06-.061.171.013.145-.048.068-.137zM40.96 41.259c.069-.05.043-.083-.05-.097-.1-.016-.389-.001-.474-.001-.086-.001-.093-.006-.073-.084.031-.125.025-.16-.084-.115s-.318.171-.458.235c.063-.067.101-.184.126-.259.042-.128.012-.133-.07-.097-.083.036-.439.142-.662.214l-.457.909.812.393c.169-.064.64-.176.746-.197.075-.014.1-.053.03-.114a1.908 1.908 0 0 0-.19-.146c.094-.031.326-.129.395-.151s.012-.07-.037-.099c-.058-.034-.058-.045-.005-.081.063-.046.383-.259.451-.31z"/></g><path fill="#251B5B" d="M34.871 10.182c.954 0 1.349.623.95 1.579.181 0 .261-.182.389-.566.674.261.777 1.042.221 1.513.345-.159.633-.138.834.018-.276.167-.362.311-.343.46.211-.146.391-.311.806-.311.427 0 .866.282.866.964 0 1.051-.654 1.147-1.49.957 0 .044.149.234.298.31-.675.201-1.499.016-2.07-.317.323 1.044 1.918 1.469 3.118.486.483 1.264 2.443 1.446 3.32.38-.823.376-1.722.164-2.143-.24.155-.048.439-.162.558-.319-.664.008-.964-.249-.964-.76 0-.504.529-1.063 1.143-1.063.446 0 .659.305.818.675.083-.154.089-.497.052-.777.781-.034.93.449 1.067.746.234-1.013.912-1.744 2.401-1.475-.252.25-.436.518-.579.833.184-.16.429-.368.937-.368.662 0 1.012.457 1.008.902-.005.478-.301.804-.523.965-.316-.546-.733-.62-1.03-.62-.856 0-1.228.373-1.326.664.263.497-.056.898-.61.84-.095.18-.691 1.248-.892 1.486.131.394.099.874-.195 1.307-.014.087-.07.51-.078.597a.36.36 0 0 1 .188.3c0 .848-3.014 1.158-6.77 1.158-1.943 0-6.781-.219-6.781-1.112 0-.156.083-.251.204-.331-.018-.06-.049-.542-.065-.596-.266-.434-.276-.891-.113-1.25-.201-.237-.849-1.37-.944-1.55-.708.006-.797-.469-.565-.864-.307-.357-.712-.678-1.319-.678-.43 0-.74.087-1.032.527-.203-.154-.461-.381-.466-.859-.005-.537.471-.867.918-.867.456 0 .744.182.993.452-.095-.285-.364-.72-.568-.952 1.457-.25 2.115.522 2.349 1.536.137-.296.365-.845 1.146-.812-.051.281-.065.527.005.726.188-.282.365-.618.776-.618.562 0 1.178.674 1.178 1.16 0 .504-.352.724-1.09.677.119.157.312.268.551.326-.405.424-1.24.548-2.094.217 1.001 1.168 2.881.842 3.327-.352 1.058.989 2.856.569 3.203-.516-.629.417-1.431.49-2.105.356a.858.858 0 0 0 .272-.322c-.913.245-1.437-.027-1.437-.939 0-.533.382-.955.827-.955.278 0 .577.107.829.296.019-.149-.048-.284-.323-.451.201-.155.458-.202.803-.043-.498-.426-.466-1.261.262-1.512.09.351.187.579.358.603-.393-1.018-.015-1.621.94-1.621z"/><g fill="#FFED00"><path d="M25.687 13.721c-.288-.492-.658-.575-.948-.573-.421.003-.741.328-.741.709 0 .202.075.368.162.442.18-.237.523-.673 1.527-.578zM34.848 18.383c-3.472 0-6.296.63-6.296 1.028 0 .357 2.985.856 6.271.881 2.828.022 6.359-.281 6.359-.883-.001-.393-2.91-1.026-6.334-1.026z"/><path d="M43.888 13.893c-.044.011-.141 0-.134-.096.127-.489.218-.779.483-1.162-1.343-.07-1.788 1.002-1.827 1.667-.005.075-.164.138-.182.05-.091-.415-.299-.928-.799-1.01.004.314.013.553-.104.757-.071.123-.227.089-.252.036-.178-.378-.387-.621-.631-.621-.399 0-.595.229-.463.444.052.084-.034.129-.125.102-.199-.059-.369.028-.369.342 0 .382.34.571.866.513.128-.014.173.073.115.164-.056.086-.259.261-.4.343.118.093.44.208.953.208.442 0 .879-.16 1.046-.309.076-.068.21-.015.144.165-.348.953-2.635 1.945-3.873.16-1.046.766-2.719.652-3.265-.822-.062-.169.097-.341.286-.222.137.087.579.3 1.014.357.166.022.447.057.633.012a1.798 1.798 0 0 1-.188-.325c-.036-.1.061-.152.175-.081.118.072.213.151.506.151.493 0 .764-.383.764-.536 0-.21-.118-.255-.267-.279-.071-.011-.084-.101-.034-.124.154-.071.196-.159.196-.303 0-.18-.177-.366-.515-.366-.276 0-.53.139-.708.232a.13.13 0 0 1-.17-.052c-.044-.105-.047-.282.118-.52-.217-.047-.887.197-1.454.74-.09.087-.227-.11-.151-.157.761-.464 1.257-.947 1.257-1.35a.571.571 0 0 0-.239-.487c-.137.305-.384.481-.541.481-.071 0-.164-.052-.145-.11.032-.097.138-.47.138-.719 0-.38-.247-.684-.484-.684-.174 0-.284.093-.323.202-.025.07-.127.064-.16 0-.074-.149-.171-.206-.319-.206-.256 0-.474.315-.474.683 0 .331.138.669.138.731.001.061-.105.098-.176.098-.263 0-.442-.229-.503-.475-.141.061-.22.307-.22.499 0 .452.408.8 1.238 1.35.074.049-.029.228-.126.148-.622-.513-1.231-.764-1.447-.718.161.31.13.423.086.528-.028.047-.134.073-.182.048-.178-.093-.411-.227-.621-.227-.351 0-.552.21-.552.464 0 .044.05.168.191.22.043.016.02.094-.032.102a.257.257 0 0 0-.223.261c0 .261.246.493.609.49.293-.002.518-.056.634-.15.103-.083.182-.005.139.092-.022.05-.139.291-.181.373.523.048 1.162-.074 1.645-.376.179-.112.296.082.274.196-.204 1.057-1.937 1.852-3.286.879-1.368 1.634-3.216.944-3.849-.188-.068-.122-.045-.312.126-.164.22.19.604.282 1.085.282.41 0 .674-.023.899-.173a1.244 1.244 0 0 1-.442-.364c-.059-.091-.008-.206.12-.187.712.106.891-.188.889-.417-.003-.313-.156-.481-.39-.417-.129.035-.185-.044-.146-.101.147-.211-.036-.451-.374-.451-.244 0-.42.21-.617.514-.049.077-.21.049-.254-.029-.086-.151-.131-.397-.068-.676-.455.075-.758.544-.863 1.025-.018.083-.203.028-.208-.053-.033-.55-.501-1.721-1.762-1.668.261.357.367.64.483 1.155.007.096-.122.114-.168.107-.285-.041-.605-.066-1 .126.647-.107 1.453.084 1.952.823.15.069.408.362.415.614.123.198.946 1.514 1.053 1.656.353.066.937.15 1.125.192.224.049.314.411.111.528-.191.11-.921.669-1.044.754.006.097.033.281.039.366 1.646-.602 3.805-.82 6.36-.82 3.094 0 4.916.353 6.31.842.017-.15.04-.253.056-.453a8.658 8.658 0 0 1-1.081-.724c-.174-.144-.062-.466.098-.512.338-.096.841-.191 1.26-.274.04-.039.834-1.302 1.001-1.598.045-.142.245-.457.42-.549.32-.71 1.033-.992 2.084-.83-.359-.248-.915-.19-1.123-.137z"/><path d="M29.38 17.638c.03-.014.008-.132-.044-.135-.072-.005-.687-.123-.987-.171-.054-.005-.093.006-.102.048-.128.255-.105.658.114.932.022.018.067.02.126-.02.26-.193.669-.523.893-.654zM41.313 17.262c-.347.039-.914.19-.986.208-.049.012-.067.14-.026.159.243.142.68.482.914.6.033.017.055.008.075-.006.223-.121.276-.735.155-.935-.014-.028-.059-.034-.132-.026zM44.997 13.138c-.455-.003-.695.152-.971.537 1.042-.073 1.342.304 1.572.64.106-.089.166-.308.166-.489-.001-.396-.319-.684-.767-.688z"/></g><path fill="#251B5B" d="M50.209 26.391a61.665 61.665 0 0 0 1.613-1.046 11.77 11.77 0 0 1-.715-.444l.652-.413-.263-.366-9.4 5.952-1.985-1.257 6.722-4.257c.64.014 1.297.093 1.954-.316a63.181 63.181 0 0 0 1.614-1.046 11.463 11.463 0 0 1-.715-.444l.651-.412-.263-.366-10.383 6.575-1.987-1.258 7.736-4.898c.639.014 1.297.093 1.954-.316a61.665 61.665 0 0 0 1.613-1.046 11.77 11.77 0 0 1-.715-.444l.652-.413-.264-.366-11.397 7.217-1.972-1.249 8.737-5.532c.64.014 1.297.093 1.954-.316a69.227 69.227 0 0 0 1.614-1.046 11.974 11.974 0 0 1-.715-.444l.651-.413-.263-.366-12.398 7.851-12.398-7.851-.263.366.652.413a12.31 12.31 0 0 1-.715.444c.498.339 1.361.89 1.613 1.046.657.409 1.315.329 1.954.316l8.737 5.532-1.971 1.249-11.397-7.217-.263.366.652.413a11.77 11.77 0 0 1-.715.444c.498.339 1.361.89 1.613 1.046.657.409 1.315.33 1.954.316l7.736 4.898-1.987 1.258-10.383-6.575-.263.366.652.412c-.268.183-.604.382-.715.444.499.339 1.361.89 1.613 1.046.657.409 1.315.33 1.954.316l6.722 4.257-1.985 1.257-9.4-5.952-.263.366.652.413c-.268.182-.604.382-.715.444.498.339 1.361.89 1.613 1.046.657.409 1.315.33 1.954.316l5.739 3.634-4.248 2.69c-.267.169-.573.371-.882.583l-.122-.168c-.115-.118-.21-.218-.274-.276-.12.044-.554.253-.796.406-.564.357-1.074 1.121-.981 1.633.471.274 1.417.115 1.981-.242.242-.153.61-.452.698-.541a7.641 7.641 0 0 0-.256-.465l5.299-3.355 1.972 1.249-5.249 3.324c-.267.169-.573.372-.882.583l-.122-.167c-.115-.118-.21-.217-.274-.276-.12.044-.554.253-.796.406-.564.357-1.074 1.121-.981 1.634.471.273 1.418.115 1.981-.242.242-.153.61-.453.699-.541a7.097 7.097 0 0 0-.256-.464l6.3-3.989 1.986 1.258-6.263 3.966c-.266.169-.572.372-.882.584l-.122-.167c-.115-.118-.21-.218-.274-.277-.12.044-.554.253-.796.406-.564.357-1.074 1.121-.981 1.634.471.273 1.418.115 1.981-.242.242-.154.61-.453.698-.541a6.874 6.874 0 0 0-.256-.465l7.313-4.631 1.985 1.257-7.246 4.588c-.266.169-.572.372-.881.583l-.122-.167c-.115-.118-.21-.217-.274-.276-.12.044-.554.252-.795.406-.564.357-1.074 1.121-.981 1.634.471.273 1.418.115 1.981-.242a5.86 5.86 0 0 0 .698-.541 7.266 7.266 0 0 0-.255-.465l8.297-5.253 8.297 5.253c-.08.136-.223.39-.255.465.088.088.457.387.698.541.564.357 1.51.515 1.982.242.092-.512-.418-1.277-.982-1.634a6.282 6.282 0 0 0-.795-.406c-.064.059-.159.158-.274.276l-.122.167a30.618 30.618 0 0 0-.881-.583l-7.246-4.588 1.985-1.257 7.313 4.631c-.08.136-.223.39-.255.465.088.088.457.387.698.541.563.357 1.51.515 1.981.242.093-.512-.417-1.277-.981-1.634a6.283 6.283 0 0 0-.796-.406c-.065.059-.159.159-.274.277l-.122.167a29.4 29.4 0 0 0-.882-.584l-6.263-3.966 1.987-1.258 6.3 3.989a7.368 7.368 0 0 0-.256.464c.088.088.457.387.698.541.564.357 1.51.515 1.982.242.093-.512-.418-1.277-.982-1.634a6.283 6.283 0 0 0-.796-.406c-.064.059-.159.158-.274.276l-.122.167a29.263 29.263 0 0 0-.882-.583l-5.249-3.324 1.972-1.249 5.299 3.355c-.081.136-.223.39-.256.465.088.088.457.388.698.541.564.357 1.51.516 1.981.242.093-.512-.417-1.276-.981-1.633a6.283 6.283 0 0 0-.796-.406c-.064.058-.159.158-.274.276l-.122.168a27.46 27.46 0 0 0-.882-.583l-4.248-2.69 5.739-3.634c.642.014 1.3.093 1.957-.316zM39.27 28.817l-1.972 1.248-1.986-1.258 1.971-1.249 1.987 1.259zm-2.392 1.515l-1.987 1.258-1.986-1.258 1.986-1.258 1.987 1.258zm-1.987-4.287l1.972 1.248-1.972 1.249-1.972-1.249 1.972-1.248zM32.5 27.559l1.972 1.249-1.987 1.258-1.972-1.249 1.987-1.258zm-4.393 2.781l1.985-1.257 1.972 1.249-1.985 1.257-1.972-1.249zm2.392 1.515l1.985-1.257 1.986 1.258-1.985 1.257-1.986-1.258zm4.392 2.781l-1.985-1.257 1.985-1.257 1.985 1.257-1.985 1.257zm2.406-1.523l-1.985-1.257 1.986-1.258 1.985 1.257-1.986 1.258zm2.407-1.524l-1.985-1.257 1.972-1.249 1.985 1.257-1.972 1.249z"/><path fill="#FFF" d="M50.113 26.265a60.2 60.2 0 0 0 1.569-1.018 12.924 12.924 0 0 1-.707-.451l.686-.434-.263-.366-.685.433c-.08-.301-.159-.66-.179-.78a60.09 60.09 0 0 0-1.594.984c-.649.418-.817 1.018-1.042 1.578l-5.801 3.673-1.985-1.257 6.622-4.193c.64.014 1.299.094 1.957-.316A60.2 60.2 0 0 0 50.26 23.1a12.924 12.924 0 0 1-.707-.451l.686-.434-.263-.366-.685.433c-.08-.301-.159-.661-.179-.78a60.09 60.09 0 0 0-1.594.984c-.649.418-.817 1.018-1.042 1.578l-6.785 4.296-1.987-1.259 7.635-4.835c.64.014 1.299.094 1.958-.316.252-.156 1.07-.679 1.568-1.018a14.024 14.024 0 0 1-.707-.451l.686-.434-.263-.366-.685.434c-.08-.301-.159-.661-.179-.78a60.09 60.09 0 0 0-1.594.984c-.649.418-.817 1.018-1.042 1.578l-7.798 4.938-1.972-1.248 8.636-5.469c.64.014 1.299.094 1.957-.316.252-.156 1.07-.679 1.569-1.019a12.924 12.924 0 0 1-.707-.451l.686-.435-.263-.366-.685.434c-.08-.301-.159-.661-.179-.78a60.09 60.09 0 0 0-1.594.984c-.649.418-.817 1.018-1.042 1.578l-8.799 5.572-8.799-5.572c-.225-.56-.393-1.16-1.042-1.578a62.879 62.879 0 0 0-1.594-.984c-.02.119-.1.479-.179.78l-.685-.434-.263.366.686.435c-.268.183-.596.388-.707.451.499.339 1.317.862 1.569 1.019.658.409 1.317.329 1.957.316l8.636 5.469-1.969 1.25-7.798-4.938c-.225-.56-.393-1.161-1.042-1.578a60.09 60.09 0 0 0-1.594-.984c-.02.119-.099.479-.179.78l-.685-.434-.263.366.686.434c-.268.183-.596.388-.707.451a60.2 60.2 0 0 0 1.569 1.018c.658.409 1.317.329 1.957.316l7.635 4.835-1.987 1.259-6.785-4.296c-.225-.56-.393-1.16-1.042-1.578a60.09 60.09 0 0 0-1.594-.984c-.02.119-.099.479-.179.78l-.685-.433-.263.366.686.434c-.268.183-.596.389-.707.451.498.339 1.316.862 1.568 1.018.659.409 1.317.329 1.957.316l6.622 4.193-1.985 1.257-5.801-3.673c-.225-.56-.393-1.16-1.042-1.578a60.09 60.09 0 0 0-1.594-.984c-.02.12-.099.479-.179.78l-.685-.433-.263.366.686.434c-.268.183-.596.389-.707.451a60.2 60.2 0 0 0 1.569 1.018c.658.41 1.317.33 1.957.316l5.639 3.57-5.238 3.316a4.861 4.861 0 0 0-.353-.403c-.12.044-.554.253-.795.406-.564.357-1.042 1.101-.949 1.613.471.273 1.384.136 1.949-.221.241-.153.61-.453.698-.541a2.848 2.848 0 0 0-.182-.335c-.453.287-.999.582-1.586.669l-.02-.028a30.287 30.287 0 0 0 2.416-1.373l4.48-2.837 1.971 1.249-6.238 3.95a4.897 4.897 0 0 0-.353-.404c-.12.044-.554.253-.796.406-.564.357-1.042 1.101-.949 1.613.471.273 1.384.136 1.949-.221.241-.153.61-.453.698-.541a2.848 2.848 0 0 0-.182-.335c-.453.286-.999.582-1.586.669l-.02-.028a30.582 30.582 0 0 0 2.416-1.372l5.481-3.47 1.987 1.258-7.252 4.592a4.897 4.897 0 0 0-.353-.404c-.12.044-.554.252-.796.406-.564.357-1.042 1.1-.949 1.612.471.274 1.384.136 1.949-.221.242-.153.61-.452.698-.541a2.97 2.97 0 0 0-.181-.334c-.453.286-.999.582-1.587.669l-.02-.028a30.582 30.582 0 0 0 2.416-1.372l6.495-4.113 1.985 1.257-8.235 5.215a5.093 5.093 0 0 0-.353-.404c-.12.044-.554.252-.796.406-.564.357-1.042 1.1-.949 1.613.471.273 1.384.135 1.949-.222.241-.153.61-.452.698-.541a2.93 2.93 0 0 0-.182-.335c-.453.286-.999.583-1.586.669l-.02-.028a30.776 30.776 0 0 0 2.417-1.372l7.478-4.735 7.478 4.735a30.284 30.284 0 0 0 2.417 1.372l-.021.028c-.587-.087-1.133-.383-1.586-.669a3.289 3.289 0 0 0-.182.335c.089.089.457.387.699.541.564.357 1.478.495 1.948.222.093-.513-.385-1.256-.949-1.613a6.025 6.025 0 0 0-.796-.406 4.897 4.897 0 0 0-.353.404l-8.235-5.215 1.985-1.257 6.495 4.113a29.977 29.977 0 0 0 2.417 1.372l-.02.028c-.588-.087-1.134-.383-1.586-.669a3.104 3.104 0 0 0-.182.334c.089.089.457.387.698.541.565.357 1.478.495 1.949.221.093-.512-.385-1.255-.949-1.612a6.025 6.025 0 0 0-.796-.406 4.735 4.735 0 0 0-.353.404l-7.252-4.592 1.987-1.258 5.481 3.47a29.963 29.963 0 0 0 2.416 1.372l-.02.028c-.588-.087-1.133-.382-1.586-.669a3.007 3.007 0 0 0-.182.335c.089.088.457.387.699.541.564.357 1.477.494 1.948.221.093-.512-.385-1.256-.949-1.613a6.152 6.152 0 0 0-.796-.406 4.897 4.897 0 0 0-.353.404l-6.238-3.95 1.971-1.249 4.48 2.837a30.287 30.287 0 0 0 2.416 1.373l-.02.028c-.588-.087-1.133-.382-1.586-.669a3.007 3.007 0 0 0-.182.335c.089.088.457.388.698.541.565.357 1.478.494 1.949.221.093-.512-.385-1.256-.949-1.613a6.216 6.216 0 0 0-.795-.406 4.861 4.861 0 0 0-.353.403l-5.238-3.316 5.639-3.57c.643.011 1.302.092 1.961-.318zm-10.842 2.363l-1.972 1.248-1.987-1.258 1.971-1.248 1.988 1.258zm-2.392 1.514l-1.987 1.259-1.987-1.259 1.987-1.258 1.987 1.258zm-1.988-4.287l1.972 1.249-1.972 1.248-1.972-1.248 1.972-1.249zM32.5 27.37l1.971 1.248-1.987 1.258-1.972-1.248L32.5 27.37zm-4.393 2.781l1.985-1.257 1.972 1.248-1.985 1.257-1.972-1.248zm2.392 1.515l1.985-1.257 1.987 1.258-1.985 1.257-1.987-1.258zm4.392 2.781l-1.985-1.257 1.985-1.257 1.985 1.257-1.985 1.257zm2.406-1.523l-1.985-1.257 1.987-1.258 1.985 1.257-1.987 1.258zm2.408-1.525l-1.985-1.257 1.972-1.248 1.985 1.257-1.972 1.248z"/><g fill="#251B5B"><path d="M23.789 17.644c-.008-.032-.087-.083-.087-.024 0 .088-.006.454-.039.676l.19.12c-.026-.262-.028-.619-.064-.772zM24.475 18.81c-.016-.142-.067-.636-.16-.856-.014-.034-.109-.101-.098-.026.029.202.058.529.064.758l.194.124zM25.397 18.859c.043.112.101.399.139.623l.182.115a2.805 2.805 0 0 0-.245-.75c-.029-.055-.133-.137-.076.012zM25.119 19.217c-.016-.142-.12-.675-.215-.89-.015-.034-.12-.105-.105-.03.038.191.113.565.118.794l.202.126zM22.883 18.904c.164-.026.519-.158.786-.234l-.19-.121a7.018 7.018 0 0 1-.653.287c-.057.023.022.074.057.068zM23.388 19.247c.252-.002.759-.143.905-.182l-.194-.123a8.703 8.703 0 0 1-.773.229c-.079.019.022.076.062.076zM24.686 19.849c-.168.006-.049.065.017.071.241.02.599-.019.832-.068l-.181-.115c-.237.05-.541.107-.668.112zM23.975 19.619c.248.003.814-.108.96-.147l-.201-.127c-.228.081-.625.156-.828.194-.079.015.03.08.069.08zM22.397 19.792c-.008-.032-.087-.083-.087-.024 0 .088-.006.453-.039.676l.19.12c-.025-.261-.027-.619-.064-.772zM22.827 20.077c.029.202.058.529.063.758l.194.123c-.016-.142-.067-.636-.16-.856-.014-.033-.108-.1-.097-.025zM24.006 21.007c.043.112.101.399.139.624l.182.115a2.805 2.805 0 0 0-.245-.75c-.03-.056-.133-.138-.076.011zM23.513 20.475c-.015-.034-.12-.105-.105-.03.038.191.113.565.118.794l.201.127c-.016-.142-.119-.676-.214-.891zM21.492 21.053c.164-.026.519-.158.786-.233l-.189-.121a7.302 7.302 0 0 1-.653.287c-.059.022.021.072.056.067zM21.996 21.395c.252-.001.759-.143.905-.182l-.194-.123a8.703 8.703 0 0 1-.773.229c-.079.019.023.076.062.076zM23.294 21.997c-.168.006-.049.065.017.071.241.02.599-.019.832-.069l-.181-.115c-.236.052-.54.109-.668.113zM22.516 21.687c-.08.015.029.08.069.08.248.003.814-.108.96-.147l-.201-.127c-.229.081-.626.156-.828.194zM21.004 21.958c-.008-.032-.087-.083-.087-.024 0 .088-.006.454-.039.676l.19.12c-.027-.261-.028-.618-.064-.772zM21.433 22.243c.029.202.058.529.064.758l.194.123c-.016-.142-.067-.636-.16-.856-.015-.033-.109-.1-.098-.025zM22.612 23.173c.043.113.101.399.139.623l.182.115a2.805 2.805 0 0 0-.245-.75c-.029-.054-.133-.136-.076.012zM22.119 22.642c-.016-.034-.12-.104-.105-.03.038.19.113.564.118.793l.201.127c-.016-.141-.119-.675-.214-.89zM20.098 23.219c.164-.026.519-.158.786-.233l-.189-.121a7.302 7.302 0 0 1-.653.287c-.058.022.021.073.056.067zM20.603 23.561c.252-.001.759-.143.905-.181l-.194-.123a9.051 9.051 0 0 1-.773.229c-.079.018.022.076.062.075zM21.901 24.164c-.168.006-.049.065.017.071.241.02.599-.019.832-.068l-.181-.115c-.237.05-.541.107-.668.112zM21.122 23.854c-.08.015.029.08.069.08.248.003.814-.108.96-.147l-.201-.127c-.228.081-.626.156-.828.194zM19.582 24.105c-.008-.033-.088-.083-.088-.024 0 .088-.006.454-.039.676l.19.12c-.025-.262-.027-.62-.063-.772zM20.268 25.271c-.016-.142-.067-.636-.16-.856-.014-.034-.109-.101-.098-.026.029.202.058.529.063.758l.195.124zM21.19 25.319c.043.113.101.399.139.623l.182.115a2.839 2.839 0 0 0-.244-.75c-.031-.054-.134-.136-.077.012zM20.592 24.758c.038.191.113.564.118.793l.201.127c-.016-.142-.119-.676-.215-.89-.014-.034-.119-.105-.104-.03zM19.273 25.011a7.018 7.018 0 0 1-.653.287c-.058.022.021.073.056.067.165-.026.519-.158.787-.233l-.19-.121zM19.891 25.403c-.228.08-.562.178-.773.229-.079.019.023.076.062.076.252-.002.759-.143.905-.182l-.194-.123zM20.478 26.31c-.168.006-.048.065.017.071.241.02.599-.019.832-.068l-.181-.115c-.235.05-.54.107-.668.112zM20.528 25.806c-.229.081-.626.156-.828.194-.08.015.029.08.069.08.248.002.814-.108.96-.147l-.201-.127zM46.082 17.62c0-.059-.08-.008-.087.024-.036.153-.037.511-.064.772l.19-.12a5.926 5.926 0 0 1-.039-.676zM45.565 17.929c.011-.076-.084-.009-.098.026-.093.22-.143.714-.16.856l.194-.123c.006-.23.035-.557.064-.759zM44.31 18.847c-.11.202-.206.529-.244.75l.182-.115a4.57 4.57 0 0 1 .139-.623c.056-.149-.048-.067-.077-.012zM44.984 18.297c.015-.075-.089-.004-.105.03-.095.215-.198.749-.215.89l.201-.127c.006-.228.081-.602.119-.793zM46.9 18.904c.035.005.115-.045.056-.067a7.177 7.177 0 0 1-.653-.287l-.19.121c.269.075.623.207.787.233zM46.396 19.247c.039 0 .141-.057.062-.076a8.803 8.803 0 0 1-.773-.229l-.194.123c.146.039.653.18.905.182zM45.097 19.849a5.533 5.533 0 0 1-.667-.113l-.182.115c.233.049.591.089.832.068.066-.004.186-.064.017-.07zM45.808 19.619c.039 0 .148-.065.069-.08-.202-.038-.599-.113-.828-.194l-.2.127c.145.039.71.15.959.147zM47.473 19.768c0-.059-.08-.009-.087.024-.036.153-.038.511-.064.772l.19-.12a5.926 5.926 0 0 1-.039-.676zM46.957 20.077c.01-.075-.084-.009-.098.026-.093.22-.143.714-.16.856l.194-.123c.006-.23.034-.557.064-.759zM45.701 20.996c-.11.202-.206.529-.245.75l.182-.115a4.59 4.59 0 0 1 .139-.624c.057-.149-.046-.067-.076-.011zM46.27 20.475c-.095.215-.198.749-.214.891l.201-.127c.006-.229.08-.603.118-.794.015-.074-.089-.004-.105.03zM48.291 21.053c.035.005.115-.045.056-.067a7.177 7.177 0 0 1-.653-.287l-.189.121c.268.074.622.206.786.233zM47.787 21.395c.039 0 .141-.057.062-.076a8.785 8.785 0 0 1-.772-.229l-.195.123c.146.039.653.181.905.182zM46.489 21.997a5.576 5.576 0 0 1-.668-.113l-.182.116c.233.049.591.089.832.069.066-.006.186-.065.018-.072zM47.267 21.687c-.202-.038-.6-.113-.828-.194l-.2.127c.146.039.711.149.96.147.039 0 .148-.065.068-.08zM48.867 21.935c0-.059-.08-.009-.087.024-.036.153-.037.511-.064.772l.19-.12a5.938 5.938 0 0 1-.039-.676zM48.351 22.243c.01-.075-.084-.008-.098.026-.093.22-.143.714-.16.856l.194-.123c.005-.229.034-.556.064-.759zM47.095 23.162c-.11.202-.206.529-.245.75l.182-.115a4.57 4.57 0 0 1 .139-.623c.057-.149-.046-.067-.076-.012zM47.664 22.642c-.095.215-.198.749-.215.891l.201-.127c.006-.229.081-.603.118-.793.016-.076-.089-.005-.104.029zM49.685 23.219c.035.006.115-.045.057-.067a7.295 7.295 0 0 1-.654-.287l-.189.121c.268.074.622.207.786.233zM49.181 23.561c.039 0 .141-.057.062-.076a8.703 8.703 0 0 1-.773-.229l-.195.123c.147.04.653.181.906.182zM47.882 24.164a5.533 5.533 0 0 1-.667-.113l-.182.115c.233.049.591.088.832.068.066-.005.185-.064.017-.07zM48.661 23.854c-.203-.038-.6-.113-.828-.194l-.2.127c.146.039.711.149.96.147.039-.001.148-.065.068-.08zM50.289 24.081c0-.059-.08-.009-.087.024-.036.153-.038.511-.064.772l.19-.12a5.938 5.938 0 0 1-.039-.676zM49.674 24.415c-.093.22-.144.714-.16.856l.194-.123c.006-.229.034-.556.064-.758.011-.076-.083-.009-.098.025zM48.517 25.308a2.768 2.768 0 0 0-.244.75l.182-.115a4.57 4.57 0 0 1 .139-.623c.056-.149-.047-.067-.077-.012zM49.086 24.788c-.095.215-.198.749-.215.89l.201-.127c.006-.229.08-.602.118-.793.016-.075-.089-.004-.104.03zM51.163 25.298a7.177 7.177 0 0 1-.653-.287l-.189.121c.268.075.622.207.786.233.035.005.114-.045.056-.067zM49.892 25.403l-.194.123c.146.039.653.18.905.182.039 0 .141-.057.062-.076a9.429 9.429 0 0 1-.773-.229zM49.305 26.31a5.35 5.35 0 0 1-.668-.113l-.181.115c.233.049.591.089.832.068.065-.005.185-.064.017-.07zM49.255 25.806l-.201.127c.146.039.711.149.96.147.039-.001.148-.065.069-.08-.202-.038-.599-.113-.828-.194z"/></g><path fill="#251B5B" d="M40.91 41.162c-.1-.016-.389-.001-.474-.001-.086-.001-.093-.006-.073-.084.031-.125.025-.16-.084-.115s-.318.171-.458.235c.063-.067.101-.184.126-.259.042-.128.012-.133-.07-.097-.068.03-.36.118-.587.188-.104-1.038-1.43-2.566-3.476-2.566-.1 0-.187.006-.265.019-.006-.222-.007-.646-.015-.719-.009-.081-.054-.09-.099-.063-.045.026-.118.089-.2.152 0-.1.014-.304.014-.376 0-.114-.015-.124-.096-.056-.039.034-.072.005-.087-.038-.026-.074-.163-.431-.19-.512s-.066-.066-.108.018a5.965 5.965 0 0 0-.176.452c-.034.1-.051.098-.115.047-.094-.075-.116-.041-.109.02.015.117.084.391.102.545-.045-.081-.147-.176-.199-.235-.056-.063-.097-.036-.099.054-.003.083-.013.327-.017.541l-.054-.003c-1.405 0-3.502 1.127-3.683 2.672-.204-.059-.638-.199-.712-.214-.08-.017-.103.023-.091.074.012.051.032.134.067.23l-.452-.147c-.061-.02-.07.021-.013.106.041.062.034.066-.046.071-.092.006-.433.014-.518.014-.085.001-.083.043-.016.109.072.071.285.27.354.321.055.041.051.052.012.073-.071.038-.088.091.026.118.114.028.377.07.528.1l-.285.116c-.078.034-.065.094.019.121.065.021.269.093.461.157-.177.32-.274.807-.274 1.462 0 1.795.682 3.049 1.717 3.287-.131.188-.307.433-.337.485-.04.071-.009.105.043.109.052.005.14-.005.253-.021-.058.081-.4.415-.443.473-.042.058.14.024.196.011.045-.01.038 0 .025.08-.014.08-.129.404-.154.486-.026.082.029.115.113.071.089-.047.374-.247.443-.296.067-.048.075-.05.109.107.017.079.072.159.134.059.061-.1.272-.579.348-.768-.011.093.015.228.023.307.008.085.067.092.113.015.032-.056.155-.206.273-.356.365.693 1.496 1.045 2.669 1.045 1.53 0 2.165-.368 2.415-.805.114.153.243.333.281.374.055.06.097.041.117-.008.021-.048.046-.111.075-.21.059.08.2.286.243.345.049.067.078.083.099-.01.02-.092.027-.092.099-.055.071.038.316.21.385.26.07.05.132.028.116-.065a5.998 5.998 0 0 0-.098-.468c-.026-.081-.021-.068.06-.061.171.014.145-.047.068-.136-.076-.089-.267-.269-.372-.383.084.039.221.063.298.074.122.016.152-.019.071-.111-.05-.056-.232-.26-.371-.436.869-.301 1.839-1.688 1.839-3.5 0-.605-.234-1.035-.543-1.301.203-.057.457-.116.531-.131.075-.014.1-.053.03-.114a1.908 1.908 0 0 0-.19-.146c.094-.031.326-.129.395-.151s.012-.07-.037-.099c-.058-.034-.058-.045-.005-.081.066-.047.386-.26.454-.31.066-.049.04-.082-.053-.096zm-11.334.326c.118.045.527.183.831.291-.236.012-.433.126-.585.339a14.358 14.358 0 0 0-.371-.104c.049-.028.165-.093.232-.129.103-.056.109-.122-.085-.149a83.479 83.479 0 0 1-.439-.066l.111-.067a4.634 4.634 0 0 0-.453-.37c.117.006.449-.009.611-.023l-.069-.129c.069.022.314.105.379.135.066.031.124-.016.112-.068l-.049-.215c.068.031.361.15.602.204l-.002.06c0 .157.044.294.131.427-.332-.085-.834-.188-.921-.221-.116-.046-.209.019-.035.085zm2.48 6.443c-.012-.056-.028-.176-.039-.252-.019-.115-.135-.112-.179.026-.026.081-.301.645-.301.645l-.054-.201c-.13.092-.377.242-.531.355.054-.105.145-.447.171-.606l-.185.036c.042-.058.337-.374.387-.428.05-.052.019-.093-.045-.087-.052.005-.129.004-.238.005.043-.047.184-.232.31-.413.068.008.138.014.209.014.117 0 .294-.021.479-.109-.22.308-.541.775-.596.85-.074.102-.035.209.073.058.083-.116.485-.579.721-.856-.053.237-.038.45.032.641-.074.111-.17.252-.214.322zm2.929-9.113c-.02-.343-.082-.931-.083-1.032-.001-.127-.095-.189-.094-.003.002.134-.007.625-.015.959-.149-.248-.308-.369-.507-.411-.003-.137-.01-.332-.016-.422.042.038.126.126.18.18.082.083.175.012.129-.125-.027-.082-.091-.454-.091-.454l.113.094c.036-.063.155-.362.218-.56.018.118.135.45.207.594l.117-.098c0 .072-.017.323-.026.396-.009.072.054.113.099.085.045-.027.102-.069.191-.145a4.324 4.324 0 0 0-.012.64.69.69 0 0 0-.41.302zm3.69 8.668c-.056-.005-.177-.027-.252-.039-.115-.018-.148.094-.031.178.069.049.336.353.336.353l-.18-.021c.035.078.097.33.137.546-.083-.085-.369-.254-.508-.34l-.032.159a6.488 6.488 0 0 1-.216-.347c-.035-.063-.087-.064-.108-.016s-.061.136-.092.239a4.437 4.437 0 0 0-.243-.371c.083-.224.085-.457.069-.662.223.263.614.686.673.765.076.101.19.094.077-.053a44.148 44.148 0 0 1-.572-.795.972.972 0 0 0 .414.072c.066 0 .135-.009.203-.023.094.105.261.279.325.355zm1.574-5.878l.149.097c-.069.022-.304.101-.376.114-.122.023-.088.066-.03.116.047.04.118.068.193.133-.063.014-.314.055-.542.116a1.3 1.3 0 0 0-.539-.211c.41-.172.802-.366.89-.397.119-.044.146-.154-.028-.089-.131.048-.547.182-.961.321a.827.827 0 0 0 .289-.639c.155-.049.404-.129.492-.164-.023.052-.058.156-.093.224-.059.117-.052.183.136.073.074-.043.394-.19.394-.19l-.009.162c.071.014.334-.008.542-.01a2.916 2.916 0 0 0-.507.344z"/><path fill="#FFF" d="M36.357 45.504c.104.236.961 1.117.961 1.703 0 .956-.821 1.244-2.291 1.244-1.878 0-2.606-.761-2.606-1.29 0-.48.514-1.173.972-1.678.2-.221-.1-.42-.23-.165-.143.279-.818 1.491-1.499 1.491-1.369 0-1.912-1.975-1.912-3.49 0-.826.276-1.353.883-1.353.291 0 .948.388 1.923.689.279.087.465-.237.065-.283-.911-.104-1.997-.55-1.997-1.164 0-1.426 2.587-2.688 3.409-2.688.8 0 .882 1.203.783 2.645-.018.266.299.259.292-.012-.037-.356-.068-1.291-.113-1.693-.041-.36.188-.777.824-.777 1.498 0 3.256 1.601 3.256 2.471 0 .552-.916 1.07-2.039 1.281-.301.057-.107.387.139.26.358-.184 1.181-.521 1.719-.521.507 0 1.092.434 1.092 1.304 0 1.993-1.097 3.476-1.831 3.476-.664 0-1.187-.88-1.574-1.587-.103-.187-.329-.096-.226.137z"/><g fill="#251B5B"><path d="M35.487 41.048c-.012-.186-.039-.97-.039-1.158 0-.532.178-.712.47-.712.523 0 .928 1.025 1.557.564-.289.922 1.088.837 1.088 1.369 0 .405-.827.912-1.534.916-.094.001-.194.079.037.08.41.004 1.635-.294 1.635-1.04 0-.556-1.132-.497-1.132-1.114 0-.104.007-.211.03-.29.022-.074-.072-.119-.116-.065a.36.36 0 0 1-.266.128c-.427 0-.88-.72-1.316-.72-.429 0-.601.285-.601.897 0 .203.087 1.022.094 1.147.007.126.106.184.093-.002zM31.712 41.794c.193.063.877.169 1.099.283.149.077.109-.014.041-.065-.137-.106-.889-.276-1.068-.334-.42-.137-.632-.413-.543-.695.144-.463 1.2-.581 1.017-1.307.842.582 1.114-.751 1.621-.591.717.224.335 1.578.362 1.925.012.155.114.111.109-.03-.013-.358.406-1.784-.404-2.052-.528-.175-.905.895-1.458.724a1.66 1.66 0 0 1-.281-.129c-.058-.039-.129.041-.085.102a.34.34 0 0 1 .042.291c-.127.414-.988.652-1.107 1.035-.079.254-.024.622.655.843zM32.873 44.81c-.074.131-.495.884-.62 1.024-.272.307-.702.362-.922.202-.392-.286-.18-1.375-.929-1.371.777-.577-.343-1.328-.03-1.758.304-.419 1.264-.116 1.95.327.131.085.124-.025.005-.113-.462-.336-1.687-.879-2.101-.327-.386.514.523 1.146.226 1.643a.946.946 0 0 1-.211.224c-.067.044-.007.126.064.11a.368.368 0 0 1 .298.057c.285.207.308 1.14.612 1.361.311.226.821.164 1.176-.325.12-.165.456-.84.547-.988.092-.146.01-.197-.065-.066zM35.947 45.738c-.082-.121-.149-.046-.082.06.067.105.573.716.683.867.244.336.258.682.038.841-.393.286-1.315-.281-1.603.5-.259-.944-1.448-.186-1.761-.616-.202-.278-.023-1.042.596-1.561.108-.091-.003-.129-.106-.039-.353.31-1.016 1.239-.579 1.75.362.424 1.31-.118 1.65.351.037.05.13.206.148.27.017.064.122.083.14-.034.009-.059.057-.201.131-.259.364-.286 1.224.076 1.546-.225.255-.239.274-.679-.126-1.096a13.135 13.135 0 0 1-.675-.809zM39.455 44.818a.397.397 0 0 1-.205-.21c-.115-.398.296-1.159.198-1.522-.108-.401-.497-.582-1.036-.313-.238.119-.676.199-1.02.234-.228.023-.164.087-.003.09.232.005.682-.039 1.075-.2.446-.181.723-.078.822.227.15.461-.546 1.255.03 1.735-.968.01-.551 1.184-1.057 1.348-.412.135-1.043-.407-1.338-1.146-.038-.094-.124-.12-.07.089.089.343.738 1.468 1.481 1.227.528-.172.264-1.177.812-1.363.095-.032.224-.053.302-.057.066-.005.068-.123.009-.139z"/><path d="M33.69 40.104c.028-.153-.092-.226-.137-.078-.057.189-.075 1.284.295 1.777-.175-.237-1.075-1.365-1.159-1.534-.088-.178-.196-.069-.164.036.032.102.95 1.274 1.198 1.544-.237-.238-1.233-.708-1.548-.752-.089-.012-.155.084-.039.126.201.072 1.173.451 1.614.75-.121.1-.234.214-.343.336-.29.323-.42.755-.42 1.284 0 .121.012.241.036.357-.649.015-1.543-.423-1.709-.548-.125-.094-.226-.021-.113.084.144.135 1.116.64 1.721.528-.29.051-1.683.339-1.889.353-.199.014-.149.145-.041.162.105.017 1.564-.281 1.917-.382-.319.106-1.184.788-1.364 1.05-.05.074.006.176.096.091.158-.151.975-.902 1.434-1.15.132.393.418.733.879.944.229.106.528.21.841.237-.136.685-.683 1.44-.829 1.58-.113.107-.058.237.065.144.157-.119.816-.995.805-1.61.003.295.069 1.736.036 1.922-.034.197.119.171.154.067.034-.101-.02-1.59-.061-1.954.052.332.582 1.298.811 1.518.065.062.175.023.105-.079-.219-.323-.707-1.021-.863-1.583.495-.023 1.177-.288 1.455-.767.064-.11.129-.235.187-.371.543.33 1.062 1.056 1.147 1.233.068.141.208.129.157-.017-.065-.186-.695-1.084-1.283-1.264.281.089 1.672.471 1.839.559.176.093.199-.059.111-.124-.085-.065-1.518-.473-1.877-.547.332.054 1.414-.152 1.694-.302.079-.041.076-.159-.043-.124-.193.056-1.077.308-1.661.345.052-.173.087-.358.087-.552 0-.466-.213-.909-.553-1.275a1.178 1.178 0 0 0-.142-.129c.493-.375 1.259-.621 1.442-.645.155-.021.186-.158.032-.154-.187.004-1.137.292-1.537.752l-.005-.003c.245-.355.92-1.375 1.044-1.496.143-.139.005-.208-.085-.144-.083.059-.848 1.193-1.072 1.57l-.005-.003c.144-.353.268-1.357.215-1.656-.016-.088-.129-.12-.133.003-.006.186-.06 1.041-.174 1.605a2.426 2.426 0 0 0-1.063-.228c-.36 0-.642.103-.884.265-.281-.582-.258-1.549-.221-1.751z"/></g><path fill="#312A74" d="M26.937 14.536c-.034-.435-.368-1.184-.64-1.369-.057-.039-.143-.039-.085.022.256.266.499.964.574 1.273.017.066.158.153.151.074z"/><g fill="#251B5B"><path d="M34.894 16.01c-.047-.003-.166-.001-.248.074-.145.131-.494.39-.681.519a.255.255 0 0 0-.111.21.288.288 0 0 0 .105.239c.154.121.471.377.668.546.125.108.34.087.441-.002.1-.089.557-.404.683-.482a.25.25 0 0 0 .117-.215.277.277 0 0 0-.115-.244 5.703 5.703 0 0 1-.633-.544.315.315 0 0 0-.226-.101zM30.997 17.798c.122-.019.578-.079 1.249-.151a.768.768 0 0 1 .239-.29 3.14 3.14 0 0 0-.084-.549.528.528 0 0 1-.339-.191c-.263.041-.912.137-1.208.17a.49.49 0 0 1-.216.286c.01.095.051.376.077.493.15.042.23.11.282.232zM34.874 14.41c.198 0 .355-.077.355-.433 0-.22-.109-.401-.334-.401-.203 0-.358.191-.358.411.001.212.108.423.337.423zM34.155 13.997c.083.006.098-.141-.037-.157-.135-.015-1.549-.049-1.733-.022-.093.014-.088.094.042.084.139-.011 1.532.081 1.728.095zM35.01 13.179a67.937 67.937 0 0 0-.048-1.817c-.009-.156-.116-.15-.113.009.002.083-.036 1.613-.048 1.791-.006.098.204.084.209.017zM35.692 13.988c.18-.034 1.504-.028 1.7-.038.093-.005.081-.095-.009-.094-.167.002-1.636-.054-1.727-.034-.129.029-.099.192.036.166zM29.111 14.376c-.051.024-1.647.491-1.697.527-.031.022.023.161.091.121.089-.052 1.575-.529 1.641-.578.059-.043.016-.094-.035-.07zM43.382 13.198c-.171.214-.545.903-.578 1.338-.006.08.134-.008.15-.074.076-.309.285-.915.514-1.243.047-.068-.043-.074-.086-.021zM40.631 14.376c-.051-.024-.094.027-.035.071.065.049 1.455.505 1.544.557.068.04.122-.099.091-.121-.051-.036-1.549-.483-1.6-.507zM37.19 17.347a.751.751 0 0 1 .239.29c.671.072 1.127.132 1.249.151.052-.123.133-.19.283-.232a6.65 6.65 0 0 0 .076-.493.487.487 0 0 1-.215-.286 39.245 39.245 0 0 1-1.209-.17.521.521 0 0 1-.339.191 3.126 3.126 0 0 0-.084.549zM34.848 18.639c-2.55-.02-5.56.372-5.564.821-.001.109.26.187.442.188.058.001.061-.102.008-.117-.089-.026-.125-.025-.124-.073.002-.234 2.226-.649 5.237-.626 3.565.027 5.352.384 5.352.589 0 .054-.071.094-.169.131-.073.027-.026.147.051.134.049-.008.43-.098.432-.283.002-.283-1.926-.736-5.665-.764z"/></g><g fill="#251B5B"><path d="M68.991 11.77h.657v6.669c0 .593-.265.695-.606.695h-1.086v.442h4.572v-.442h-1.086c-.341 0-.607-.101-.607-.695V11.77h.657c1.465 0 1.717.581 1.92 2.804h.417V11.29h-7.173v3.284h.417c.201-2.223.454-2.804 1.918-2.804zM77.504 19.159H77.1c-.354 0-.619-.101-.619-.695v-1.819c0-1.2.72-2.374 1.819-2.374.796 0 .871.72.871.998v3.196c0 .593-.265.695-.619.695h-.404v.416h3.284v-.416h-.543c-.354 0-.606-.101-.606-.695V15.08c-.089-.669-.72-1.402-1.768-1.402-1.01 0-1.705.53-2.033 1.162v-3.55H74.22v.417h.531c.353 0 .618.101.618.695v6.062c0 .581-.252.695-.606.695h-.543v.416h3.284v-.416zM84.399 19.689c1.692 0 2.336-1.187 2.299-2.261h-.455c.012.783-.442 1.793-1.68 1.793-1.162 0-1.768-.846-1.768-2.375h3.663l.164-.202c-.025-1.604-.834-2.956-2.324-2.956-1.705 0-2.639 1.68-2.639 3.309 0 1.202.719 2.692 2.74 2.692zm-.063-5.506c.897 0 1.238 1.288 1.137 2.172h-2.652c.126-1.327.694-2.172 1.515-2.172zM67.333 24.328v5.102c.126.985 1.01 2.223 2.993 2.223 2.387 0 2.93-1.793 2.93-2.917v-4.408c0-.594.252-.695.594-.695h.821v-.442h-3.624v.442h.972c.341 0 .594.101.594.695v4.408c0 1.642-.96 2.362-2.122 2.362-.884 0-1.97-.53-1.97-2.097v-4.673c0-.594.265-.695.606-.695h1.023v-.442h-4.231v.442h.821c.341 0 .593.101.593.695zM81.314 31.059h-.455c-.353 0-.606-.114-.606-.707v-3.334c-.089-.669-.72-1.402-1.768-1.402-1.023 0-1.579.556-1.907 1.2l-.076-1.124h-2.185v.417h.543c.353 0 .618.101.618.695v3.549c0 .606-.252.707-.606.707h-.542v.417h3.284v-.417h-.404c-.354 0-.619-.101-.619-.707v-1.756c0-1.212.581-2.387 1.68-2.387.796 0 .872.72.872.998v3.145c0 .606-.266.707-.619.707h-.404v.417h3.195l-.001-.418z"/><ellipse cx="83.171" cy="23.873" rx=".695" ry=".77"/><path d="M82.741 26.803v3.561c0 .594-.265.695-.619.695h-.442v.417h3.335v-.417h-.543c-.354 0-.619-.101-.619-.695v-4.673H81.58v.417h.543c.353.001.618.102.618.695zM87.477 26.109h.492v-.417h-3.41v.417h.404c.391 0 .707.139.922.72l1.73 4.648h.493l1.869-4.648c.177-.455.48-.72.884-.72h.189v-.417h-2.463v.417h.404c.556 0 .556.467.379.922l-1.149 3.044-1.187-3.233c-.214-.569.09-.733.443-.733zM93.804 31.653c1.692 0 2.336-1.187 2.299-2.26h-.455c.012.783-.442 1.793-1.68 1.793-1.162 0-1.768-.96-1.768-2.488h3.662l.164-.202c-.025-1.604-.834-2.955-2.324-2.955-1.705 0-2.639 1.73-2.639 3.359.001 1.199.72 2.753 2.741 2.753zm-.063-5.62c.897 0 1.238 1.288 1.137 2.172h-2.652c.126-1.326.694-2.172 1.515-2.172zM100.119 31.059h-.669c-.353 0-.619-.114-.619-.707v-1.793c0-1.579.897-2.728 1.845-2.526-.367.139-.632.442-.632.909 0 .291.215.632.619.632.468 0 .758-.429.758-.96 0-.619-.392-1.074-.948-1.074-.77 0-1.376.543-1.667 1.2l-.063-1.048H96.57v.417h.543c.353 0 .619.101.619.695v3.549c0 .581-.266.707-.619.707h-.543v.417h3.549v-.418zM104.463 31.653c1.149 0 1.97-.732 1.97-1.793 0-1.945-3.372-1.503-3.372-2.943 0-.429.316-.871.985-.871.808 0 1.427.581 1.68 1.793h.379v-2.21h-.29l-.366.53c-.354-.392-.909-.619-1.453-.619-1.149 0-1.856.796-1.856 1.793 0 1.958 3.309 1.617 3.309 2.968 0 .568-.53.846-1.035.846-1.112 0-1.756-1.175-1.87-2.084h-.378v2.501h.378l.316-.669c.277.404.946.758 1.603.758zM107.583 31.059h-.442v.417h3.335v-.417h-.543c-.354 0-.619-.101-.619-.695v-4.673h-2.273v.417h.543c.353 0 .619.101.619.695v3.561c-.001.594-.267.695-.62.695z"/><ellipse cx="108.631" cy="23.873" rx=".695" ry=".77"/><path d="M111.662 30.428c.126.783.909 1.149 1.453 1.149 1.074 0 1.629-.745 1.629-1.427v-1.945h-.505v1.743c0 .505-.278.896-.783.896-.455 0-.695-.303-.695-.858v-3.764h1.718v-.53h-1.718v-2.501h-.518c-.076 1.945-.644 2.412-1.452 2.576v.455h.871v4.206zM118.722 25.692v.417h.467c.556 0 .556.467.379.922l-1.174 2.943-1.099-3.145c-.202-.568.089-.72.442-.72h.481v-.417h-3.271v.417h.277c.392 0 .733.126.935.707l1.566 4.471c-.391 1.654-1.187 2.841-1.882 2.614a.955.955 0 0 0 .379-.77c0-.379-.277-.682-.556-.682-.505 0-.745.48-.745.935 0 .593.442 1.036.985 1.036 1.035 0 1.478-.847 2.097-2.349l2.172-5.254c.189-.455.48-.707.884-.707h.189v-.417h-2.526v-.001zM70.308 43.58c2.021 0 3.675-1.591 3.675-4.344 0-1.553-.998-4.294-3.662-4.294-2.084 0-3.599 2.046-3.599 4.445 0 1.97 1.275 4.193 3.586 4.193zm.089-8.083c1.869 0 2.311 2.375 2.311 3.966 0 2.072-.884 3.562-2.273 3.562-1.048 0-2.437-.669-2.437-3.65-.001-1.996.618-3.878 2.399-3.878zM77.457 36.242c0 .366.29.543.543.543.278 0 .745-.239.745-.871 0-.379-.416-.972-1.187-.972-1.174 0-1.882.922-1.882 1.995 0 .24.076.808.164 1.174h-1.061v.53h1.099v3.65c0 .594-.265.695-.619.695h-.543v.417h3.562v-.417h-.669c-.354 0-.619-.101-.619-.695v-3.65h1.364v-.53H76.94c-.114-.429-.228-1.048-.228-1.541 0-.707.341-1.162.935-1.162.102 0 .278.05.354.151-.356.152-.544.393-.544.683zM68.252 48.845c0-.455.329-1.453 1.705-1.453 1.44 0 2.147 1.263 2.311 2.993h.429v-3.498h-.329l-.379.909c-.48-.53-1.086-.909-2.172-.909-1.629 0-2.437 1.263-2.437 2.286 0 3.385 4.875 1.655 4.875 4.408 0 .909-.682 1.44-1.629 1.44-1.718 0-2.5-1.68-2.703-3.347h-.417v3.675h.341l.518-.96c.341.568 1.25 1.136 2.349 1.136 1.225 0 2.5-.834 2.5-2.513.001-3.132-4.962-1.616-4.962-4.167zM79.644 54.237v-3.334c-.089-.669-.72-1.402-1.768-1.402-1.01 0-1.566.53-1.894 1.162v-4.016H73.72v.417h.531c.353 0 .618.101.618.695v6.478c0 .581-.252.695-.606.695h-.543v.417h3.284v-.417H76.6c-.354 0-.619-.101-.619-.695V52.47c0-1.2.581-2.375 1.68-2.375.795 0 .872.72.872.998v3.144c0 .594-.266.695-.619.695h-.404v.417h3.284v-.417h-.544c-.353 0-.606-.101-.606-.695zM83.988 55.058c-1.162 0-1.768-.96-1.768-2.487h3.662l.164-.202c-.025-1.604-.834-2.955-2.324-2.955-1.705 0-2.639 1.73-2.639 3.359 0 1.2.72 2.753 2.74 2.753 1.693 0 2.337-1.187 2.299-2.26h-.455c.014.782-.441 1.792-1.679 1.792zm-.227-5.153c.896 0 1.237 1.288 1.136 2.172h-2.652c.126-1.325.695-2.172 1.516-2.172zM89.57 47.733c0 .367.29.543.543.543.354 0 .745-.278.745-.871 0-.505-.657-1.048-1.465-1.048-1.174 0-2.033.96-2.033 2.033 0 .24.076.808.164 1.175h-.947v.53h.973v4.142c0 .594-.265.695-.619.695h-.417v.417h3.309v-.417h-.543c-.354 0-.619-.101-.619-.695v-4.142h1.238v-.53h-1.276c-.088-.429-.227-1.048-.227-1.541 0-.594.366-1.2 1.086-1.2.29 0 .556.114.632.228-.354.151-.544.391-.544.681zM96.327 54.237v-4.673h-2.273v.429h.543c.354 0 .619.101.619.695v3.549c0 .594-.265.695-.619.695h-.493v.417h3.259v-.417h-.417c-.354 0-.619-.101-.619-.695z"/><path d="M94.016 46.786c.379 0 .745.101.985.391a.898.898 0 0 0-.429.746c0 .391.29.707.695.707.467 0 .795-.341.795-.96 0-.669-.96-1.351-2.046-1.351-2.198 0-2.993 1.717-2.69 3.245h-.947v.53h.972v4.142c0 .594-.265.695-.619.695h-.417v.417h3.372v-.417h-.606c-.354 0-.619-.101-.619-.695v-4.142h1.187v-.53h-1.237c-.329-1.679.277-2.778 1.604-2.778zM100.646 55.058c-1.162 0-1.768-.96-1.768-2.487h3.663l.164-.202c-.025-1.604-.834-2.955-2.324-2.955-1.705 0-2.639 1.73-2.639 3.359 0 1.2.72 2.753 2.741 2.753 1.692 0 2.336-1.187 2.299-2.26h-.455c.011.782-.443 1.792-1.681 1.792zm-.227-5.153c.897 0 1.238 1.288 1.137 2.172h-2.652c.125-1.325.694-2.172 1.515-2.172zM105.369 54.237v-7.59h-2.273v.417h.543c.354 0 .619.101.619.695v6.478c0 .594-.265.695-.619.695h-.543v.417h3.435v-.417h-.543c-.353 0-.619-.113-.619-.695zM112.378 54.212v-7.565h-2.943v.417h1.213c.354 0 .619.101.619.695v2.412c-.341-.481-.846-.746-1.377-.746-1.831 0-2.702 1.92-2.702 3.082 0 1.617 1.01 2.956 2.538 2.956.821 0 1.364-.468 1.654-.96.012.429.328.846.745.846h1.401v-.417h-.543c-.352 0-.605-.113-.605-.72zm-2.55.708c-.808 0-1.465-.783-1.465-2.551 0-1.326.656-2.425 1.528-2.425 1.099 0 1.466 1.427 1.466 2.627-.001 1.477-.519 2.349-1.529 2.349z"/><ellipse cx="115.081" cy="54.667" rx=".796" ry=".808"/></g><path fill="#251B5B" d="M43.907 35.901c-.067-1.988-.771-10.231-.809-13.202-.003-.215-.035-.221-.2-.2-.094.012-.27.03-.518.053 0 0 .012-.259 0-.341-.012-.082-.012-.094-.117-.082-.086.009-.259.018-.467.034 0-.23.002-.455.007-.672-.42.133-1.22.187-1.589.187-1.478 0-2.31-.461-3.467-.461-.512 0-1.059.06-1.609.266-.164.061-.266.02-.379-.031-.113-.051-.572-.235-1.279-.235-1.143 0-2.713.507-4.047.507-.735 0-1.336-.189-1.645-.36a55.52 55.52 0 0 1-.024.552c-.172-.015-.373-.034-.438-.034-.1 0-.103-.001-.103.118 0 .103-.009.197-.018.342a6.08 6.08 0 0 1-.522-.04c-.114-.019-.133-.006-.133.192 0 .147-.98 13.373-.98 13.655 0 .369.031.482.436.353.767-.245 4.488-1.392 7.432-1.048-.252.96 3.138.973 3.002.023 2.684-.375 6.827.861 7.121.908.294.047.359-.095.346-.484z"/><path fill="#FFED00" d="M34.468 35.106c-.387-.164-.988-.329-2.546-.329-2.531 0-4.298.801-5.579.621-.081-.012-.122-.023-.117-.118.204-3.964.701-9.607.968-12.699-.086 0-.295-.023-.341-.023s-.078 0-.078.054c0 .055-.962 13.234-.969 13.375-.008.14.028.202.138.178.109-.023 3.126-1.007 5.94-1.007.561 0 1.691.085 1.761.094.07.008.039.047.031.102-.105.733 2.68.615 2.525.07-.015-.054-.031-.133.062-.148a10.05 10.05 0 0 1 1.52-.117c2.203 0 5.492.766 5.617.798.125.031.14-.078.14-.18 0-.101-.718-12.853-.718-12.931s.031-.125-.039-.117-.243.008-.313.008c-.041 2.392.656 12.439.656 12.517 0 .078-.025.082-.086.094a4.408 4.408 0 0 1-.806.061c-1.098 0-3.039-.616-4.818-.616-.801 0-1.671.222-2.012.357-.36.141-.568.112-.936-.044z"/><g fill="#FFF"><path d="M34.771 21.968a.229.229 0 0 0-.083-.169c-.15-.123-.517-.352-1.095-.352-1.413 0-2.772.606-4.183.606-.532 0-.914-.091-1.311-.175-.042.71-.727 11.309-.834 12.524 1.162.217 2.396-.596 4.915-.596 1.498 0 2.486.489 2.646.573.144.075.198.074.367-.014.429-.224 1.474-.536 2.671-.536 1.684 0 3.258.81 4.216.565.09-4.053-.667-9.149-.656-12.474-.202.027-.846.09-1.137.09-1.463 0-2.351-.554-3.64-.554-.762 0-1.262.271-1.429.393-.057.042-.062.058-.063.143-.027 2.573-.025 9.563-.129 11.988-.006.148-.232.111-.232.005.087-2.741-.045-9.691-.023-12.017z"/><path d="M42.164 22.45c-.001-.048-.023-.071-.07-.063-.032.005-.173.007-.296.009.029 3.907.704 9.44.585 12.373-1.098.208-2.661-.536-4.611-.536-1.769 0-2.546.359-2.625.399-.081.04-.194.03-.3-.013-.415-.171-1.381-.396-2.696-.396-2.836 0-3.647.626-5.162.529.209-3.466.624-9.788.764-12.608a2.073 2.073 0 0 0-.19-.015c-.094 0-.087.016-.094.086-.306 3.482-.684 8.864-.954 12.813-.006.094-.015.094.047.102 1.568.197 2.893-.586 5.336-.586 1.28 0 2.125.149 2.793.422.248.101.408.096.671-.024.597-.273 1.335-.367 2.022-.367 2.318 0 4.175.8 5.432.611.064-.01.062-.055.062-.109s-.652-10.666-.714-12.627z"/></g><g fill="#E30613"><path d="M29.182 25.942c-.078-.045-.128-.006-.189.045-.15.122-.262.234-.356.373.006-.139.006-.245.006-.307 0-.05-.006-.083-.045-.083-.05 0-.601.184-.646.206-.083.033-.05.145-.011.134.222-.067.245-.005.256.245.005.1-.067 3.113-.067 3.214 0 .1.078.134.112.022.039-.072.178-.094.267-.089s.167.095.312.1c.423.022.975-1.487.986-1.888.032-1.232-.346-1.806-.625-1.972zm-.239 3.597c-.039.028-.061.033-.111.033-.067-.005-.05-.123-.318-.184.061-.858.1-2.027.117-2.745.095-.173.195-.301.306-.301.189 0 .485.807.451 2.055-.011.357-.161.925-.445 1.142zM36.516 25.88c-.078-.045-.128-.017-.189.039a1.79 1.79 0 0 0-.345.373v-.24c0-.05-.016-.094-.106-.094-.05 0-.557.217-.601.239-.078.039-.034.111.011.106.184-.033.251.028.262.234.005.1.022 3.063.022 3.164 0 .123.095.067.112.017.05-.056.173-.05.262-.05s.173.089.318.089c.423 0 .958-1.264.958-1.81-.002-1.287-.291-1.839-.704-2.067zm-.139 3.598c-.039.034-.056.039-.106.039-.067 0-.067-.156-.334-.201.039-.891.05-2.083.05-2.768.072-.15.156-.273.262-.273.217 0 .535.462.535 1.916 0 .446-.106 1.036-.407 1.287z"/></g><g fill="#312A74"><path d="M30.552 27.228c-.05 0-.607.211-.652.234-.078.039-.056.128-.011.134.134.022.239.05.267.234.017.1.067 1.676.067 1.777 0 .1.15.128.173.017.128-.596.206-2.005.2-2.311.001-.051-.004-.085-.044-.085zM30.14 26.549c.017.05.089.262.095.312.005.056.117.122.172-.017.022-.067.095-.596.1-.629.011-.034-.016-.067-.05-.056a3.24 3.24 0 0 0-.446.167c-.056.045-.017.078.011.078.029 0 .096.078.118.145zM31.087 27.774c0-.145.017-.256.128-.351.011-.011.022-.005.034.011.061.089.234.239.34.289.028.011.1.011.134-.017a.686.686 0 0 0 .156-.184c.017-.033-.006-.028-.056-.061a4.02 4.02 0 0 1-.407-.318c-.022-.028-.045-.022-.106.022-.446.295-.513.596-.513.808 0 .74.841.735.841 1.019 0 .212-.156.406-.278.406-.195 0-.334-.24-.407-.446-.011-.028-.028-.061-.05-.028-.028.033-.178.29-.217.312s-.011.044.017.078a.813.813 0 0 0 .585.273c.384 0 .612-.551.612-.896 0-.494-.813-.533-.813-.917zM33.209 28.994c-.089.128-.162.267-.318.267-.273 0-.484-.306-.484-1.036a1 1 0 0 1 .178-.59c.005-.011.022-.006.033.011a.957.957 0 0 0 .245.295c.039.033.139.022.189-.017a.84.84 0 0 0 .184-.217c.034-.067-.089-.044-.106-.061a3.368 3.368 0 0 1-.368-.39c-.022-.028-.061-.011-.117.05-.228.245-.623.707-.623 1.203 0 .551.206 1.075.652 1.075.323 0 .412-.223.573-.54.023-.045-.004-.101-.038-.05zM34.585 29.027c-.1.145-.234.251-.451.251-.206 0-.378-.173-.451-.563.25-.167.863-.685.863-.791 0-.278-.417-.629-.529-.668-.033-.011-.145-.011-.2.05-.228.245-.535.707-.535 1.203 0 .551.206 1.075.651 1.075.323 0 .518-.178.697-.507.021-.039-.012-.1-.045-.05zm-.942-.785c0-.229.05-.479.161-.668.011-.022.034-.039.067-.011.112.089.251.245.251.373 0 .2-.295.501-.462.64a3.075 3.075 0 0 1-.017-.334zM38.154 27.245c-.334 0-.785.618-.785 1.214 0 .568.273 1.125.629 1.125s.802-.729.802-1.219c0-.513-.256-1.12-.646-1.12zm.017 2.01c-.151 0-.473-.484-.473-1.242 0-.217.094-.479.25-.479.212 0 .518.59.518 1.253 0 .24-.089.468-.295.468zM40.193 29.021c-.084.123-.184.234-.34.234-.273 0-.523-.429-.523-1.158 0-.228.056-.418.184-.513.011-.005.022-.005.034.011.078.111.15.289.267.356.045.028.139.022.19-.016a.687.687 0 0 0 .167-.195c.034-.067-.067-.078-.083-.095-.128-.1-.306-.351-.318-.368-.067-.072-.078-.067-.189.022-.29.239-.596.713-.596 1.208 0 .49.239 1.075.652 1.075.323 0 .451-.251.607-.496.025-.042-.014-.12-.052-.065zM41.64 28.994a.523.523 0 0 1-.446.251c-.206 0-.423-.195-.513-.579.273-.123.941-.485.941-.59 0-.295-.329-.746-.54-.819-.033-.011-.111-.033-.173.017-.34.284-.634.78-.634 1.32 0 .501.301.991.713.991.323 0 .495-.223.696-.512.029-.041-.01-.13-.044-.079zm-1.002-.752c0-.229.061-.513.217-.652.017-.017.039-.028.072 0a.59.59 0 0 1 .228.49c0 .173-.295.368-.495.462a2.393 2.393 0 0 1-.022-.3z"/></g><g fill="#FFED00"><path d="M34.696 44.6c-.105 0-.154.144-.154.274 0 .133.131.247.247.247s.26-.094.26-.233c0-.094-.191-.288-.353-.288zM34.856 43.136c-.12 0-.248.125-.248.273 0 .153.149.283.283.283a.305.305 0 0 0 .283-.29c-.002-.108-.133-.266-.318-.266zM34.129 42.957c-.108 0-.233.162-.233.295 0 .137.089.272.209.272.119 0 .264-.137.264-.281 0-.096-.073-.286-.24-.286zM34.303 43.717c-.107 0-.28.142-.28.275 0 .138.191.225.31.225s.219-.12.219-.263a.246.246 0 0 0-.249-.237zM35.101 44.001c-.107 0-.223.113-.223.246 0 .137.135.254.254.254s.219-.119.219-.263a.247.247 0 0 0-.25-.237zM35.86 43.743a.246.246 0 0 0-.25-.237c-.108 0-.223.113-.223.245 0 .137.134.255.254.255.119-.001.219-.12.219-.263zM35.517 43.19c.119 0 .219-.119.219-.263 0-.097-.117-.274-.284-.274-.107 0-.189.15-.189.283-.001.138.133.254.254.254zM36.285 43.14c.115 0 .212-.116.212-.255a.24.24 0 0 0-.243-.23c-.104 0-.217.109-.217.239.001.133.132.246.248.246zM35.687 42.446c.115 0 .213-.116.213-.255a.24.24 0 0 0-.243-.23c-.105 0-.217.109-.217.239 0 .133.13.246.247.246zM36.311 43.582c-.105 0-.217.109-.217.239 0 .133.103.287.22.287.115 0 .239-.156.239-.296a.24.24 0 0 0-.242-.23zM35.78 44.353c-.105 0-.239.217-.239.347 0 .126.162.189.277.189.116 0 .296-.188.296-.327 0-.094-.172-.209-.334-.209zM33.879 44.365c-.105 0-.217.109-.217.238 0 .133.131.247.247.247s.278-.118.278-.257c0-.095-.146-.228-.308-.228zM33.423 43.583c-.104 0-.217.109-.217.238 0 .133.13.247.246.247.116 0 .213-.116.213-.255a.238.238 0 0 0-.242-.23zM33.497 43.146c.116 0 .259-.156.259-.296a.24.24 0 0 0-.243-.23c-.105 0-.217.109-.217.238 0 .134.084.288.201.288zM34.905 42.242c.116 0 .213-.116.213-.255a.24.24 0 0 0-.243-.23c-.104 0-.217.109-.217.238.001.133.131.247.247.247zM34.034 42.478c.115 0 .212-.115.212-.255a.24.24 0 0 0-.242-.23c-.105 0-.217.11-.217.239 0 .132.131.246.247.246zM34.713 42.928c.118 0 .219-.119.219-.263a.247.247 0 0 0-.25-.237c-.107 0-.223.113-.223.246-.001.137.133.254.254.254z"/></g><g fill="#251B5B"><path d="M24.259 52.378c-.515-.416-.662-1.194-.565-1.718.109-.586.55-.894 1.007-.525.201.162.293.322.394.564l.106-.162.077.062-.221.902-.108-.087c.057-.495.006-.872-.266-1.09-.256-.206-.489.05-.6.645-.105.564-.007 1.052.256 1.264.279.224.485.176.61-.268l.124.1c-.127.513-.481.581-.814.313zM26.119 53.514c-.621-.285-.808-1.006-.709-1.497.106-.527.563-.983 1.156-.711.713.327.829 1.096.74 1.538-.115.57-.564.957-1.187.67zm.438-2.029c-.265-.122-.547.028-.69.739-.151.749.09 1.033.313 1.136.326.149.55-.137.657-.667.135-.668-.004-1.082-.28-1.208zM29.586 53.817c-.082-.029-.152-.024-.184.131l-.172.769-.129-.031-.092-.301c-.113.164-.335.235-.636.129-.574-.203-.853-.812-.724-1.429.123-.59.634-1.019 1.225-.81a.894.894 0 0 1 .51.42l.138-.191.098.027-.221.895-.124-.034c.045-.424-.032-.801-.395-.929-.179-.063-.588-.018-.755.786-.129.621.068 1 .367 1.106.237.084.343-.015.413-.154l.081-.338c.032-.155-.026-.206-.108-.235l-.193-.068.028-.136 1.025.298-.028.136-.124-.041zM32.166 53.239c-.088-.016-.155.003-.168.162l-.262 1.922-.244-.043-.92-1.829-.208 1.275c-.02.151.044.22.132.235l.202.049-.023.144-.878-.202.023-.143.173.038c.089.015.14-.011.168-.169l.255-1.554c.024-.153-.036-.197-.137-.215l-.173-.037.024-.136.673.135.851 1.693.134-1.199c.013-.159-.052-.199-.14-.215l-.201-.034.022-.139.891.153-.02.14-.174-.031zM33.413 55.535c-.687-.053-.975-.702-.934-1.228.043-.565.463-1.19 1.119-1.14.788.059 1.008.783.972 1.256-.047.612-.467 1.164-1.157 1.112zm.2-2.186c-.293-.022-.569.233-.628.993-.062.803.227.996.473 1.015.36.027.559-.342.603-.911.055-.714-.144-1.073-.448-1.097zM35.929 55.55c-.332.014-.495-.104-.614-.269l-.126.25-.099.004.01-.969.13-.005c.054.455.221.836.679.818.183-.007.351-.131.353-.327.007-.666-1.2-.19-1.19-1.206a.7.7 0 0 1 .698-.654c.282-.011.439.087.561.226l.102-.252.096-.004-.01.917-.136.005c-.035-.475-.203-.736-.578-.72-.276.011-.371.211-.373.354-.006.548 1.221.208 1.212 1.099a.72.72 0 0 1-.715.733zM38.265 55.319c-.683.102-1.064-.418-1.098-.962-.039-.609.342-1.31.936-1.385.266-.034.424 0 .599.116l.071-.239.101-.018.062.978-.141.025c-.071-.482-.289-.751-.644-.688-.334.059-.519.499-.48 1.118.037.586.275.917.617.856.364-.065.575-.299.593-.8l.162-.029c.002.596-.268.952-.778 1.028zM40.258 52.735c-.074.022-.12.065-.112.188l.044.679.059-.017c.332-.096.373-.121.383-.656l.122-.035.082 1.242-.122.035c-.079-.509-.107-.511-.454-.411l-.059.017.05.776c.008.129.063.128.131.111.144-.036.23-.06.433-.125.328-.094.397-.253.413-.86l.127-.036.09.865c-.724.235-1.271.387-1.993.57l-.01-.146.195-.05c.083-.023.147-.075.136-.237l-.105-1.588c-.01-.159-.078-.169-.16-.145l-.196.056-.01-.142c.704-.19 1.375-.381 1.861-.531l.089.843-.128.036c-.093-.581-.268-.621-.537-.543-.131.038-.252.083-.329.104zM41.922 54.325l-.019-.142.2-.076c.078-.036.122-.098.102-.255l-.192-1.51c-.02-.154-.085-.154-.164-.118l-.188.076-.018-.138 1.294-.59c.337-.153.63-.028.671.292.029.226-.096.532-.351.688.239.054.318.175.377.638.018.135.086.144.14.114.051-.028.088-.083.077-.173l-.078-.431.143-.063.09.449c.021.167-.063.37-.352.502-.225.102-.444.063-.48-.213-.061-.467-.158-.598-.415-.517l-.194.088.098.779c.017.125.065.129.129.1l.255-.104.018.141c-.358.164-.766.327-1.143.463zm.759-2.48l-.157.072c-.067.03-.084.065-.074.14l.094.727.219-.1c.34-.155.421-.447.398-.62-.045-.354-.297-.302-.48-.219zM45.526 49.898l.209.746-.105.081c-.135-.531-.297-.49-.518-.315-.115.089-.183.146-.282.226-.061.047-.096.105-.077.221l.14.636.07-.053c.239-.185.273-.235.192-.739l.101-.078.262 1.143-.1.078c-.117-.466-.14-.458-.427-.239l-.07.052.146.734c.02.122.063.098.123.061.091-.056.304-.226.397-.3.221-.169.268-.368.184-.944l.105-.081.209.791c-.426.407-1.1.886-1.658 1.251l-.022-.138.169-.111c.09-.069.114-.119.087-.285l-.296-1.465c-.024-.151-.091-.169-.159-.116l-.176.12-.035-.129a32.716 32.716 0 0 0 1.531-1.147zM13.197 43.951c-.146-.186-.224-.464-.112-.697.191-.395.199-.603.048-.841l-.126-.16-.337.607c-.051.106-.025.161.017.215l.163.206-.058.119-.743-.941.058-.119.121.153c.051.065.102.094.166-.038l.674-1.244c.063-.13.034-.205-.017-.27l-.121-.153.056-.117.834 1.055c.22.278.29.701.159.971-.092.191-.281.204-.474.079.08.31.058.484-.131.876-.055.114-.039.178-.004.222s.076.045.113-.032l.18-.374.117.148-.192.398c-.068.141-.202.175-.391-.063zm.383-2.327l-.092-.116c-.044-.056-.067-.05-.098.013l-.318.597.153.186c.222.281.394.169.464.023.145-.301.01-.552-.109-.703zM13.58 44.349l.066-.124.148.123c.063.052.124.071.197-.067l.717-1.35c.071-.135.035-.2-.027-.253l-.148-.123.064-.121 1.432 1.186-.386.728-.096-.08c.229-.54.149-.737-.055-.907l-.251-.208c-.056-.047-.105-.051-.161.054l-.319.601.045.037c.252.208.289.223.558-.192l.092.076-.56 1.055-.092-.076c.202-.472.186-.497-.077-.715l-.045-.037-.345.65c-.059.111-.026.157.026.2l.328.272c.202.168.371.136.671-.32l.096.08-.394.741-1.484-1.23zM16.967 46.681c-.208-.114-.338-.338-.219-.591.201-.428.202-.62-.017-.78l-.179-.098-.327.698c-.054.115-.014.155.046.188l.231.128-.061.129-1.053-.582.06-.129.171.094c.072.04.14.049.208-.094l.66-1.409c.066-.141.021-.199-.051-.239l-.171-.095.059-.125 1.196.66c.311.172.447.529.31.823-.097.207-.338.288-.598.245.136.253.127.418-.072.843-.058.124-.03.175.019.202s.102.013.141-.071l.19-.405.166.092-.202.431c-.072.153-.24.234-.507.085zm.234-2.25l-.145-.08c-.062-.034-.091-.021-.124.048l-.313.667.202.112c.314.173.521.009.596-.149.153-.326-.047-.505-.216-.598zM20.036 45.609c-.096-.036-.158-.008-.243.109l-1.243 1.62-.201-.076.037-2.075c-.003-.16-.021-.209-.098-.238l-.146-.055.045-.136 1.051.397-.044.136-.157-.059c-.077-.028-.182-.03-.179.134l-.053 1.383.815-1.096c.074-.104.048-.184-.06-.224l-.129-.049.044-.136.71.268-.045.136-.104-.039zM21.283 48.138l.043-.14.169.034c.125.021.164-.012.199-.144l.392-1.306-1.137 1.474-.205-.052-.048-1.768-.462 1.29c-.048.156.01.198.09.219l.171.043-.043.14-.841-.216.043-.14.188.048c.08.021.15.012.199-.144l.53-1.511c.047-.153-.01-.198-.09-.218l-.185-.048.042-.136.838.215.011 1.62 1.058-1.37.813.149-.042.137-.189-.03c-.083-.021-.154-.009-.201.144l-.459 1.526c-.048.155.007.197.09.217l.186.039-.043.141-1.117-.213zM48.443 48.184c-.646.141-1.114-.371-1.251-.903-.154-.594.111-1.269.684-1.394.252-.054.404-.008.599.1l.025-.236.097-.021.247.954-.135.029c-.162-.468-.429-.724-.77-.649-.32.069-.42.505-.264 1.109.148.572.447.887.775.816.349-.076.515-.313.437-.803l.156-.034c.114.583-.113.926-.6 1.032zM50.21 47.657l-.042-.14.178-.058c.081-.026.166-.088.072-.221l-.218-.31-.535.175-.001.382c.001.129.069.175.181.138l.135-.044.042.14-.772.251-.043-.14.141-.047c.101-.032.136-.092.138-.242l.02-2.053.213-.069 1.176 1.663c.091.131.135.153.219.126l.181-.059.043.139-1.128.369zm-.542-1.492l-.001.763.434-.142-.433-.621zM52.309 44.55c-.096.042-.129.109-.129.261l-.002 2.12-.2.088-1.2-1.589c-.093-.121-.135-.145-.211-.111l-.146.064-.041-.136 1.048-.463.041.136-.157.07c-.077.034-.16.109-.065.233l.772 1.042-.012-1.377c-.001-.135-.066-.176-.173-.128l-.129.057-.041-.137.708-.312.042.136-.105.046zM53.878 46.06c-.274.166-.445.13-.593.028l-.033.295-.082.05-.274-.923.107-.065c.178.406.429.69.809.461.151-.091.256-.287.201-.473-.189-.633-1.062.375-1.35-.592a.877.877 0 0 1 .395-.942c.233-.141.394-.12.537-.046l.012-.285.079-.048.26.873-.113.068c-.168-.433-.385-.603-.696-.415a.443.443 0 0 0-.209.507c.155.522 1.086-.366 1.338.482a.902.902 0 0 1-.388 1.025zM55.315 44.959l-.047-.134.144-.118c.065-.054.132-.146.043-.257l-.206-.257-.433.356.029.403c.011.136.071.163.162.089l.109-.091.047.134-.627.514-.046-.133.114-.094c.082-.067.107-.141.096-.301l-.144-2.175.173-.142 1.114 1.38c.086.109.125.119.193.063l.147-.12.047.133-.915.75zm-.571-1.401l.058.807.352-.289-.41-.518zM56.851 43.521c-.193.253-.333.265-.464.202l.016.318-.058.076-.345-.885.076-.1c.197.373.435.598.702.247.106-.14.162-.375.092-.554-.237-.609-.785.7-1.146-.228-.076-.194-.118-.71.179-1.1.164-.215.294-.241.417-.204l-.031-.303.056-.074.327.838-.08.105c-.193-.405-.388-.519-.606-.233a.633.633 0 0 0-.094.591c.195.502.805-.698 1.121.116.132.341.101.842-.162 1.188z"/></g><g fill="#9C9B9B"><path d="M176.811 19.602v-.442h.92c.085 0 .165-.009.239-.026a.42.42 0 0 0 .192-.099.485.485 0 0 0 .128-.21c.031-.091.047-.211.047-.358v-6.019c0-.147-.016-.266-.047-.355a.517.517 0 0 0-.128-.21.426.426 0 0 0-.192-.102 1.061 1.061 0 0 0-.239-.026h-.92v-.437h4.243v.437h-.92c-.085 0-.165.008-.239.023-.074.016-.138.049-.192.099s-.097.121-.128.212-.047.211-.047.358v6.019c0 .151.016.272.047.361.031.089.074.159.128.21s.118.083.192.099.153.023.239.023h.92v.442l-4.243.001zM185.285 19.602v-.419h.407c.089 0 .172-.008.247-.023s.141-.049.195-.099c.054-.05.097-.122.128-.215s.047-.215.047-.367v-3.143c0-.07-.008-.162-.023-.276a.958.958 0 0 0-.111-.332.78.78 0 0 0-.262-.276c-.116-.078-.274-.116-.471-.116-.276 0-.518.068-.728.204-.21.136-.385.315-.527.538a2.58 2.58 0 0 0-.32.763 3.563 3.563 0 0 0-.108.876v1.764c0 .151.016.274.047.367a.422.422 0 0 0 .329.314c.076.016.158.023.247.023h.402v.419h-3.289v-.419h.547c.089 0 .171-.008.244-.023.074-.016.138-.049.192-.099s.097-.122.128-.215.047-.215.047-.367V14.93c0-.147-.016-.268-.049-.361-.033-.093-.077-.165-.131-.215s-.119-.084-.195-.102a1.128 1.128 0 0 0-.247-.026h-.547v-.402h2.183l.081 1.118a2.96 2.96 0 0 1 .291-.457 1.89 1.89 0 0 1 .932-.649c.202-.066.431-.099.687-.099.264 0 .499.042.706.125s.385.192.533.326c.149.134.266.285.353.454.087.169.142.337.165.503v3.335c0 .147.015.267.044.358s.071.163.125.215.118.087.192.105c.074.017.155.026.244.026h.547v.419l-3.282-.001zM192.777 18.784c-.07.169-.174.321-.311.457s-.309.245-.512.329a1.863 1.863 0 0 1-.707.125c-.136 0-.282-.022-.439-.067s-.306-.114-.445-.207c-.14-.093-.261-.211-.364-.355s-.172-.314-.207-.512v-4.208h-.867v-.454c.202-.043.388-.11.559-.201s.32-.232.447-.422.23-.441.309-.754c.078-.312.127-.711.147-1.196h.512v2.503h1.717v.524h-1.717v3.766c0 .279.059.492.177.637.118.146.293.218.525.218a.712.712 0 0 0 .573-.259.808.808 0 0 0 .148-.282c.033-.109.049-.225.049-.349v-1.752h.512v1.956a1.34 1.34 0 0 1-.106.503zM198.757 18.325c-.08.27-.211.512-.393.728-.182.215-.422.391-.719.527s-.657.204-1.08.204a3.11 3.11 0 0 1-.902-.122c-.268-.081-.503-.191-.704-.329s-.374-.298-.518-.48c-.144-.182-.261-.375-.352-.579s-.158-.412-.201-.626a3.117 3.117 0 0 1-.064-.617 4.293 4.293 0 0 1 .309-1.601c.101-.248.226-.48.375-.696.149-.215.322-.402.518-.559s.414-.281.655-.373c.241-.091.503-.137.786-.137.373 0 .702.079.99.236.287.157.529.371.725.64s.346.583.451.94c.105.357.159.737.163 1.141l-.169.204h-3.661c0 .38.037.725.111 1.033s.185.57.335.786c.149.215.334.381.553.498.219.116.474.175.765.175.31 0 .573-.057.789-.172s.39-.259.524-.434.23-.368.288-.579.085-.416.081-.614h.454c.007.267-.029.536-.109.806zm-1.126-2.713a2.61 2.61 0 0 0-.183-.704 1.504 1.504 0 0 0-.373-.538.81.81 0 0 0-.568-.215c-.206 0-.395.05-.568.151a1.443 1.443 0 0 0-.457.437c-.132.19-.24.418-.323.684s-.141.566-.172.899h2.648c.029-.222.027-.46-.004-.714zM204.389 14.736c0 .132-.017.256-.052.373a.936.936 0 0 1-.151.303.779.779 0 0 1-.236.204.637.637 0 0 1-.311.076.617.617 0 0 1-.268-.055c-.078-.037-.143-.085-.195-.146s-.092-.128-.119-.204a.89.89 0 0 1 .137-.797c.118-.149.271-.261.457-.335-.237-.05-.467-.021-.69.087s-.421.278-.594.509c-.173.231-.31.512-.413.844s-.154.694-.154 1.086v1.799c0 .147.016.267.047.358.031.091.075.163.131.215s.122.087.198.105.158.026.247.026h.664v.419h-3.551v-.419h.547c.089 0 .173-.01.25-.029a.418.418 0 0 0 .198-.108c.054-.052.097-.124.128-.215s.047-.209.047-.352v-3.551c0-.147-.016-.268-.047-.361-.031-.093-.074-.165-.128-.215s-.12-.084-.198-.102a1.17 1.17 0 0 0-.25-.026h-.547v-.402h2.183l.058 1.036c.07-.163.16-.317.271-.463s.238-.273.381-.381.301-.194.471-.256c.171-.062.353-.093.547-.093a.885.885 0 0 1 .678.305c.083.095.148.208.195.338.046.129.069.272.069.427zM208.568 19.602v-.419h.407c.089 0 .172-.008.247-.023s.141-.049.195-.099.097-.122.128-.215.047-.215.047-.367v-3.143c0-.07-.008-.162-.023-.276a.958.958 0 0 0-.111-.332.78.78 0 0 0-.262-.276c-.116-.078-.274-.116-.471-.116-.276 0-.518.068-.728.204-.21.136-.385.315-.527.538a2.58 2.58 0 0 0-.32.763 3.563 3.563 0 0 0-.108.876v1.764c0 .151.016.274.047.367a.422.422 0 0 0 .329.314c.076.016.158.023.247.023h.402v.419h-3.289v-.419h.547c.089 0 .171-.008.244-.023s.138-.049.192-.099c.054-.05.097-.122.128-.215s.047-.215.047-.367V14.93c0-.147-.016-.268-.049-.361-.033-.093-.077-.165-.131-.215s-.119-.084-.195-.102a1.128 1.128 0 0 0-.247-.026h-.547v-.402h2.183l.081 1.118c.081-.159.178-.311.291-.457a1.89 1.89 0 0 1 .932-.649c.202-.066.431-.099.687-.099.264 0 .499.042.706.125s.385.192.533.326c.149.134.266.285.353.454.087.169.142.337.165.503v3.335c0 .147.015.267.044.358s.071.163.125.215.118.087.192.105.155.026.244.026h.547v.419l-3.282-.001zM217.881 19.073a1.084 1.084 0 0 1-.664.602 1.41 1.41 0 0 1-.448.073 1.115 1.115 0 0 1-.806-.299 1.05 1.05 0 0 1-.218-.294 1.913 1.913 0 0 1-.128-.326 1.738 1.738 0 0 1-.763.681c-.31.14-.669.21-1.077.21-.167 0-.331-.027-.492-.081-.161-.054-.305-.135-.431-.242s-.228-.238-.306-.393a1.178 1.178 0 0 1-.116-.536c0-.283.042-.526.125-.728.083-.202.21-.376.378-.524.169-.147.382-.276.64-.387s.564-.214.917-.311c.198-.054.367-.104.506-.148a1.64 1.64 0 0 0 .341-.146.512.512 0 0 0 .189-.183.532.532 0 0 0 .058-.262v-.407c0-.182-.024-.349-.073-.501a1.11 1.11 0 0 0-.21-.387c-.091-.107-.203-.19-.335-.25s-.283-.09-.454-.09c-.206 0-.398.042-.576.125-.179.083-.34.22-.483.41.144.101.263.221.358.361s.143.314.143.524a.643.643 0 0 1-.049.259.578.578 0 0 1-.303.305.472.472 0 0 1-.183.041c-.155 0-.282-.03-.381-.09s-.177-.135-.233-.224-.095-.186-.116-.291a1.3 1.3 0 0 1 .108-.873c.093-.19.225-.361.396-.512.171-.151.377-.275.62-.37s.513-.143.812-.143c.314 0 .597.049.847.146s.463.218.637.364.309.303.402.471c.093.169.14.327.14.474v3.457a.61.61 0 0 0 .023.163c.016.054.04.104.073.148a.418.418 0 0 0 .125.111c.05.029.111.044.18.044a.365.365 0 0 0 .317-.16.682.682 0 0 0 .113-.405v-1.676h.501v1.729c.001.209-.034.389-.104.541zm-2.293-2.439c-.043.023-.11.052-.201.087s-.188.07-.291.105l-.297.102-.224.079c-.376.113-.651.274-.824.483-.173.21-.259.473-.259.792 0 .12.011.234.032.341s.06.201.116.282.132.146.227.195.216.073.364.073c.229 0 .428-.049.597-.146s.309-.219.422-.367.197-.309.253-.486.084-.344.084-.503v-1.037h.001zM222.101 18.784c-.07.169-.174.321-.311.457s-.309.245-.512.329a1.863 1.863 0 0 1-.707.125c-.136 0-.282-.022-.439-.067s-.306-.114-.445-.207c-.14-.093-.261-.211-.364-.355s-.172-.314-.207-.512v-4.208h-.867v-.454c.202-.043.388-.11.559-.201.171-.091.32-.232.447-.422s.23-.441.308-.754c.078-.312.127-.711.147-1.196h.512v2.503h1.717v.524h-1.717v3.766c0 .279.059.492.177.637.118.146.293.218.525.218a.712.712 0 0 0 .573-.259.808.808 0 0 0 .148-.282c.033-.109.049-.225.049-.349v-1.752h.512v1.956a1.3 1.3 0 0 1-.105.503zM222.957 19.602v-.419h.547c.089 0 .172-.008.247-.023s.141-.048.195-.096a.508.508 0 0 0 .131-.21c.033-.091.049-.211.049-.358v-3.568c0-.147-.016-.268-.049-.361-.033-.093-.077-.165-.131-.215s-.119-.084-.195-.102a1.128 1.128 0 0 0-.247-.026h-.547v-.402h2.276v4.674c0 .147.016.267.047.358a.418.418 0 0 0 .329.306c.076.015.158.023.247.023h.547v.419h-3.446zm2.288-7.928a.812.812 0 0 1-.203.547.706.706 0 0 1-.218.166.614.614 0 0 1-.539 0 .719.719 0 0 1-.224-.166.79.79 0 0 1-.206-.547c0-.109.018-.21.055-.303s.087-.174.151-.242.139-.121.224-.16a.637.637 0 0 1 .268-.058c.097 0 .187.019.271.058.083.039.156.092.218.16s.112.148.148.242.055.195.055.303zM232.55 16.739c0 .442-.066.849-.198 1.219-.132.371-.316.689-.553.955s-.521.473-.853.623a2.662 2.662 0 0 1-1.103.224c-.446 0-.844-.076-1.193-.227s-.643-.358-.882-.62-.42-.567-.544-.914-.186-.715-.186-1.103c0-.252.023-.508.07-.768.047-.26.119-.509.218-.748s.224-.463.375-.672a2.479 2.479 0 0 1 1.251-.908c.268-.089.565-.134.891-.134.33 0 .627.05.891.151s.496.235.696.402c.2.167.371.357.512.57a3.616 3.616 0 0 1 .608 1.95zm-1.182-.035c0-.365-.032-.7-.096-1.007a2.61 2.61 0 0 0-.291-.792c-.13-.221-.293-.394-.489-.518s-.426-.186-.69-.186c-.303 0-.556.078-.76.233s-.368.357-.492.605-.212.528-.265.838c-.052.31-.079.619-.079.925 0 .388.038.732.114 1.033s.184.554.326.76.314.361.518.466c.204.105.434.157.69.157.248 0 .467-.062.655-.186s.346-.297.474-.518c.128-.221.224-.486.288-.795.065-.308.097-.647.097-1.015zM236.933 19.602v-.419h.407c.089 0 .172-.008.247-.023s.141-.049.195-.099.097-.122.128-.215.047-.215.047-.367v-3.143c0-.07-.008-.162-.023-.276a.958.958 0 0 0-.111-.332.78.78 0 0 0-.262-.276c-.116-.078-.274-.116-.471-.116-.276 0-.518.068-.728.204-.21.136-.385.315-.527.538a2.58 2.58 0 0 0-.32.763 3.563 3.563 0 0 0-.108.876v1.764c0 .151.016.274.047.367a.422.422 0 0 0 .329.314c.076.016.158.023.247.023h.402v.419h-3.289v-.419h.547c.089 0 .171-.008.244-.023a.402.402 0 0 0 .192-.099c.054-.05.097-.122.128-.215s.047-.215.047-.367V14.93c0-.147-.016-.268-.049-.361-.033-.093-.077-.165-.131-.215s-.119-.084-.195-.102a1.128 1.128 0 0 0-.247-.026h-.547v-.402h2.183l.081 1.118c.081-.159.178-.311.291-.457a1.89 1.89 0 0 1 .932-.649c.202-.066.431-.099.687-.099.264 0 .499.042.706.125s.385.192.533.326c.149.134.266.285.353.454.087.169.142.337.165.503v3.335c0 .147.015.267.044.358s.071.163.125.215.118.087.192.105.155.026.244.026h.547v.419l-3.282-.001zM246.246 19.073a1.084 1.084 0 0 1-.664.602 1.44 1.44 0 0 1-.448.073 1.115 1.115 0 0 1-.806-.299 1.05 1.05 0 0 1-.218-.294 1.913 1.913 0 0 1-.128-.326 1.738 1.738 0 0 1-.763.681c-.31.14-.669.21-1.077.21-.167 0-.331-.027-.492-.081-.161-.054-.305-.135-.431-.242s-.228-.238-.306-.393a1.178 1.178 0 0 1-.116-.536c0-.283.042-.526.125-.728.083-.202.21-.376.378-.524.169-.147.382-.276.64-.387s.564-.214.917-.311c.198-.054.367-.104.506-.148a1.64 1.64 0 0 0 .341-.146.512.512 0 0 0 .189-.183.532.532 0 0 0 .058-.262v-.407c0-.182-.024-.349-.073-.501a1.11 1.11 0 0 0-.21-.387c-.091-.107-.203-.19-.335-.25s-.283-.09-.454-.09c-.206 0-.398.042-.576.125-.179.083-.34.22-.483.41.144.101.263.221.358.361s.143.314.143.524a.643.643 0 0 1-.049.259.578.578 0 0 1-.303.305.472.472 0 0 1-.183.041c-.155 0-.282-.03-.381-.09s-.177-.135-.233-.224-.095-.186-.116-.291a1.3 1.3 0 0 1 .108-.873c.093-.19.225-.361.396-.512.171-.151.377-.275.62-.37s.513-.143.812-.143c.314 0 .597.049.847.146s.463.218.637.364.309.303.402.471c.093.169.14.327.14.474v3.457a.61.61 0 0 0 .023.163c.016.054.04.104.073.148a.418.418 0 0 0 .125.111c.05.029.111.044.18.044a.365.365 0 0 0 .317-.16.682.682 0 0 0 .113-.405v-1.676h.501v1.729c0 .209-.035.389-.104.541zm-2.294-2.439c-.043.023-.11.052-.201.087s-.188.07-.291.105l-.297.102-.224.079c-.376.113-.651.274-.824.483-.173.21-.259.473-.259.792 0 .12.011.234.032.341s.06.201.116.282.132.146.227.195.216.073.364.073c.229 0 .428-.049.597-.146s.309-.219.422-.367.197-.309.253-.486.084-.344.084-.503v-1.037h.001zM246.566 19.602v-.419h.547c.089 0 .172-.008.247-.023s.141-.048.195-.096a.508.508 0 0 0 .131-.21c.033-.091.049-.211.049-.358v-6.49c0-.147-.016-.267-.049-.358-.033-.091-.077-.161-.131-.21s-.119-.081-.195-.096-.158-.023-.247-.023h-.547V10.9h2.276v7.596c0 .144.016.26.047.349a.5.5 0 0 0 .131.21c.056.05.122.084.198.102s.158.026.247.026H250v.419h-3.434zM183.836 29.928c-.171.404-.398.737-.681 1.001s-.618.459-1.004.585-.816.189-1.289.189c-.59 0-1.117-.11-1.58-.329s-.856-.519-1.176-.899a3.994 3.994 0 0 1-.733-1.333 5.154 5.154 0 0 1-.253-1.636 4.998 4.998 0 0 1 .512-2.217c.163-.329.358-.632.585-.905.227-.274.479-.508.757-.704a3.48 3.48 0 0 1 .899-.457 3.102 3.102 0 0 1 1.001-.163c.279 0 .518.018.716.055s.377.093.538.169.314.172.46.288c.146.116.306.252.48.407l.419-.92h.309v3.597h-.454a7.52 7.52 0 0 0-.247-1.17c-.111-.369-.26-.693-.448-.972s-.42-.501-.696-.664-.605-.244-.99-.244c-.4 0-.757.095-1.071.285s-.579.456-.795.797c-.215.341-.38.751-.495 1.228s-.172 1.003-.172 1.577c0 .543.063 1.038.189 1.484.126.446.302.829.527 1.15s.496.568.812.745.663.265 1.039.265c.353 0 .684-.044.992-.131s.58-.233.815-.437.429-.476.582-.818c.153-.341.249-.764.288-1.269h.477c-.037.561-.142 1.043-.313 1.446zM190.536 28.659c0 .442-.066.849-.198 1.219-.132.371-.316.689-.553.955s-.521.473-.853.623a2.662 2.662 0 0 1-1.103.224c-.446 0-.844-.076-1.193-.227s-.643-.358-.882-.62-.42-.567-.544-.914-.186-.715-.186-1.103c0-.252.023-.508.07-.768s.119-.509.218-.748a3.3 3.3 0 0 1 .375-.672 2.457 2.457 0 0 1 1.251-.908c.268-.089.565-.134.891-.134.33 0 .627.05.891.151s.496.235.696.402.371.357.512.57a3.616 3.616 0 0 1 .608 1.95zm-1.182-.035c0-.365-.032-.7-.096-1.007s-.161-.57-.291-.792c-.13-.221-.293-.394-.489-.518s-.426-.186-.69-.186c-.303 0-.556.078-.76.233s-.368.357-.492.605a2.994 2.994 0 0 0-.265.838c-.052.31-.079.619-.079.925 0 .388.038.732.113 1.033.076.301.184.554.326.76s.314.361.518.466.434.157.69.157c.248 0 .467-.062.655-.186s.346-.297.474-.518c.128-.221.224-.486.288-.795.066-.307.098-.646.098-1.015zM191.025 31.523v-.419h.547c.089 0 .172-.008.247-.023s.141-.048.195-.096a.508.508 0 0 0 .131-.21c.033-.091.049-.211.049-.358v-6.49c0-.147-.016-.267-.049-.358-.033-.091-.077-.161-.131-.21s-.119-.081-.195-.096-.158-.023-.247-.023h-.547v-.419h2.276v7.596c0 .144.016.26.047.349a.5.5 0 0 0 .131.21c.056.05.122.084.198.102s.158.026.247.026h.536v.419h-3.435zM194.849 31.523v-.419h.547c.089 0 .172-.008.247-.023s.141-.048.195-.096.098-.118.131-.21c.033-.091.049-.211.049-.358v-6.49c0-.147-.016-.267-.049-.358-.033-.091-.077-.161-.131-.21s-.119-.081-.195-.096-.158-.023-.247-.023h-.547v-.419h2.276v7.596c0 .144.016.26.047.349a.5.5 0 0 0 .131.21c.056.05.122.084.198.102.076.017.158.026.247.026h.536v.419h-3.435zM203.548 30.245c-.08.27-.211.512-.393.728-.182.215-.422.391-.719.527s-.657.204-1.08.204a3.11 3.11 0 0 1-.902-.122c-.268-.081-.503-.191-.704-.329s-.374-.298-.518-.48c-.144-.182-.261-.375-.352-.579s-.158-.412-.201-.626a3.117 3.117 0 0 1-.064-.617 4.293 4.293 0 0 1 .309-1.601c.101-.248.226-.48.375-.696s.322-.402.518-.559.414-.281.655-.373c.241-.091.503-.137.786-.137.373 0 .702.079.99.236.287.157.529.371.725.64.196.27.346.583.451.94.105.357.159.737.163 1.141l-.169.204h-3.661c0 .38.037.725.111 1.033.074.308.185.57.335.786.149.215.334.381.553.498.219.116.474.175.765.175.31 0 .573-.057.789-.172.215-.114.39-.259.524-.434s.23-.368.288-.579.085-.416.081-.614h.454c.006.268-.03.537-.109.806zm-1.126-2.712c-.031-.254-.092-.489-.183-.704s-.215-.395-.373-.538a.81.81 0 0 0-.568-.215c-.206 0-.395.05-.568.151a1.443 1.443 0 0 0-.457.437c-.132.19-.24.418-.323.684s-.141.566-.172.899h2.648c.029-.222.027-.46-.004-.714zM209.866 25.446c0 .101-.015.185-.044.253a.445.445 0 0 1-.288.256.723.723 0 0 1-.192.026c-.093 0-.173-.019-.239-.058s-.121-.087-.166-.146c-.045-.058-.08-.12-.105-.186s-.046-.124-.061-.175a.57.57 0 0 0-.23.291c-.021.058-.033.118-.035.18s.007.12.026.175c.252.206.44.457.565.754s.186.61.186.94c0 .124-.018.26-.055.407-.037.147-.094.297-.172.448s-.176.298-.294.439c-.118.142-.26.268-.425.378a2.202 2.202 0 0 1-1.26.364c-.256 0-.484-.027-.684-.081s-.393-.126-.579-.215c-.035-.019-.076-.032-.122-.038s-.093-.009-.14-.009a.492.492 0 0 0-.244.055c-.066.037-.119.082-.16.137s-.071.114-.09.178-.029.123-.029.178c0 .105.02.202.061.291s.097.168.169.236.157.12.256.157a.917.917 0 0 0 .323.055c.396 0 .746-.012 1.051-.035s.571-.035.8-.035c.279 0 .546.041.8.122s.477.198.669.349c.192.151.344.336.457.553s.169.46.169.728c0 .299-.07.573-.21.824-.14.25-.326.466-.559.646s-.502.322-.806.425-.622.154-.952.154c-.47 0-.884-.049-1.243-.146s-.66-.223-.902-.378a1.725 1.725 0 0 1-.547-.524 1.095 1.095 0 0 1-.183-.588c0-.155.026-.302.079-.439s.124-.263.215-.375c.091-.113.197-.214.317-.306.12-.091.246-.17.378-.236-.334-.109-.582-.272-.745-.489s-.244-.464-.244-.739c0-.113.02-.227.061-.343.041-.116.098-.229.172-.338a1.782 1.782 0 0 1 .617-.558c-.171-.206-.293-.429-.367-.669s-.111-.483-.111-.728a2.03 2.03 0 0 1 .204-.858c.074-.149.169-.295.285-.437s.261-.266.434-.373c.173-.107.374-.193.602-.259s.491-.099.786-.099c.198 0 .384.017.559.052s.334.089.477.163c.035-.116.081-.236.137-.358s.127-.234.212-.335.186-.183.303-.247.254-.096.413-.096c.093 0 .182.02.268.061.085.041.16.093.224.157s.114.137.151.218.057.165.057.246zm-.797 7.183a.947.947 0 0 0-.099-.419c-.066-.136-.173-.257-.32-.364s-.338-.193-.57-.259-.518-.099-.856-.099c-.318 0-.6.032-.844.096s-.449.152-.614.265a1.156 1.156 0 0 0-.373.399 1.04 1.04 0 0 0-.125.503c0 .221.059.409.178.565.118.155.267.283.445.384s.37.175.573.221c.204.047.393.07.568.07.357 0 .664-.041.92-.122s.467-.187.632-.317a1.29 1.29 0 0 0 .367-.437c.078-.161.118-.323.118-.486zm-.867-5.064c0-.233-.024-.443-.073-.632-.048-.188-.12-.348-.215-.48s-.211-.234-.349-.306-.296-.108-.474-.108c-.4 0-.716.15-.949.451s-.349.734-.349 1.301c0 .279.035.515.105.707.07.192.16.348.271.469.111.12.237.207.378.259.142.052.284.079.428.079.124 0 .257-.02.399-.061s.275-.124.399-.25.227-.303.309-.53c.079-.227.12-.526.12-.899zM215.306 30.245c-.08.27-.211.512-.393.728-.182.215-.422.391-.719.527s-.657.204-1.08.204a3.11 3.11 0 0 1-.902-.122c-.268-.081-.503-.191-.704-.329s-.374-.298-.518-.48c-.144-.182-.261-.375-.352-.579s-.158-.412-.201-.626a3.117 3.117 0 0 1-.064-.617 4.293 4.293 0 0 1 .309-1.601c.101-.248.226-.48.375-.696.149-.215.322-.402.518-.559s.414-.281.655-.373c.241-.091.503-.137.786-.137.373 0 .702.079.99.236.287.157.529.371.725.64.196.27.346.583.451.94.105.357.159.737.163 1.141l-.169.204h-3.661c0 .38.037.725.111 1.033.074.308.185.57.335.786.149.215.334.381.553.498.219.116.474.175.765.175.31 0 .573-.057.789-.172.215-.114.39-.259.524-.434s.23-.368.288-.579.085-.416.081-.614h.454c.006.268-.03.537-.109.806zm-1.127-2.712c-.031-.254-.092-.489-.183-.704s-.215-.395-.373-.538a.81.81 0 0 0-.568-.215c-.206 0-.395.05-.568.151a1.443 1.443 0 0 0-.457.437c-.132.19-.24.418-.323.684s-.141.566-.172.899h2.648c.029-.222.027-.46-.004-.714zM218.05 30.842a.822.822 0 0 1-.486.751.746.746 0 0 1-.311.064c-.109 0-.211-.021-.308-.064a.813.813 0 0 1-.428-.44.806.806 0 0 1-.061-.311.796.796 0 0 1 .489-.745.752.752 0 0 1 .308-.064c.113 0 .216.021.311.064s.179.101.253.175a.796.796 0 0 1 .233.57z"/></g></svg>