<?xml version="1.0" encoding="utf-8"?>
<!-- Generator: Adobe Illustrator 21.0.0, SVG Export Plug-In . SVG Version: 6.00 Build 0)  -->
<svg version="1.1" id="Layer_1" xmlns="http://www.w3.org/2000/svg" xmlns:xlink="http://www.w3.org/1999/xlink" x="0px" y="0px"
	 viewBox="0 0 250 122.5" enable-background="new 0 0 250 122.5" xml:space="preserve">
<rect fill="#FFFFFF" width="250" height="122.5"/>
<g>
	<g>
		<path fill="#3B3A39" d="M129.184,42.115c0-0.324,0.108-0.468,0.433-0.54l3.064-0.505c0.397-0.072,0.649,0.072,0.649,0.433v8.65
			c1.622-1.045,3.857-1.657,6.019-1.657c2.127,0,3.929,0.504,5.082,1.513c1.37,1.154,1.982,2.848,1.982,5.587v14.057
			c0,0.325-0.144,0.469-0.468,0.469h-3.244c-0.252,0-0.432-0.144-0.432-0.469V56.749c0-2.163-0.108-2.92-1.009-3.785
			c-0.757-0.685-1.766-0.938-3.28-0.938c-1.442,0-3.208,0.469-4.65,1.226v16.4c0,0.325-0.144,0.469-0.504,0.469h-3.208
			c-0.253,0-0.433-0.144-0.433-0.469V42.115z"/>
		<path fill="#3B3A39" d="M165.907,61.795c0,5.659-2.703,8.686-8.759,8.686c-6.055,0-8.795-3.027-8.795-8.686v-4.614
			c0-5.659,2.739-8.686,8.795-8.686c6.056,0,8.759,3.027,8.759,8.686V61.795z M161.762,57.254c0-3.64-1.334-5.406-4.614-5.406
			c-3.28,0-4.614,1.766-4.614,5.406v4.47c0,3.64,1.334,5.406,4.614,5.406c3.28,0,4.614-1.766,4.614-5.406V57.254z"/>
		<path fill="#3B3A39" d="M167.949,42.115c0-0.324,0.108-0.468,0.433-0.54l3.064-0.505c0.397-0.072,0.649,0.072,0.649,0.433v23.212
			c0,1.441,0.721,2.091,1.874,2.091c0.432,0,0.973-0.036,1.442-0.072c0.288-0.036,0.468,0.072,0.432,0.432l-0.18,2.27
			c-0.036,0.36-0.18,0.576-0.613,0.649c-0.685,0.145-1.622,0.217-2.451,0.217c-2.991,0-4.65-1.658-4.65-5.587V42.115z"/>
		<path fill="#3B3A39" d="M177.067,42.115c0-0.324,0.108-0.468,0.433-0.54l3.064-0.505c0.397-0.072,0.649,0.072,0.649,0.433v23.212
			c0,1.441,0.721,2.091,1.874,2.091c0.432,0,0.973-0.036,1.442-0.072c0.288-0.036,0.468,0.072,0.432,0.432l-0.18,2.27
			c-0.036,0.36-0.18,0.576-0.613,0.649c-0.685,0.145-1.622,0.217-2.451,0.217c-2.991,0-4.65-1.658-4.65-5.587V42.115z"/>
		<path fill="#3B3A39" d="M187.197,49.973c0-0.253,0.108-0.397,0.397-0.504c1.514-0.577,3.929-0.973,6.163-0.973
			c2.739,0,5.082,0.54,6.524,1.91c1.262,1.189,1.766,2.848,1.766,5.443v9.516c0,1.442,0.108,2.883,0.288,4.289
			c0.036,0.36-0.109,0.469-0.397,0.469h-2.703c-0.253,0-0.469-0.072-0.577-0.397c-0.108-0.36-0.252-0.865-0.396-1.513
			c-1.37,1.478-3.28,2.307-5.731,2.307c-2.127,0-3.965-0.505-5.119-1.478c-1.262-1.082-1.91-2.74-1.91-4.794v-0.504
			c0-2.415,0.866-4.218,2.415-5.118c1.478-0.829,3.532-1.01,6.055-1.01c0.973,0,2.848,0.072,3.893,0.144v-1.586
			c0-1.369-0.216-2.523-0.901-3.244c-0.721-0.757-1.947-1.117-3.64-1.117c-1.694,0-4.001,0.397-5.623,0.829
			c-0.289,0.072-0.505,0-0.505-0.36V49.973z M189.72,64.174c0,1.045,0.325,1.838,0.938,2.343c0.576,0.505,1.514,0.757,2.487,0.757
			c1.874,0,3.605-0.612,4.722-1.802v-4.505c-1.298-0.144-2.848-0.144-3.712-0.144c-1.55,0-2.667,0.072-3.424,0.541
			c-0.649,0.396-1.01,1.153-1.01,2.559V64.174z"/>
		<path fill="#3B3A39" d="M207.705,48.891c0.288,0,0.504,0.108,0.541,0.432l0.144,1.154c1.73-1.189,3.965-1.982,6.236-1.982
			c2.126,0,3.929,0.504,5.082,1.513c1.369,1.154,1.982,2.848,1.982,5.587v14.057c0,0.325-0.144,0.469-0.469,0.469h-3.244
			c-0.253,0-0.432-0.144-0.432-0.469V56.749c0-2.163-0.108-2.92-1.01-3.785c-0.756-0.685-1.766-0.938-3.28-0.938
			c-1.694,0-3.279,0.504-4.649,1.334v16.292c0,0.325-0.144,0.469-0.504,0.469h-3.208c-0.253,0-0.432-0.144-0.432-0.469V49.36
			c0-0.325,0.18-0.469,0.432-0.469H207.705z"/>
		<path fill="#3B3A39" d="M241.05,64.282c0,1.802,0.144,3.893,0.361,5.443c0.036,0.325-0.109,0.397-0.505,0.397h-2.703
			c-0.397,0-0.577-0.144-0.685-0.504c-0.144-0.397-0.253-0.865-0.36-1.442c-1.334,1.478-3.496,2.343-5.695,2.343
			c-2.559,0-4.433-0.685-5.659-1.767c-1.513-1.369-2.126-3.244-2.126-6.271v-6.019c0-3.244,0.793-4.975,2.163-6.2
			c1.297-1.154,3.496-1.766,5.371-1.766c2.307,0,4.289,0.576,5.695,1.478v-7.858c0-0.324,0.108-0.468,0.432-0.54l3.064-0.505
			c0.397-0.072,0.649,0.072,0.649,0.433V64.282z M227.858,61.939c0,1.947,0.108,3.136,1.009,4.037
			c0.649,0.685,1.947,1.009,3.244,1.009c1.622,0,3.424-0.685,4.793-1.73v-11.93c-1.153-0.793-2.883-1.298-4.758-1.298
			c-1.442,0-2.487,0.288-3.244,0.973c-0.866,0.793-1.045,2.163-1.045,4.217V61.939z"/>
	</g>
	<linearGradient id="SVGID_1_" gradientUnits="userSpaceOnUse" x1="59.5433" y1="111.6858" x2="59.5433" y2="6.9419">
		<stop  offset="0.1288" style="stop-color:#33A8E0"/>
		<stop  offset="0.2566" style="stop-color:#329ED9"/>
		<stop  offset="0.4729" style="stop-color:#3184C4"/>
		<stop  offset="0.7491" style="stop-color:#2E59A4"/>
		<stop  offset="1" style="stop-color:#2B2C82"/>
	</linearGradient>
	<rect x="7.171" y="6.942" fill="url(#SVGID_1_)" width="104.744" height="104.744"/>
	<linearGradient id="SVGID_2_" gradientUnits="userSpaceOnUse" x1="59.5433" y1="111.6858" x2="59.5433" y2="49.0331">
		<stop  offset="0" style="stop-color:#008E35"/>
		<stop  offset="0.1271" style="stop-color:#099133"/>
		<stop  offset="0.3333" style="stop-color:#21992F"/>
		<stop  offset="0.593" style="stop-color:#48A729"/>
		<stop  offset="0.8931" style="stop-color:#7EB920"/>
		<stop  offset="1" style="stop-color:#93C01C"/>
	</linearGradient>
	<rect x="7.171" y="49.033" fill="url(#SVGID_2_)" width="104.744" height="62.653"/>
	<polygon fill="#EA6004" points="111.915,49.328 7.171,48.752 7.171,48.179 111.915,48.754 	"/>
	<polygon fill="#E4005A" points="111.915,51.005 7.171,50.426 7.171,48.752 111.915,49.328 	"/>
	<polygon fill="#F6A500" points="111.915,53.261 7.171,52.532 7.171,50.426 111.915,51.153 	"/>
	<polygon fill="#E51D4E" points="111.915,56.279 7.171,55.436 7.171,54.618 111.915,55.448 	"/>
	<polygon fill="#FFCB00" points="111.915,65.481 7.171,63.55 7.171,58.763 111.915,60.461 	"/>
	<polygon fill="#E2000F" points="111.915,71.727 7.171,69.666 7.171,65.481 111.915,67.18 	"/>
	<polygon fill="#EE7C00" points="111.915,88.586 7.171,83.888 7.171,72.306 111.915,74.008 	"/>
	<polygon fill="#F6A500" points="111.915,102.709 7.171,95.983 7.171,86.979 111.915,90.535 	"/>
	<polygon fill="#E74022" points="111.915,111.686 7.171,111.684 7.171,101.382 111.915,107.693 	"/>
	<g>
		<path fill="#9B9B9B" d="M129.251,77.098c0-0.18,0.08-0.28,0.259-0.299l1.695-0.259c0.219-0.04,0.339,0.04,0.339,0.24v2.094
			c0,0.179-0.08,0.259-0.259,0.259h-1.775c-0.179,0-0.259-0.08-0.259-0.259V77.098z M131.265,80.567
			c0.199,0,0.279,0.079,0.279,0.259v11.226c0,0.179-0.08,0.259-0.279,0.259h-1.755c-0.179,0-0.259-0.08-0.259-0.259V80.826
			c0-0.18,0.08-0.259,0.259-0.259H131.265z"/>
		<path fill="#9B9B9B" d="M135.512,80.567c0.159,0,0.279,0.06,0.299,0.239l0.08,0.638c0.957-0.658,2.193-1.096,3.449-1.096
			c1.176,0,2.173,0.279,2.811,0.837c0.758,0.638,1.097,1.575,1.097,3.091v7.776c0,0.179-0.08,0.259-0.259,0.259h-1.794
			c-0.14,0-0.239-0.08-0.239-0.259v-7.138c0-1.196-0.06-1.615-0.558-2.094c-0.419-0.379-0.977-0.518-1.814-0.518
			c-0.937,0-1.814,0.279-2.572,0.737v9.013c0,0.179-0.08,0.259-0.279,0.259h-1.774c-0.139,0-0.239-0.08-0.239-0.259V80.826
			c0-0.18,0.1-0.259,0.239-0.259H135.512z"/>
		<path fill="#9B9B9B" d="M148.472,82.322v6.261c0,0.718,0.08,1.216,0.299,1.516c0.239,0.359,0.698,0.478,1.296,0.478
			c0.578,0,1.157-0.14,1.476-0.219c0.219-0.06,0.319,0,0.279,0.219l-0.22,1.296c-0.04,0.239-0.119,0.339-0.299,0.419
			c-0.339,0.159-0.997,0.239-1.675,0.239c-1.316,0-2.353-0.279-2.931-1.117c-0.379-0.558-0.518-1.415-0.518-2.452v-6.639h-1.954
			c-0.139,0-0.219-0.039-0.219-0.219v-1.316c0-0.179,0.08-0.219,0.219-0.219h1.954v-2.712c0-0.14,0.06-0.199,0.239-0.24l1.755-0.319
			c0.179-0.04,0.299,0,0.299,0.159v3.111h3.25c0.179,0,0.24,0.06,0.219,0.219l-0.08,1.276c-0.02,0.22-0.1,0.259-0.299,0.259H148.472
			z"/>
		<path fill="#9B9B9B" d="M152.58,87.965v-2.891c0-1.575,0.459-2.791,1.455-3.648c0.757-0.638,1.814-1.077,3.35-1.077
			c1.415,0,2.492,0.379,3.31,1.216c0.738,0.758,1.136,1.834,1.136,3.231v1.814c0,0.399-0.139,0.598-0.538,0.598h-6.42v0.718
			c0,1.874,0.937,2.732,3.011,2.732c1.017,0,2.213-0.18,2.951-0.459c0.219-0.08,0.359,0,0.319,0.259l-0.16,1.176
			c-0.04,0.239-0.119,0.359-0.339,0.438c-0.598,0.259-2.014,0.459-2.991,0.459C154.394,92.53,152.58,91.235,152.58,87.965z
			 M154.873,85.492h4.646v-0.817c0-0.817-0.14-1.535-0.538-1.994c-0.359-0.419-0.858-0.618-1.635-0.618
			c-0.857,0-1.395,0.259-1.794,0.638c-0.479,0.478-0.678,1.196-0.678,2.113V85.492z"/>
		<path fill="#9B9B9B" d="M165.202,80.567c0.179,0,0.279,0.079,0.299,0.259l0.1,1.216c0.658-0.917,1.735-1.635,3.17-1.635
			c0.319,0,0.718,0.04,0.937,0.1c0.159,0.04,0.199,0.119,0.199,0.259v1.316c0,0.219-0.1,0.298-0.259,0.298
			c-0.159,0-0.499-0.039-0.897-0.039c-1.097,0-2.293,0.478-2.991,1.176v8.534c0,0.179-0.08,0.259-0.259,0.259h-1.794
			c-0.14,0-0.239-0.08-0.239-0.259V80.826c0-0.18,0.099-0.259,0.239-0.259H165.202z"/>
		<path fill="#9B9B9B" d="M172.818,80.567c0.159,0,0.279,0.06,0.299,0.239l0.08,0.638c0.957-0.658,2.193-1.096,3.449-1.096
			c1.176,0,2.173,0.279,2.811,0.837c0.758,0.638,1.097,1.575,1.097,3.091v7.776c0,0.179-0.08,0.259-0.259,0.259h-1.794
			c-0.14,0-0.24-0.08-0.24-0.259v-7.138c0-1.196-0.06-1.615-0.558-2.094c-0.419-0.379-0.977-0.518-1.814-0.518
			c-0.937,0-1.814,0.279-2.572,0.737v9.013c0,0.179-0.08,0.259-0.279,0.259h-1.774c-0.139,0-0.239-0.08-0.239-0.259V80.826
			c0-0.18,0.1-0.259,0.239-0.259H172.818z"/>
		<path fill="#9B9B9B" d="M182.848,81.166c0-0.14,0.06-0.22,0.22-0.28c0.837-0.319,2.173-0.538,3.409-0.538
			c1.516,0,2.811,0.298,3.609,1.056c0.697,0.658,0.977,1.575,0.977,3.011v5.264c0,0.798,0.06,1.596,0.159,2.373
			c0.02,0.199-0.06,0.259-0.219,0.259h-1.496c-0.139,0-0.259-0.04-0.319-0.219c-0.06-0.199-0.14-0.479-0.219-0.838
			c-0.758,0.817-1.815,1.276-3.17,1.276c-1.176,0-2.193-0.279-2.831-0.817c-0.698-0.598-1.057-1.515-1.057-2.652v-0.279
			c0-1.336,0.479-2.333,1.336-2.832c0.817-0.459,1.954-0.558,3.349-0.558c0.539,0,1.575,0.04,2.154,0.08v-0.877
			c0-0.758-0.12-1.396-0.499-1.794c-0.399-0.419-1.077-0.618-2.014-0.618c-0.937,0-2.213,0.219-3.11,0.459
			c-0.159,0.039-0.279,0-0.279-0.199V81.166z M184.244,89.022c0,0.578,0.179,1.016,0.518,1.296c0.319,0.279,0.837,0.419,1.375,0.419
			c1.037,0,1.995-0.339,2.613-0.997v-2.492c-0.718-0.08-1.575-0.08-2.054-0.08c-0.857,0-1.475,0.04-1.894,0.299
			c-0.359,0.219-0.558,0.638-0.558,1.416V89.022z"/>
		<path fill="#9B9B9B" d="M196.207,82.322v6.261c0,0.718,0.08,1.216,0.299,1.516c0.239,0.359,0.698,0.478,1.296,0.478
			c0.578,0,1.156-0.14,1.476-0.219c0.219-0.06,0.319,0,0.279,0.219l-0.219,1.296c-0.04,0.239-0.12,0.339-0.299,0.419
			c-0.339,0.159-0.997,0.239-1.675,0.239c-1.316,0-2.353-0.279-2.931-1.117c-0.379-0.558-0.519-1.415-0.519-2.452v-6.639h-1.954
			c-0.14,0-0.219-0.039-0.219-0.219v-1.316c0-0.179,0.079-0.219,0.219-0.219h1.954v-2.712c0-0.14,0.06-0.199,0.239-0.24l1.755-0.319
			c0.179-0.04,0.298,0,0.298,0.159v3.111h3.25c0.18,0,0.24,0.06,0.219,0.219l-0.079,1.276c-0.02,0.22-0.1,0.259-0.299,0.259H196.207
			z"/>
		<path fill="#9B9B9B" d="M200.853,77.098c0-0.18,0.08-0.28,0.259-0.299l1.695-0.259c0.22-0.04,0.339,0.04,0.339,0.24v2.094
			c0,0.179-0.08,0.259-0.259,0.259h-1.775c-0.179,0-0.259-0.08-0.259-0.259V77.098z M202.868,80.567
			c0.199,0,0.279,0.079,0.279,0.259v11.226c0,0.179-0.08,0.259-0.279,0.259h-1.755c-0.179,0-0.259-0.08-0.259-0.259V80.826
			c0-0.18,0.08-0.259,0.259-0.259H202.868z"/>
		<path fill="#9B9B9B" d="M214.651,87.705c0,3.13-1.495,4.805-4.845,4.805c-3.349,0-4.865-1.675-4.865-4.805v-2.552
			c0-3.131,1.516-4.805,4.865-4.805c3.35,0,4.845,1.674,4.845,4.805V87.705z M212.358,85.193c0-2.014-0.737-2.991-2.552-2.991
			c-1.814,0-2.552,0.977-2.552,2.991v2.472c0,2.013,0.738,2.991,2.552,2.991c1.815,0,2.552-0.978,2.552-2.991V85.193z"/>
		<path fill="#9B9B9B" d="M218.2,80.567c0.16,0,0.28,0.06,0.299,0.239l0.08,0.638c0.957-0.658,2.193-1.096,3.449-1.096
			c1.177,0,2.174,0.279,2.812,0.837c0.757,0.638,1.096,1.575,1.096,3.091v7.776c0,0.179-0.08,0.259-0.259,0.259h-1.794
			c-0.14,0-0.24-0.08-0.24-0.259v-7.138c0-1.196-0.06-1.615-0.558-2.094c-0.419-0.379-0.977-0.518-1.814-0.518
			c-0.938,0-1.815,0.279-2.573,0.737v9.013c0,0.179-0.079,0.259-0.279,0.259h-1.775c-0.14,0-0.239-0.08-0.239-0.259V80.826
			c0-0.18,0.1-0.259,0.239-0.259H218.2z"/>
		<path fill="#9B9B9B" d="M228.23,81.166c0-0.14,0.06-0.22,0.219-0.28c0.838-0.319,2.174-0.538,3.41-0.538
			c1.516,0,2.811,0.298,3.609,1.056c0.697,0.658,0.977,1.575,0.977,3.011v5.264c0,0.798,0.06,1.596,0.159,2.373
			c0.02,0.199-0.06,0.259-0.219,0.259h-1.496c-0.139,0-0.259-0.04-0.319-0.219c-0.06-0.199-0.14-0.479-0.219-0.838
			c-0.758,0.817-1.815,1.276-3.17,1.276c-1.176,0-2.193-0.279-2.832-0.817c-0.697-0.598-1.056-1.515-1.056-2.652v-0.279
			c0-1.336,0.478-2.333,1.336-2.832c0.817-0.459,1.954-0.558,3.349-0.558c0.539,0,1.575,0.04,2.154,0.08v-0.877
			c0-0.758-0.12-1.396-0.499-1.794c-0.399-0.419-1.077-0.618-2.014-0.618c-0.937,0-2.213,0.219-3.11,0.459
			c-0.159,0.039-0.279,0-0.279-0.199V81.166z M229.626,89.022c0,0.578,0.18,1.016,0.518,1.296c0.32,0.279,0.838,0.419,1.376,0.419
			c1.037,0,1.995-0.339,2.613-0.997v-2.492c-0.718-0.08-1.575-0.08-2.054-0.08c-0.857,0-1.475,0.04-1.894,0.299
			c-0.359,0.219-0.558,0.638-0.558,1.416V89.022z"/>
		<path fill="#9B9B9B" d="M238.459,76.819c0-0.179,0.06-0.259,0.239-0.298l1.695-0.28c0.219-0.04,0.359,0.04,0.359,0.239v12.84
			c0,0.798,0.399,1.157,1.037,1.157c0.24,0,0.539-0.02,0.798-0.04c0.159-0.02,0.259,0.04,0.24,0.239l-0.1,1.256
			c-0.02,0.199-0.1,0.319-0.339,0.359c-0.379,0.079-0.898,0.119-1.356,0.119c-1.655,0-2.572-0.917-2.572-3.091V76.819z"/>
		<path fill="#9B9B9B" d="M132.999,101.543c-1.455,0-2.134,0.539-2.134,1.356v0.079c0,0.658,0.259,1.097,1.436,1.535l1.436,0.558
			c1.675,0.658,2.492,1.535,2.492,3.11v0.18c0,2.213-1.575,3.549-4.227,3.549c-1.236,0-2.153-0.259-2.851-0.478
			c-0.179-0.06-0.299-0.159-0.319-0.359l-0.199-1.376c-0.02-0.159,0.1-0.239,0.279-0.18c0.777,0.339,1.914,0.579,2.811,0.579
			c1.535,0,2.313-0.558,2.313-1.516v-0.079c0-0.858-0.419-1.256-1.455-1.636l-1.516-0.558c-1.535-0.558-2.432-1.536-2.432-3.21
			v-0.12c0-1.774,1.476-3.25,4.326-3.25c1.017,0,1.854,0.179,2.492,0.379c0.159,0.04,0.22,0.119,0.22,0.319v1.256
			c0,0.24-0.12,0.279-0.339,0.219C134.654,101.723,133.956,101.543,132.999,101.543z"/>
		<path fill="#9B9B9B" d="M140.955,101.702v6.261c0,0.718,0.08,1.216,0.299,1.516c0.239,0.359,0.698,0.478,1.296,0.478
			c0.578,0,1.157-0.14,1.476-0.219c0.219-0.06,0.319,0,0.279,0.219l-0.219,1.296c-0.04,0.24-0.119,0.339-0.299,0.419
			c-0.339,0.159-0.997,0.239-1.675,0.239c-1.316,0-2.353-0.279-2.931-1.117c-0.379-0.558-0.518-1.415-0.518-2.452v-6.639h-1.954
			c-0.139,0-0.219-0.039-0.219-0.219v-1.316c0-0.179,0.08-0.219,0.219-0.219h1.954v-2.712c0-0.14,0.06-0.199,0.239-0.24l1.755-0.319
			c0.179-0.04,0.299,0,0.299,0.159v3.111h3.25c0.179,0,0.24,0.06,0.22,0.219l-0.08,1.276c-0.02,0.22-0.1,0.259-0.299,0.259H140.955z
			"/>
		<path fill="#9B9B9B" d="M154.873,109.059c0,0.798,0.06,1.596,0.159,2.373c0.02,0.199-0.06,0.259-0.219,0.259h-1.495
			c-0.14,0-0.24-0.04-0.299-0.219c-0.08-0.199-0.159-0.579-0.239-0.957c-0.698,0.798-1.934,1.395-3.33,1.395
			c-1.196,0-2.213-0.279-2.851-0.837c-0.757-0.638-1.097-1.575-1.097-3.091v-7.776c0-0.18,0.08-0.259,0.259-0.259h1.774
			c0.159,0,0.259,0.079,0.259,0.259v7.138c0,1.196,0.14,1.794,0.558,2.173c0.359,0.32,0.858,0.479,1.655,0.479
			c0.837,0,1.934-0.399,2.552-1.037v-8.753c0-0.18,0.1-0.259,0.279-0.259h1.775c0.159,0,0.259,0.079,0.259,0.259V109.059z"/>
		<path fill="#9B9B9B" d="M166.258,108.462c0,0.997,0.08,2.153,0.199,3.011c0.02,0.179-0.06,0.219-0.279,0.219h-1.495
			c-0.22,0-0.319-0.08-0.379-0.279c-0.08-0.22-0.14-0.479-0.199-0.798c-0.738,0.817-1.934,1.296-3.15,1.296
			c-1.416,0-2.453-0.379-3.13-0.977c-0.837-0.758-1.176-1.794-1.176-3.469v-3.33c0-1.794,0.439-2.752,1.196-3.429
			c0.718-0.638,1.934-0.977,2.971-0.977c1.276,0,2.373,0.319,3.15,0.817v-4.347c0-0.179,0.06-0.259,0.24-0.298l1.695-0.28
			c0.22-0.04,0.359,0.04,0.359,0.24V108.462z M158.96,107.165c0,1.077,0.06,1.735,0.558,2.233c0.359,0.379,1.077,0.558,1.795,0.558
			c0.897,0,1.894-0.379,2.651-0.957V102.4c-0.638-0.439-1.595-0.718-2.632-0.718c-0.797,0-1.376,0.159-1.794,0.538
			c-0.479,0.439-0.578,1.197-0.578,2.333V107.165z"/>
		<path fill="#9B9B9B" d="M169.209,99.948c0.179,0,0.299,0.06,0.339,0.199c0.798,3.07,1.854,7.018,2.811,9.829h0.12
			c0.817-2.871,1.794-6.759,2.472-9.75c0.06-0.219,0.179-0.279,0.379-0.279h1.794c0.219,0,0.259,0.119,0.199,0.319
			c-1.057,4.187-2.293,8.395-3.37,11.624c-1.097,3.31-2.014,4.028-4.287,4.028c-0.499,0-1.037-0.06-1.356-0.159
			c-0.239-0.08-0.279-0.159-0.339-0.359l-0.279-1.256c-0.04-0.179,0.08-0.279,0.259-0.239c0.379,0.08,1.017,0.159,1.476,0.159
			c1.216,0,1.974-0.578,2.412-1.854l0.239-0.678h-0.817c-0.299,0-0.538-0.119-0.638-0.399c-1.236-3.21-2.632-7.776-3.449-10.907
			c-0.04-0.159,0-0.279,0.199-0.279H169.209z"/>
		<path fill="#9B9B9B" d="M182.888,107.585v-3.49c0-1.455,0.419-2.572,1.256-3.31c0.817-0.718,2.094-1.056,3.589-1.056
			c1.137,0,2.074,0.139,2.911,0.359c0.14,0.039,0.199,0.119,0.199,0.319v1.276c0,0.24-0.1,0.279-0.319,0.219
			c-0.678-0.159-1.695-0.299-2.492-0.299c-0.937,0-1.695,0.14-2.134,0.558c-0.518,0.459-0.698,1.237-0.698,2.233v2.871
			c0,1.735,0.559,2.772,2.732,2.772c0.898,0,1.915-0.14,2.672-0.379c0.219-0.079,0.379,0,0.338,0.259l-0.179,1.176
			c-0.04,0.239-0.12,0.359-0.339,0.439c-0.598,0.219-1.695,0.379-2.632,0.379C184.462,111.911,182.888,110.555,182.888,107.585z"/>
		<path fill="#9B9B9B" d="M191.88,107.345v-2.891c0-1.575,0.459-2.791,1.455-3.648c0.758-0.638,1.815-1.077,3.35-1.077
			c1.416,0,2.492,0.379,3.31,1.216c0.737,0.758,1.136,1.834,1.136,3.231v1.814c0,0.399-0.14,0.598-0.538,0.598h-6.42v0.718
			c0,1.874,0.937,2.732,3.011,2.732c1.017,0,2.213-0.18,2.951-0.459c0.219-0.08,0.359,0,0.319,0.259l-0.159,1.176
			c-0.04,0.239-0.12,0.359-0.339,0.438c-0.598,0.259-2.014,0.459-2.991,0.459C193.694,111.911,191.88,110.615,191.88,107.345z
			 M194.173,104.872h4.646v-0.817c0-0.817-0.14-1.535-0.539-1.994c-0.359-0.419-0.857-0.618-1.635-0.618
			c-0.858,0-1.395,0.259-1.794,0.638c-0.478,0.478-0.678,1.196-0.678,2.113V104.872z"/>
		<path fill="#9B9B9B" d="M204.581,99.948c0.16,0,0.28,0.06,0.299,0.239l0.08,0.638c0.957-0.658,2.193-1.096,3.449-1.096
			c1.176,0,2.174,0.279,2.812,0.837c0.757,0.638,1.096,1.575,1.096,3.091v7.776c0,0.179-0.08,0.259-0.259,0.259h-1.794
			c-0.14,0-0.24-0.08-0.24-0.259v-7.138c0-1.196-0.06-1.615-0.558-2.094c-0.419-0.379-0.977-0.518-1.814-0.518
			c-0.938,0-1.815,0.279-2.573,0.737v9.013c0,0.179-0.079,0.259-0.279,0.259h-1.775c-0.14,0-0.24-0.08-0.24-0.259v-11.226
			c0-0.18,0.1-0.259,0.24-0.259H204.581z"/>
		<path fill="#9B9B9B" d="M217.562,101.702v6.261c0,0.718,0.08,1.216,0.299,1.516c0.24,0.359,0.698,0.478,1.296,0.478
			c0.578,0,1.156-0.14,1.476-0.219c0.219-0.06,0.319,0,0.279,0.219l-0.219,1.296c-0.04,0.24-0.12,0.339-0.299,0.419
			c-0.339,0.159-0.997,0.239-1.675,0.239c-1.316,0-2.353-0.279-2.931-1.117c-0.379-0.558-0.519-1.415-0.519-2.452v-6.639h-1.954
			c-0.14,0-0.219-0.039-0.219-0.219v-1.316c0-0.179,0.079-0.219,0.219-0.219h1.954v-2.712c0-0.14,0.06-0.199,0.239-0.24l1.755-0.319
			c0.179-0.04,0.298,0,0.298,0.159v3.111h3.25c0.18,0,0.24,0.06,0.219,0.219l-0.079,1.276c-0.02,0.22-0.1,0.259-0.299,0.259H217.562
			z"/>
		<path fill="#9B9B9B" d="M223.922,99.948c0.18,0,0.28,0.079,0.299,0.259l0.1,1.216c0.658-0.917,1.735-1.635,3.17-1.635
			c0.319,0,0.718,0.04,0.938,0.1c0.159,0.04,0.199,0.119,0.199,0.259v1.316c0,0.219-0.099,0.298-0.259,0.298
			c-0.159,0-0.498-0.039-0.897-0.039c-1.097,0-2.293,0.478-2.991,1.176v8.534c0,0.179-0.079,0.259-0.259,0.259h-1.794
			c-0.14,0-0.24-0.08-0.24-0.259v-11.226c0-0.18,0.1-0.259,0.24-0.259H223.922z"/>
		<path fill="#9B9B9B" d="M228.987,107.345v-2.891c0-1.575,0.459-2.791,1.455-3.648c0.758-0.638,1.815-1.077,3.35-1.077
			c1.416,0,2.492,0.379,3.31,1.216c0.737,0.758,1.136,1.834,1.136,3.231v1.814c0,0.399-0.14,0.598-0.538,0.598h-6.42v0.718
			c0,1.874,0.937,2.732,3.011,2.732c1.017,0,2.213-0.18,2.951-0.459c0.219-0.08,0.359,0,0.319,0.259l-0.159,1.176
			c-0.04,0.239-0.12,0.359-0.339,0.438c-0.598,0.259-2.013,0.459-2.991,0.459C230.801,111.911,228.987,110.615,228.987,107.345z
			 M231.28,104.872h4.646v-0.817c0-0.817-0.14-1.535-0.539-1.994c-0.359-0.419-0.858-0.618-1.635-0.618
			c-0.858,0-1.395,0.259-1.794,0.638c-0.478,0.478-0.678,1.196-0.678,2.113V104.872z"/>
	</g>
</g>
</svg>
