<svg width="210" height="60" viewBox="0 0 210 60" fill="none" xmlns="http://www.w3.org/2000/svg">
<rect width="210" height="59.4693" fill="black" fill-opacity="0"/>
<rect width="210" height="59.4693" fill="black" fill-opacity="0"/>
<path d="M29.6916 52.8234C38.2565 52.8234 45.6794 48.1254 49.6763 41.2503L46.8214 39.6462C43.3954 45.6045 37.0003 49.5004 29.6916 49.5004C18.7286 49.5004 9.93529 40.5628 9.93529 29.6773C9.93529 18.6772 18.7286 9.8542 29.6916 9.8542C37.0003 9.8542 43.3954 13.8647 46.8214 19.7085L49.6763 18.1043C45.6794 11.2292 38.2565 6.53125 29.6916 6.53125C17.0156 6.53125 6.62354 16.8439 6.62354 29.6773C6.62354 42.5108 16.9014 52.8234 29.6916 52.8234Z" fill="#96C247"/>
<path d="M194.594 21.2096H192.881L188.77 29.2305H188.541L184.088 21.2096H182.375L187.514 30.3763H187.97C187.514 31.1784 187.171 31.6368 186.714 31.9805C186.372 32.2097 185.687 32.3243 184.659 32.3243C184.43 32.3243 184.202 32.3243 183.974 32.3243V33.6993C184.202 33.6993 184.43 33.6993 184.773 33.6993C185.572 33.6993 186.143 33.6993 186.486 33.5847C186.943 33.4701 187.285 33.3555 187.628 33.1264C187.97 32.8972 188.313 32.5534 188.656 32.0951C188.998 31.6368 189.341 30.9493 189.912 29.918L194.594 21.2096ZM181.119 31.4076C181.233 30.7201 181.347 29.5742 181.347 28.0847V21.2096H179.862V22.3554H179.748C179.52 22.0117 179.177 21.6679 178.835 21.4387C178.492 21.3242 178.149 21.2096 177.693 21.095C177.236 20.9804 176.551 20.9804 175.523 20.9804C174.267 20.9804 173.353 20.9804 172.782 21.095C172.097 21.2096 171.64 21.3242 171.183 21.4387C169.927 22.0117 169.356 23.3867 169.356 25.3346C169.356 26.2513 169.47 27.0534 169.699 27.6263C169.927 28.1992 170.27 28.7722 170.841 29.1159C171.183 29.3451 171.754 29.5742 172.439 29.6888C173.125 29.8034 174.038 29.8034 175.294 29.8034C176.779 29.8034 177.807 29.6888 178.378 29.5742C178.949 29.4597 179.406 29.1159 179.748 28.6576H179.862C179.862 29.5742 179.748 30.2618 179.748 30.6055C179.634 30.9493 179.52 31.293 179.291 31.5222C179.063 31.8659 178.606 32.0951 178.035 32.2097C177.464 32.3243 176.436 32.4389 175.066 32.4389C173.467 32.4389 172.44 32.3243 171.869 31.9805C171.64 31.8659 171.526 31.7514 171.412 31.5222C171.298 31.293 171.298 31.0638 171.183 30.7201H169.699C169.699 31.1784 169.699 31.5222 169.813 31.6368C169.813 31.8659 169.927 32.0951 170.156 32.3243C170.498 32.7826 171.069 33.1264 171.754 33.3555C172.439 33.5847 173.581 33.6993 175.18 33.6993C176.665 33.6993 177.693 33.6993 178.378 33.5847C179.063 33.4701 179.634 33.2409 179.977 33.0118C180.548 32.668 180.89 32.0951 181.119 31.4076ZM179.862 25.4492C179.862 26.2513 179.748 26.8242 179.634 27.2826C179.52 27.7409 179.177 28.0846 178.835 28.3138C178.378 28.6576 177.236 28.7722 175.409 28.7722C173.696 28.7722 172.668 28.6576 172.211 28.4284C171.412 28.0846 170.955 27.0534 170.955 25.5638C170.955 24.0742 171.298 23.1575 171.983 22.8138C172.554 22.47 173.81 22.3554 175.523 22.3554C177.122 22.3554 178.149 22.47 178.606 22.6992C179.063 22.9283 179.291 23.1575 179.52 23.6159C179.748 24.0742 179.862 24.6471 179.862 25.4492ZM166.387 25.3346H167.872V24.4179C167.872 23.2721 167.529 22.3554 166.958 21.7825C166.615 21.5533 166.273 21.3242 165.816 21.2096C165.359 21.095 164.674 21.095 163.76 21.095C162.847 21.095 162.162 21.095 161.705 21.2096C161.248 21.2096 160.905 21.3242 160.563 21.5533C160.106 21.7825 159.763 22.1263 159.535 22.5846H159.421V21.3242H157.936V30.4909H159.421V26.1367C159.421 24.5325 159.649 23.5013 160.106 23.0429C160.563 22.5846 161.705 22.3554 163.418 22.3554C164.56 22.3554 165.359 22.47 165.702 22.8138C165.93 22.9283 166.044 23.1575 166.044 23.5013C166.159 23.7304 166.159 24.1888 166.159 24.6471V25.3346H166.387ZM145.945 26.1367H156.109C156.109 25.1055 155.995 24.3034 155.881 23.7304C155.767 23.1575 155.538 22.6992 155.196 22.3554C154.739 21.8971 154.168 21.5533 153.483 21.4387C152.797 21.3242 151.655 21.2096 150.057 21.2096C148.458 21.2096 147.202 21.3242 146.516 21.5533C145.831 21.7825 145.26 22.2408 144.918 22.9284C144.575 23.6159 144.347 24.6471 144.347 26.0221C144.347 27.9701 144.803 29.2305 145.717 29.918C146.174 30.1472 146.745 30.3763 147.544 30.4909C148.344 30.6055 149.486 30.7201 151.084 30.7201C152.912 30.7201 154.282 30.4909 154.967 30.0326C155.767 29.5742 156.109 28.8867 156.109 27.7409H154.625C154.625 28.1992 154.51 28.543 154.282 28.7722C154.054 29.0013 153.711 29.2305 153.254 29.3451C152.797 29.4597 151.998 29.4597 150.97 29.4597C149.6 29.4597 148.572 29.4597 148.001 29.3451C147.43 29.2305 146.973 29.0013 146.631 28.7722C146.174 28.0846 145.945 27.2826 145.945 26.1367ZM145.945 24.8763C146.06 23.9596 146.288 23.2721 146.745 22.9284C146.973 22.6992 147.43 22.5846 147.887 22.47C148.344 22.3554 149.143 22.3554 150.057 22.3554C151.084 22.3554 151.998 22.3554 152.455 22.47C153.026 22.5846 153.483 22.6992 153.711 22.9284C154.168 23.2721 154.396 23.9596 154.396 24.7617H145.945V24.8763ZM140.921 30.3763H142.405V25.22C142.405 24.4179 142.405 23.7304 142.291 23.2721C142.177 22.8138 141.949 22.47 141.72 22.1263C141.378 21.7825 140.807 21.4387 140.236 21.3242C139.55 21.2096 138.637 21.095 137.266 21.095C135.782 21.095 134.64 21.2096 134.069 21.4387C133.384 21.6679 132.927 22.0117 132.698 22.5846H132.584V21.2096H131.1V30.3763H132.584V26.1367C132.584 25.22 132.584 24.6471 132.698 24.3034C132.813 23.9596 132.927 23.6159 133.155 23.3867C133.498 23.0429 133.955 22.6992 134.526 22.5846C135.097 22.47 136.01 22.3554 137.152 22.3554C138.18 22.3554 138.865 22.47 139.436 22.5846C139.893 22.6992 140.35 22.9283 140.578 23.1575C140.807 23.3867 140.921 23.7304 141.035 24.0742C141.149 24.4179 141.149 24.9909 141.149 25.793V30.3763H140.921ZM116.482 30.3763H129.387V28.7722H118.195V24.1888H128.816V22.5846H118.195V18.5741H129.387V16.97H116.482V30.3763ZM113.742 28.6576C114.084 27.9701 114.198 27.0534 114.198 25.9075C114.198 24.7617 114.084 23.9596 113.856 23.2721C113.627 22.5846 113.171 22.1263 112.6 21.7825C112.257 21.5533 111.686 21.4387 111.001 21.3242C110.316 21.2096 109.288 21.2096 107.803 21.2096C106.204 21.2096 105.062 21.3242 104.377 21.5533C103.692 21.7825 103.121 22.2408 102.779 22.9284C102.436 23.6159 102.208 24.5325 102.208 25.9075C102.208 27.0534 102.322 27.9701 102.55 28.6576C102.779 29.3451 103.235 29.8034 103.806 30.1472C104.263 30.3763 104.72 30.4909 105.405 30.6055C106.09 30.7201 107.004 30.7201 108.374 30.7201C109.745 30.7201 110.772 30.6055 111.343 30.4909C111.914 30.3763 112.485 30.1472 112.828 29.918C113.285 29.4597 113.513 29.1159 113.742 28.6576ZM112.714 25.793C112.714 26.5951 112.6 27.2826 112.485 27.7409C112.371 28.1992 112.143 28.543 111.8 28.7722C111.458 29.0013 111.115 29.1159 110.658 29.2305C110.201 29.3451 109.402 29.3451 108.374 29.3451C106.775 29.3451 105.748 29.2305 105.177 29.0013C104.72 28.7722 104.377 28.4284 104.149 27.9701C103.92 27.5117 103.806 26.8242 103.806 25.9075C103.806 25.1055 103.92 24.4179 104.035 23.9596C104.149 23.5013 104.491 23.1575 104.834 22.9284C105.177 22.6992 105.519 22.5846 105.976 22.5846C106.433 22.47 107.232 22.47 108.146 22.47C109.63 22.47 110.658 22.5846 111.229 22.6992C111.8 22.8138 112.257 23.1575 112.485 23.7304C112.6 24.0742 112.714 24.7617 112.714 25.793ZM98.7816 30.3763H100.266V25.22C100.266 24.4179 100.266 23.7304 100.152 23.2721C100.038 22.8138 99.8094 22.47 99.581 22.1263C99.2384 21.7825 98.6674 21.4387 98.0964 21.3242C97.4112 21.2096 96.4976 21.095 95.1272 21.095C93.6426 21.095 92.5007 21.2096 91.9297 21.4387C91.2445 21.6679 90.7877 22.0117 90.5593 22.5846H90.4451V21.2096H88.9605V30.3763H90.4451V26.1367C90.4451 25.22 90.4451 24.6471 90.5593 24.3034C90.6735 23.9596 90.7877 23.6159 91.0161 23.3867C91.3587 23.0429 91.8155 22.6992 92.3865 22.5846C92.9575 22.47 93.871 22.3554 95.013 22.3554C96.0408 22.3554 96.726 22.47 97.297 22.5846C97.7538 22.6992 98.2106 22.9283 98.439 23.1575C98.6674 23.3867 98.7816 23.7304 98.8958 24.0742C99.01 24.4179 99.01 24.9909 99.01 25.793V30.3763H98.7816ZM85.3062 30.3763H86.7907V25.22C86.7907 24.4179 86.7907 23.7304 86.6765 23.2721C86.5623 22.8138 86.3339 22.47 86.1056 22.1263C85.763 21.7825 85.192 21.4387 84.621 21.3242C83.9358 21.2096 83.0222 21.095 81.6518 21.095C80.1672 21.095 79.0253 21.2096 78.4543 21.4387C77.7691 21.6679 77.3123 22.0117 77.0839 22.5846H76.9697V21.2096H75.3709V30.3763H76.8555V26.1367C76.8555 25.22 76.8555 24.6471 76.9697 24.3034C77.0839 23.9596 77.1981 23.6159 77.4265 23.3867C77.7691 23.0429 78.2259 22.6992 78.7969 22.5846C79.3679 22.47 80.2814 22.3554 81.4234 22.3554C82.4512 22.3554 83.1364 22.47 83.7074 22.5846C84.1642 22.6992 84.621 22.9283 84.8494 23.1575C85.0778 23.3867 85.192 23.7304 85.3062 24.0742C85.4204 24.4179 85.4204 24.9909 85.4204 25.793V30.3763H85.3062ZM71.2598 30.3763H72.9727V17.1991H71.2598V30.3763ZM37.9139 33.0003V24.7502H44.4232V23.1461H37.9139V19.8231H36.2009V23.1461H33.6885V24.7502H36.2009V33.0003C36.2009 34.9483 37.7997 36.3233 39.5126 36.3233H44.4232V34.7191H39.5126C38.599 34.7191 37.9139 33.917 37.9139 33.0003ZM33.0033 23.1461H31.2903V36.3233H33.0033V23.1461ZM31.2903 21.4273H33.0033V19.7085H31.2903V21.4273ZM59.2689 29.792C59.2689 13.2918 46.0219 0 29.5774 0C24.21 0 19.0711 1.37501 14.7316 4.01046L16.4446 6.87507C20.3273 4.58338 24.781 3.32295 29.5774 3.32295C44.1948 3.32295 55.9572 15.1251 55.9572 29.792C55.9572 44.3442 44.1948 56.1464 29.6916 56.1464C15.0742 56.1464 3.31175 44.3442 3.31175 29.792H0C0 46.1775 13.247 59.4693 29.6916 59.4693C46.0219 59.4693 59.2689 46.1775 59.2689 29.792ZM16.7872 31.8545C16.7872 31.167 16.7872 30.4795 16.7872 29.792H29.6916C29.6916 28.3024 29.5774 27.2711 29.4632 26.469C29.349 25.7815 29.0064 25.094 28.5496 24.6357C27.9786 24.0627 27.2934 23.4898 26.494 23.3752C25.6946 23.1461 24.2101 23.0315 22.2687 23.0315C20.3273 23.0315 18.9569 23.1461 18.0433 23.3752C17.1298 23.6044 16.4446 24.0627 15.9878 24.6357C15.531 25.2086 15.1884 25.7815 15.0742 26.469C14.96 27.1565 14.8458 28.3024 14.8458 29.792C14.8458 31.167 14.96 32.3128 15.1884 33.0003C15.3026 33.6878 15.6452 34.3753 16.102 34.8337C16.5588 35.4066 17.244 35.9795 18.1575 36.0941C19.0711 36.3233 20.4415 36.4379 22.3829 36.4379C24.3242 36.4379 25.6946 36.3233 26.6082 36.0941C27.5218 35.8649 28.207 35.4066 28.6638 34.8337C29.0064 34.3753 29.2348 33.917 29.4632 33.4587H27.5218C27.4076 33.5732 27.2934 33.8024 27.065 33.917C26.7224 34.2607 26.1514 34.4899 25.4662 34.6045C24.781 34.7191 23.7533 34.7191 22.4971 34.7191C21.1267 34.7191 20.0989 34.7191 19.5279 34.6045C18.8427 34.4899 18.2717 34.2607 17.9291 33.917C17.1298 33.5732 16.9014 32.7712 16.7872 31.8545ZM16.7872 28.0732C16.7872 26.8128 17.1298 26.0107 17.7007 25.5523C18.0433 25.2086 18.6143 24.9794 19.2995 24.8648C19.9847 24.7502 21.0125 24.6357 22.2687 24.6357C23.5249 24.6357 24.5526 24.6357 25.2378 24.8648C25.923 24.9794 26.494 25.2086 26.8366 25.5523C27.4076 26.0107 27.7502 26.8128 27.7502 28.0732H16.7872Z" fill="#004494"/>
<path d="M74.9034 44.6162H75.5886L73.4189 41.0641L75.4744 37.512H74.7892L72.9621 40.7203H71.9343V37.3974H71.3633V44.6162H71.9343V41.4078H72.9621L74.9034 44.6162ZM77.1874 44.6162V40.9495C77.1874 40.9495 77.8726 39.9182 78.672 39.9182C79.4714 39.9182 79.6998 40.4912 79.6998 41.637V44.6162H80.2708V41.4078C80.2708 40.1474 79.814 39.3453 78.672 39.3453C77.7584 39.3453 77.0732 40.262 77.0732 40.262V39.4599H76.5022V44.6162H77.1874ZM83.5825 39.3453C81.9837 39.3453 81.6411 40.262 81.6411 41.9808C81.6411 43.6995 81.8695 44.7308 83.5825 44.7308C85.2955 44.7308 85.5239 43.6995 85.5239 41.9808C85.5239 40.262 85.1813 39.3453 83.5825 39.3453ZM83.5825 44.1579C82.3263 44.1579 82.2121 43.3558 82.2121 41.9808C82.2121 40.6057 82.5547 39.9182 83.5825 39.9182C84.7245 39.9182 84.9529 40.6057 84.9529 41.9808C84.9529 43.2412 84.8387 44.1579 83.5825 44.1579ZM86.4375 39.4599L87.5795 44.6162H88.7214L89.7492 40.3766L90.8912 44.6162H92.0332L93.1752 39.4599H92.6042L91.5764 44.0433H91.348L90.206 39.5745H89.5208L88.3788 44.0433H88.1504L87.1227 39.4599H86.4375ZM94.4314 44.6162H95.0023V37.1682H94.4314V44.6162ZM98.1999 44.1579C97.2863 44.1579 96.9437 43.4704 96.9437 42.4391V42.3245H97.5147C99.2277 42.3245 100.027 41.9808 100.027 40.7203C100.027 39.8037 99.3419 39.3453 98.4283 39.3453C96.9437 39.3453 96.3727 40.3766 96.3727 42.0953C96.3727 43.9287 96.9437 44.7308 98.1999 44.7308C99.1135 44.7308 99.7987 44.5016 99.7987 44.5016V44.0433C99.7987 43.9287 98.9993 44.1579 98.1999 44.1579ZM96.9437 41.7516C96.9437 40.6057 97.4005 39.9182 98.4283 39.9182C98.9993 39.9182 99.4561 40.1474 99.4561 40.7203C99.4561 41.5224 98.8851 41.7516 97.6289 41.7516H96.9437ZM104.938 37.1682H104.367V39.4599C104.367 39.4599 103.681 39.3453 103.225 39.3453C101.74 39.3453 101.169 40.262 101.169 42.0953C101.169 43.6995 101.512 44.7308 102.768 44.7308C103.796 44.7308 104.367 43.8141 104.367 43.8141V44.6162H104.938V37.1682ZM104.252 43.012C104.252 43.012 103.681 44.0433 102.768 44.0433C101.854 44.0433 101.626 43.1266 101.626 41.9808C101.626 40.6057 101.968 39.8037 102.996 39.8037C103.567 39.8037 104.138 39.9182 104.138 39.9182V43.012H104.252ZM108.135 47.0225C109.391 47.0225 110.305 46.335 110.305 45.1891C110.305 44.0433 109.62 43.8141 108.478 43.8141C107.564 43.8141 107.564 43.6995 107.564 43.3558C107.564 43.1266 107.793 42.6683 107.793 42.6683C107.793 42.6683 107.907 42.6683 108.021 42.6683C109.163 42.6683 109.848 42.0953 109.848 40.9495C109.848 40.4912 109.734 40.0328 109.391 39.8037H110.419V39.2307H108.935C108.935 39.2307 108.478 39.1161 108.021 39.1161C106.879 39.1161 106.308 39.8037 106.308 40.8349C106.308 41.637 106.536 42.2099 107.222 42.4391C107.222 42.4391 106.879 42.8974 106.879 43.2412C106.879 43.4704 106.879 43.6995 107.107 43.8141C106.651 44.1579 106.08 44.7308 106.08 45.3037C106.194 46.7933 106.993 47.0225 108.135 47.0225ZM108.364 44.387C109.163 44.387 109.62 44.5016 109.62 45.1891C109.62 45.9912 109.049 46.4496 108.135 46.4496C107.222 46.4496 106.765 46.2204 106.765 45.5329C106.765 44.9599 107.222 44.5016 107.564 44.2724C107.793 44.387 108.135 44.387 108.364 44.387ZM107.907 42.2099C107.107 42.2099 106.765 41.7516 106.765 41.0641C106.765 40.262 107.107 39.8037 107.907 39.8037C108.706 39.8037 109.049 40.262 109.049 41.0641C109.163 41.7516 108.82 42.2099 107.907 42.2099ZM113.046 44.1579C112.132 44.1579 111.79 43.4704 111.79 42.4391V42.3245H112.36C114.073 42.3245 114.873 41.9808 114.873 40.7203C114.873 39.8037 114.188 39.3453 113.274 39.3453C111.789 39.3453 111.219 40.3766 111.219 42.0953C111.219 43.9287 111.79 44.7308 113.046 44.7308C113.959 44.7308 114.644 44.5016 114.644 44.5016V44.0433C114.53 43.9287 113.731 44.1579 113.046 44.1579ZM111.79 41.7516C111.79 40.6057 112.246 39.9182 113.274 39.9182C113.845 39.9182 114.302 40.1474 114.302 40.7203C114.302 41.5224 113.731 41.7516 112.475 41.7516H111.79ZM118.527 44.6162H119.098V37.3974H118.527V44.6162ZM121.382 44.6162V40.9495C121.382 40.9495 122.067 39.9182 122.867 39.9182C123.666 39.9182 123.895 40.4912 123.895 41.637V44.6162H124.466V41.4078C124.466 40.1474 124.009 39.3453 122.867 39.3453C121.953 39.3453 121.268 40.262 121.268 40.262V39.4599H120.697V44.6162H121.382ZM126.635 44.6162V40.9495C126.635 40.9495 127.32 39.9182 128.12 39.9182C128.919 39.9182 129.148 40.4912 129.148 41.637V44.6162H129.719V41.4078C129.719 40.1474 129.262 39.3453 128.12 39.3453C127.206 39.3453 126.521 40.262 126.521 40.262V39.4599H125.95V44.6162H126.635ZM133.03 39.3453C131.432 39.3453 131.089 40.262 131.089 41.9808C131.089 43.6995 131.317 44.7308 133.03 44.7308C134.743 44.7308 134.972 43.6995 134.972 41.9808C134.972 40.262 134.515 39.3453 133.03 39.3453ZM133.03 44.1579C131.774 44.1579 131.66 43.3558 131.66 41.9808C131.66 40.6057 132.003 39.9182 133.03 39.9182C134.172 39.9182 134.401 40.6057 134.401 41.9808C134.287 43.2412 134.287 44.1579 133.03 44.1579ZM135.771 39.4599L137.142 44.6162H138.398L139.768 39.4599H139.197L137.941 44.0433H137.598L136.342 39.4599H135.771ZM142.166 44.6162C143.194 44.6162 143.765 43.5849 143.765 43.5849C143.765 44.0433 143.765 44.5016 143.765 44.5016H144.336C144.336 44.5016 144.222 43.8141 144.222 43.2412V39.3453C144.222 39.3453 142.966 39.1161 142.509 39.1161C140.91 39.1161 140.453 40.262 140.453 41.8662C140.567 43.8141 141.024 44.6162 142.166 44.6162ZM142.737 39.8037C143.08 39.8037 143.765 39.9182 143.765 39.9182V42.8974C143.765 42.8974 143.194 44.0433 142.28 44.0433C141.367 44.0433 141.138 43.2412 141.138 41.9808C141.253 40.6057 141.481 39.8037 142.737 39.8037ZM148.333 39.9182V39.3453H146.848V37.7411H146.277V39.3453H145.592V39.9182H146.277V43.1266C146.277 44.0433 146.62 44.6162 147.534 44.6162C147.876 44.6162 148.447 44.5016 148.447 44.5016V44.0433C148.447 44.0433 147.876 44.1579 147.648 44.1579C147.077 44.1579 146.848 43.8141 146.848 43.1266V39.9182H148.333ZM149.361 44.6162H149.932V39.4599H149.361V44.6162ZM149.361 38.1995H150.046V37.3974H149.361V38.1995ZM153.243 39.3453C151.645 39.3453 151.302 40.262 151.302 41.9808C151.302 43.6995 151.531 44.7308 153.243 44.7308C154.956 44.7308 155.185 43.6995 155.185 41.9808C155.185 40.262 154.842 39.3453 153.243 39.3453ZM153.243 44.1579C151.987 44.1579 151.873 43.3558 151.873 41.9808C151.873 40.6057 152.216 39.9182 153.243 39.9182C154.385 39.9182 154.614 40.6057 154.614 41.9808C154.614 43.2412 154.5 44.1579 153.243 44.1579ZM157.126 44.6162V40.9495C157.126 40.9495 157.811 39.9182 158.611 39.9182C159.41 39.9182 159.639 40.4912 159.639 41.637V44.6162H160.21V41.4078C160.21 40.1474 159.753 39.3453 158.611 39.3453C157.697 39.3453 157.012 40.262 157.012 40.262V39.4599H156.441V44.6162H157.126ZM168.089 43.9287C168.089 43.9287 167.062 44.1579 166.376 44.1579C164.892 44.1579 164.549 42.8974 164.549 41.0641C164.549 39.2307 164.778 37.9703 166.376 37.9703C167.062 37.9703 168.089 38.1995 168.089 38.1995V37.6266C168.089 37.6266 167.176 37.3974 166.262 37.3974C164.321 37.3974 163.864 38.887 163.864 41.0641C163.864 43.3558 164.321 44.7308 166.262 44.7308C167.062 44.7308 168.089 44.5016 168.089 44.5016V43.9287ZM171.058 39.3453C169.46 39.3453 169.117 40.262 169.117 41.9808C169.117 43.6995 169.345 44.7308 171.058 44.7308C172.771 44.7308 173 43.6995 173 41.9808C173 40.262 172.657 39.3453 171.058 39.3453ZM171.058 44.1579C169.802 44.1579 169.688 43.3558 169.688 41.9808C169.688 40.6057 170.031 39.9182 171.058 39.9182C172.2 39.9182 172.429 40.6057 172.429 41.9808C172.429 43.2412 172.315 44.1579 171.058 44.1579ZM178.025 44.6162V41.5224C178.025 41.0641 178.025 40.7203 178.025 40.7203C178.025 40.7203 178.596 39.8037 179.395 39.8037C180.194 39.8037 180.423 40.3766 180.423 41.5224V44.5016H180.994V41.4078C180.994 40.0328 180.537 39.2307 179.395 39.2307C178.481 39.2307 177.796 40.1474 177.796 40.1474C177.796 40.1474 177.568 39.2307 176.426 39.2307C175.626 39.2307 174.941 40.1474 174.941 40.1474V39.3453H174.37V44.5016H174.941V40.8349C174.941 40.8349 175.626 39.8037 176.426 39.8037C177.111 39.8037 177.454 40.3766 177.454 41.5224V44.5016H178.025V44.6162ZM186.133 44.6162V41.5224C186.133 41.0641 186.133 40.7203 186.133 40.7203C186.133 40.7203 186.704 39.8037 187.503 39.8037C188.302 39.8037 188.531 40.3766 188.531 41.5224V44.5016H189.102V41.4078C189.102 40.0328 188.645 39.2307 187.503 39.2307C186.589 39.2307 185.904 40.1474 185.904 40.1474C185.904 40.1474 185.676 39.2307 184.534 39.2307C183.734 39.2307 183.049 40.1474 183.049 40.1474V39.3453H182.478V44.5016H183.049V40.8349C183.049 40.8349 183.734 39.8037 184.534 39.8037C185.219 39.8037 185.562 40.3766 185.562 41.5224V44.5016H186.133V44.6162ZM193.556 39.4599V43.1266C193.556 43.1266 192.87 44.1579 192.071 44.1579C191.272 44.1579 191.043 43.5849 191.043 42.4391V39.4599H190.472V42.5537C190.472 43.9287 190.929 44.6162 192.071 44.6162C192.985 44.6162 193.67 43.6995 193.67 43.6995V44.5016H194.241V39.3453H193.556V39.4599ZM196.296 44.6162V40.9495C196.296 40.9495 196.981 39.9182 197.781 39.9182C198.58 39.9182 198.809 40.4912 198.809 41.637V44.6162H199.38V41.4078C199.38 40.1474 198.923 39.3453 197.781 39.3453C196.867 39.3453 196.182 40.262 196.182 40.262V39.4599H195.611V44.6162H196.296ZM200.864 44.6162H201.435V39.4599H200.864V44.6162ZM200.864 38.1995H201.549V37.3974H200.864V38.1995ZM205.432 39.9182V39.3453H203.948V37.7411H203.377V39.3453H202.691V39.9182H203.377V43.1266C203.377 44.0433 203.719 44.6162 204.633 44.6162C204.975 44.6162 205.546 44.5016 205.546 44.5016V44.0433C205.546 44.0433 204.975 44.1579 204.747 44.1579C204.176 44.1579 203.948 43.8141 203.948 43.1266V39.9182H205.432ZM206.003 39.4599L207.374 44.6162H208.059L207.374 46.9079H207.945L210 39.4599H209.429L208.173 44.0433H207.83L206.574 39.4599H206.003Z" fill="black"/>
</svg>
