<?xml version="1.0" encoding="utf-8"?>
<!-- Generator: Adobe Illustrator 24.0.3, SVG Export Plug-In . SVG Version: 6.00 Build 0)  -->
<svg version="1.1" id="Layer_1" xmlns="http://www.w3.org/2000/svg" xmlns:xlink="http://www.w3.org/1999/xlink" x="0px" y="0px"
	 viewBox="0 0 352 69.3" style="enable-background:new 0 0 352 69.3;" xml:space="preserve">
<style type="text/css">
	.st0{fill:#007853;}
</style>
<path class="st0" d="M1.8,24.8h7.4c1.2,0,5,0,7.7,2s3.8,5.6,3.8,8.8c0,6.8-3.7,10.4-7.9,11.2c-1.3,0.2-2.7,0.3-4,0.2H1.8V24.8z
	 M6.7,43.3c0.5,0,1.3,0.1,1.9,0.1c2,0,3.8-0.2,5.2-1.5c1.9-1.9,2-5.2,2-6.3c0-3.1-1.1-6-4.1-6.9c-1.6-0.4-3.3-0.5-5-0.3L6.7,43.3z"
	/>
<path class="st0" d="M33.4,24.8v13.5c0,2.4,0.2,5.5,4.8,5.5c0.8,0,3.1,0,4.3-1.9c0.5-0.7,0.7-1.5,0.7-3.8V24.8h4.7v13.9
	c0,6.6-5.3,8.7-9.8,8.7c-2.2,0-6.3-0.5-8.4-3.8c-1.1-1.7-1.1-3.4-1.1-5.5V24.8H33.4z"/>
<path class="st0" d="M56.5,24.7H65c2.5,0,5,0,6.7,1.5c1.2,1.1,1.9,2.6,1.9,4.3c0,4.2-3.6,5.1-4.7,5.5c3.4,0.3,3.6,2.2,4,5.1
	c0.3,2.6,0.5,3.7,0.7,4.3c0.1,0.6,0.3,1.1,0.7,1.6h-5.2c-0.2-1.2-0.9-6.9-1.2-7.7C67.5,38,66.3,38,65.5,38h-4.2v9h-4.9V24.7z
	 M61.2,34.5H65c0.9,0.1,1.7-0.2,2.4-0.6c0.8-0.6,1.3-1.6,1.2-2.6c0.1-1-0.4-1.9-1.2-2.5c-0.7-0.5-1.6-0.5-3.1-0.5h-3.2V34.5z"/>
<path class="st0" d="M81.6,24.7h4.8v8.9h8.4v-8.9h4.8V47h-4.8v-9.8h-8.5V47h-4.8V24.7z"/>
<path class="st0" d="M119.9,24.7l7.7,22.3h-4.8l-1.6-4.8h-8.8l-1.7,4.8h-4.6l8-22.3L119.9,24.7z M120,38.6l-3.1-9.5l-3.3,9.5H120z"
	/>
<path class="st0" d="M134.4,24.7h7.8l4.7,16.2l5.1-16.2h7.6V47h-4.7V27.9L148.8,47h-3.9l-5.9-19.1V47h-4.5V24.7z"/>
<path class="st0" d="M193.5,32c-0.1-0.8-0.4-3.9-3.6-3.9c-3.5,0-5,3.7-5,8.3c0,1.3,0,7.6,4.6,7.6c2,0,3.9-1.3,4-4.2h5
	c0,1.9-0.7,3.8-2,5.2c-1.7,1.7-4.1,2.6-6.5,2.5c-7.7,0-10.2-5.7-10.2-11.2c0-7,3.9-11.7,10.2-11.7c4.9,0,8.3,3,8.3,7.4H193.5z"/>
<path class="st0" d="M215.6,24.3c2.4,0,5.6,0.5,7.8,3c1.9,2.4,2.9,5.3,2.8,8.4c0,3.2-1,6.7-2.8,8.7c-2.1,2.1-4.9,3.3-7.9,3.2
	c-2.9,0.1-5.8-1-7.9-3c-2.4-2.6-2.7-6.3-2.7-8.3C205,30.3,207.6,24.3,215.6,24.3z M211.6,42.3c0.9,1.2,2.5,1.9,4,1.8
	c1.7,0.1,3.3-0.7,4.1-2c0.7-1.1,1.5-2.8,1.5-6.4c0-1.4-0.2-2.7-0.6-4c-0.9-2.8-2.8-4-5.1-4c-1.6,0-3.1,0.6-4.1,1.9
	c-1.3,1.5-1.6,3.9-1.6,6.5C209.8,38.2,210.4,40.4,211.6,42.3L211.6,42.3z"/>
<path class="st0" d="M234.1,24.8h4.9v18.4h9.5V47h-14.4V24.8z"/>
<path class="st0" d="M255.5,24.8h4.9v18.4h9.5V47h-14.4V24.8z"/>
<path class="st0" d="M277.1,24.7H292v3.6h-10.2v5.3h9.5v3.6h-9.5v6h10.5V47h-15.2V24.7z"/>
<path class="st0" d="M315,31.6c0-0.8-0.2-1.6-0.6-2.2c-0.9-1.2-2.3-1.8-3.7-1.7c-5.4,0-6.5,5-6.5,8.5c0,1.5,0.2,4.2,1.9,6
	c1.1,1.2,2.6,1.9,5.2,1.9c1.2,0.1,2.5-0.1,3.6-0.4v-4.7h-4.3v-3.7h9.1v11.1c-2.6,0.9-5.4,1.3-8.1,1.2c-5.1,0-7.7-1.2-9.5-3
	c-2.5-2.4-3-6-3-8.3c0-7.9,4.9-12.1,11.7-12.1c2.9,0,5.8,0.8,7.6,2.8c1.1,1.3,1.7,3,1.6,4.6L315,31.6z"/>
<path class="st0" d="M328.5,24.7h14.9v3.6h-10.1v5.3h9.5v3.6h-9.5v6h10.5V47h-15.2V24.7z"/>
</svg>
