<?xml version="1.0" encoding="utf-8"?>
<!-- Generator: Adobe Illustrator 23.0.2, SVG Export Plug-In . SVG Version: 6.00 Build 0)  -->
<svg version="1.1" id="Layer_1" xmlns="http://www.w3.org/2000/svg" xmlns:xlink="http://www.w3.org/1999/xlink" x="0px" y="0px"
	 viewBox="0 0 250 113" enable-background="new 0 0 250 113" xml:space="preserve">
<g>
	<path fill="#FFFFFF" d="M5.013,92.758H8.17v10.702c0,2.837,1.579,4.683,4.576,4.683c2.97,0,4.549-1.846,4.549-4.683V92.758h3.158
		v10.783c0,4.442-2.542,7.385-7.707,7.385c-5.192,0-7.733-2.969-7.733-7.358V92.758z"/>
	<path fill="#FFFFFF" d="M28.728,97.601v13.005h-3.13V92.758h3.211l9.124,12.657V92.758h3.131v17.848H38.04L28.728,97.601z"/>
	<path fill="#FFFFFF" d="M46.208,92.758h3.13v17.848h-3.13V92.758z"/>
	<path fill="#FFFFFF" d="M58.733,95.513h-5.405v-2.755h13.941v2.755h-5.405v15.093h-3.131V95.513z"/>
	<path fill="#FFFFFF" d="M71.235,92.758h12.229v2.755h-9.099v4.63h8.911v2.755h-8.911v4.951h9.099v2.757H71.235V92.758z"/>
	<path fill="#FFFFFF" d="M88.019,92.758h6.636c5.565,0,9.339,3.693,9.339,8.937c0,5.246-3.773,8.911-9.339,8.911h-6.636V92.758z
		 M94.655,107.849c3.88,0,6.128-2.782,6.128-6.154c0-3.453-2.141-6.182-6.128-6.182h-3.506v12.336H94.655z"/>
	<path fill="#FFFFFF" d="M121.262,103.087l-1.552,1.819v5.7h-3.13V92.758h3.13v8.508l6.984-8.508h3.88l-7.251,8.429l7.786,9.418
		h-3.852L121.262,103.087z"/>
	<path fill="#FFFFFF" d="M134.539,92.758h3.13v17.848h-3.13V92.758z"/>
	<path fill="#FFFFFF" d="M145.941,97.601v13.005h-3.13V92.758h3.211l9.124,12.657V92.758h3.132v17.848h-3.024L145.941,97.601z"/>
	<path fill="#FFFFFF" d="M171.985,92.463c3.477,0,5.753,1.659,7.197,3.72l-2.568,1.444c-0.936-1.337-2.623-2.381-4.629-2.381
		c-3.533,0-6.156,2.703-6.156,6.449s2.623,6.477,6.156,6.477c1.817,0,3.425-0.857,4.228-1.606v-2.782h-5.325v-2.757h8.455v6.689
		c-1.766,1.954-4.255,3.238-7.358,3.238c-5.167,0-9.367-3.667-9.367-9.259S166.818,92.463,171.985,92.463z"/>
	<path fill="#FFFFFF" d="M183.952,92.758h6.636c5.565,0,9.339,3.693,9.339,8.937c0,5.246-3.775,8.911-9.339,8.911h-6.636V92.758z
		 M190.588,107.849c3.88,0,6.127-2.782,6.127-6.154c0-3.453-2.14-6.182-6.127-6.182h-3.506v12.336H190.588z"/>
	<path fill="#FFFFFF" d="M212.617,92.463c5.35,0,9.125,3.907,9.125,9.232s-3.775,9.232-9.125,9.232
		c-5.352,0-9.125-3.907-9.125-9.232S207.265,92.463,212.617,92.463z M212.617,95.246c-3.612,0-5.914,2.757-5.914,6.449
		c0,3.667,2.302,6.449,5.914,6.449c3.585,0,5.913-2.782,5.913-6.449C218.53,98.002,216.202,95.246,212.617,95.246z"/>
	<path fill="#FFFFFF" d="M241.497,97.092l-5.486,13.514h-1.337l-5.46-13.514v13.514h-3.13V92.758h4.414l4.844,12.014l4.869-12.014
		h4.416v17.848h-3.13V97.092z"/>
</g>
<g>
	<defs>
		<rect id="SVGID_1_" x="-189" y="1.855" width="627.701" height="140.145"/>
	</defs>
	<clipPath id="SVGID_2_">
		<use xlink:href="#SVGID_1_"  overflow="visible"/>
	</clipPath>
	<path clip-path="url(#SVGID_2_)" fill="#FFFFFF" d="M83.537,12.288c-0.629,0.809-0.629,2.012-0.629,3.053v8.694
		c0,1.041,0,2.242,0.629,3.006l-3.395,0.138l0.114-1.526c0-0.068-0.058-0.092-0.142-0.092c-0.058,0-0.171,0.138-0.344,0.254
		c-1.113,0.764-2.852,1.595-5.505,1.595c-3.311,0-5.507-1.086-5.592-3.931v-8.138c0-1.041,0-2.244-0.627-3.053h3.822
		c-0.627,0.809-0.627,2.012-0.627,3.053v6.752c0.086,2.474,1.34,3.976,4.565,3.976c3.31,0,4.337-1.687,4.422-4.438
		c0.028-0.879,0.114-1.782,0.114-2.661v-3.629c0-1.041,0-2.244-0.627-3.053H83.537z"/>
	<path clip-path="url(#SVGID_2_)" fill="#FFFFFF" d="M86.19,27.04c0.999-1.897,0.999-4.716,0.999-6.752v-4.925
		c0-1.133-0.058-2.382-0.913-3.076h2.882c0.542,0,0.8,0,1.141,0.37c0.599,0.647,2.426,3.121,3.31,4.139l5.678,6.498
		c0.201,0.23,0.429,0.554,0.599,0.554c0.201,0,0.201-0.23,0.201-0.439v-8.163c0-1.572-0.286-2.357-0.685-2.96h2.967
		c-0.686,1.064-0.856,2.266-0.856,3.445v9.251c0,0.762,0.028,1.456,0.056,2.15h-2.026L89.1,15.087
		c-0.114-0.14-0.199-0.255-0.313-0.255c-0.115,0-0.171,0.138-0.171,0.347v5.941c0,1.852-0.058,4.186,0.854,5.921H86.19z"/>
	<path clip-path="url(#SVGID_2_)" fill="#FFFFFF" d="M105.489,15.317c0-1.041,0-2.244-0.629-3.03h3.823
		c-0.627,0.786-0.627,1.989-0.627,3.03v8.694c0,1.041,0,2.244,0.627,3.03h-3.823c0.629-0.786,0.629-1.989,0.629-3.03V15.317z"/>
	<path clip-path="url(#SVGID_2_)" fill="#FFFFFF" d="M115.743,27.133l-0.428-1.179c-1.341-3.7-3.339-9.388-5.365-12.88l-0.456-0.786
		h2.539c0.571,0,0.714,0.532,0.856,0.878c1.485,3.585,3.139,7.145,4.337,10.799c0.143,0.439,0.286,0.671,0.457,0.671
		s0.341-0.37,0.484-0.717c0.828-2.034,4.309-8.625,4.309-10.798c0-0.3-0.058-0.579-0.143-0.832h3.538l-0.514,0.739
		c-2.711,3.931-4.908,8.602-6.848,12.856l-0.571,1.25H115.743z"/>
	<path clip-path="url(#SVGID_2_)" fill="#FFFFFF" d="M130.168,26.116h3.282c1.768,0,3.594-0.347,4.936-1.318l-0.514,2.127
		c-0.77,0.047-1.713,0.115-2.739,0.115h-8.247c0.629-0.786,0.714-1.989,0.714-3.028v-8.695c0-1.039,0-2.242-0.629-3.028h9.959
		l0.114,1.78c-0.997-0.694-2.539-0.856-4.223-0.856h-2.653v5.526c2.197,0,4.508,0,6.705-0.162c-0.997,1.318-4.223,1.318-5.992,1.318
		h-0.713V26.116z"/>
	<path clip-path="url(#SVGID_2_)" fill="#FFFFFF" d="M143.378,18.947c0.428,0.047,0.856,0.068,1.284,0.068
		c2.768,0,4.281-1.201,4.281-3.398c0-2.312-1.628-2.589-4.167-2.636h-1.341c-0.028,0.347-0.056,0.739-0.056,1.109V18.947z
		 M152.25,24.89c0.826,0.903,1.226,1.271,2.396,2.15h-2.339c-1.226,0-1.769-0.532-2.396-1.271l-3.481-4.024
		c-1.2-1.388-1.399-1.78-3.053-1.895v4.161c0,1.041,0,2.244,0.627,3.03h-3.966c0.828-1.064,0.77-2.174,0.77-3.168v-8.555
		c0-1.041,0-2.244-0.627-3.03c2.396,0,4.679-0.23,6.906-0.23c2.91,0,4.421,1.295,4.421,3.098c0,2.127-2.169,3.514-4.222,4.184
		L152.25,24.89z"/>
	<path clip-path="url(#SVGID_2_)" fill="#FFFFFF" d="M154.732,24.15c0.857,0.971,2.084,2.336,5.081,2.336
		c2.168,0,3.795-1.041,3.795-2.891c0-3.884-8.163-3.398-8.163-7.676c0-2.683,2.712-4.001,5.736-4.001
		c1.484,0,2.939,0.138,4.396,0.138v2.15c-1.285-1.086-2.056-1.365-3.966-1.365c-1.998,0-3.482,0.811-3.482,2.544
		c0,3.56,8.16,3.121,8.16,7.538c0,2.868-3.451,4.486-6.646,4.486c-1.399,0-3.598-0.37-4.909-0.809V24.15z"/>
	<path clip-path="url(#SVGID_2_)" fill="#FFFFFF" d="M169.237,15.317c0-1.041,0-2.244-0.627-3.03h3.822
		c-0.627,0.786-0.627,1.989-0.627,3.03v8.694c0,1.041,0,2.244,0.627,3.03h-3.822c0.627-0.786,0.627-1.989,0.627-3.03V15.317z"/>
	<path clip-path="url(#SVGID_2_)" fill="#FFFFFF" d="M179.176,27.04c0.629-0.786,0.629-1.989,0.629-3.03V13.443h-3.795
		c-0.657,0-1.312,0.07-2.026,0.509l0.57-1.665h14.355c-0.487,0.994-2.228,1.156-3.398,1.156h-3.137v10.567
		c0,1.041,0,2.244,0.627,3.03H179.176z"/>
	<path clip-path="url(#SVGID_2_)" fill="#FFFFFF" d="M193.785,27.04c0.629-0.786,0.629-1.989,0.629-3.03v-2.104
		c0-1.618-0.857-3.168-1.998-5.063c-1.141-1.897-2.597-3.7-3.766-4.556h2.454c1.025,0,1.226,0.209,1.74,0.879
		c1.113,1.433,2.424,4.071,2.967,5.711c0.114,0.347,0.229,0.694,0.456,0.694c0.171,0,0.372-0.394,0.657-0.809l1.94-2.798
		c0.657-0.926,1.284-2.057,1.284-2.751c0-0.347-0.114-0.647-0.428-0.926h3.596l-3.254,4.094c-1.998,2.473-3.081,3.607-3.081,6.658
		v0.971c0,1.041,0,2.244,0.627,3.03H193.785z"/>
	<path clip-path="url(#SVGID_2_)" fill="#FFFFFF" d="M219.543,12.935c-4.11,0-5.877,3.051-5.877,6.381
		c0,3.053,1.284,7.075,5.877,7.075c4.106,0,5.877-3.051,5.877-6.381C225.42,16.958,224.136,12.935,219.543,12.935 M219.314,27.41
		c-5.992,0-8.616-3.33-8.616-7.446c0-4.393,3.139-8.046,9.073-8.046c5.991,0,8.616,3.33,8.616,7.446
		C228.388,23.756,225.249,27.41,219.314,27.41"/>
	<path clip-path="url(#SVGID_2_)" fill="#FFFFFF" d="M233.923,24.011c0,1.041,0,2.242,0.627,3.03h-3.823
		c0.629-0.787,0.629-1.989,0.629-3.03v-8.694c0-1.041,0.056-2.244-0.573-3.03h8.846c0.713,0,1.313,0,1.313,0.209V14.3h-0.143
		c-0.8-1.064-2.597-1.088-3.938-1.088h-2.938v5.943c2.196,0,4.509,0,6.705-0.16c-0.999,1.316-4.223,1.316-5.992,1.316h-0.713V24.011
		z"/>
	<path clip-path="url(#SVGID_2_)" fill="#FFFFFF" d="M67.436,58.126c1.712,2.174,4.166,5.23,10.158,5.23
		c4.337,0,7.589-2.331,7.589-6.473c0-8.698-16.32-7.611-16.32-17.191c0-6.006,5.421-8.957,11.47-8.957
		c2.967,0,5.879,0.31,8.787,0.31v4.816c-2.566-2.434-4.108-3.055-7.931-3.055c-3.994,0-6.962,1.811-6.962,5.695
		c0,7.975,16.32,6.991,16.32,16.882c0,6.419-6.904,10.044-13.295,10.044c-2.796,0-7.191-0.829-9.816-1.811V58.126z"/>
	<path clip-path="url(#SVGID_2_)" fill="#FFFFFF" d="M124.268,31.563c-1.257,1.811-1.257,4.505-1.257,6.834v19.469
		c0,2.331,0,5.023,1.257,6.732l-6.792,0.31l0.229-3.417c0-0.154-0.114-0.207-0.285-0.207c-0.114,0-0.342,0.313-0.686,0.571
		c-2.225,1.709-5.249,3.573-10.555,3.573c-6.62,0-11.014-2.435-11.185-8.804V38.397c0-2.329,0-5.023-1.256-6.834h7.646
		c-1.256,1.811-1.256,4.505-1.256,6.834v15.12c0.171,5.54,2.683,8.905,9.131,8.905c6.619,0,8.216-3.78,8.387-9.942
		c0.058-1.967,0.229-3.987,0.229-5.953v-8.13c0-2.329,0-5.023-1.256-6.834H124.268z"/>
	<path clip-path="url(#SVGID_2_)" fill="#FFFFFF" d="M134.866,46.475c0.856,0.104,1.713,0.156,2.569,0.156
		c5.535,0,8.56-2.692,8.56-7.611c0-5.18-3.254-5.801-8.331-5.904h-2.683c-0.058,0.776-0.115,1.657-0.115,2.485V46.475z
		 M152.613,59.783c1.656,2.02,2.455,2.849,4.794,4.814h-4.679c-2.455,0-3.537-1.189-4.794-2.848l-6.96-9.008
		c-2.398-3.109-2.798-3.988-6.108-4.246v9.321c0,2.329,0,5.021,1.256,6.781h-7.931c1.654-2.381,1.54-4.866,1.54-7.094V38.347
		c0-2.331,0-5.023-1.256-6.783c4.794,0,9.358-0.518,13.81-0.518c5.82,0,8.845,2.899,8.845,6.938c0,4.763-4.337,7.871-8.445,9.372
		L152.613,59.783z"/>
	<path clip-path="url(#SVGID_2_)" fill="#FFFFFF" d="M163.951,46.475c0.854,0.104,1.71,0.156,2.568,0.156
		c5.535,0,8.558-2.692,8.558-7.611c0-5.18-3.252-5.801-8.331-5.904h-2.683c-0.056,0.776-0.112,1.657-0.112,2.485V46.475z
		 M182.143,59.783c1.656,2.02,2.455,2.849,4.793,4.814h-4.679c-2.452,0-3.537-1.189-4.793-2.848l-6.962-9.008
		c-2.398-3.109-2.796-3.988-6.106-4.246v9.321c0,2.329,0,5.021,1.256,6.781h-7.933c1.656-2.381,1.541-4.866,1.541-7.094V38.347
		c0-2.331,0-5.023-1.254-6.783c4.793,0,9.358-0.518,13.809-0.518c5.821,0,8.846,2.899,8.846,6.938c0,4.763-4.337,7.871-8.445,9.372
		L182.143,59.783z"/>
	<path clip-path="url(#SVGID_2_)" fill="#FFFFFF" d="M194.027,62.527h6.563c3.537,0,7.189-0.776,9.872-2.952l-1.027,4.765
		c-1.541,0.103-3.425,0.258-5.48,0.258h-16.49c1.254-1.76,1.427-4.452,1.427-6.783V38.346c0-2.329,0-5.021-1.257-6.783h19.916
		l0.229,3.987c-1.998-1.553-5.081-1.916-8.446-1.916h-5.306v12.375c4.394,0,9.017,0,13.41-0.363
		c-1.996,2.952-8.445,2.952-11.983,2.952h-1.427V62.527z"/>
	<path clip-path="url(#SVGID_2_)" fill="#FFFFFF" d="M219.109,64.598c1.256-1.76,1.256-4.452,1.256-6.783v-4.712
		c0-3.624-1.712-7.094-3.994-11.341c-2.283-4.245-5.194-8.284-7.531-10.2h4.906c2.054,0,2.588,0.383,3.479,1.967
		c2.191,3.896,4.323,8.991,5.936,12.791c0.317,0.745,0.456,1.553,0.913,1.553c0.342,0,0.742-0.881,1.312-1.811l3.879-6.266
		c1.313-2.073,2.567-4.609,2.567-6.162c0-0.776-0.227-1.45-0.854-2.071h7.191l-6.506,9.165c-3.994,5.541-6.164,8.078-6.164,14.913
		v2.174c0,2.331,0,5.023,1.256,6.783H219.109z"/>
	<path clip-path="url(#SVGID_2_)" fill="#FFFFFF" d="M33.777,64.6c0.612-0.072,1.329-0.249,1.94-0.703
		c3.71-2.754,10.452-9.727,10.116-9.962c-0.465-0.325-1.852-3.065-1.852-3.549c0-0.377,0.282-1.835,0.696-2.303v-0.003
		c-0.106-0.053-0.218-0.11-0.339-0.173c-4.509-2.278-4.511-9.503-4.511-9.503c1.576,6.66,5.622,9.881,5.957,10.245
		c1.463,1.578,4.452,5.403,4.701,6.97c0.274,1.718-5.582,8.888-6.917,10.499C40.642,65.498,37.258,64.933,33.777,64.6
		 M23.023,64.556c0.142-0.733,3.333-17.229,3.823-17.137c8.096,1.456,11.853-4.877,14.977,6.999
		c0.423,1.611-8.186,9.114-9.297,10.071C29.263,64.228,26.001,64.209,23.023,64.556 M21.215,64.796
		c-0.744,0.132-1.45,0.3-2.136,0.493l1.939-5.328l-5.127-2.963L7.461,37.073l0.176-0.075c0.845-0.316,1.685-0.602,2.474-0.825
		c1.643-0.465,6.433,6.663,7.363,7.257c1.379,0.89,2.188,0.736,3.033,0.776l-0.042-0.037c-0.104-0.082-0.219-0.171-0.344-0.266
		c-4.32-3.344-2.569-9.641-2.569-9.641c0.089,6.42,3.851,10.528,3.968,10.798l0.034,0.054c0.081,0.132,0.165,0.28,0.249,0.445
		C22.906,47.72,21.525,61.802,21.215,64.796 M16.268,63.66c-1.001,0-1.811-0.85-1.811-1.895c0-1.046,0.811-1.895,1.811-1.895
		c0.999,0,1.81,0.85,1.81,1.895C18.078,62.81,17.267,63.66,16.268,63.66 M23.646,13.72c0.101-0.047,0.201-0.095,0.308-0.142
		c0.104,0.906,0.005,1.794-0.364,2.446c-0.398,0.708-1.032,1.069-1.881,1.069c-0.064,0-0.129-0.003-0.195-0.008
		c-0.602-0.039-1.015-0.181-1.271-0.296C20.983,15.707,22.102,14.513,23.646,13.72 M26.233,12.825
		c0.417-0.106,0.848-0.218,1.225-0.305c0.019-0.005,0.039-0.008,0.059-0.012c0.588-0.135,1.127-0.251,1.607-0.352
		c0.156-0.033,0.282-0.064,0.431-0.095c0,0,0-0.002,0-0.003c0.098-0.022,0.199-0.044,0.288-0.064c0,0.002,0,0.003,0,0.005
		c-0.096,0.02-0.19,0.04-0.288,0.062c-0.154,0.471-0.345,0.909-0.615,1.234c-0.392,0.478-0.857,0.719-1.383,0.719h-0.002
		c-0.369,0-0.767-0.121-1.181-0.363c-0.372-0.213-0.633-0.431-0.843-0.629C25.766,12.953,26.001,12.887,26.233,12.825 M45.2,66.473
		c0.685-0.082,1.337-0.294,1.547-0.812c0.367-0.912,7.903-10.368,7.748-11.173c-0.152-0.806-2.644-6.039-2.801-7.17
		c-0.154-1.13,0.311-6.451,0.311-6.451l0.462,5.644c0,0,1.067-1.653,1.234-5.161c0.196-4.138-1.856-6.994-5.077-8.053
		c-1.603-0.529-3.039-0.213-4.04-0.11c-3.168,0.327-5.986,0.059-7.187,0.115c-7.127,0.324-8.926-1.937-10.295-4.047
		c-2.525-3.893-3.1-3.545-5.448-8.129c0.82-0.324,1.43-0.647,1.43-0.647s1.377-0.985-0.307-1.335
		c-0.783-0.165-1.662-0.128-2.387-0.044c-0.347-0.38-0.697-0.613-1.055-0.734c0.054-0.115,0.11-0.232,0.181-0.364
		c0.472,0.201,1.198,0.49,2.049,0.49c0.976,0,1.836-0.389,2.56-1.155c0.8-0.85,1.018-1.895,0.969-2.902
		c0.591,0.475,1.36,0.903,2.294,0.903c0.419,0,0.843-0.089,1.262-0.263c1.368-0.57,1.878-1.951,2.037-3.268
		c-0.078,0.019-0.163,0.037-0.247,0.058v-0.005c0.103-0.025,0.176-0.04,0.247-0.058v0.005c0.045-0.011,0.082-0.023,0.126-0.036
		c0.09-0.02,0.143-0.033,0.143-0.033l0.002-0.006c1.091-0.285,1.956-0.618,2.68-1.246c1.334-1.167,3.234-3.873,3.081-4.388
		c-0.031-0.104-0.115-0.177-0.221-0.191l-0.059-0.005c-0.531,0-1.281,1.074-1.29,1.089c-0.274,0.445-1.164,1.498-2.076,2.227
		c-0.291-1.816,0.535-3.663,2.143-4.541c0.087-0.05,0.517-0.468,0.487-0.783c-0.012-0.131-0.095-0.235-0.223-0.279l-0.084-0.028
		l-0.082,0.034c-0.044,0.019-4.261,1.859-3.364,6.098c0.011,0.053,0.03,0.1,0.042,0.151c-0.255,0.11-0.549,0.209-0.857,0.303
		c-0.09,0.028-0.221,0.064-0.394,0.114c-0.036-0.783-0.142-1.363-0.156-1.432l-0.047-0.103c-0.165-0.199-0.453-0.179-0.65,0.058
		c-0.053,0.062-0.171,0.227-0.14,0.391c0.086,0.437,0.101,0.889,0.084,1.337c0.086-0.02,0.163-0.045,0.246-0.065
		c-0.079,0.022-0.16,0.045-0.247,0.068l0.002-0.003c-0.787,0.187-1.625,0.352-2.418,0.504c-1.178,0.227-2.233,0.431-3.005,0.677
		c-0.241-0.549-0.457-0.918-0.485-0.966l-0.034-0.059l-0.061-0.03c-0.054-0.028-0.11-0.042-0.167-0.042
		c-0.086,0-0.246,0.033-0.361,0.249c-0.003,0.003-0.177,0.335-0.05,0.526c0.126,0.212,0.205,0.451,0.3,0.68
		c-1.057,0.552-2.787,1.525-4.243,3.425l-0.064,0.048c-0.005,0.002-0.265,0.176-0.699,0.336c0.177-1.498,0.66-3.271,1.869-4.645
		c0.924-1.047,1.73-1.87,2.378-2.53c1.242-1.268,2.063-2.107,2.455-3.215c0.481-1.357,0.794-3.201,0.475-3.545l-0.118-0.096h-0.1
		c-0.448,0-0.546,1.067-0.548,1.081c-0.031,0.517-0.426,1.989-1.039,2.843c-0.387,0.543-0.792,1.015-1.198,1.453
		c-0.426-0.559-0.649-1.245-0.607-1.989c0.044-0.776,0.364-1.474,0.856-1.866c0.156-0.121,0.103-0.37,0.073-0.471
		c-0.062-0.21-0.195-0.339-0.363-0.355l-0.095-0.008L22.51,2.602c-0.025,0.02-2.406,1.968-0.895,4.692
		c0.124,0.224,0.282,0.425,0.434,0.63c-0.342,0.336-0.682,0.657-1.004,0.955c-0.836,0.772-1.558,1.439-2.063,2.227
		c-0.003,0.006-0.009,0.016-0.014,0.02c-0.305-1.109,0.042-2.32,0.748-2.883c0.159-0.135,0.084-0.412,0.058-0.493
		c-0.092-0.279-0.283-0.321-0.359-0.325l-0.092-0.006l-0.07,0.058c-0.025,0.019-2.407,1.962-0.896,4.681
		c-0.506,0.941-1.071,2.3-1.197,3.963c-0.034-0.003-0.075,0.005-0.106,0.002l-0.005-0.002c-0.529-0.058-0.918-0.313-1.158-0.764
		c-0.54-1.013-0.237-2.888,0.691-4.265c0.098-0.142,0.047-0.387-0.02-0.517c-0.104-0.201-0.319-0.272-0.509-0.173l-0.082,0.076
		c-0.11,0.163-2.667,4.026-0.703,6.086c0.134,0.142,0.275,0.263,0.425,0.37c-0.003,0-0.005,0.002-0.006,0.002
		c-0.808,0.233-1.474,0.014-1.931-0.643c-0.644-0.923-0.767-2.532-0.294-3.822c0.068-0.176-0.07-0.394-0.1-0.436
		c-0.145-0.213-0.384-0.261-0.552-0.123l-0.05,0.04l-0.022,0.059c-0.059,0.163-1.436,4.012,0.822,5.664
		c0.538,0.392,1.113,0.591,1.709,0.591c0.792,0,1.442-0.335,1.914-0.641c0.011,0.117,0.012,0.23,0.028,0.35
		c0.03,0.226,0.061,0.414,0.09,0.59c-1.032,0.4-2.199,1.094-3.616,1.542c-1.047,0.331-4.601,1.66-4.889,1.788
		c-0.288,0.129-0.205,0.898-0.188,1.176c0.009,0.199,0.87,1.066,1.128,1.176c0.254,0.107,5.359,1.408,6.816,1.785
		c0,0,0.543,1.178-0.7,5.513c-0.952,3.304,0.16,5.205,0.16,5.205s-1.925-1.332-3.675-2.554c-1.771-1.234-7.377,1.245-10.684,3.638
		c-1.349,0.977-1.156,2.345-1.156,2.345l1.632,3.588l1.525-0.871l0.017-0.012H3.67c-0.563-0.165-0.976-0.692-0.976-1.318
		c0-0.755,0.602-1.368,1.346-1.368c0.744,0,1.348,0.613,1.348,1.368c0,0.03-0.002,0.061-0.003,0.095l-0.002,0.019
		c0.209-0.482,0.683-0.823,1.237-0.823c0.744,0,1.348,0.615,1.348,1.369c0,0.753-0.604,1.368-1.348,1.368
		c-0.037,0-0.075,0-0.112-0.003c0.363,0.247,0.602,0.666,0.602,1.141c0,0.755-0.605,1.368-1.348,1.368
		c-0.745,0-1.348-0.613-1.348-1.368c0-0.129,0.017-0.255,0.05-0.373l-0.008-0.003l-0.017,0.006l-1.587,0.733l1.583,3.162
		l4.489-2.182L13.75,57.57l-2.082,6.69l5.073,1.867c-2.933,1.323-4.953,3.448-5.334,6.733c0,0,3.305-3.335,11.767-4.908
		c9.325-1.737,20.557-0.429,26.593,0.457c3.36,0.49,4.488,0.224,4.488,0.224s-3.514-0.7-5.484-1.257
		C47.754,67.087,46.529,66.78,45.2,66.473"/>
</g>
<line fill="none" stroke="#FFFFFF" stroke-width="0.623" x1="1.857" y1="80.685" x2="245.963" y2="80.685"/>
</svg>
