<svg xmlns="http://www.w3.org/2000/svg" viewBox="0 0 116 51.21"><defs><style>.cls-1{fill:#231f20;}.cls-2{fill:#da2128;}</style></defs><title>helpuni-logo</title><g id="Layer_2" data-name="Layer 2"><g id="Layer_1-2" data-name="Layer 1"><path class="cls-1" d="M105.94,3.84A20.1,20.1,0,0,1,109,4a3.12,3.12,0,0,1,1.8,1,2.91,2.91,0,0,1,.71,2A3,3,0,0,1,111,8.7a2.84,2.84,0,0,1-1.4,1.09,10.83,10.83,0,0,1-3.42.35h-2.48V3.84h2.21ZM104,21.56V13.73h2.63a23.9,23.9,0,0,0,4.45-.31,6.31,6.31,0,0,0,2.26-1,6,6,0,0,0,1.84-2.14,7.08,7.08,0,0,0,.72-3.34,6.75,6.75,0,0,0-1.25-4.21A5.7,5.7,0,0,0,111.56.58a25.16,25.16,0,0,0-5.1-.32h-7V21.71H104Zm-6.45,0V17.85H87V.43H82.42V21.71H97.58Zm-17.41,0V17.85H68.38V12.39H79V8.53H68.38V4.13H79.77V.26H63.83V21.71H80.17Zm-32,0v-9.1h8v9.25h4.56V.26H56.25V8.59h-8V.26H43.64V21.71H48.2Z"/><path class="cls-1" d="M104.09,21.77H99.4V.19h7.06a24.33,24.33,0,0,1,5.12.33,5.75,5.75,0,0,1,3.15,2.15A6.8,6.8,0,0,1,116,6.92a7.2,7.2,0,0,1-.73,3.37,6,6,0,0,1-1.86,2.16,6.35,6.35,0,0,1-2.29,1,24.93,24.93,0,0,1-4.46.31h-2.57Zm-4.55-.13H104v-8h2.7a24.65,24.65,0,0,0,4.43-.3,6.33,6.33,0,0,0,2.24-1,5.8,5.8,0,0,0,1.82-2.11,7,7,0,0,0,.72-3.31,6.69,6.69,0,0,0-1.24-4.17,5.66,5.66,0,0,0-3.09-2.1,24.11,24.11,0,0,0-5.08-.32H99.54Zm-1.9.13H82.36V.37h4.69V17.78H97.64Zm-15.15-.13h15V17.92H86.91V.5H82.49Zm-2.25.13H63.76V.19H79.84v4H68.45V8.46h10.6v4H68.45v5.33H80.24Zm-16.35-.13H80.11V17.92H68.31v-5.6h10.6V8.6H68.31V4.07H79.7V.33H63.89Zm-3,.13H56.18V12.53H48.26v9.24H43.57V.19h4.69V8.52h7.92V.19h4.69Zm-4.55-.13h4.42V.33H56.32V8.65H48.13V.33H43.71V21.64h4.42V12.39h8.19ZM106.21,10.2h-2.55V3.77h2.28a20.26,20.26,0,0,1,3.1.15,3.15,3.15,0,0,1,1.84,1,3,3,0,0,1,.73,2,3.12,3.12,0,0,1-.52,1.77,3.13,3.13,0,0,1-1.43,1.12A11.24,11.24,0,0,1,106.21,10.2Zm-2.41-.13h2.41a10.81,10.81,0,0,0,3.4-.34A2.82,2.82,0,0,0,111,8.66,2.92,2.92,0,0,0,111.47,7,2.82,2.82,0,0,0,110.78,5a3,3,0,0,0-1.76-1,21.87,21.87,0,0,0-3.08-.14H103.8Z"/><path class="cls-1" d="M110.73,35.89A2.92,2.92,0,0,1,110.2,37a1.32,1.32,0,0,1-1.08.43,5,5,0,0,1-.89-.09l.18,1.64a5.93,5.93,0,0,0,1.19.12,4.38,4.38,0,0,0,1.07-.12,2.81,2.81,0,0,0,.8-.36A2.47,2.47,0,0,0,112,38a5.22,5.22,0,0,0,.52-1.06l.5-1.38,2.8-7.62h-2.17l-1.85,5.62L110,28h-2.23ZM105.49,28V25.16l-2.1,1.22V28h-1v1.67h1v3.45a9.33,9.33,0,0,0,.07,1.48,1.93,1.93,0,0,0,.29.82,1.54,1.54,0,0,0,.67.49,2.54,2.54,0,0,0,1,.19,4.29,4.29,0,0,0,1.65-.31l-.18-1.63a2.73,2.73,0,0,1-.84.2.58.58,0,0,1-.35-.1.47.47,0,0,1-.19-.27,7.49,7.49,0,0,1,0-1.13V29.62h1.43V28Zm-4.4,0H99v7.92h2.1Zm0-3H99v1.94h2.1ZM91.15,35.39a4.39,4.39,0,0,0,2.56.66,4,4,0,0,0,2.68-.78,2.4,2.4,0,0,0,.91-1.88,1.91,1.91,0,0,0-.65-1.55,5.85,5.85,0,0,0-2.34-.94,8.33,8.33,0,0,1-2-.58.48.48,0,0,1-.21-.38.5.5,0,0,1,.24-.43,2.3,2.3,0,0,1,1.18-.23,1.77,1.77,0,0,1,1,.24,1.23,1.23,0,0,1,.48.71l2-.36A2.78,2.78,0,0,0,96,28.3a4.43,4.43,0,0,0-2.42-.53,3.82,3.82,0,0,0-2.51.7,2.22,2.22,0,0,0-.82,1.73A2.07,2.07,0,0,0,91.14,32a12.06,12.06,0,0,0,3.21,1,1.55,1.55,0,0,1,.7.27.57.57,0,0,1,.15.4.68.68,0,0,1-.27.56,2.07,2.07,0,0,1-1.22.3,1.83,1.83,0,0,1-1.15-.32,1.56,1.56,0,0,1-.55-.93l-2.1.32a3,3,0,0,0,1.24,1.78m-4.52-2a12.1,12.1,0,0,1,.18-2.65,1.63,1.63,0,0,1,.48-.88,1.15,1.15,0,0,1,.74-.24A1.93,1.93,0,0,1,89,30l.64-1.82a2.59,2.59,0,0,0-1.37-.4,1.67,1.67,0,0,0-.91.26,3.59,3.59,0,0,0-.9,1V28H84.54v7.92h2.09Zm-8.89-2.19a1.88,1.88,0,0,1,.44-1.35,1.51,1.51,0,0,1,2.22,0,2,2,0,0,1,.47,1.38Zm2.5,3a1.26,1.26,0,0,1-.82.27A1.56,1.56,0,0,1,78.21,34a2.13,2.13,0,0,1-.51-1.45H83a5.16,5.16,0,0,0-1-3.57,3.51,3.51,0,0,0-2.79-1.17,3.38,3.38,0,0,0-2.6,1.12,4.39,4.39,0,0,0-1,3.08,4.54,4.54,0,0,0,.78,2.73,3.54,3.54,0,0,0,3,1.35,3.7,3.7,0,0,0,2.17-.6,3.36,3.36,0,0,0,1.27-1.75l-2.08-.35a1.6,1.6,0,0,1-.51.86m-8.17,1.66L75.22,28H73.06l-1.5,4c-.08.23-.16.45-.23.67s-.1.34-.21.68L70.69,32,69.2,28H67l3.19,7.92ZM65.89,28H63.8v7.92h2.09Zm0-3H63.8v1.94h2.09Zm-4.13,6a7.15,7.15,0,0,0-.11-1.41,2.45,2.45,0,0,0-.41-.88,2.2,2.2,0,0,0-.87-.64,3.23,3.23,0,0,0-1.27-.25,3.17,3.17,0,0,0-2.6,1.34V28h-2v7.92h2.1V32.28a6.74,6.74,0,0,1,.16-1.82,1.49,1.49,0,0,1,.59-.79,1.73,1.73,0,0,1,1-.29,1.3,1.3,0,0,1,.73.2,1.2,1.2,0,0,1,.44.59,6.27,6.27,0,0,1,.13,1.66v4h2.09ZM43.7,30.77a12.77,12.77,0,0,0,.22,2.77,3,3,0,0,0,.62,1.22,3.44,3.44,0,0,0,1.27.93,5.88,5.88,0,0,0,2.38.37,5.42,5.42,0,0,0,2.1-.34,3.27,3.27,0,0,0,1.28-.89,3.08,3.08,0,0,0,.66-1.37,14.66,14.66,0,0,0,.18-2.78V24.94h-2.2v6a12.75,12.75,0,0,1-.1,1.85,1.58,1.58,0,0,1-.57.95,2.27,2.27,0,0,1-1.42.38,2.37,2.37,0,0,1-1.46-.41A1.77,1.77,0,0,1,46,32.69a11.71,11.71,0,0,1-.08-1.83V24.94H43.7Z"/><path class="cls-1" d="M109.6,39.1a5.94,5.94,0,0,1-1.19-.13h0l-.19-1.66h0a4.25,4.25,0,0,0,.89.1,1.27,1.27,0,0,0,1.06-.42,3,3,0,0,0,.54-1.09l-3-7.95H110l1.88,5.58,1.84-5.59h2.2l-2.8,7.64-.5,1.38a6.08,6.08,0,0,1-.53,1.06,2.33,2.33,0,0,1-.58.59,2.19,2.19,0,0,1-.8.36A4.29,4.29,0,0,1,109.6,39.1ZM108.43,39a5.66,5.66,0,0,0,1.17.12,3.85,3.85,0,0,0,1.06-.13A2.18,2.18,0,0,0,112,38a5.66,5.66,0,0,0,.52-1l.5-1.38,2.79-7.6H113.7l-1.86,5.65v0L109.94,28h-2.2l3,7.92h0a2.92,2.92,0,0,1-.53,1.09,1.34,1.34,0,0,1-1.09.44,4.16,4.16,0,0,1-.88-.1ZM48.19,36.07a6.12,6.12,0,0,1-2.38-.36,3.33,3.33,0,0,1-1.28-1,2.92,2.92,0,0,1-.62-1.21,12.94,12.94,0,0,1-.22-2.78V24.93h2.23v5.93A13,13,0,0,0,46,32.68a1.76,1.76,0,0,0,.67,1.07,2.33,2.33,0,0,0,1.45.41,2.26,2.26,0,0,0,1.41-.38,1.58,1.58,0,0,0,.57-.94A13.14,13.14,0,0,0,50.19,31V24.93h2.23v5.75a15.83,15.83,0,0,1-.17,2.78,3.08,3.08,0,0,1-.67,1.38,3.35,3.35,0,0,1-1.29.9A5.6,5.6,0,0,1,48.19,36.07ZM43.72,25v5.82a13.59,13.59,0,0,0,.21,2.77,3,3,0,0,0,.62,1.21,3.44,3.44,0,0,0,1.27.93,6,6,0,0,0,2.37.36,5.54,5.54,0,0,0,2.09-.33,3.3,3.3,0,0,0,1.28-.89,3,3,0,0,0,.66-1.36,14.66,14.66,0,0,0,.18-2.78V25H50.22v6a11.44,11.44,0,0,1-.1,1.85,1.53,1.53,0,0,1-.58,1,2.25,2.25,0,0,1-1.42.38,2.28,2.28,0,0,1-1.46-.41A1.73,1.73,0,0,1,46,32.69a11.35,11.35,0,0,1-.09-1.83V25Zm61.72,11.11a2.63,2.63,0,0,1-1-.19,1.48,1.48,0,0,1-.67-.5,2,2,0,0,1-.3-.82,11.38,11.38,0,0,1-.06-1.48V29.64h-1v-1.7h1V26.37l2.12-1.24v2.81h1.43v1.7H105.5v3.17a6.93,6.93,0,0,0,0,1.13.42.42,0,0,0,.18.26.62.62,0,0,0,.34.1,2.79,2.79,0,0,0,.84-.2h0v0l.18,1.63h0A4.2,4.2,0,0,1,105.44,36.06Zm-3-6.45h1v3.46a10.79,10.79,0,0,0,.07,1.48,1.88,1.88,0,0,0,.29.81,1.51,1.51,0,0,0,.66.49,2.77,2.77,0,0,0,1,.19,4.24,4.24,0,0,0,1.64-.31l-.18-1.6a2.74,2.74,0,0,1-.83.2.61.61,0,0,1-.36-.11.47.47,0,0,1-.19-.27,7.67,7.67,0,0,1,0-1.14v-3.2h1.43V28h-1.43V25.18l-2.08,1.21V28h-1Zm-8.73,6.45a4.43,4.43,0,0,1-2.57-.66,3,3,0,0,1-1.24-1.79h0L92,33.27v0a1.55,1.55,0,0,0,.54.92,1.82,1.82,0,0,0,1.14.31,2.12,2.12,0,0,0,1.21-.29.66.66,0,0,0,.27-.55.53.53,0,0,0-.15-.39,1.55,1.55,0,0,0-.69-.27,11.56,11.56,0,0,1-3.21-1,2.06,2.06,0,0,1-1-1.8A2.24,2.24,0,0,1,91,28.46a3.85,3.85,0,0,1,2.52-.7,4.49,4.49,0,0,1,2.43.53,2.75,2.75,0,0,1,1.09,1.57v0h0l-2,.37h0a1.15,1.15,0,0,0-.48-.7,1.68,1.68,0,0,0-1-.25,2.33,2.33,0,0,0-1.18.23.51.51,0,0,0-.23.42.44.44,0,0,0,.21.36,7.5,7.5,0,0,0,1.95.59,5.77,5.77,0,0,1,2.34.94,2,2,0,0,1,.66,1.56,2.43,2.43,0,0,1-.92,1.89A4,4,0,0,1,93.71,36.06Zm-3.78-2.44a3,3,0,0,0,1.22,1.76,4.41,4.41,0,0,0,2.56.66,4.08,4.08,0,0,0,2.68-.78,2.4,2.4,0,0,0,.9-1.87,1.92,1.92,0,0,0-.65-1.54,5.73,5.73,0,0,0-2.33-.93,7.94,7.94,0,0,1-2-.59.49.49,0,0,1-.21-.39.51.51,0,0,1,.24-.44,2.25,2.25,0,0,1,1.19-.23,1.83,1.83,0,0,1,1,.24,1.25,1.25,0,0,1,.48.71l2-.36a2.72,2.72,0,0,0-1.08-1.55,4.4,4.4,0,0,0-2.41-.52,3.79,3.79,0,0,0-2.5.69,2.19,2.19,0,0,0-.81,1.72A2,2,0,0,0,91.15,32a11.22,11.22,0,0,0,3.21,1,1.71,1.71,0,0,1,.7.28.6.6,0,0,1,.16.41.71.71,0,0,1-.28.57,2.11,2.11,0,0,1-1.23.3,1.86,1.86,0,0,1-1.16-.32,1.56,1.56,0,0,1-.55-.92ZM79.39,36.06a3.56,3.56,0,0,1-3.06-1.35A4.58,4.58,0,0,1,75.54,32a4.42,4.42,0,0,1,1-3.09,3.44,3.44,0,0,1,2.61-1.12A3.53,3.53,0,0,1,82,28.93a5.19,5.19,0,0,1,1,3.58v0H77.72a2.06,2.06,0,0,0,.5,1.43,1.58,1.58,0,0,0,1.2.51,1.24,1.24,0,0,0,.81-.27,1.67,1.67,0,0,0,.51-.85v0h0l2.1.35h0a3.45,3.45,0,0,1-1.28,1.76A3.76,3.76,0,0,1,79.39,36.06Zm-.21-8.27a3.39,3.39,0,0,0-2.59,1.11,4.36,4.36,0,0,0-1,3.07,4.51,4.51,0,0,0,.78,2.72,3.54,3.54,0,0,0,3,1.35,3.82,3.82,0,0,0,2.17-.6,3.48,3.48,0,0,0,1.26-1.73l-2.06-.34a1.75,1.75,0,0,1-.51.86,1.29,1.29,0,0,1-.83.27A1.59,1.59,0,0,1,78.2,34a2.07,2.07,0,0,1-.51-1.46h5.24A5.16,5.16,0,0,0,82,29,3.51,3.51,0,0,0,79.18,27.79Zm21.92,8.09H99V27.94h2.12Zm-2.09,0h2.06V28H99Zm-12.36,0H84.53V27.94h2V29a3.36,3.36,0,0,1,.87-1,1.79,1.79,0,0,1,.92-.25,2.62,2.62,0,0,1,1.38.4h0L89,30h0a1.81,1.81,0,0,0-1-.34,1.18,1.18,0,0,0-.73.23,1.73,1.73,0,0,0-.48.87,13,13,0,0,0-.17,2.65Zm-2.1,0h2.07V33.42a13,13,0,0,1,.17-2.65,1.76,1.76,0,0,1,.49-.89,1.2,1.2,0,0,1,.75-.24A1.87,1.87,0,0,1,89,30l.64-1.8a2.72,2.72,0,0,0-1.36-.38,1.6,1.6,0,0,0-.9.25,3.38,3.38,0,0,0-.89,1l0,0V28H84.55Zm-12.47,0H70.17L67,27.94h2.23l1.49,4,.42,1.31c.1-.32.17-.53.2-.64s.15-.45.23-.67l1.5-4h2.19v0Zm-1.88,0h1.86L75.2,28H73.07l-1.5,4c-.08.22-.15.45-.22.67s-.11.34-.22.68v0L70.67,32l-1.48-4H67Zm-4.29,0H63.79V27.94h2.12Zm-2.1,0h2.07V28H63.81Zm-2,0H59.66V31.83a6.17,6.17,0,0,0-.14-1.66,1.08,1.08,0,0,0-.43-.57,1.22,1.22,0,0,0-.72-.21,1.63,1.63,0,0,0-1,.3,1.4,1.4,0,0,0-.59.78,6.61,6.61,0,0,0-.16,1.81v3.6H54.54V27.94h2v1.14a3.18,3.18,0,0,1,2.59-1.32,3.14,3.14,0,0,1,1.28.25,2.2,2.2,0,0,1,.87.64,2.34,2.34,0,0,1,.41.89A6.28,6.28,0,0,1,61.78,31Zm-2.1,0h2.07V31a7.15,7.15,0,0,0-.11-1.41,2.41,2.41,0,0,0-.41-.87,2.23,2.23,0,0,0-.86-.64,3.27,3.27,0,0,0-1.27-.24,3.17,3.17,0,0,0-2.59,1.33l0,0V28H54.57v7.89h2.06V32.28a7.19,7.19,0,0,1,.16-1.82,1.54,1.54,0,0,1,.6-.8,1.69,1.69,0,0,1,1-.3,1.27,1.27,0,0,1,.74.21,1.18,1.18,0,0,1,.44.6,6.32,6.32,0,0,1,.13,1.66Zm21.2-4.61H77.73v0a1.91,1.91,0,0,1,.44-1.36,1.51,1.51,0,0,1,2.24,0,2,2,0,0,1,.47,1.39Zm-3.13,0h3.1a2,2,0,0,0-.46-1.36,1.5,1.5,0,0,0-2.2,0A2,2,0,0,0,77.75,31.22Zm23.35-4.33H99v-2h2.12Zm-2.09,0h2.06V25H99Zm-33.1,0H63.79v-2h2.12Zm-2.1,0h2.07V25H63.81Z"/><path class="cls-1" d="M110.44,48.36a2.91,2.91,0,0,0,1.83.49,3.21,3.21,0,0,0,1.3-.25,1.93,1.93,0,0,0,.87-.71,1.7,1.7,0,0,0,.31-1,1.47,1.47,0,0,0-.94-1.44,10.85,10.85,0,0,0-1.54-.48c-.51-.14-.82-.23-.92-.27a.89.89,0,0,1-.4-.28.55.55,0,0,1-.13-.36.68.68,0,0,1,.31-.56,1.66,1.66,0,0,1,1-.24,1.44,1.44,0,0,1,.94.27,1.1,1.1,0,0,1,.41.74l1-.14a2.3,2.3,0,0,0-.36-.95,1.79,1.79,0,0,0-.81-.57,3.56,3.56,0,0,0-1.27-.21,3.26,3.26,0,0,0-.9.13,2.2,2.2,0,0,0-.67.3,1.82,1.82,0,0,0-.51.59,1.61,1.61,0,0,0-.19.76,1.54,1.54,0,0,0,.9,1.41,9.85,9.85,0,0,0,1.59.5,4.53,4.53,0,0,1,1.07.35.65.65,0,0,1,.31.56.87.87,0,0,1-.35.68,1.61,1.61,0,0,1-1.07.3,1.71,1.71,0,0,1-1.11-.33,1.47,1.47,0,0,1-.48-1l-1,.16a2.36,2.36,0,0,0,.8,1.48m-3.35.36V45.49a3.89,3.89,0,0,1,.18-1.21,1.11,1.11,0,0,1,.39-.57,1,1,0,0,1,.61-.21,1.46,1.46,0,0,1,.76.23l.36-1a2.07,2.07,0,0,0-1.07-.34,1.18,1.18,0,0,0-.67.21,2.6,2.6,0,0,0-.66.87v-.94h-.94v6.16Zm-6.21-5a1.67,1.67,0,0,1,1.21-.48,1.59,1.59,0,0,1,1.29.6,2,2,0,0,1,.39,1.17h-3.43a1.87,1.87,0,0,1,.54-1.29m2.24,3.94a1.61,1.61,0,0,1-1,.3,1.69,1.69,0,0,1-1.28-.54,2.35,2.35,0,0,1-.58-1.55h4.59v-.28a3.35,3.35,0,0,0-.78-2.37,2.65,2.65,0,0,0-2-.84,2.74,2.74,0,0,0-2.08.86,3.42,3.42,0,0,0-.8,2.41A3.23,3.23,0,0,0,100,48a2.78,2.78,0,0,0,2.14.83,2.83,2.83,0,0,0,1.76-.52,2.58,2.58,0,0,0,.94-1.46l-1.08-.14a2.09,2.09,0,0,1-.64,1m-6.52,1,2.32-6.16H97.85l-1.36,3.76q-.26.68-.39,1.17c-.12-.43-.25-.84-.4-1.24l-1.32-3.69h-1.1l2.34,6.16Zm-7.64-5a1.67,1.67,0,0,1,1.21-.48,1.59,1.59,0,0,1,1.29.6,2.1,2.1,0,0,1,.4,1.17H88.42A2,2,0,0,1,89,43.76M91.2,47.7a1.59,1.59,0,0,1-1,.3,1.69,1.69,0,0,1-1.28-.54,2.35,2.35,0,0,1-.58-1.55H93c0-.13,0-.22,0-.28a3.35,3.35,0,0,0-.78-2.37,2.89,2.89,0,0,0-4.09,0,3.37,3.37,0,0,0-.8,2.41A3.22,3.22,0,0,0,88.08,48a2.78,2.78,0,0,0,2.14.83A2.83,2.83,0,0,0,92,48.33a2.58,2.58,0,0,0,.94-1.46l-1.07-.14a2.1,2.1,0,0,1-.65,1m-5.09-5.14h-1v6.16h1Zm0-2.34h-1v1.2h1Zm-6.48,8.5V45.35a3.18,3.18,0,0,1,.17-1.14,1.37,1.37,0,0,1,.59-.65,1.68,1.68,0,0,1,.87-.24,1.27,1.27,0,0,1,1,.36,1.65,1.65,0,0,1,.34,1.14v3.9h1v-3.9a3.33,3.33,0,0,0-.22-1.38,1.54,1.54,0,0,0-.72-.75,2.49,2.49,0,0,0-1.19-.27,2.35,2.35,0,0,0-1.84.85V40.22h-1v8.5Zm-3.51-1.1a1.45,1.45,0,0,1-1,.38,1.56,1.56,0,0,1-1.24-.56,2.78,2.78,0,0,1-.48-1.81,2.65,2.65,0,0,1,.5-1.78,1.61,1.61,0,0,1,1.28-.57,1.35,1.35,0,0,1,.89.32,1.67,1.67,0,0,1,.51.93l1-.16a2.35,2.35,0,0,0-.81-1.44,2.57,2.57,0,0,0-1.64-.51,3,3,0,0,0-1.47.38,2.3,2.3,0,0,0-1,1.12,4.29,4.29,0,0,0-.33,1.74A3.36,3.36,0,0,0,73.08,48a2.64,2.64,0,0,0,2,.82,2.51,2.51,0,0,0,1.7-.6,2.65,2.65,0,0,0,.86-1.65l-1-.14a1.88,1.88,0,0,1-.53,1.16m-6-1.61a2.51,2.51,0,0,1-.17,1,1.6,1.6,0,0,1-.69.72,2.1,2.1,0,0,1-1.07.27,1.37,1.37,0,0,1-.92-.28.91.91,0,0,1-.32-.7.93.93,0,0,1,.14-.49,1,1,0,0,1,.42-.34,3.6,3.6,0,0,1,.91-.21,8.16,8.16,0,0,0,1.7-.39Zm.29,2.71H71.5a2.34,2.34,0,0,1-.26-.74,13.48,13.48,0,0,1-.07-1.84V44.75a6.4,6.4,0,0,0,0-1,1.61,1.61,0,0,0-.32-.71,1.68,1.68,0,0,0-.73-.47,3.76,3.76,0,0,0-1.28-.19,4.18,4.18,0,0,0-1.39.22,2,2,0,0,0-.92.62A2.41,2.41,0,0,0,66,44.32l1,.14a1.51,1.51,0,0,1,.52-.91,1.75,1.75,0,0,1,1.08-.26,1.78,1.78,0,0,1,1.19.35,1.15,1.15,0,0,1,.29.9v.27a9.49,9.49,0,0,1-1.86.36,6.63,6.63,0,0,0-.93.16,2.33,2.33,0,0,0-.75.34,1.69,1.69,0,0,0-.74,1.42,1.64,1.64,0,0,0,.54,1.27,2.25,2.25,0,0,0,1.56.49,3.13,3.13,0,0,0,1.15-.2A3.79,3.79,0,0,0,70.2,48a2.72,2.72,0,0,0,.21.76m-9.76,0V43.37h1.2v-.81h-1.2V42a1.05,1.05,0,0,1,.2-.76.88.88,0,0,1,.67-.21,3.4,3.4,0,0,1,.61.06l.16-.91a5.09,5.09,0,0,0-1-.1,1.89,1.89,0,0,0-1.06.25,1.36,1.36,0,0,0-.53.66,3,3,0,0,0-.11.92v.65h-.92v.81h.92v5.35Zm-6.51-4.85a1.63,1.63,0,0,1,1.29-.58,1.61,1.61,0,0,1,1.29.59,2.49,2.49,0,0,1,.52,1.72,2.68,2.68,0,0,1-.52,1.81,1.71,1.71,0,0,1-2.58,0,3.27,3.27,0,0,1,0-3.54M53.34,48a2.79,2.79,0,0,0,2.09.82,3,3,0,0,0,1.49-.37,2.59,2.59,0,0,0,1-1.06,4.18,4.18,0,0,0,.35-1.87,3.18,3.18,0,0,0-.8-2.29,2.76,2.76,0,0,0-2.08-.84,2.84,2.84,0,0,0-1.93.69,3.15,3.15,0,0,0-1,2.53A3.33,3.33,0,0,0,53.34,48M44.1,51.21A1.52,1.52,0,0,0,45,51a2.09,2.09,0,0,0,.63-.75,12.74,12.74,0,0,0,.59-1.4l2.34-6.26H47.47l-1.31,3.59a12.64,12.64,0,0,0-.43,1.4c-.13-.5-.28-1-.44-1.42L44,42.56H42.88l2.34,6.17a2.54,2.54,0,0,0-.1.25,4.48,4.48,0,0,1-.32.78.87.87,0,0,1-.34.32,1.09,1.09,0,0,1-.55.12,2.43,2.43,0,0,1-.6-.09l.12,1a1.93,1.93,0,0,0,.67.13m-2.3-3.39a.68.68,0,0,1-.35-.07.49.49,0,0,1-.18-.2,1.73,1.73,0,0,1-.06-.58v-3.6h1v-.81h-1V40.42l-1,.62v1.52h-.77v.81h.77v3.54a3.9,3.9,0,0,0,.12,1.23,1.07,1.07,0,0,0,.44.48,1.82,1.82,0,0,0,.89.18,3.33,3.33,0,0,0,.78-.1l-.15-.92a3,3,0,0,1-.46,0m-3.28-5.26H37.47v6.16h1.05Zm0-2.34H37.47v1.2h1.05ZM32,48.36a2.91,2.91,0,0,0,1.83.49,3.17,3.17,0,0,0,1.3-.25,2,2,0,0,0,.88-.71,1.76,1.76,0,0,0,.3-1,1.48,1.48,0,0,0-.93-1.44A11.57,11.57,0,0,0,33.85,45c-.51-.14-.82-.23-.92-.27a1,1,0,0,1-.4-.28.61.61,0,0,1-.13-.36.71.71,0,0,1,.31-.56,1.72,1.72,0,0,1,1-.24,1.48,1.48,0,0,1,.94.27,1.13,1.13,0,0,1,.4.74l1-.14a2.3,2.3,0,0,0-.36-.95,1.69,1.69,0,0,0-.81-.57,3.52,3.52,0,0,0-1.27-.21,3.26,3.26,0,0,0-.9.13,2,2,0,0,0-.66.3,1.73,1.73,0,0,0-.52.59,1.61,1.61,0,0,0-.18.76,1.55,1.55,0,0,0,.22.82,1.58,1.58,0,0,0,.68.59,9.2,9.2,0,0,0,1.59.5,4.57,4.57,0,0,1,1.06.35.63.63,0,0,1,.31.56.87.87,0,0,1-.35.68,1.6,1.6,0,0,1-1.06.3,1.67,1.67,0,0,1-1.11-.33,1.44,1.44,0,0,1-.49-1l-1,.16a2.41,2.41,0,0,0,.8,1.48m-3.34.36V45.49a4.21,4.21,0,0,1,.17-1.21,1.17,1.17,0,0,1,.39-.57,1,1,0,0,1,.61-.21,1.52,1.52,0,0,1,.77.23l.36-1a2.1,2.1,0,0,0-1.07-.34,1.13,1.13,0,0,0-.67.21,2.48,2.48,0,0,0-.67.87v-.94h-.94v6.16Zm-6.22-5a1.67,1.67,0,0,1,1.21-.48,1.59,1.59,0,0,1,1.29.6,2.1,2.1,0,0,1,.4,1.17H21.92a2,2,0,0,1,.54-1.29M24.7,47.7a1.59,1.59,0,0,1-1,.3,1.69,1.69,0,0,1-1.28-.54,2.35,2.35,0,0,1-.58-1.55h4.59c0-.13,0-.22,0-.28a3.35,3.35,0,0,0-.78-2.37,2.89,2.89,0,0,0-4.09,0,3.37,3.37,0,0,0-.8,2.41A3.22,3.22,0,0,0,21.58,48a2.78,2.78,0,0,0,2.14.83,2.83,2.83,0,0,0,1.76-.52,2.58,2.58,0,0,0,.94-1.46l-1.07-.14a2.1,2.1,0,0,1-.65,1m-6.52,1,2.33-6.16H19.44l-1.37,3.76q-.26.68-.39,1.17c-.12-.43-.25-.84-.39-1.24L16,42.56h-1.1l2.34,6.16ZM14,42.56H13v6.16h1Zm0-2.34H13v1.2h1Zm-6.47,8.5V45.36A2.1,2.1,0,0,1,8,43.75a1.68,1.68,0,0,1,1.15-.42,1.29,1.29,0,0,1,.72.19,1,1,0,0,1,.44.5,2.84,2.84,0,0,1,.12.95v3.75h1V44.93a5.71,5.71,0,0,0-.06-1,2.06,2.06,0,0,0-.32-.77,1.69,1.69,0,0,0-.7-.53,2.61,2.61,0,0,0-1-.2,2.2,2.2,0,0,0-2,1v-.88H6.48v6.16ZM5,48.72V42.56H3.94v3.3a3.15,3.15,0,0,1-.17,1.2,1.28,1.28,0,0,1-.58.66,1.71,1.71,0,0,1-.88.24,1.3,1.3,0,0,1-.79-.24,1,1,0,0,1-.41-.64A5.32,5.32,0,0,1,1,46V42.56H0v3.82a5.65,5.65,0,0,0,.06,1,2,2,0,0,0,.33.77,1.64,1.64,0,0,0,.7.53,2.6,2.6,0,0,0,1,.2,2.23,2.23,0,0,0,1.95-1v.91Z"/><path class="cls-2" d="M23.17,25.29a.67.67,0,0,0,.63-.69V12.33a.64.64,0,1,0-1.27,0V24.6a.66.66,0,0,0,.64.69"/><path class="cls-2" d="M19.51,25.31a.66.66,0,0,0,.63-.69V12.35a.66.66,0,0,0-.63-.68.67.67,0,0,0-.64.68V24.62a.66.66,0,0,0,.64.69"/><path class="cls-2" d="M15.79,25.3a.67.67,0,0,0,.63-.7V12.33a.65.65,0,0,0-.63-.68.66.66,0,0,0-.64.68V24.6a.68.68,0,0,0,.64.7"/><path class="cls-2" d="M20.12,0H.32l0,35.41,11.13-17v6.2a.64.64,0,1,0,1.27,0V12.23L20.12,0"/><path class="cls-2" d="M27.46,18V12.36a.67.67,0,0,0-.64-.69.66.66,0,0,0-.63.69V24.05L18.62,36.81H38.26V1.44L27.46,18"/></g></g></svg>