<?xml version="1.0" encoding="utf-8"?>
<!-- Generator: Adobe Illustrator 22.1.0, SVG Export Plug-In . SVG Version: 6.00 Build 0)  -->
<svg version="1.1" id="Layer_1" xmlns="http://www.w3.org/2000/svg" xmlns:xlink="http://www.w3.org/1999/xlink" x="0px" y="0px"
	 viewBox="0 0 90 79" style="enable-background:new 0 0 90 79;" xml:space="preserve">
<style type="text/css">
	.st0{fill:#013035;}
</style>
<g>
	<g>
		<path class="st0" d="M6.6,60c0,1,0,2.2-1.3,3c-0.8,0.5-1.7,0.5-2,0.5c-0.6,0-1.9-0.1-2.5-0.9C0,61.8,0,61,0,60.2V54h1.7V60
			c0,0.6,0.1,1.2,0.4,1.5c0.3,0.3,0.9,0.5,1.3,0.5c0.5,0,1.1-0.2,1.4-0.6c0.3-0.4,0.3-1,0.3-1.4V54h1.4V60z"/>
		<path class="st0" d="M17.4,63.4h-1.6l-3.7-6c-0.1-0.2-0.4-0.9-0.5-1v7.1h-1.4V54h1.9l3.3,5.6c0,0.1,0.3,0.5,0.6,1.1V54h1.4V63.4z"
			/>
		<path class="st0" d="M21.6,63.4V54h1.7v9.4H21.6z"/>
		<path class="st0" d="M29.4,63.4L26.5,54h1.8l2.2,7.2l2.2-7.2h1.4l-2.9,9.4H29.4z"/>
		<path class="st0" d="M37.3,63.4V54h6.1v1.4H39v2.6h3.5v1.4H39V62h4.4v1.5H37.3z"/>
		<path class="st0" d="M52.5,63.4L51,59.5h-2.4v3.9h-1.7V54H51c1.2,0,1.9,0.2,2.5,0.7c0.5,0.4,0.9,1.1,0.9,2c0,1.8-1.2,2.3-1.7,2.5
			l1.7,4.2H52.5z M48.6,58.2h2.1c0.8,0,1.8-0.3,1.8-1.5c0-0.7-0.5-1.4-1.7-1.4h-2.3V58.2z"/>
		<path class="st0" d="M58.5,60.8c0.1,0.3,0.3,0.9,1.1,1.2c0.5,0.2,0.9,0.2,1.2,0.2c1.6,0,1.9-0.8,1.9-1.2c0-0.9-0.7-1.1-1.2-1.2
			l-2.1-0.5c-1.4-0.4-2-1.3-2-2.5c0-1.8,1.4-2.8,3.3-2.8c0.9,0,1.9,0.2,2.6,0.8c0.6,0.5,0.7,0.9,0.8,1.2l-1.6,0.4
			c-0.1-0.3-0.4-1.1-1.7-1.1c-1.3,0-1.6,0.7-1.6,1.2c0,0.7,0.8,1,1.3,1.1l1.6,0.4c0.8,0.2,2.5,0.7,2.5,2.7c0,1.9-1.6,3-3.8,3
			c-1.1,0-2.1-0.3-2.9-0.9c-0.6-0.5-0.8-1.1-0.9-1.5L58.5,60.8z"/>
		<path class="st0" d="M68,63.4V54h1.7v9.4H68z"/>
		<path class="st0" d="M75.4,63.4v-8h-2.5V54h6.8v1.5h-2.5v8H75.4z"/>
		<path class="st0" d="M85.1,63.4v-4L81.9,54H84l2.2,3.9l2.1-3.9H90l-3.1,5.5v4H85.1z"/>
	</g>
	<g>
		<path class="st0" d="M8.3,79c-3,0-4-2.8-4-4.9c0-2.5,1.4-4.8,4.1-4.8c2.7,0,4,2.3,4,4.9C12.3,77,10.7,79,8.3,79z M10,71.7
			c-0.5-1-1.3-1-1.7-1c-1.8,0-2.2,1.8-2.2,3.5c0,1.1,0.2,3.5,2.2,3.5c0.9,0,1.5-0.5,1.8-1.1c0.2-0.5,0.4-1.1,0.4-2.4
			C10.5,73.7,10.4,72.6,10,71.7z"/>
		<path class="st0" d="M15.2,78.9v-9.4h6v1.5h-4.2v2.6h3.3v1.4h-3.3v4H15.2z"/>
		<path class="st0" d="M29,76.2c0.1,0.3,0.3,0.9,1.1,1.2c0.5,0.2,0.9,0.2,1.2,0.2c1.6,0,1.9-0.8,1.9-1.2c0-0.9-0.7-1.1-1.2-1.2
			l-2.1-0.5c-1.4-0.4-2-1.3-2-2.5c0-1.8,1.4-2.8,3.3-2.8c0.9,0,1.9,0.2,2.6,0.8c0.6,0.5,0.7,0.9,0.8,1.2L33,71.7
			c-0.1-0.3-0.4-1.1-1.7-1.1c-1.3,0-1.6,0.7-1.6,1.2c0,0.7,0.8,1,1.3,1.1l1.6,0.4C33.3,73.6,35,74,35,76c0,1.9-1.6,3-3.8,3
			c-1.1,0-2.1-0.3-2.9-0.9c-0.6-0.5-0.8-1.1-0.9-1.5L29,76.2z"/>
		<path class="st0" d="M44.6,75.5c0,1,0,2.2-1.3,3c-0.8,0.5-1.7,0.5-2,0.5c-0.6,0-1.9-0.1-2.5-0.9c-0.7-0.8-0.8-1.6-0.8-2.5v-6.2
			h1.7v6.1c0,0.6,0.1,1.2,0.4,1.5c0.3,0.3,0.9,0.5,1.3,0.5c0.5,0,1.1-0.2,1.4-0.6c0.3-0.4,0.3-1,0.3-1.4v-6.1h1.4V75.5z"/>
		<path class="st0" d="M48.6,76.2c0.1,0.3,0.3,0.9,1.1,1.2c0.5,0.2,0.9,0.2,1.2,0.2c1.6,0,1.9-0.8,1.9-1.2c0-0.9-0.7-1.1-1.2-1.2
			l-2.1-0.5c-1.4-0.4-2-1.3-2-2.5c0-1.8,1.4-2.8,3.3-2.8c0.9,0,1.9,0.2,2.6,0.8c0.6,0.5,0.7,0.9,0.8,1.2l-1.6,0.4
			c-0.1-0.3-0.4-1.1-1.7-1.1c-1.3,0-1.6,0.7-1.6,1.2c0,0.7,0.8,1,1.3,1.1l1.6,0.4c0.8,0.2,2.5,0.7,2.5,2.7c0,1.9-1.6,3-3.8,3
			c-1.1,0-2.1-0.3-2.9-0.9c-0.6-0.5-0.8-1.1-0.9-1.5L48.6,76.2z"/>
		<path class="st0" d="M58.3,76.2c0.1,0.3,0.3,0.9,1.1,1.2c0.5,0.2,0.9,0.2,1.2,0.2c1.6,0,1.9-0.8,1.9-1.2c0-0.9-0.7-1.1-1.2-1.2
			l-2.1-0.5c-1.4-0.4-2-1.3-2-2.5c0-1.8,1.4-2.8,3.3-2.8c0.9,0,1.9,0.2,2.6,0.8c0.6,0.5,0.7,0.9,0.8,1.2l-1.6,0.4
			c-0.1-0.3-0.4-1.1-1.7-1.1c-1.3,0-1.6,0.7-1.6,1.2c0,0.7,0.8,1,1.3,1.1l1.6,0.4c0.8,0.2,2.5,0.7,2.5,2.7c0,1.9-1.6,3-3.8,3
			c-1.1,0-2.1-0.3-2.9-0.9c-0.6-0.5-0.8-1.1-0.9-1.5L58.3,76.2z"/>
		<path class="st0" d="M67.3,78.9v-9.4h6.1v1.4H69v2.6h3.5v1.4H69v2.6h4.4v1.5H67.3z"/>
		<path class="st0" d="M82,78.9l-2.1-3.7l-2.2,3.7h-1.6l3-4.9l-2.6-4.5h2l1.7,3.1l1.8-3.1h1.6l-2.6,4.3l2.9,5.1H82z"/>
	</g>
	<path class="st0" d="M12.1,25.5c0,10,4.4,15.6,14,15.6c7,0,12.3-4,14.9-10.3c0-0.1,0.1-0.1,0.1-0.1c0,0,0,0.1,0,0.1
		c3.2,6.4,10.1,10.3,19.6,10.3c10,0,18-5.2,18-12.8c0-5.5-3.5-8.9-10.5-12.1c-1.1-0.5-3.2-1.5-4.2-1.9c-3.6-1.7-5.8-3.3-5.8-6.6
		c0-3.5,3.1-5.8,7.2-5.8c6.4,0,9,4.8,10.8,10h1.6L77,0.6h-1.2c0,0-0.1,0.1-0.1,0.2c-0.9,1-1.8,1-3.6,0.4c-2-0.7-4.2-1.2-6.8-1.2
		c-7.8,0-13.6,4.9-13.6,11.1c0,5.2,3.1,8.6,9.2,11.3c0.8,0.4,2.9,1.4,4,1.9c3.5,1.7,6.4,3.4,6.4,7.2c0,5-5.1,7.7-10.6,7.7
		C52,39.1,47,33.4,47,23.7V1H31.7v1.6c0.2,0,0.3,0,0.5,0c5.9,0.5,6.7,1.5,6.7,7.6l0,13.2c0,9.4-3.8,14.9-10.2,14.9
		c-5.9,0-7.9-4.5-7.9-12.3l0-25.1H5.4v1.6c0.1,0,0.2,0,0.4,0c5.5,0.5,6.3,1.2,6.3,7.5V25.5z"/>
</g>
</svg>
