<svg xmlns="http://www.w3.org/2000/svg" xmlns:xlink="http://www.w3.org/1999/xlink" viewBox="0 0 337.96 325.03"><path d="M300.9 325.03H0V48.58L48.5 0h289.47v287.95z" fill="#07467f"/><g fill="#fff"><path d="M52.26 248.88h1.32V240h3.17v-1.3H49.1v1.3h3.17zm6.78-6.85c-1.66 0-2.82 1.38-2.82 3.4 0 1.85 1.05 3.57 2.93 3.57 1.02 0 1.68-.25 2.4-.8v-1.28c-.7.5-1.38.8-2.1.8-1.16 0-1.84-.7-2.03-2.02h4.25c.01-2.48-1.02-3.7-2.62-3.7m-1.6 2.8c.16-1.06.7-1.66 1.62-1.66.85 0 1.37.64 1.4 1.66h-3.03zm15.77-6.1h-1.25l-2.54 7.02-2.52-7.02h-1.3l3.7 10.27h.25l3.04-8.33 3 8.33h.26l3.72-10.27h-1.3l-2.5 7.02zm12.98 10.18v-4.1c0-1.84-.88-2.74-2.05-2.74-.67 0-1.35.38-1.8 1.02h-.03v-4.36h-1.2v10.2h1.2v-4.8c.56-.7.98-.97 1.5-.97.72 0 1.18.65 1.18 1.63v4.16h1.2zm3.95-3.64c-.97.4-2.05.8-2.05 2.12 0 .87.6 1.64 1.48 1.64.55 0 1.1-.23 1.63-.7.1.48.4.7.9.7.38 0 .6-.12 1.15-.52v-.8c-.26.23-.5.36-.63.36-.15 0-.23-.1-.23-.34v-3.45c0-1.52-.97-2.22-2.2-2.22-.87 0-1.53.3-2 .9v1.45c.58-.77 1.25-1.1 1.9-1.1.72 0 1.1.34 1.1 1.18v.36l-1.07.42zm1.06 2.27c-.32.34-.67.55-1.05.55-.5 0-.86-.4-.86-.94 0-.8.88-1.18 1.9-1.57v1.96zm3.92-5.34v6.7h1.2v-3.5c0-1.15.65-2.06 1.46-2.06.28 0 .75.27 1.12.65l.63-1.15c-.5-.52-.95-.78-1.44-.78-.56 0-1.14.5-1.75 1.68h-.03v-1.54h-1.18zm8.2-.14c-1.67 0-2.82 1.38-2.82 3.4 0 1.85 1.05 3.57 2.93 3.57 1.02 0 1.68-.25 2.4-.8v-1.28c-.7.5-1.4.8-2.1.8-1.16 0-1.84-.7-2.03-2.02h4.25c-.01-2.48-1.03-3.7-2.63-3.7m-1.6 2.8c.16-1.06.7-1.66 1.62-1.66.85 0 1.37.64 1.4 1.66h-3.03zm15.78-6.1h-1.25l-2.54 7.02-2.53-7.02h-1.32l3.7 10.27h.26l3.03-8.33 3.02 8.33h.25l3.73-10.27h-1.3l-2.5 7.02zm8.68 6.54c-.97.4-2.06.8-2.06 2.12 0 .87.6 1.64 1.48 1.64.56 0 1.1-.23 1.62-.7.1.48.4.7.92.7.37 0 .6-.12 1.16-.52v-.8c-.27.23-.5.36-.63.36-.15 0-.23-.1-.23-.34v-3.45c0-1.52-.97-2.22-2.2-2.22-.88 0-1.53.3-2 .9v1.45c.57-.77 1.25-1.1 1.9-1.1.72 0 1.1.34 1.1 1.18v.36l-1.07.42zm1.06 2.27c-.32.34-.68.55-1.05.55-.5 0-.86-.4-.86-.94 0-.8.9-1.18 1.9-1.57v1.96zm8.9 1.37v-4.14c0-1.84-.92-2.7-2.05-2.7-.67 0-1.34.38-1.8 1.02h-.03v-.88h-1.2v6.7h1.2v-4.8c.56-.7.98-.97 1.5-.97.73 0 1.18.65 1.18 1.63v4.16h1.2zm3.95-3.64c-.97.4-2.06.8-2.06 2.12 0 .87.6 1.64 1.48 1.64.55 0 1.1-.23 1.62-.7.1.48.4.7.9.7.38 0 .6-.12 1.16-.52v-.8c-.27.23-.5.36-.63.36-.15 0-.23-.1-.23-.34v-3.45c0-1.52-.97-2.22-2.2-2.22-.88 0-1.53.3-2 .9v1.45c.58-.77 1.25-1.1 1.9-1.1.73 0 1.1.34 1.1 1.18v.36l-1.06.42zm1.06 2.27c-.32.34-.67.55-1.05.55-.5 0-.86-.4-.86-.94 0-.8.9-1.18 1.9-1.57v1.96zm8.88 1.37v-4.14c0-1.84-.9-2.7-2.06-2.7-.67 0-1.34.38-1.8 1.02h-.03v-.88h-1.2v6.7h1.2v-4.8c.57-.7 1-.97 1.5-.97.73 0 1.18.65 1.18 1.63v4.16h1.2zm7.2-6.7h-2.48c-1.63 0-2.64.88-2.64 2.3 0 .5.1.9.32 1.26a2.3 2.3 0 0 0 1.01.85v.03c-.58.15-.96.52-.96.96 0 .3.2.57.6.85-1.05.28-1.52.87-1.52 1.85 0 1.18 1.16 2.03 2.78 2.03 1.8 0 2.85-.8 2.85-2.13 0-.85-.45-1.58-1.75-1.86-1.2-.27-1.84-.5-1.84-.86 0-.8 1.64-.32 2.44-1.27a2.59 2.59 0 0 0 .57-1.51c0-.57-.16-.94-.63-1.47h1.24v-1.04zm-3.16 7.04c.74 0 1.98.22 1.98 1.07 0 .6-.62.97-1.67.97-1.1 0-1.68-.36-1.68-1.03.01-.6.57-1 1.37-1m.33-3.46c-.73 0-1.2-.5-1.2-1.23 0-.66.54-1.2 1.2-1.2.63 0 1.17.54 1.17 1.18-.01.74-.5 1.26-1.16 1.26m6.03-.53c-.97.4-2.06.8-2.06 2.12 0 .87.6 1.64 1.48 1.64.55 0 1.1-.23 1.62-.7.1.48.4.7.92.7.38 0 .6-.12 1.16-.52v-.8c-.27.23-.5.36-.63.36-.15 0-.23-.1-.23-.34v-3.45c0-1.52-.97-2.22-2.2-2.22-.87 0-1.53.3-2 .9v1.45c.58-.77 1.25-1.1 1.9-1.1.73 0 1.1.34 1.1 1.18v.36l-1.07.42zm1.05 2.27c-.32.34-.67.55-1.05.55-.5 0-.86-.4-.86-.94 0-.8.9-1.18 1.9-1.57v1.96zm11.1 1.5c1.93 0 3.27-1.43 3.27-3.55 0-2-1.37-3.42-3.27-3.42-1.8 0-3.18 1.5-3.18 3.42 0 2.05 1.33 3.55 3.18 3.55m-.01-5.78c1.2 0 2.06.94 2.06 2.24 0 1.45-.8 2.34-2.06 2.34-1.16 0-1.95-.94-1.95-2.36 0-1.28.82-2.22 1.95-2.22m11.96 5.66V240h3.17v-1.3h-7.66v1.3h3.17v8.88zm4.85-3.64c-.97.4-2.06.8-2.06 2.12 0 .87.6 1.64 1.48 1.64.55 0 1.1-.23 1.63-.7.1.48.4.7.9.7.37 0 .6-.12 1.15-.52v-.8c-.27.23-.5.36-.63.36-.15 0-.23-.1-.23-.34v-3.45c0-1.52-.97-2.22-2.2-2.22-.88 0-1.53.3-2 .9v1.45c.58-.77 1.25-1.1 1.9-1.1.72 0 1.1.34 1.1 1.18v.36l-1.06.42zm1.06 2.27c-.32.34-.67.55-1.05.55-.5 0-.86-.4-.86-.94 0-.8.9-1.18 1.9-1.57v1.96zm13 1.37v-4.2c0-1.58-.78-2.63-2-2.63-.87 0-1.5.55-2.02 1.2-.4-.8-1.04-1.2-1.8-1.2-.57 0-1.15.33-1.76 1.02v-.88h-1.2v6.7h1.2V244c.5-.64.9-.85 1.5-.85s1.1.46 1.1 1.56v4.17h1.2V244c.43-.5.96-.87 1.34-.85.7 0 1.26.55 1.26 1.57v4.16h1.2zm4.37-3.64c-.96.4-2.05.8-2.05 2.12 0 .87.6 1.64 1.48 1.64.55 0 1.1-.23 1.63-.7.1.48.4.7.9.7.37 0 .6-.12 1.16-.52v-.8c-.27.23-.5.36-.63.36-.15 0-.23-.1-.23-.34v-3.45c0-1.52-.97-2.22-2.2-2.22-.87 0-1.53.3-2 .9v1.45c.58-.77 1.25-1.1 1.9-1.1.72 0 1.1.34 1.1 1.18v.36l-1.08.42zm1.06 2.27c-.32.34-.67.55-1.05.55-.5 0-.85-.4-.85-.94 0-.8.88-1.18 1.9-1.57v1.96zm8.2-5.34l-2.67 3.28 3.02 3.43h1.62l-3.12-3.43 2.58-3.28zm-3.93-3.47h1.2v10.2h-1.2zm8.25.64c-.4 0-.7.36-.7.8s.32.8.7.8.7-.36.7-.8-.32-.8-.7-.8m-.6 2.83h1.2v6.7h-1.2zm17.68 6.7v-10.2h-1.22l-3.05 4.18-3.04-4.18h-1.24v10.2h1.32v-7.93h.03l2.82 3.93h.22l2.82-3.93h.02v7.93zm4.53-3.64c-.96.4-2.05.8-2.05 2.12 0 .87.6 1.64 1.48 1.64.55 0 1.1-.23 1.62-.7.1.48.4.7.9.7.38 0 .6-.12 1.16-.52v-.8c-.27.23-.5.36-.63.36-.15 0-.23-.1-.23-.34v-3.45c0-1.52-.97-2.22-2.2-2.22-.88 0-1.53.3-2 .9v1.45c.58-.77 1.25-1.1 1.9-1.1.73 0 1.1.34 1.1 1.18v.36l-1.07.42zm1.06 2.27c-.32.34-.67.55-1.05.55-.5 0-.86-.4-.86-.94 0-.8.9-1.18 1.9-1.57v1.96zm8.2-5.34l-2.68 3.28 3.03 3.43h1.6l-3.12-3.43 2.58-3.28zm-3.93-3.47h1.2v10.2h-1.2zm7.25 4.24v1.45c.58-.77 1.25-1.1 1.9-1.1.72 0 1.1.34 1.1 1.18v.36l-1.06.42c-.97.4-2.06.8-2.06 2.12 0 .87.6 1.64 1.48 1.64.55 0 1.1-.23 1.63-.7.1.48.4.7.9.7.37 0 .6-.12 1.15-.52v-.8c-.27.23-.5.36-.63.36-.15 0-.22-.1-.22-.34v-3.45c0-1.52-.97-2.22-2.2-2.22-.88 0-1.54.3-2 .9m3 4.57c-.32.34-.67.55-1.05.55-.5 0-.86-.4-.86-.94 0-.8.9-1.18 1.9-1.57v1.96zm9.32 1.37v-6.7h-1.2v4.8c-.4.6-.9.94-1.44.94-.8 0-1.23-.54-1.23-1.48v-4.26h-1.2v4.17c0 1.7.86 2.67 2.08 2.67.6 0 1.3-.38 1.8-.98v.85h1.2zm2.95-6.7v6.7h1.2v-3.5c0-1.15.64-2.06 1.47-2.06.28 0 .75.27 1.1.65l.63-1.15c-.5-.52-.95-.78-1.44-.78-.56 0-1.14.5-1.75 1.68h-.02v-1.54h-1.2zm7.97 3.07c-.97.4-2.06.8-2.06 2.12 0 .87.6 1.64 1.48 1.64.56 0 1.1-.23 1.62-.7.1.48.4.7.92.7.37 0 .6-.12 1.15-.52v-.8c-.27.23-.5.36-.63.36-.15 0-.23-.1-.23-.34v-3.45c0-1.52-.97-2.22-2.2-2.22-.87 0-1.53.3-2 .9v1.45c.57-.77 1.25-1.1 1.9-1.1.72 0 1.08.34 1.08 1.18v.36l-1.05.42zm1.06 2.27c-.32.34-.67.55-1.04.55-.5 0-.86-.4-.86-.94 0-.8.88-1.18 1.9-1.57v1.96zm9.32 1.37v-6.7h-1.2v4.8c-.4.6-.9.94-1.43.94-.82 0-1.24-.54-1.24-1.48v-4.26h-1.2v4.17c0 1.7.86 2.67 2.08 2.67.6 0 1.3-.38 1.8-.98v.85h1.2zm-164.86-8.38h3.45v.68h-3.45zm63.3 0h3.46v.68h-3.46zm-92.63-50.4h-7v-4.9h6.56v-2.93h-6.56v-4.73h6.8v-2.93H85.1v18.42h9.93zm84.73-12.55v-2.93h-9.72v18.42h9.93v-2.93h-7v-4.9h6.56v-2.93h-6.56v-4.73zm-111 7.75h8.38v7.75h2.93v-18.42h-2.93v7.75h-8.38v-7.75h-2.93v18.42h2.93zm44.04 7.98c2.4 0 4.28-.7 5.57-2.08 1.2-1.3 1.85-3.2 1.85-5.46v-11.1h-2.94v10.67c0 1.88-.27 2.95-.92 3.68-.45.5-1.5 1.33-3.52 1.33-1.3 0-2.36-.46-3.22-1.4-.67-.76-.88-1.56-.88-3.44v-10.82h-2.93v11.37c0 2.33.75 4.24 2.17 5.54 1.25 1.1 2.95 1.72 4.82 1.72m27.1-.25v-18.42h-2.8v13.17l-10.37-13.17h-2.3v18.42h2.8v-13.1a9861.78 9861.78 0 0 1 10.24 13.09h2.44zm26.48-18.42h-2.95l-4.58 11.92-4.6-11.92h-2.98l7.17 18.57h.9l7.02-18.57zM195 193.04h3.52l-.48-.74-2-3.25-1.7-2.92c-.52-.75-1-1.33-1.55-1.8 1.55-.88 2.4-2.44 2.4-4.42 0-1.6-.52-2.94-1.52-3.87-.98-.93-2.38-1.42-4.05-1.42h-4.36v18.42h2.94v-7.72h.65c1 0 1.88.28 3.98 3.9l2.18 3.8zm-2.83-13.16c0 .77-.2 1.37-.62 1.8-.47.48-1.22.72-2.2.72h-1.16v-4.95h1.16c1.9 0 2.8.75 2.83 2.38v.06zm13.66-2.33c1.23 0 2.42.6 3.52 1.75l.42.44.13.13v-3.85l-.04-.02-.1-.08c-1.16-.86-2.46-1.3-3.76-1.3-1.52 0-2.82.48-3.75 1.38s-1.42 2.18-1.42 3.7c0 2.55 1.77 3.96 3.6 5.2l.44.3.82.56c.47.34.8.6 1.07.87.68.65 1 1.3 1 2.04 0 .75-.63 1.93-2.3 1.93-1.44 0-2.86-.87-3.96-2.45l-.44-.63-.14-.2.1 4.46.02.02c1.4 1.17 2.88 1.72 4.68 1.72 1.34 0 2.56-.52 3.45-1.47.87-.94 1.36-2.24 1.36-3.67 0-3.03-1.87-4.48-3.6-5.62l-1.27-.8a10.44 10.44 0 0 1-1.07-.78c-.68-.6-.98-1.15-.98-1.82.01-1.04.93-1.78 2.24-1.78m37.75 15.47h2.93v-9.6c.03-.04 6.24-8.8 6.24-8.8h-3.55l-4.17 5.9-4.13-5.9h-3.55l6.24 8.8v9.62zm-98.9-18.43h2.93v18.42h-2.93z"/><path d="M215.6 174.62h2.94v18.42h-2.94zM55 193.04h2.93v-15.5h5.54v-2.93h-14v2.93H55zm172.8 0h2.93v-15.5h5.54v-2.93h-14v2.93h5.54zm54.78-8.4h6.17v-2.9h-6.17v-4.25h6.17v-2.9h-9.07v18.2h2.9z"/><path d="M267.38 193.3c2.63 0 4.88-.98 6.52-2.84 1.5-1.72 2.35-4.02 2.35-6.5 0-2.52-.85-4.84-2.38-6.55-1.63-1.82-3.86-2.78-6.44-2.78-2.5 0-4.78 1-6.4 2.8-1.55 1.72-2.4 4.04-2.4 6.54 0 2.47.83 4.78 2.36 6.5 1.6 1.83 3.88 2.84 6.4 2.84m-4.12-13.92c1.07-1.16 2.54-1.8 4.16-1.8 3.4 0 5.85 2.68 5.85 6.38 0 1.78-.6 3.4-1.67 4.58-1.07 1.17-2.56 1.8-4.18 1.8-1.6 0-3.1-.64-4.16-1.8-1.08-1.17-1.67-2.8-1.67-4.58.01-1.78.6-3.42 1.67-4.58m-51.9 20.94h-3.5l-12.1 31.45h5.15l3.42-8.9h10.84l3.6 8.9h5.15l-12.58-31.45zm-5.1 17.58l3.3-8.92 3.57 8.92h-6.88zm-14.85 8.9h-12.28v-26.3h-4.98v31.26h17.26zm-133.5-3.92h10.83l3.63 8.9h5.14l-12.57-31.45h-3.5l-12.1 31.45h5.15c0-.01 3.36-8.75 3.42-8.9m5.24-13.9l3.56 8.92h-6.87l3.3-8.92m73.72 20.32v-6.1l-.2.14-.65.46c-2.95 2.14-6.2 3.3-9.16 3.3-3.05 0-5.66-1.04-7.56-3.02-1.9-1.97-2.9-4.7-2.9-7.9 0-3.08 1.04-5.9 2.94-7.9s4.5-3.12 7.35-3.12c3.02 0 5.82.95 9.08 3.05l.63.4.2.13-.24-6.1-.08-.03c-3.8-1.78-6.67-2.54-9.55-2.54-8.94 0-15.43 6.93-15.43 16.48 0 3.58 1.35 7.4 3.62 10.24 1.97 2.44 5.56 5.35 11.57 5.35 4.76 0 7.77-1.37 10.32-2.85l.05-.03zM154 215.32l12.26-14.8H160l-10.63 12.86V200.5h-4.98v31.26h4.98v-14.1l13.05 14.1h6.83c.01 0-15.1-16.3-15.24-16.45m132.73-9.73c-2.7-3.32-6.65-5.07-11.4-5.07h-11.1v31.26h11.14c4.38 0 8.18-1.67 10.97-4.82 2.53-2.86 3.98-6.8 3.98-10.8 0-3.92-1.3-7.78-3.6-10.56m-11.83 21.2h-5.68v-21.33h5.48c3.38 0 6.14 1.1 7.98 3.15 1.67 1.87 2.56 4.47 2.56 7.52 0 3.96-2.2 10.66-10.34 10.66m-182 5.38c4.1 0 7.27-1.2 9.46-3.53 2.06-2.2 3.15-5.4 3.15-9.27v-18.86h-4.98v18.1c0 3.2-.46 5-1.58 6.24-.76.84-2.54 2.25-5.97 2.25-2.22 0-4-.77-5.46-2.38-1.14-1.28-1.5-2.64-1.5-5.85V200.5h-4.97v19.32c0 3.95 1.27 7.2 3.68 9.4 2.1 1.9 5 2.96 8.17 2.96m158.44-9.3l-17.6-22.36-3.9-.01v31.26h4.74v-22.2l17.38 22.22h4.14v-31.26h-4.75v22.36zM59.4 272.23l-7.57-8.9h-2.17v12.75h2.4v-9.04l7.63 9.04h2.12v-12.75h-2.4zm17.8-1.7h5.53v-1.92H77.2v-3.35h5.78v-1.93h-8.24v12.75h8.37v-1.92h-5.9zm31.47.7l-3.36-7.9h-2.08l-3.35 7.87-3.17-7.87h-2.55l5.26 12.92h.8l4.04-9.46 4 9.46h.83l5.25-12.92h-2.52zm43.03-7.9h-11.2v1.93h6.97l-7.42 10.82h11.7v-1.92h-7.47zm14.48 7.2h5.53v-1.92h-5.53v-3.35h5.78v-1.93h-8.25v12.75h8.38v-1.92h-5.9zm22.25-7.2l-5.26 12.75h2.58l1.23-3.1h5.67l1.32 3.1h2.6l-5.63-12.75h-2.5zm-.7 7.78l1.96-5.05 2.15 5.05h-4.1zm22.9-7.78h-2.47v12.75h8.66v-1.92h-6.2zm21.92 0l-5.26 12.75h2.58l1.23-3.1h5.67l1.32 3.1h2.6l-5.63-12.75h-2.5zm-.7 7.78l1.96-5.05 2.16 5.05h-4.12zm30.18 1.12l-7.58-8.9h-2.16v12.75h2.4v-9.04l7.62 9.04h2.12v-12.75h-2.4z"/><path d="M286.23 264.14c-1.03-.54-2.2-.8-3.54-.8h-5.34v12.75h5.2c1.37 0 2.58-.27 3.64-.8s1.88-1.28 2.45-2.24c.58-.96.86-2.07.86-3.32 0-1.22-.3-2.33-.86-3.3-.56-1-1.36-1.75-2.4-2.3m-.5 8.8c-.82.82-1.92 1.23-3.28 1.23h-2.62v-8.9h2.54c1.4 0 2.52.4 3.35 1.2s1.25 1.88 1.25 3.26c0 1.32-.42 2.4-1.24 3.2m-236.2-16.06h240.53v1.4H49.55zm71.8-205.76v49.03c0 11.53 8.62 45.06 47.96 61.52l.64.27.64-.27c39.33-16.46 47.94-50 47.94-61.52V51.1h-97.18zm64.97 19.74c.72-1.95 2.4-4.63 4.27-7-.7-4 3-5.34 4.43-5.3 1.5.03 2.53 1 2.7 1.3 1.7-2 3.94-2.22 4.95-2.26 7.22-.22 10.87 5.18 10.7 9.5-.18 4.93-3.92 6.08-4.42 6.22 0 0-.06 1.07.77 2.5.05.1.22.23.06.5-.02.06-.17.33-.2.38a.52.52 0 0 0-.05.39c.1.32-.03.7-.26 1.14-.18.4.03 1.4.12 2.07.02.14-.08.15-.17.04-.46-.3-.8-1.2-.92-1.73-.88.23-1.9 1.52-2.23 2.27-.03.1-.22.22-.25-.02-.02-.06-.2-1.5 1.2-2.56-.7-.22-1.45.12-1.95.4-.03.04-.24.13-.1-.1.03-.05.44-.97 2.3-1.23.02-.06.4-.68.57-1.16-.04-.7-.4-1.58-.85-2.4-.07 0-1.4.12-2.34.84a.43.43 0 0 0-.18.35v.4c.02.06-.07.43-.55.58-.04.04-1.62.54-2.38.9-.04.03-.72.33-1.2 1.03-.1.1-.5.73-1.08.92-.15.03-.45.18-.67.4s-.43.45-.62.57-.62.58-.93 1.2c-.05.1-.13.2-.14 0-.02-.26.01-.6.01-.6.18-.8.54-1.2.86-1.55-.12-.04-.1-.01-.24-.08-.58.07-2.38-.1-3.47.44-.08.04-.16.03-.08-.1.2-.27.6-1.32 3.04-1.38.04-.23-1.1-.78-1.66-.78-.17 0-.07-.1 0-.13.13-.06 1.2-.52 2.47.3a6 6 0 0 1 1.4-.39c.6-.44 1.9-1.75 2.42-1.95-.01-.08-.05-.36.02-.64l-.06-.02c-.68-.96-.8-2.4-.76-3.17-1.4-.13-2.9-1.38-3.7-2.4-1.02-.07-3.03-.93-4.12-3.12-3.68 2.65-6.08 7.36-6.2 7.58-.1.07-.14.07-.2.02-.38-.74-.46-1.86-.33-2.2m-30.25 0c.7-1.95 2.42-4.63 4.26-7-.7-4 3-5.34 4.43-5.3 1.5.03 2.53 1 2.7 1.3 1.7-2 3.93-2.22 4.95-2.26 7.2-.22 10.87 5.18 10.7 9.5-.18 4.93-3.9 6.08-4.42 6.22 0 0-.06 1.07.77 2.5.05.1.22.23.06.5-.02.06-.17.33-.2.38s-.1.2-.05.4c.1.32-.03.7-.26 1.14-.18.4.03 1.4.12 2.07.02.14-.08.15-.17.04-.46-.3-.8-1.2-.92-1.73-.88.23-1.9 1.52-2.23 2.27-.03.1-.22.22-.25-.02-.01-.06-.2-1.5 1.22-2.56-.7-.22-1.45.12-1.95.4-.04.04-.25.13-.1-.1.03-.05.44-.97 2.3-1.23.02-.06.4-.68.58-1.16-.05-.7-.4-1.58-.85-2.4-.07 0-1.4.12-2.35.84a.43.43 0 0 0-.18.35v.4c.01.06-.07.43-.55.58-.04.04-1.62.54-2.37.9-.04.03-.72.33-1.22 1.03-.1.1-.5.73-1.08.92-.15.03-.45.18-.67.4s-.43.45-.62.57-.62.58-.92 1.2c-.05.1-.14.2-.14 0-.02-.26.01-.6 0-.6.2-.8.55-1.2.86-1.55-.12-.04-.1-.01-.24-.08-.57.07-2.38-.1-3.47.44-.08.04-.16.03-.08-.1.2-.27.6-1.32 3.04-1.38.03-.23-1.1-.78-1.65-.78-.17 0-.08-.1 0-.13.13-.06 1.2-.52 2.47.3a5.85 5.85 0 0 1 1.4-.39c.6-.44 1.9-1.75 2.42-1.95 0-.08-.05-.36.02-.64l-.07-.02c-.68-.96-.8-2.4-.76-3.17-1.4-.13-2.9-1.38-3.7-2.4-1.02-.07-3.03-.93-4.1-3.12-3.68 2.65-6.08 7.36-6.22 7.58-.08.07-.13.07-.2.02-.38-.74-.47-1.86-.33-2.2m-30.44 0c.72-1.95 2.4-4.63 4.26-7-.7-4 3-5.34 4.43-5.3 1.5.03 2.53 1 2.72 1.3 1.7-2 3.93-2.22 4.95-2.26 7.2-.22 10.87 5.18 10.7 9.5-.18 4.93-3.92 6.08-4.42 6.22 0 0-.06 1.07.77 2.5.05.1.2.23.06.5-.03.06-.17.33-.2.38s-.1.2-.04.4c.1.32-.03.7-.27 1.14-.18.4.03 1.4.13 2.07.02.14-.08.15-.17.04-.46-.3-.8-1.2-.93-1.73-.87.23-1.88 1.52-2.23 2.27-.03.1-.22.22-.25-.02-.01-.06-.2-1.5 1.2-2.56-.7-.22-1.45.12-1.94.4-.04.04-.25.13-.1-.1.03-.05.44-.97 2.3-1.23.02-.06.42-.68.58-1.16-.05-.7-.4-1.58-.86-2.4-.07 0-1.4.12-2.34.84a.43.43 0 0 0-.18.35v.4c.01.06-.07.43-.55.58-.04.04-1.62.54-2.38.9-.04.03-.72.33-1.2 1.03-.1.1-.5.73-1.08.92-.14.03-.45.18-.67.4s-.43.45-.62.57-.62.58-.92 1.2c-.05.1-.14.2-.15 0-.02-.26.02-.6 0-.6.18-.8.55-1.2.86-1.55-.12-.04-.1-.01-.23-.08-.58.07-2.38-.1-3.47.44-.08.04-.17.03-.08-.1.2-.27.6-1.32 3.04-1.38.03-.23-1.1-.78-1.66-.78-.18 0-.07-.1 0-.13.13-.06 1.2-.52 2.47.3.05-.04.9-.35 1.4-.4.6-.44 1.9-1.75 2.42-1.95-.01-.08-.05-.36.01-.64l-.06-.02c-.68-.96-.8-2.4-.76-3.17-1.4-.13-2.9-1.38-3.7-2.4-1-.07-3.03-.93-4.1-3.12-3.68 2.65-6.08 7.36-6.2 7.58-.1.07-.13.07-.2.02-.4-.74-.48-1.86-.34-2.2m44.14 89.7c-18.15-7.6-31.52-19.32-39.74-34.85-5.92-11.2-7.5-21.62-7.5-25.58V80.57l1-.06a4.34 4.34 0 0 1 .57-.03 10.85 10.85 0 0 1 .57.02 15.53 15.53 0 0 1 7.01 1.95l.3.15c4.47 2.64 10.33 2.64 14.8.01l.22-.13.02.01c4.72-2.67 10.85-2.6 15.52.15l.08.06c4.46 2.6 10.3 2.57 14.72-.05l.13-.06c4.73-2.74 10.93-2.7 15.63.08 4.52 2.65 10.36 2.63 14.8 0 2.2-1.3 4.73-2.02 7.3-2.12.53-.02 1.07-.02 1.6.01l.12.02.32.1.1.37v19.07c0 3.96-1.56 14.4-7.48 25.58-8.2 15.53-21.58 27.25-39.73 34.85l-.18.08-.17-.1z"/><path d="M169.52 131.9c-.15-.27-.32-.5-.48-.75h-1.6a.5.5 0 1 0 0 1h5.03a.5.5 0 1 0 0-1h-1.6l-.48.75h-.86z"/><path d="M143.37 127.88c4.3 2.7 8.6 2.98 12.48.8 4.08-2.3 9.8-2.42 13.18 2.5h.42v-1.1c-3.75-4.87-9.77-4.68-14.1-2.24-3.46 1.96-7.35 1.74-11.24-.62v-20.93l-1 .5v20.7l.24.42z"/><path d="M144.13 106.26l1.05-.53v20.88l.26.14c3.2 1.7 5.8 2.14 10.5-.3 5.15-2.68 10.46-.92 13.5 2.03v1.56c.17.22.34.43.5.67.16-.24.33-.45.5-.67v-1.56c3.05-2.96 8.35-4.7 13.5-2.03 4.7 2.44 7.3 1.98 10.5.3l.26-.14v-20.88l1.05.53v-.22c0-.1.04-.2.1-.28l-2.2-1.1c-3.5.83-6.08.66-9.78-.9-4.47-1.9-9.2-1.36-13.93 1.95-4.72-3.32-9.47-3.84-13.93-1.95-3.7 1.57-6.3 1.74-9.78.9l-2.2 1.1c.06.08.1.18.1.28v.22zm26.32-.3c4.4-3.02 8.86-3.6 13.24-1.76 3.62 1.53 6.32 1.8 9.9.98l.13.07v20.78c-2.83 1.45-5.1 1.74-9.3-.43-5.23-2.7-10.6-1.24-13.97 1.58v-21.22zm-24.28-.7l.13-.07c3.58.83 6.3.56 9.9-.98 4.38-1.86 8.84-1.26 13.24 1.76v21.2c-2.13-1.77-5.04-3.02-8.22-3.02-1.87 0-3.82.43-5.75 1.43-4.2 2.18-6.48 1.88-9.32.43v-20.76z"/><path d="M195.77 127.15c-4.27 2.04-8.05 2.26-11.25.64-4.25-2.15-10.26-2.68-14.07 2.25v1.1h.42c3.43-5 9.18-4.5 13.2-2.48 3.56 1.8 7.74 1.54 12.42-.77l.28-.44v-20.7l-1-.5v20.9z"/><path d="M195.77 106.26l1 .5v-.56l-.9-.45c-.06.08-.1.18-.1.28v.23z"/><use xlink:href="#B"/></g><g fill="#00457c"><use xlink:href="#B"/><path d="M195.77 105.3v21.85c-4.27 2.04-8.05 2.26-11.25.64-4.25-2.15-10.26-2.68-14.07 2.25-.17.22-.34.43-.5.67-.16-.24-.33-.45-.5-.67-3.75-4.86-9.77-4.68-14.1-2.24-3.46 1.96-7.34 1.74-11.23-.62v-23.9l-1 .5v23.68l.23.42c4.3 2.7 8.6 2.98 12.48.8 4.08-2.3 9.8-2.42 13.18 2.5h-1.6a.5.5 0 1 0 0 1h5.03a.5.5 0 1 0 0-1h-1.6c3.43-5 9.18-4.5 13.2-2.48 3.56 1.8 7.74 1.54 12.42-.77l.28-.44v-21.66c-.28-.06-1-.5-1-.5"/></g><path d="M145.92 101.5l5.62-4.24 5.6 4.24-2.15-6.77 5.9-4.26h-7.2l-2.16-6.8-2.18 6.8h-7.2l5.9 4.26zm36.8-.07l5.6-4.24 5.6 4.24-2.15-6.77 5.9-4.26h-7.2l-2.17-6.8-2.17 6.8h-7.2l5.9 4.26zm-10.6 42.14l-2.17-6.8-2.17 6.8h-7.2l5.9 4.26-2.15 6.76 5.6-4.23 5.6 4.23-2.15-6.76 5.9-4.26z" fill="#fff"/><path d="M126.2 73.02c.13-.22 2.53-4.93 6.2-7.58 1.08 2.18 3.1 3.05 4.1 3.1.8 1 2.3 2.27 3.7 2.4-.03.78.07 2.2.76 3.17l.06.02c-.06.28-.02.56-.01.64-.53.2-1.83 1.5-2.42 1.95-.5.04-1.35.35-1.4.4-1.27-.83-2.34-.36-2.47-.3-.07.03-.18.13 0 .13.57 0 1.7.55 1.66.78-2.44.06-2.84 1.1-3.04 1.38-.1.1 0 .13.08.1 1.08-.53 2.9-.36 3.47-.44.13.07.1.05.23.08-.3.35-.68.75-.86 1.55.01.01-.02.33-.01.6.01.2.1.1.15 0 .3-.63.73-1.1.92-1.2s.4-.34.62-.56c.22-.22.53-.37.67-.4.58-.2.98-.8 1.08-.92.5-.7 1.17-1 1.2-1.03.75-.36 2.33-.86 2.38-.9.48-.15.57-.53.55-.58v-.4a.43.43 0 0 1 .18-.35c.94-.73 2.27-.84 2.34-.84.44.82.8 1.7.86 2.4-.16.48-.56 1.1-.58 1.16-1.87.27-2.28 1.2-2.3 1.24-.16.23.05.13.1.1.5-.27 1.24-.62 1.94-.4-1.4 1.05-1.23 2.5-1.2 2.56.03.24.22.13.25.02.34-.75 1.35-2.04 2.23-2.27.12.5.47 1.43.93 1.73.1.1.2.1.17-.04-.1-.67-.3-1.67-.13-2.07.24-.44.36-.83.27-1.14-.06-.2.01-.34.04-.4.04-.05.18-.3.2-.38.16-.28 0-.4-.06-.5-.84-1.44-.77-2.5-.77-2.5.5-.14 4.24-1.3 4.42-6.22.16-4.32-3.5-9.72-10.7-9.5-1.02.05-3.24.26-4.95 2.26-.18-.3-1.22-1.27-2.7-1.3-1.43-.05-5.13 1.28-4.43 5.3-1.85 2.38-3.54 5.06-4.26 7-.13.35-.05 1.47.35 2.2.05.06.1.06.2-.01m.73-2.98c1.6-3.33 3.5-4.98 4.07-6.05-1.23-2.66 1.98-4.63 3.42-4.4 1.96 0 2.36 2.05 2.36 2.05s1.76-2.86 4-2.93c-.64.6-.77 1.02-.77 1.02l.01.15s1.02-1.07 3.02-1.07c-.7.5-1 .98-1 .98l.02.07c-.04.12 1.37-.93 3.52-.07-.5.03-1.23.36-1.32.57-.08.07.01.07.01.07 2.6-.33 4.93 2.48 4.88 5.08-.07 1.87-1.33 3.8-3.78 4.36-.34.4-.85 1.96-.85 1.96-1.18.38-2.6 1.42-2.8 1.64 0 0-.03-.06-.02.01l-.1-.14c-.43-.74-.43-3-.46-3.28-2.52.23-3.93-2.13-4.25-2.37-2.83-.18-4.06-3.38-4.28-3.54-2.14 1.3-4.23 3.95-5.68 6 .03-.06-.04-.03 0-.1" fill="#07467f"/><path d="M132.6 64.15c.2.17 1.44 3.37 4.28 3.55.32.23 1.73 2.6 4.25 2.36.03.27.03 2.54.46 3.28l.1.13c-.01-.07.02-.01.02-.01.2-.22 1.62-1.26 2.8-1.64 0 0 .5-1.57.85-1.96 2.45-.56 3.7-2.5 3.78-4.37.05-2.6-2.28-5.4-4.88-5.08 0 0-.1 0-.01-.07.08-.2.83-.53 1.32-.57-2.16-.86-3.56.2-3.52.07l-.02-.07s.3-.5 1-.98c-2 0-3.02 1.07-3.02 1.07v-.15s.13-.4.77-1.02c-2.26.07-4 2.93-4 2.93s-.4-2.05-2.36-2.05c-1.43-.22-4.65 1.75-3.4 4.4-.57 1.06-2.46 2.7-4.07 6.05-.04.07.04.05 0 .12 1.43-2.05 3.52-4.7 5.66-6m-.45-1.84a.6.6 0 0 1 0 1.2c-.33 0-.6-.27-.6-.6s.26-.6.6-.6" fill="#fff"/><path d="M132.15 63.5a.6.6 0 1 0-.6-.6c0 .33.26.6.6.6m24.47 9.52c.13-.22 2.53-4.93 6.22-7.58 1.08 2.18 3.1 3.05 4.12 3.1.8 1 2.3 2.27 3.7 2.4-.03.78.08 2.2.76 3.17l.07.02c-.07.28-.03.56-.02.64-.52.2-1.83 1.5-2.42 1.95a6 6 0 0 0-1.4.39c-1.27-.83-2.34-.36-2.47-.3-.08.03-.17.13 0 .13.57 0 1.7.55 1.65.78-2.44.06-2.84 1.1-3.04 1.38-.08.1 0 .13.08.1 1.1-.53 2.9-.36 3.47-.44.13.07.1.05.24.08-.3.35-.68.75-.86 1.55.01.01-.03.33 0 .6 0 .2.1.1.14 0 .3-.63.74-1.1.92-1.2.2-.12.4-.34.62-.56s.53-.37.67-.4c.58-.2.97-.8 1.08-.92.5-.7 1.17-1 1.22-1.03.75-.36 2.33-.86 2.37-.9.5-.15.57-.53.55-.58V75a.43.43 0 0 1 .18-.35c.94-.73 2.27-.84 2.35-.84.44.82.8 1.7.85 2.4-.17.48-.56 1.1-.58 1.16-1.87.27-2.28 1.2-2.3 1.24-.16.23.05.13.1.1.5-.27 1.24-.62 1.95-.4-1.4 1.05-1.23 2.5-1.22 2.56.04.24.22.13.25.02.34-.75 1.35-2.04 2.23-2.27.1.5.47 1.43.93 1.73.1.1.2.1.17-.04-.1-.67-.3-1.67-.12-2.07.23-.44.36-.83.26-1.14-.05-.2.01-.34.05-.4s.18-.3.2-.38c.16-.28-.01-.4-.06-.5-.83-1.44-.77-2.5-.77-2.5.5-.14 4.24-1.3 4.42-6.22.17-4.32-3.5-9.72-10.7-9.5-1.02.05-3.24.26-4.95 2.26-.2-.3-1.23-1.27-2.7-1.3-1.43-.05-5.13 1.28-4.43 5.3-1.85 2.38-3.55 5.06-4.26 7-.13.35-.05 1.47.35 2.2.04.06.1.06.17-.01m.74-2.98c1.6-3.33 3.5-4.98 4.06-6.05-1.23-2.66 1.98-4.63 3.4-4.4 1.97 0 2.36 2.05 2.36 2.05s1.76-2.86 4-2.93c-.64.6-.77 1.02-.77 1.02l.01.15s1-1.07 3-1.07c-.7.5-1 .98-1 .98l.02.07c-.04.12 1.37-.93 3.52-.07-.48.03-1.23.36-1.32.57-.07.07.01.07.01.07 2.6-.33 4.94 2.48 4.9 5.08-.08 1.87-1.34 3.8-3.8 4.36-.34.4-.85 1.96-.85 1.96-1.17.38-2.6 1.42-2.8 1.64 0 0-.03-.06-.02.01l-.1-.14c-.44-.74-.43-3-.46-3.28-2.5.23-3.93-2.13-4.24-2.37-2.83-.18-4.07-3.38-4.28-3.54-2.13 1.3-4.23 3.95-5.68 6 .05-.06-.02-.03.02-.1" fill="#07467f"/><path d="M163.04 64.15c.22.17 1.45 3.37 4.28 3.55.3.23 1.73 2.6 4.24 2.36.03.27.03 2.54.46 3.28l.1.13c-.01-.07.02-.01.02-.01.2-.22 1.62-1.26 2.8-1.64 0 0 .5-1.57.85-1.96 2.45-.56 3.7-2.5 3.8-4.37.05-2.6-2.28-5.4-4.9-5.08 0 0-.08 0-.01-.07.08-.2.84-.53 1.32-.57-2.16-.86-3.56.2-3.52.07l-.02-.07s.3-.5 1-.98c-2 0-3 1.07-3 1.07l-.01-.15s.14-.4.77-1.02c-2.25.07-4 2.93-4 2.93s-.4-2.05-2.36-2.05c-1.43-.22-4.65 1.75-3.4 4.4-.57 1.06-2.46 2.7-4.06 6.05-.04.07.03.05 0 .12 1.42-2.05 3.53-4.7 5.66-6m-.44-1.84a.6.6 0 0 1 0 1.2.6.6 0 0 1-.6-.6.59.59 0 0 1 .6-.6" fill="#fff"/><path d="M162.6 63.5a.6.6 0 0 0 0-1.2.6.6 0 0 0-.6.6.59.59 0 0 0 .6.6" fill="#00457c"/><path d="M186.88 73.02c.13-.22 2.53-4.93 6.2-7.58 1.1 2.18 3.1 3.05 4.12 3.1.8 1 2.3 2.27 3.7 2.4-.03.78.08 2.2.76 3.17l.06.02c-.06.28-.02.56-.02.64-.52.2-1.83 1.5-2.42 1.95a5.85 5.85 0 0 0-1.4.39c-1.26-.83-2.34-.36-2.47-.3-.07.03-.17.13 0 .13.57 0 1.7.55 1.66.78-2.44.06-2.84 1.1-3.04 1.38-.08.1 0 .13.08.1 1.08-.53 2.9-.36 3.47-.44.13.07.1.05.23.08-.32.35-.68.75-.86 1.55.01.01-.03.33-.01.6.01.2.1.1.14 0 .3-.63.73-1.1.92-1.2s.4-.34.62-.56.53-.37.67-.4c.57-.2.97-.8 1.08-.92.5-.7 1.17-1 1.2-1.03.75-.36 2.33-.86 2.38-.9.48-.15.56-.53.55-.58v-.4a.43.43 0 0 1 .18-.35c.94-.73 2.28-.84 2.34-.84.45.82.8 1.7.85 2.4-.16.48-.55 1.1-.57 1.16-1.88.27-2.28 1.2-2.3 1.24-.16.23.05.13.1.1.5-.27 1.24-.62 1.95-.4-1.4 1.05-1.23 2.5-1.2 2.56.03.24.2.13.25.02.34-.75 1.35-2.04 2.23-2.27.1.5.47 1.43.92 1.73.1.1.2.1.17-.04-.1-.67-.3-1.67-.12-2.07.24-.44.36-.83.27-1.14a.52.52 0 0 1 .05-.39c.04-.05.18-.3.2-.38.16-.28 0-.4-.06-.5-.83-1.44-.77-2.5-.77-2.5.5-.14 4.24-1.3 4.42-6.22.16-4.32-3.5-9.72-10.7-9.5-1 .05-3.23.26-4.95 2.26-.18-.3-1.22-1.27-2.7-1.3-1.43-.05-5.13 1.28-4.43 5.3-1.85 2.38-3.55 5.06-4.27 7-.13.35-.05 1.47.35 2.2.06.06.12.06.2-.01m.73-2.98c1.6-3.33 3.5-4.98 4.07-6.05-1.24-2.66 1.97-4.63 3.4-4.4 1.97 0 2.36 2.05 2.36 2.05s1.76-2.86 4-2.93c-.64.6-.77 1.02-.77 1.02v.15s1-1.07 3.02-1.07c-.7.5-1 .98-1 .98l.02.07c-.04.12 1.37-.93 3.53-.07-.48.03-1.24.36-1.32.57-.08.07.01.07.01.07 2.6-.33 4.94 2.48 4.9 5.08-.08 1.87-1.34 3.8-3.78 4.36-.34.4-.85 1.96-.85 1.96-1.18.38-2.6 1.42-2.8 1.64 0 0-.02-.06-.02.01l-.1-.14c-.44-.74-.43-3-.46-3.28-2.5.23-3.93-2.13-4.25-2.37-2.83-.18-4.06-3.38-4.28-3.54-2.13 1.3-4.23 3.95-5.68 6 .02-.06-.04-.03-.01-.1" fill="#07467f"/><path d="M193.3 64.15c.2.17 1.45 3.37 4.28 3.55.32.23 1.74 2.6 4.25 2.36.03.27.03 2.54.46 3.28l.1.13c-.01-.07.02-.01.02-.01.2-.22 1.62-1.26 2.8-1.64 0 0 .5-1.57.85-1.96 2.45-.56 3.7-2.5 3.78-4.37.05-2.6-2.28-5.4-4.9-5.08 0 0-.1 0-.01-.07.08-.2.83-.53 1.32-.57-2.16-.86-3.57.2-3.52.07l-.02-.07s.3-.5 1-.98c-2 0-3 1.07-3 1.07v-.15s.13-.4.77-1.02c-2.26.07-4 2.93-4 2.93s-.4-2.05-2.36-2.05c-1.44-.22-4.65 1.75-3.4 4.4-.57 1.06-2.46 2.7-4.07 6.05-.03.07.03.05 0 .12 1.45-2.05 3.55-4.7 5.68-6m-.44-1.84a.6.6 0 0 1 0 1.2.6.6 0 0 1 0-1.2" fill="#fff"/><path d="M192.85 63.5a.6.6 0 0 0 0-1.2.6.6 0 0 0 0 1.2m24.45 17.2l-.32-.1-.12-.02c-.54-.04-1.07-.03-1.6-.01-2.56.1-5.08.8-7.3 2.1-4.45 2.63-10.3 2.65-14.8 0-4.7-2.8-10.9-2.8-15.63-.08l-.13.07c-4.43 2.62-10.26 2.64-14.72.05l-.08-.06c-4.66-2.76-10.8-2.82-15.52-.15h-.02l-.22.13c-4.46 2.63-10.32 2.62-14.8-.01l-.3-.15c-2.14-1.2-4.55-1.86-7-1.95-.2-.01-.38-.02-.56-.02a4.34 4.34 0 0 0-.57.03l-1 .06v19.56c0 3.95 1.56 14.4 7.5 25.58 8.22 15.53 21.6 27.25 39.74 34.85l.18.08.18-.08c18.15-7.6 31.5-19.32 39.73-34.85 5.9-11.18 7.48-21.62 7.48-25.58V81.08l-.1-.37zm-31.08 9.72l2.17-6.8 2.17 6.8h7.2l-5.9 4.26 2.15 6.76-5.6-4.24-5.6 4.24 2.15-6.77-5.9-4.26h7.2zm-36.8.05l2.17-6.8 2.17 6.8h7.2l-5.9 4.26 2.15 6.77-5.6-4.24-5.6 4.24 2.15-6.77-5.9-4.26h7.2zm26.2 64.14l-5.6-4.24-5.6 4.24 2.15-6.77-5.9-4.26h7.2l2.17-6.8 2.17 6.8h7.2l-5.9 4.26 2.15 6.77z" fill="#07467f"/><g fill="#fff"><path d="M184.52 127.8c3.2 1.62 6.98 1.4 11.25-.64v-20.9l-1.05-.53v20.88l-.26.14c-3.2 1.7-5.8 2.14-10.5-.3-5.16-2.68-10.46-.93-13.5 2.03v1.56c3.8-4.95 9.82-4.4 14.07-2.26m-29.16.02c4.32-2.44 10.33-2.63 14.1 2.24v-1.56c-3.05-2.96-8.36-4.7-13.5-2.03-4.7 2.44-7.3 1.98-10.5.3l-.26-.14v-20.88l-1.05.53v20.93c3.88 2.36 7.76 2.58 11.23.62"/><path d="M184.42 125.58c4.2 2.18 6.48 1.88 9.3.43v-20.77l-.13-.07c-3.58.83-6.3.56-9.9-.98-4.4-1.85-8.84-1.26-13.24 1.76v21.2c3.38-2.82 8.74-4.3 13.97-1.58m-28.92.01c1.93-1 3.9-1.43 5.75-1.43 3.17 0 6.1 1.24 8.22 3.02v-21.2c-4.4-3.02-8.86-3.6-13.24-1.76-3.62 1.53-6.33 1.8-9.9.98l-.13.07v20.78c2.82 1.43 5.1 1.73 9.3-.45m45.4.7a1.16 1.16 0 0 0-.91.42l-.15.18h-1.88v-2.3h1.87l.15.18c.22.26.55.4.9.4.63 0 1.15-.48 1.15-1.07s-.52-1.07-1.15-1.07a1.16 1.16 0 0 0-.91.42l-.15.18h-1.87v-2.3h1.86l.15.18c.22.26.55.4.9.4.63 0 1.15-.48 1.15-1.07s-.5-1.07-1.15-1.07a1.23 1.23 0 0 0-.92.42l-.15.18h-1.86v-2.3h1.86l.15.18c.22.26.55.4.9.4.63 0 1.15-.48 1.15-1.07s-.52-1.07-1.15-1.07a1.16 1.16 0 0 0-.91.42l-.15.18h-1.85v-2.3h1.85l.15.18c.2.26.55.4.9.4.64 0 1.15-.48 1.15-1.07s-.52-1.07-1.15-1.07a1.16 1.16 0 0 0-.91.42l-.15.24h-1.85v-2.3h1.84l.15.18c.22.26.56.42.92.42.63 0 1.15-.48 1.15-1.07s-.52-1.07-1.15-1.07a1.17 1.17 0 0 0-.92.43l-.15.18h-1.84v-2.3h1.84l.15.17c.23.26.56.42.92.42.63 0 1.15-.48 1.15-1.07s-.52-1.07-1.15-1.07a1.18 1.18 0 0 0-.92.42l-.15.18-1.46.01-1.57-.8v20.7l-.28.44c-4.68 2.32-8.85 2.57-12.42.77-4.03-2.04-9.78-2.5-13.2 2.47h1.6a.5.5 0 1 1 0 1h-5.03a.5.5 0 1 1 0-1h1.6c-3.37-4.9-9.1-4.8-13.18-2.5-3.87 2.2-8.2 1.92-12.48-.8l-.23-.42v-20.7l-1.56.8h-1.46l-.15-.18a1.18 1.18 0 0 0-.92-.42c-.64 0-1.15.48-1.15 1.07s.5 1.07 1.15 1.07a1.22 1.22 0 0 0 .92-.41l.15-.18h1.84v2.3h-1.84l-.15-.18a1.18 1.18 0 0 0-.92-.42c-.64 0-1.15.48-1.15 1.07s.5 1.07 1.15 1.07c.36 0 .7-.15.9-.4l.15-.18h1.84v2.3h-1.85l-.15-.18a1.18 1.18 0 0 0-.92-.42c-.64 0-1.15.48-1.15 1.07s.52 1.07 1.15 1.07c.36 0 .7-.15.9-.4l.15-.18h1.85v2.3h-1.86l-.15-.18c-.22-.26-.56-.42-.9-.42-.64 0-1.15.48-1.15 1.07s.52 1.07 1.15 1.07c.35 0 .7-.15.9-.42l.15-.18h1.86v2.3h-1.86l-.15-.18c-.23-.27-.55-.43-.92-.43-.63 0-1.15.48-1.15 1.07s.52 1.07 1.15 1.07c.36 0 .7-.15.9-.4l.15-.18h1.87v2.3H140l-.15-.18a1.16 1.16 0 0 0-.91-.42c-.64 0-1.15.48-1.15 1.07s.52 1.07 1.15 1.07c.36 0 .7-.15.9-.4l.15-.18h1.88v2.3H140l-.15-.18a1.16 1.16 0 0 0-.91-.42c-.64 0-1.15.48-1.15 1.07s.52 1.07 1.15 1.07c.36 0 .7-.15.9-.4l.15-.18h1.57l.14.12c2.47 2.14 5.2 3.13 8.57 3.13 2.67 0 4.2-.4 5.9-1.52 1.54-1.02 3.27-1.53 4.98-1.53a8.71 8.71 0 0 1 4.93 1.53l.7.46-.73.4c-.47.25-.76.74-.76 1.3a1.45 1.45 0 0 0 1.45 1.45H173a1.45 1.45 0 0 0 1.45-1.45c0-.55-.3-1.04-.76-1.3l-.73-.4.7-.46c3.03-2.04 6.83-2.04 9.9 0 1.7 1.12 3.25 1.52 5.9 1.52 3.38 0 6.1-1 8.57-3.13l.14-.12h1.56l.15.17a1.19 1.19 0 0 0 .91.42c.64 0 1.15-.48 1.15-1.07-.01-.63-.53-1.1-1.16-1.1"/></g><defs ><path id="B" d="M169.04 131.16l.48.74h.86c.15-.26.32-.5.48-.74h-.42v-1.1l-.5.67c-.16-.24-.33-.45-.5-.67v1.1h-.4z"/></defs></svg>