<?xml version="1.0" encoding="utf-8"?>
<!-- Generator: Adobe Illustrator 16.0.3, SVG Export Plug-In . SVG Version: 6.00 Build 0)  -->
<!DOCTYPE svg PUBLIC "-//W3C//DTD SVG 1.1//EN" "http://www.w3.org/Graphics/SVG/1.1/DTD/svg11.dtd">
<svg version="1.1" id="Layer_1" xmlns="http://www.w3.org/2000/svg" xmlns:xlink="http://www.w3.org/1999/xlink" x="0px" y="0px"
	 width="152px" height="92px" viewBox="0 0 152 92" enable-background="new 0 0 152 92" xml:space="preserve">
<rect fill="#CC0000" width="152" height="92"/>
<path fill="#FFFFFF" d="M82.395,73.944c0,0.522-0.085,0.95-0.26,1.297c-0.331,0.676-0.989,1.062-1.938,1.062
	c-0.95,0-1.612-0.386-1.944-1.062c-0.17-0.347-0.259-0.774-0.259-1.278v-5.826h-1.725v5.938c0,0.722,0.117,1.354,0.358,1.843
	c0.573,1.236,1.813,1.839,3.569,1.839c1.737,0,2.973-0.603,3.564-1.829c0.246-0.484,0.357-1.118,0.357-1.853v-5.938h-1.724V73.944z
	 M89.595,70.643c-0.846,0-1.611,0.369-2.328,0.934l-0.175-0.766h-1.464v6.802h1.71v-4.758c0.502-0.419,1.106-0.719,1.666-0.719
	c0.878,0,1.053,0.676,1.053,1.507v3.97h1.724v-4.5C91.78,71.173,90.67,70.643,89.595,70.643 M94.122,67.648
	c-0.604,0-1.048,0.462-1.048,1.035c0,0.577,0.443,1.022,1.048,1.022s1.066-0.466,1.066-1.022
	C95.188,68.09,94.727,67.648,94.122,67.648 M93.263,77.612h1.724v-6.802h-1.724V77.612z M99.5,75.442h-0.026l-1.684-4.632h-1.742
	l2.776,6.844h1.294l2.759-6.844h-1.725L99.5,75.442z M106.271,70.643c-1.939,0-3.063,1.535-3.063,3.573
	c0,1.843,0.994,3.54,3.479,3.54c0.833,0,1.684-0.188,2.4-0.632l-0.516-1.178c-0.487,0.271-1.034,0.455-1.729,0.455
	c-1.133,0-1.88-0.672-1.912-1.72h4.357v-0.403C109.289,72.017,108.184,70.643,106.271,70.643 M104.919,73.488
	c0-0.817,0.475-1.541,1.325-1.541c0.904,0,1.276,0.762,1.308,1.541H104.919z M112.079,71.576l-0.188-0.766h-1.45v6.802h1.71v-4.801
	c0.56-0.488,0.937-0.676,1.38-0.676c0.201,0,0.475,0.042,0.778,0.23l0.601-1.453c-0.273-0.188-0.645-0.271-0.963-0.271
	C113.257,70.643,112.697,70.956,112.079,71.576 M117.398,72.61c0-0.448,0.386-0.616,0.963-0.616c0.717,0,1.353,0.184,1.926,0.428
	v-1.453c-0.56-0.201-1.236-0.326-1.997-0.326c-1.599,0-2.575,0.844-2.575,2.053c0,2.272,3.193,1.841,3.193,2.991
	c0,0.518-0.506,0.715-1.196,0.715c-0.689,0-1.334-0.227-1.854-0.561l-0.533,1.257c0.56,0.347,1.438,0.658,2.504,0.658
	c1.464,0,2.758-0.616,2.758-2.116C120.587,73.269,117.398,73.689,117.398,72.61 M122.056,77.612h1.725v-6.802h-1.725V77.612z
	 M122.916,67.648c-0.604,0-1.048,0.462-1.048,1.035c0,0.577,0.443,1.022,1.048,1.022s1.065-0.466,1.065-1.022
	C123.981,68.09,123.521,67.648,122.916,67.648 M128.594,76.379c-0.443,0-0.658-0.231-0.658-0.864v-3.365h1.639l0.417-1.339h-2.056
	v-2.083l-1.711,0.504v1.579h-1.223v1.339h1.223v3.777c0,1.142,0.73,1.829,1.939,1.829c0.676,0,1.495-0.204,1.983-0.533l-0.515-1.178
	C129.373,76.218,128.997,76.379,128.594,76.379 M136.099,70.811l-1.652,4.829h-0.026l-2.056-4.829h-1.787l3.063,6.757
	c-0.528,1.554-1.133,2.075-1.895,2.075c-0.381,0-0.707-0.103-1.021-0.262l-0.435,1.319c0.461,0.201,0.963,0.319,1.526,0.319
	c1.236,0,2.355-0.357,3.422-3.19l2.602-7.019H136.099z"/>
<g>
	<path fill="#FFFFFF" d="M34.691,45.08c1.558-0.604,2.238-1.004,3.076-1.765c1.441-1.364,2.203-3.289,2.203-5.736
		c0-5.296-3.609-8.421-9.758-8.421h-8.947c-3.116,0-3.649,0-5.584-0.122c0.229,1.927,0.305,3.651,0.305,5.771v21.946
		c0,2.803-0.076,4.171-0.305,5.895c1.635-0.08,2.736-0.12,5.62-0.12h9.328c6.604,0,10.479-3.413,10.479-9.185
		c0-2.646-0.833-4.812-2.473-6.336C37.539,46.002,36.554,45.519,34.691,45.08z M23.425,35.735h5.61c2.168,0,3.341,1.123,3.341,3.083
		c0,1.967-1.254,3.213-3.265,3.213h-5.687V35.735z M29.416,55.91h-5.991v-7.462h5.955c2.428,0,3.869,1.365,3.869,3.688
		C33.249,54.501,31.808,55.91,29.416,55.91z"/>
	<path fill="#FFFFFF" d="M58.281,37.578c-3.453,0-5.728,1.085-7.591,3.65v-3.171h-7.554c0.229,1.724,0.305,3.132,0.305,6.06v12.356
		c0,2.598-0.076,4.046-0.305,6.053h7.858c-0.229-1.928-0.305-3.455-0.305-6.019v-6.256c0.152-1.765,0.421-2.606,1.143-3.569
		c1.097-1.442,2.579-2.167,4.514-2.167c1.178,0,2.127,0.202,3.873,0.766l1.818-7.225C60.256,37.656,59.494,37.578,58.281,37.578z"/>
	<path fill="#FFFFFF" d="M135.955,57.39l-6.331-9.785l5.499-5.614c2.051-2.124,2.507-2.566,3.985-3.933H129.01
		c-0.716,1.166-1.554,2.209-3.3,4.054l-4.178,4.371V35.21c0-2.687,0.08-4.412,0.309-6.053h-7.706
		c0.188,1.481,0.304,3.327,0.304,6.053v21.263c0,2.64-0.076,4.248-0.304,6.053h7.746c-0.269-1.604-0.309-2.566-0.309-5.855v-1.607
		l2.848-2.886l2.884,4.973c1.102,1.921,1.939,3.688,2.508,5.376h9.677C138.428,61.162,138.275,60.923,135.955,57.39z"/>
	<path fill="#FFFFFF" d="M104.569,55.543c-0.761,1.128-2.127,1.771-3.609,1.771c-3.031,0-4.971-2.812-4.971-7.143
		c0-4.409,1.823-6.975,4.899-6.975c1.365,0,2.427,0.479,3.188,1.4c0.492,0.601,0.721,1.166,1.061,2.364l6.834-1.481
		c-1.254-5.333-5.315-8.38-11.164-8.38c-7.401,0-12.185,5.134-12.185,13.153c0,3.934,1.219,7.462,3.422,9.746
		c2.086,2.25,5.198,3.452,8.844,3.452c4.401,0,7.854-1.643,9.753-4.614c0.721-1.164,1.173-2.245,1.594-3.97l-6.985-1.162
		C105.098,54.622,104.91,55.027,104.569,55.543z"/>
	<path fill="#FFFFFF" d="M74.017,37.136c-7.666,0-12.525,5.097-12.525,13.116c0,8.064,4.859,13.198,12.485,13.198
		c7.554,0,12.564-5.299,12.564-13.279C86.541,42.233,81.683,37.136,74.017,37.136z M71.429,53.229
		c-0.014,0.014-0.045,0.005-0.055,0.027c-0.013,0.026,0.01,0.071,0,0.103c-0.044,0.18-0.188,0.381-0.205,0.594
		c-0.014,0.159,0.031,0.295-0.09,0.405c0.085,0.381-0.139,0.676-0.014,1.027c-0.022,0.043-0.036,0.081-0.014,0.137
		c0.009,0.052-0.049,0.033-0.054,0.064c-0.009,0.24-0.08,0.551-0.013,0.805h-0.05c0.018,0.118,0.062,0.196,0.062,0.362
		c-0.076,0.064-0.04,0.21-0.013,0.273c-0.01,0.061-0.054,0.111-0.117,0.078c-0.013,0,0.005,0.056-0.04,0.024
		c-0.031,0.005,0.022,0.022,0,0.056c-0.232,0.065-0.412-0.123-0.542-0.158c-0.031-0.067-0.085-0.114-0.144-0.157
		c-0.035-0.22-0.044-0.45-0.026-0.658c0.009-0.103,0.067-0.21-0.009-0.3c-0.027-0.184,0.165-0.497,0.076-0.686
		c0.049-0.024,0-0.132,0.062-0.141c-0.04-0.071-0.045-0.104,0.014-0.159c-0.022-0.016-0.027-0.042-0.05-0.049
		c0.13-0.159-0.013-0.531,0.13-0.69c-0.058-0.23,0.107-0.475,0.13-0.685c0.04,0.004,0.036-0.04,0.062-0.054
		c0-0.022-0.009-0.04-0.026-0.05c0.022-0.018,0.018-0.062,0.067-0.054c-0.041-0.089,0.054-0.13,0.035-0.206
		c0.036,0,0.027,0.022,0.054,0c-0.049-0.049,0-0.085,0-0.156c0.242-0.166,0.457-0.242,0.775-0.166
		c0.022,0.09,0.089,0.135,0.066,0.269C71.455,53.113,71.464,53.185,71.429,53.229z M73.277,57.027c0.045,0-0.103-0.012-0.062,0
		c-0.018-0.007-0.018-0.043-0.04-0.054c-0.019-0.01-0.054,0.024-0.076,0.016c-0.054-0.016-0.054-0.076-0.116-0.043
		c-0.099-0.042-0.13-0.137-0.171-0.239c-0.031-0.09-0.094-0.197-0.089-0.303c0-0.045,0.031-0.069,0.026-0.116
		c-0.004-0.043-0.045-0.064-0.04-0.116c0-0.016,0.026-0.059,0.026-0.076c-0.004-0.043-0.044-0.081-0.054-0.123
		c-0.004-0.022,0.022-0.014,0.027-0.031c0.009-0.067-0.062-0.142-0.04-0.213h0.054c-0.005-0.022-0.045-0.005-0.054-0.022
		c0.045-0.385-0.014-0.916,0.026-1.274c0,0,0.019,0.016,0.014,0.029c0.036-0.071-0.009-0.179,0-0.273
		c0.005-0.021,0.04-0.026,0.04-0.047c-0.004-0.051-0.04-0.051-0.04-0.08c0.009-0.315,0.026-0.562,0.014-0.804
		c-0.005-0.027,0.018-0.027,0.04-0.027c-0.067-0.229,0.062-0.537-0.027-0.752c0.022-0.147-0.035-0.358-0.116-0.466
		c-0.009-0.031,0.027-0.022,0.027-0.049c-0.009-0.032-0.022,0.013-0.041-0.014c0.036-0.04,0.01-0.059-0.013-0.104
		c-0.014,0-0.009,0.022-0.027,0.022c-0.018-0.004,0-0.022,0.014-0.022c-0.076-0.156-0.175-0.282-0.26-0.43
		c-0.17-0.17-0.398-0.291-0.672-0.362c-0.099,0.026-0.165-0.045-0.273-0.036c-0.071,0-0.151,0.062-0.232,0.09
		c-0.09,0.031-0.17,0.049-0.246,0.089c-0.206,0.112-0.381,0.152-0.506,0.301c-0.027,0.004-0.036-0.01-0.05-0.014
		c-0.466,0.277-0.712,0.649-0.949,1.138c-0.009,0.009-0.026,0.018-0.049,0.013c-0.076,0.188-0.121,0.408-0.287,0.506
		c-0.009,0.104-0.018,0.206-0.121,0.22c-0.004,0.072,0,0.192-0.085,0.22c-0.004,0.237-0.161,0.36-0.143,0.587
		c-0.005,0.035-0.059,0.026-0.063,0.064c-0.004,0.201-0.165,0.497-0.08,0.681c-0.067,0.132-0.13,0.26-0.22,0.39
		c-0.099,0.016-0.156,0.076-0.232,0.105c-0.036-0.067-0.157-0.007-0.22-0.062c0.009-0.095-0.036-0.13-0.067-0.184
		c-0.004-0.476,0.067-0.921,0.184-1.335c0.104-0.362,0.354-0.645,0.439-0.994c0.022-0.009,0.035-0.022,0.054-0.026
		c0.022-0.112,0.08-0.184,0.143-0.26v-0.067c0.085-0.099,0.161-0.215,0.206-0.363c0.085-0.089,0.171-0.192,0.22-0.322
		c0.04-0.018,0.059-0.062,0.103-0.076c0.18-0.322,0.471-0.52,0.753-0.698c0.071-0.049,0.116-0.121,0.184-0.17
		c0.161-0.13,0.371-0.18,0.528-0.322c0.04-0.01,0.04,0.022,0.067,0c0.161-0.175,0.38-0.13,0.596-0.13
		c0.085,0,0.156-0.054,0.246-0.067c0.125-0.019,0.237,0.058,0.376,0.026c0.099,0.045,0.229,0.09,0.322,0.104
		c-0.005,0.018-0.022,0.022-0.026,0.04c0.044-0.022,0.103-0.009,0.103,0.05c0.054-0.01,0.067-0.01,0.116,0
		c0.019,0.021,0.019,0.035,0,0.054c0.188,0.054,0.39,0.269,0.466,0.43c0.18,0.022,0.17,0.232,0.313,0.295
		c-0.004,0.014-0.022,0.014-0.04,0.014c0.049,0.014,0.036,0.094,0.09,0.104c-0.005,0.058,0.009,0.099,0.013,0.143
		c0.197,0.273,0.161,0.766,0.184,1.231c0.014,0.269-0.004,0.551-0.013,0.775c0.004,0.018,0.04,0.004,0.04,0.026
		c-0.054,0.144-0.036,0.175-0.054,0.334c0.004,0.02,0.04,0.004,0.04,0.029c0.009,0.445,0.045,0.761,0,1.104
		c-0.014,0.038,0.031,0.022,0.036,0.052c-0.027,0.08-0.072,0.188,0,0.248c-0.036,0.114-0.05,0.188,0,0.334
		c0.004,0.029-0.009,0.042-0.036,0.038c0.018,0.013,0.031,0.038,0.062,0.038c0.019,0.047-0.04,0.009-0.026,0.056
		c0.045,0.103-0.014,0.235,0.067,0.36c0.009,0.043-0.014,0.062-0.027,0.09c0.014,0.042,0.045,0.076,0.067,0.118
		c-0.022,0.121,0.049,0.253,0.022,0.424C73.6,57.007,73.412,57.027,73.277,57.027z M76.192,55.616
		c-0.009,0.009-0.026,0.009-0.049,0.009c0.076,0.119-0.121,0.249-0.211,0.197c-0.044,0.142-0.295,0.067-0.269-0.056
		c-0.103,0.033-0.103-0.069-0.196-0.047c-0.045-0.081-0.157-0.159-0.13-0.273c-0.019-0.014-0.032-0.036-0.063-0.04
		c-0.009-0.034,0.041-0.072-0.026-0.062c-0.009-0.036,0.026-0.027,0.026-0.057c-0.08-0.103-0.049-0.197-0.143-0.305
		c0.004-0.02,0.018-0.028,0.04-0.028c-0.04-0.038-0.04-0.048-0.027-0.117c-0.04-0.071-0.085-0.127-0.04-0.208
		c-0.009-0.026-0.04-0.031-0.049-0.064c0.009-0.15-0.019-0.301-0.067-0.466c0.005-0.014,0.018-0.027,0.04-0.027
		c-0.076-0.067,0.009-0.272-0.076-0.349c0.081-0.036-0.031-0.126,0.022-0.152c-0.022-0.027-0.022-0.072-0.049-0.081
		c0.035-0.058,0.013-0.22,0-0.286c0.022-0.148,0.009-0.457-0.027-0.632c0.054-0.054-0.009-0.224,0.054-0.273
		c-0.026-0.313-0.076-0.788-0.197-0.998c-0.009-0.027,0.027-0.018,0.027-0.04c-0.005-0.014-0.027-0.014-0.027,0
		c0.045-0.086-0.094-0.211-0.049-0.31c-0.018-0.018-0.045-0.022-0.08-0.026c0.004-0.027,0.035-0.027,0.054-0.036
		c-0.019-0.031-0.045-0.054-0.095-0.054c0.05-0.175-0.139-0.166-0.125-0.362c-0.022-0.014-0.022-0.05-0.067-0.041
		c0.018-0.103-0.099-0.175-0.13-0.269c-0.036-0.009-0.067-0.022-0.103-0.026c-0.211-0.215-0.372-0.471-0.663-0.609
		c0.014-0.067-0.071-0.036-0.062-0.103c-0.112-0.022-0.211-0.09-0.3-0.13c-0.072-0.035-0.152-0.026-0.233-0.054
		c-0.045-0.014-0.071-0.056-0.116-0.064c-0.059-0.011-0.184,0-0.282-0.039c-0.179-0.066-0.452-0.09-0.689-0.062
		c-0.05,0.002-0.135,0.002-0.166-0.041c-0.229,0-0.394,0.027-0.622,0.053c-0.287,0.032-0.52,0.197-0.753,0.256
		c-0.018,0.005-0.026-0.018-0.04-0.014c-0.116,0.05-0.313,0.215-0.501,0.171c-0.027,0.021-0.031,0.054-0.054,0.075
		c-0.31,0.09-0.524,0.332-0.779,0.431c-0.036,0.035-0.05,0.103-0.126,0.103c-0.125,0.18-0.354,0.265-0.402,0.479
		c-0.287,0.058-0.363,0.43-0.582,0.596c0,0.094-0.05,0.062-0.054,0.156c-0.059,0.031-0.135,0.085-0.104,0.17
		c-0.099,0.099-0.175,0.256-0.22,0.386c-0.066,0.022-0.196,0.147-0.313,0.067c-0.031,0,0.019,0.021,0,0.049
		c-0.062-0.062-0.143-0.107-0.179-0.192c-0.009-0.206-0.071-0.345-0.04-0.52c0.066-0.126,0.165-0.215,0.196-0.376
		c0.081-0.05,0.108-0.157,0.18-0.22c0.014-0.036-0.018-0.031-0.014-0.062c0.059-0.05,0.147-0.062,0.13-0.184
		c0.121,0,0.237-0.224,0.336-0.336c0.027-0.031,0.09-0.045,0.081-0.116c0.075-0.045,0.094-0.107,0.179-0.117
		c0.005-0.021-0.014-0.026-0.014-0.054c0.081,0.014,0.161-0.058,0.17-0.156c0.126,0.009,0.059-0.112,0.18-0.112
		c0.026-0.004-0.018-0.035,0.014-0.054c0.089,0.036,0.089-0.035,0.094-0.089c0.049-0.014,0.121-0.01,0.116-0.081
		c0.036-0.014,0.13,0.014,0.13-0.075c0.062,0.003,0.121-0.009,0.09-0.063c0.076,0,0.188-0.044,0.22-0.129
		c0.062-0.005,0.116-0.078,0.192-0.083c0.018-0.009,0.026-0.024,0.026-0.048c0.202-0.027,0.363-0.121,0.547-0.197
		c0.026-0.004,0.018,0.028,0.035,0.028c0.059-0.009,0.045-0.046,0.054-0.078c0.161-0.025,0.282-0.114,0.412-0.102
		c0.112-0.126,0.291-0.144,0.483-0.135c0.027,0.004,0.005-0.046,0.01-0.062c0.071,0.039,0.228-0.09,0.26,0
		c0.04,0,0.049-0.037,0.08-0.051c0.372,0.005,0.838-0.094,1.24,0.009c0.39,0.022,0.708-0.009,1.013,0.211
		c0.26-0.014,0.269,0.156,0.532,0.192v0.054c0.036,0.009,0.045-0.015,0.076-0.015c-0.022,0.074,0.147,0.041,0.116,0.168
		c0.301,0.133,0.466,0.397,0.753,0.545c-0.022,0.104,0.152,0.117,0.156,0.233c0.09,0.058,0.157,0.241,0.242,0.376
		c0.058,0.085,0.094,0.107,0.121,0.232c0.022,0.121,0.125,0.233,0.152,0.35c0.009,0.04,0,0.09,0.013,0.13
		c0.014,0.04,0.054,0.059,0.067,0.09c0.018,0.054-0.004,0.107,0.014,0.17c0.045,0.197,0.103,0.376,0.125,0.582
		c0.022,0.188,0.019,0.412,0.054,0.582c0.009,0.031-0.026,0.019-0.026,0.04c0.04,0.332,0.009,0.686,0.026,1.035
		c0.014,0.018,0.036,0.026,0.054,0.04c-0.066,0.103-0.004,0.192-0.013,0.286c0,0.022,0.04,0.005,0.049,0.022
		c-0.018,0.121,0.054,0.348,0,0.484c0.09,0.12,0.085,0.275,0.081,0.425c0.004,0.034,0.035,0.05,0.049,0.076
		c0.059,0.287,0.081,0.535,0.22,0.724C76.175,55.484,76.215,55.54,76.192,55.616z M78.136,53.064
		c-0.022,0.021-0.049,0.085-0.089,0.049c-0.027,0.005-0.005,0.059-0.027,0.067c-0.026-0.009-0.085,0.014-0.09-0.014
		c-0.035,0.107-0.152,0.062-0.17,0.144c-0.139-0.019-0.224,0.009-0.3-0.081c0.005-0.045,0.022-0.071,0.031-0.116
		c-0.004-0.027-0.049,0.022-0.067-0.014c0.032-0.071,0.019-0.125-0.04-0.165c0.036-0.045,0.005-0.09,0.04-0.117
		c-0.026-0.049-0.049-0.165-0.013-0.196c-0.076-0.282-0.099-0.583-0.144-0.855c-0.014-0.09-0.071-0.184-0.076-0.269
		c-0.005-0.067,0.014-0.152-0.067-0.197c-0.004-0.022,0.014-0.022,0.027-0.022c-0.126-0.273-0.171-0.618-0.322-0.833
		c0.009-0.076-0.027-0.201-0.09-0.246c-0.005-0.031-0.005-0.062,0.014-0.076c-0.157-0.251-0.278-0.511-0.39-0.766
		c-0.005-0.014-0.027-0.009-0.041-0.014c0.01-0.04,0-0.054,0.014-0.062c-0.229-0.214-0.317-0.496-0.492-0.752
		c-0.022,0-0.031,0.018-0.05,0.013c0-0.062-0.066-0.062-0.054-0.142c-0.188-0.221-0.317-0.493-0.608-0.61
		c-0.019-0.042-0.045-0.066-0.067-0.104c-0.242-0.094-0.345-0.328-0.658-0.348c-0.104-0.131-0.345-0.127-0.439-0.262
		c-0.17,0.032-0.345-0.11-0.546-0.151c-0.192-0.042-0.466-0.018-0.686-0.053c-0.103-0.019-0.192-0.087-0.286-0.028
		c-0.175-0.036-0.341-0.06-0.492-0.014c-0.399-0.009-0.981-0.013-1.371,0.094c-0.188-0.048-0.349,0.081-0.532,0.062
		c-0.04,0.02-0.067,0.046-0.104,0.064c-0.25,0.01-0.447,0.107-0.622,0.223c-0.116-0.039-0.246,0-0.336-0.053
		c-0.071-0.047-0.081-0.188-0.116-0.259c0.022-0.059,0.035-0.103,0.035-0.159c0.121-0.048,0.152-0.187,0.287-0.23
		c0.179-0.061,0.309-0.208,0.479-0.221c0.04-0.022,0.076-0.053,0.116-0.076c0.144,0.039,0.398-0.134,0.622-0.094
		c0.062-0.044,0.121-0.031,0.18-0.022c0.031-0.005,0.058-0.014,0.066-0.042c0.547-0.007,1.048-0.044,1.527-0.053
		c0.103,0.081,0.318-0.042,0.416,0.053c0.121-0.025,0.166-0.007,0.273-0.04c0.005,0.085,0.135,0,0.152,0.081
		c0.027-0.014,0.04-0.042,0.081-0.042c0.04-0.011,0.018,0.046,0.049,0.042c0.376,0.07,0.859,0.07,1.142,0.269
		c0.144-0.026,0.229,0.068,0.35,0.08c0.005,0.023,0.036,0.023,0.027,0.065c0.21,0.018,0.224,0.16,0.465,0.169
		c0.005,0.023-0.013,0.023-0.013,0.042c0.291,0.128,0.541,0.302,0.726,0.541c0.04-0.009,0.04,0.023,0.075,0.015
		c0.063,0.107,0.152,0.188,0.247,0.259c0.022,0.089,0.125,0.221,0.21,0.245c0.031,0.14,0.18,0.201,0.18,0.337
		c0.009,0.015,0.049,0.004,0.076,0.027c0,0.119,0.143,0.224,0.107,0.296c0.255,0.298,0.39,0.679,0.645,1.024
		c-0.022,0.04,0.004,0.067-0.014,0.09c0.206,0.331,0.345,0.761,0.43,1.128c0.099,0.225,0.201,0.56,0.206,0.766
		c0.059,0.135,0.139,0.336,0.104,0.488C78.293,52.37,78.226,52.729,78.136,53.064z M79.663,50.561
		c-0.076,0.027-0.144,0.166-0.206,0.246c-0.139,0.027-0.179,0.072-0.309,0.014c-0.13-0.206-0.13-0.555-0.26-0.761
		c-0.014-0.278-0.107-0.466-0.144-0.717c0-0.036-0.031-0.045-0.05-0.062c0.022-0.185-0.165-0.367-0.143-0.505
		c-0.085-0.108-0.085-0.216-0.197-0.282c-0.067-0.243-0.246-0.369-0.336-0.587c-0.09-0.032-0.103-0.145-0.179-0.193
		c-0.01-0.027,0.009-0.036,0.009-0.051c-0.116-0.155-0.17-0.258-0.296-0.379c0.01-0.021,0.041-0.01,0.014-0.035
		c-0.026-0.051-0.08-0.135-0.116-0.131c-0.045-0.121-0.121-0.229-0.197-0.245c-0.009-0.112-0.134-0.184-0.166-0.234
		c-0.049-0.16-0.241-0.273-0.335-0.429c-0.296-0.291-0.649-0.525-0.959-0.803c-0.116-0.046-0.237-0.085-0.3-0.179
		c-0.026,0.028-0.036-0.009-0.076,0c-0.224-0.139-0.466-0.263-0.703-0.381c-0.085-0.04-0.161-0.05-0.282-0.075
		c-0.054-0.009-0.089-0.064-0.143-0.079c-0.054-0.016-0.13,0-0.184-0.011c-0.022-0.009-0.027-0.037-0.05-0.042
		c-0.197-0.042-0.394,0.028-0.596,0c-0.111-0.014-0.241-0.071-0.219-0.245c0.035-0.009,0.031-0.064,0.089-0.051v-0.094
		c0.076-0.081,0.126-0.188,0.22-0.254c0.022,0.021,0.062,0.005,0.09,0c0.089-0.122,0.434-0.085,0.532-0.055
		c0.26-0.062,0.475,0.055,0.699,0.103c0.031,0.027,0.045,0.066,0.08,0.089c0.085-0.004,0.175,0,0.256,0.055
		c0.018,0.009,0.031,0.052,0.054,0.062c0.066,0.032,0.161,0.013,0.232,0.042c0.188,0.066,0.318,0.245,0.52,0.287
		c0.152,0.151,0.327,0.217,0.502,0.334c0.004,0.037,0.018,0.057,0.04,0.076c0.067,0.022,0.22,0.107,0.22,0.197
		c0.071,0.055,0.174,0.075,0.21,0.165c0.175,0.096,0.269,0.266,0.438,0.365c-0.022,0.057,0.05,0.089,0.104,0.103
		c0.076,0.119,0.134,0.212,0.26,0.298c-0.014,0.092,0.071,0.087,0.076,0.158c0.12,0.054,0.147,0.198,0.246,0.273
		c0.009,0.151,0.192,0.25,0.286,0.385c0.04,0.057,0.05,0.166,0.157,0.17c0.085,0.18,0.206,0.342,0.349,0.493
		c-0.009,0.122,0.072,0.16,0.13,0.221c-0.035,0.15,0.121,0.188,0.117,0.319c0.018,0.028,0.054,0.033,0.076,0.057
		c0.134,0.309,0.286,0.676,0.362,0.958C79.677,49.611,79.851,50.072,79.663,50.561z M80.895,47.544
		c0.04,0.208-0.104,0.411-0.206,0.519c-0.152,0.026-0.197-0.01-0.309-0.053c-0.019-0.197-0.067-0.381-0.117-0.556
		c-0.031-0.097-0.045-0.181-0.066-0.275c-0.036-0.146-0.157-0.272-0.233-0.438c-0.067-0.147-0.125-0.3-0.192-0.431
		c-0.04-0.066-0.062-0.129-0.094-0.192c-0.027-0.057-0.095-0.105-0.126-0.165c-0.103-0.175-0.188-0.339-0.286-0.494
		c-0.175-0.188-0.322-0.405-0.493-0.598c-0.13-0.015-0.134-0.153-0.26-0.168c-0.009-0.011-0.018-0.033-0.013-0.066
		c-0.09-0.028-0.121-0.076-0.157-0.131c-0.21-0.071-0.309-0.254-0.515-0.372c-0.04-0.021-0.099-0.016-0.13-0.038
		c-0.014-0.01-0.014-0.046-0.027-0.056c-0.089-0.048-0.196-0.038-0.286-0.103c-0.156,0.004-0.331-0.133-0.269-0.287
		c0.031-0.08,0.166-0.114,0.166-0.227c0.103,0,0.165-0.036,0.219-0.08c0.067,0.029,0.152,0.039,0.206,0.08
		c0.237-0.031,0.341,0.129,0.56,0.193c0.009,0.043,0.076,0.022,0.067,0.089c0.206,0.043,0.376,0.223,0.609,0.287
		c0.004,0.054,0.076,0.039,0.076,0.104h0.062c0.08,0.123,0.269,0.201,0.313,0.348c0.295,0.25,0.523,0.6,0.738,1
		c0.01,0.035,0.019-0.032,0.05-0.015c0.175,0.198,0.241,0.499,0.416,0.698c-0.009,0.042-0.009,0.028,0,0.063
		c0.104,0.166,0.157,0.376,0.22,0.588c0.076,0.25,0.103,0.495,0.13,0.724C80.926,47.502,80.926,47.539,80.895,47.544z"/>
</g>
</svg>
