<svg id="Layer_1" data-name="Layer 1" xmlns="http://www.w3.org/2000/svg" viewBox="0 0 175 90"><defs><style>.cls-1{fill:#0c274c;}.cls-2{fill:#fff;}.cls-3{fill:#00377c;}.cls-4{fill:#d7c700;}</style></defs><title>Artboard 1</title><rect class="cls-1" width="175" height="90"/><rect class="cls-2" x="12.3" y="21.24" width="45.84" height="45.92" rx="4.03" ry="4.03"/><path class="cls-3" d="M53.39,23.59h-36a2.6,2.6,0,0,0-2.66,2.66V50a.18.18,0,0,0,.18.14.19.19,0,0,0,.1,0l.06-.06c6.13-6.65,17.28-18.28,18.18-10.5,1.4,12,17.06-2.1,22.68-7.58l.05-.05a.17.17,0,0,0,0-.08v0l0-5.57A2.58,2.58,0,0,0,53.39,23.59Z"/><path class="cls-4" d="M55.87,44.77l-.08,0-.08.07c-3.32,2.91-10.47,8.52-14.19,10-3.21,1.27-6.12,1.66-7.72-2.25-1.91-4.68-.94-10.47-4.4-9-2.45,1-10.29,7.85-14.65,12.9l0,0a.18.18,0,0,0,0,.06v5.69a2.6,2.6,0,0,0,2.66,2.66h36A2.6,2.6,0,0,0,56,62.28V44.91A.19.19,0,0,0,55.87,44.77Z"/><path class="cls-2" d="M102.54,68.76,74.26,42.69V67.25h-9.6v-46H65.8l28.28,26.2V22.81h9.6v46Z"/><path class="cls-2" d="M110.18,67.25V22.81h10.61V67.25Z"/><path class="cls-2" d="M161.81,65.1a26.16,26.16,0,0,1-13.89,3.66,25,25,0,0,1-9.34-1.58C130.25,63.84,124.7,54.94,124.7,45c0-13.57,9.78-23.74,22.73-23.74a27,27,0,0,1,6.31.76,28.37,28.37,0,0,1,8,3.28l-.88,11.36c-.88-.88-1.58-1.52-2.21-2.08a16.64,16.64,0,0,0-10.48-4c-7.51,0-12.56,5.62-12.56,13.89,0,8.65,5.18,14.14,13.38,14.14a21.9,21.9,0,0,0,9-1.89,15.5,15.5,0,0,0,4.8-3.28Z"/></svg>