<?xml version="1.0" encoding="utf-8"?>
<!-- Generator: Adobe Illustrator 21.1.0, SVG Export Plug-In . SVG Version: 6.00 Build 0)  -->
<svg version="1.1" id="Layer_1" xmlns="http://www.w3.org/2000/svg" xmlns:xlink="http://www.w3.org/1999/xlink" x="0px" y="0px"
	 width="310px" height="62.3px" viewBox="0 0 310 62.3" style="enable-background:new 0 0 310 62.3;" xml:space="preserve">
<style type="text/css">
	.st0{fill:#FFFFFF;}
	.st1{fill:#FFC627;}
</style>
<title>logo</title>
<g>
	<path class="st0" d="M150.9,32.1c-0.5,0.4-1.1,0.6-1.9,0.6c-0.8,0-1.4-0.2-1.9-0.7c-0.5-0.5-0.8-1.1-0.8-1.8c0-0.8,0.3-1.4,0.8-1.9
		c0.5-0.5,1.1-0.8,1.9-0.8c0.8,0,1.4,0.3,1.9,0.8c0.5,0.5,0.7,1.2,0.7,2C151.6,31,151.4,31.6,150.9,32.1z"/>
	<path class="st0" d="M191.7,11c-0.4-1.4-1-2.3-1.7-3.5c-0.8-1.2-1.7-2.3-2.7-3.2c-1-0.9-2.2-1.6-3.5-2.2c-1.3-0.5-2.7-0.8-4.2-0.8
		c-2,0-3.9,0.5-5.5,1.4c-0.7,0.3-2.7,1.5-4,3.2c-1.1,1.5-1.9,3.2-2.5,5.1c-0.6,1.9-0.9,3.9-0.9,5.9c0,2.1,0.3,4.1,0.9,6
		c0.6,1.9,1.5,3.5,2.6,4.9c1.1,1.4,2.5,2.2,4.1,3c1.6,0.8,3.4,1.2,5.3,1.2c1.5,0,3-0.3,4.3-0.8c1.3-0.6,2.5-1.3,3.6-2.2
		c1-0.9,1.9-2,2.7-3.2c0.7-1.2,1.2-2.2,1.5-3.4h0.5l-0.1,9.7h-0.5c-0.4-0.5-0.7-1-1.1-1.4c-0.4-0.4-0.7-0.6-0.8-0.6
		c-0.1,0-0.3,0.2-0.8,0.5c-0.5,0.3-1.2,0.7-2,1c-0.9,0.4-2,0.7-3.2,1c-1.3,0.3-2.7,0.4-4.4,0.4c-2.7,0-5.2-0.4-7.4-1.2
		c-2.2-0.8-4.1-1.9-5.7-3.3c-1.6-1.4-2.7-3.1-3.6-5.1c-0.8-2-1.2-4.2-1.2-6.6c0-0.5,0-1.1,0.1-1.8c0.1-0.7,0.2-1.4,0.4-2.2
		c0.2-0.8,0.5-1.6,0.8-2.4c0.3-0.8,0.8-1.7,1.3-2.5c0.6-1,1.4-2,2.3-2.9c0.9-0.9,2-1.7,3.2-2.4c1.2-0.7,2.6-1.2,4.2-1.7
		c1.6-0.4,3.3-0.6,5.3-0.6c1.8,0,3.3,0.2,4.7,0.5c1.3,0.3,2.4,0.7,3.3,1.1c0.9,0.4,1.6,0.7,2,1.1c0.5,0.3,0.7,0.5,0.8,0.5
		c0.1,0,0.2-0.1,0.3-0.2c0.2-0.1,0.3-0.3,0.5-0.5c0.2-0.2,0.4-0.4,0.6-0.7c0.2-0.3,0.4-0.5,0.6-0.8h0.5V11L191.7,11z"/>
	<path class="st0" d="M224.4,32.7h-28.5v-0.4c0.7-0.1,1.5-0.3,2.2-0.6c0.7-0.3,1.3-0.6,1.7-1.1c0.1-0.2,0.3-0.4,0.4-0.8
		c0.1-0.3,0.2-0.7,0.2-1.2c0.1-0.4,0.1-0.9,0.2-1.4c0-0.5,0.1-1,0.1-1.4c0-0.4,0-1,0-1.7c0-0.7,0-1.5,0-2.3c0-0.8,0-1.7,0-2.6
		c0-0.9,0-1.8,0-2.6V8c0-0.5,0-1,0-1.6c0-0.5,0-1-0.1-1.5s-0.1-0.9-0.2-1.2c-0.1-0.4-0.2-0.6-0.4-0.8c-0.4-0.5-1-0.9-1.7-1.2
		c-0.7-0.3-1.4-0.4-2.2-0.5V0.8h14.1v0.4c-0.4,0.1-0.8,0.1-1.4,0.3c-0.5,0.1-1,0.3-1.5,0.6c-0.5,0.3-0.9,0.6-1.2,1.1
		c-0.3,0.5-0.5,1.1-0.6,1.9c0,1-0.1,2-0.1,2.8c0,0.9,0,1.7,0,2.5c0,0.8,0,1.7,0,2.6c0,0.9,0,1.9,0,3c0,1,0,1.9,0,2.7
		c0,0.8,0,1.6,0,2.3c0,0.8,0,1.6,0,2.4c0,0.8,0,1.7,0,2.7c0,0.9,0.1,1.8,0.1,2.7c0,0.9,0.1,1,0.5,1.5c0.1,0.1,0.4,0.3,0.7,0.4
		c0.4,0.1,0.8,0.3,1.3,0.4c0.5,0.1,1,0.2,1.6,0.3c0.6,0.1,1.2,0.1,1.8,0.1c0.2,0,0.6,0,1.1,0c0.5,0,1.1,0,1.7-0.1
		c0.6,0,1.3-0.1,1.9-0.2c0.6-0.1,1.2-0.2,1.7-0.4c1.2-0.3,2.2-0.8,2.9-1.3c0.8-0.5,1.5-1.1,2-1.8c0.6-0.7,1-1.4,1.4-2.3
		c0.4-0.8,0.8-1.2,1.1-2.1l0.4,0.1L224.4,32.7z"/>
	<path class="st0" d="M224.4,32.7H196v-0.4c0.7-0.1,1.5-0.3,2.2-0.6c0.7-0.3,1.3-0.6,1.7-1.1c0.1-0.2,0.3-0.4,0.4-0.8
		c0.1-0.3,0.2-0.7,0.2-1.2c0.1-0.4,0.1-0.9,0.2-1.4c0-0.5,0.1-1,0.1-1.4c0-0.4,0-1,0-1.7c0-0.7,0-1.5,0-2.3c0-0.8,0-1.7,0-2.6
		c0-0.9,0-1.8,0-2.6V8c0-0.5,0-1,0-1.6c0-0.5,0-1-0.1-1.5c0-0.5-0.1-0.9-0.2-1.2c-0.1-0.4-0.2-0.6-0.4-0.8c-0.4-0.5-1-0.9-1.7-1.2
		c-0.7-0.3-1.4-0.4-2.2-0.5V0.8h14.1v0.4c-0.4,0.1-0.8,0.1-1.4,0.3c-0.5,0.1-1,0.3-1.5,0.6c-0.5,0.3-0.9,0.6-1.2,1.1
		c-0.3,0.5-0.5,1.1-0.6,1.9c0,1-0.1,2-0.1,2.8c0,0.9,0,1.7,0,2.5c0,0.8,0,1.7,0,2.6c0,0.9,0,1.9,0,3c0,1,0,1.9,0,2.7
		c0,0.8,0,1.6,0,2.3c0,0.8,0,1.6,0,2.4c0,0.8,0,1.7,0,2.7c0,0.9,0.1,1.8,0.1,2.7c0,0.9,0.1,1,0.5,1.5c0.2,0.2,0.4,0.3,0.7,0.4
		c0.4,0.1,0.8,0.3,1.3,0.4c0.5,0.1,1,0.2,1.6,0.3c0.6,0.1,1.2,0.1,1.8,0.1c0.2,0,0.6,0,1.1,0c0.5,0,1.1,0,1.7-0.1
		c0.6,0,1.3-0.1,1.9-0.2c0.6-0.1,1.2-0.2,1.7-0.4c1.2-0.3,2.2-0.8,2.9-1.3c0.8-0.5,1.5-1.1,2-1.8c0.6-0.7,1-1.4,1.4-2.3
		c0.4-0.8,0.8-1.2,1.1-2.1l0.4,0.1L224.4,32.7z"/>
	<path class="st0" d="M270,30.6c-0.2-0.3-0.4-0.9-0.4-1.7c0-0.8,0-1.6,0-2.5V11.6c0-0.7,0-1.5,0-2.2c0-0.7,0-1.5,0-2.2
		c0-0.7,0.1-1.4,0.1-2.2c0-0.8,0.2-1.4,0.4-1.9c0.4-0.7,0.9-1.2,1.6-1.4c0.7-0.2,1.4-0.4,2-0.5V0.8h-0.4c-2.1,0.3-4.2,0.5-6.3,0.5
		c-2.2,0-4.4-0.2-6.5-0.5h-0.1v0.4c0.8,0.1,1.5,0.2,2.1,0.5c0.6,0.2,1.1,0.6,1.5,1.1c0.2,0.2,0.3,0.5,0.4,0.9
		c0.1,0.4,0.2,0.8,0.2,1.2c0,0.5,0.1,1,0.1,1.5v12.8c0,0.9,0,1.8,0,2.6c0,0.8,0,1.6,0,2.3s0,1.3,0,1.7c0,0.5,0,1,0,1.4
		c0,0.5,0,1-0.1,1.4c0,0.4-0.1,0.8-0.2,1.2c-0.1,0.3-0.2,0.6-0.3,0.8c-0.4,0.5-1,0.9-1.6,1.2c-0.6,0.3-1.3,0.5-2.1,0.6v0.4h13.4
		v-0.4c-0.6-0.1-1.3-0.2-2.1-0.5C270.9,31.5,270.4,31.1,270,30.6z"/>
	<g>
		<path class="st0" d="M141.3,60.2l0.3,0.7c-0.8,0.5-1.5,0.9-2.2,1.1c-0.7,0.2-1.4,0.3-2.1,0.3c-1.5,0-2.7-0.4-3.6-1.3
			c-0.9-0.9-1.3-2-1.3-3.5c0-1.6,0.5-2.8,1.5-3.8c1-1,2.4-1.4,4.1-1.4c0.6,0,1.1,0,1.6,0.1c0.5,0.1,1.2,0.3,1.9,0.5
			c0,0.3,0,0.6,0,0.9c0,0.5,0,1.2,0.1,2h-0.7c-0.2-0.9-0.4-1.4-0.4-1.5c-0.2-0.3-0.4-0.6-0.8-0.9c-0.4-0.2-0.9-0.4-1.6-0.4
			c-1,0-1.8,0.3-2.3,0.9c-0.7,0.7-1,1.7-1,3c0,1.3,0.3,2.3,1,3c0.7,0.7,1.5,1,2.6,1C139.4,61,140.4,60.7,141.3,60.2z"/>
		<path class="st0" d="M154.2,57.4c0-1.6,0.5-2.8,1.4-3.7c1-0.9,2.2-1.4,3.8-1.4c1.5,0,2.7,0.4,3.6,1.3c0.9,0.9,1.3,2,1.3,3.4
			c0,0.9-0.2,1.7-0.5,2.5c-0.3,0.6-0.6,1.1-1,1.5c-0.4,0.4-0.9,0.7-1.3,0.9c-0.7,0.3-1.5,0.4-2.4,0.4c-1.6,0-2.8-0.4-3.6-1.3
			C154.6,60.1,154.2,58.9,154.2,57.4z M156.6,57c0,1.6,0.3,2.9,0.9,3.6c0.4,0.6,1.1,0.9,1.9,0.9c0.6,0,1.1-0.1,1.4-0.4
			c0.4-0.3,0.7-0.8,0.9-1.4c0.2-0.6,0.3-1.4,0.3-2.3c0-0.7-0.1-1.3-0.2-1.9c-0.1-0.6-0.3-1.1-0.5-1.4c-0.2-0.3-0.5-0.6-0.8-0.8
			s-0.8-0.3-1.2-0.3c-0.5,0-1,0.2-1.4,0.5c-0.4,0.3-0.7,0.8-1,1.4C156.7,55.5,156.6,56.2,156.6,57z"/>
		<path class="st0" d="M176.2,52.9v-0.5c1.2,0,2.1,0.1,2.7,0.1c0.7,0,1.5,0,2.6-0.1v0.5c-0.9,0.1-1.4,0.2-1.5,0.3
			c-0.1,0.1-0.2,0.3-0.2,0.6l0,1.7v5.6h2.5c0.4,0,0.7,0,0.8-0.1c0.2-0.1,0.4-0.2,0.5-0.4c0.2-0.2,0.5-0.7,0.9-1.4h0.6
			c-0.3,0.8-0.6,1.8-0.9,2.8c-1.9-0.1-3.5-0.1-4.8-0.1c-1,0-2.1,0-3.3,0.1v-0.5c0.8-0.2,1.2-0.3,1.3-0.3c0.1-0.1,0.1-0.2,0.2-0.3
			c0-0.2,0-1.2,0-3.3l0-2.5v-0.4c0-0.7,0-1.2-0.1-1.3c0-0.1-0.1-0.2-0.2-0.2C177.4,53.2,177,53.1,176.2,52.9z"/>
		<path class="st0" d="M196.7,52.9v-0.5c1.2,0,2.1,0.1,2.7,0.1c0.7,0,1.5,0,2.6-0.1v0.5c-0.9,0.1-1.4,0.2-1.5,0.3
			c-0.1,0.1-0.2,0.3-0.2,0.6l0,1.7v5.6h2.5c0.4,0,0.7,0,0.8-0.1c0.2-0.1,0.4-0.2,0.5-0.4c0.2-0.2,0.5-0.7,0.9-1.4h0.6
			c-0.3,0.8-0.6,1.8-0.9,2.8c-1.9-0.1-3.5-0.1-4.8-0.1c-1,0-2.1,0-3.3,0.1v-0.5c0.8-0.2,1.2-0.3,1.3-0.3c0.1-0.1,0.1-0.2,0.2-0.3
			c0-0.2,0-1.2,0-3.3l0-2.5v-0.4c0-0.7,0-1.2-0.1-1.3c0-0.1-0.1-0.2-0.2-0.2C197.9,53.2,197.4,53.1,196.7,52.9z"/>
		<path class="st0" d="M217.2,52.9v-0.5c1.1,0,2.3,0.1,3.6,0.1c1.5,0,3,0,4.6-0.1c0,0.9,0.1,1.8,0.2,2.5H225
			c-0.1-0.1-0.1-0.3-0.1-0.3c-0.2-0.6-0.4-1-0.5-1.1c-0.1-0.1-0.4-0.2-0.9-0.2h-2.6c0,0.8-0.1,1.9-0.1,3.3l1.2,0
			c0.6,0,1-0.1,1.1-0.2c0.1-0.1,0.3-0.5,0.5-1.2h0.6c0,0.7-0.1,1.3-0.1,1.8c0,0.5,0,1.1,0.1,1.8h-0.6c-0.1-0.7-0.3-1.1-0.4-1.3
			c-0.1-0.1-0.5-0.2-1.1-0.2h-1.3v3.8h2.7c0.3,0,0.5,0,0.6-0.1c0.2-0.1,0.3-0.2,0.4-0.3c0.3-0.3,0.6-0.8,1-1.4h0.6
			c-0.3,0.7-0.5,1.6-0.9,2.7c-1.5-0.1-3.2-0.1-4.9-0.1c-0.8,0-1.8,0-3.2,0.1v-0.5c0.8-0.1,1.2-0.2,1.3-0.3c0.1-0.1,0.2-0.4,0.2-0.8
			v-0.2l0-2.7v-2.2l0-1c0-0.5,0-0.8-0.1-0.9s-0.1-0.2-0.3-0.3C218.2,53.1,217.8,53,217.2,52.9z"/>
		<path class="st0" d="M249.2,57v0.5c-0.6,0.1-1,0.2-1.2,0.3c-0.1,0-0.1,0.1-0.2,0.2c0,0.1-0.1,0.5-0.1,1c0,0.9,0,1.8,0,2.5
			c-0.3,0.1-0.6,0.1-1,0.2c-1,0.2-1.7,0.3-2.1,0.4c-0.4,0.1-0.9,0.1-1.4,0.1c-1.1,0-2-0.1-2.7-0.4c-0.8-0.4-1.5-0.9-1.9-1.7
			c-0.4-0.7-0.7-1.6-0.7-2.7c0-1.8,0.7-3.2,2-4.2c1-0.7,2.3-1.1,3.9-1.1c1.1,0,2.3,0.2,3.6,0.5c0,0.3,0,0.5,0,0.6
			c0,0.5,0,1.3,0.1,2.3H247c-0.2-0.7-0.4-1.3-0.6-1.6c-0.2-0.3-0.5-0.5-0.9-0.7c-0.4-0.2-0.9-0.3-1.5-0.3c-0.8,0-1.4,0.2-1.9,0.5
			c-0.5,0.3-0.9,0.8-1.2,1.4c-0.3,0.7-0.4,1.4-0.4,2.3c0,1.4,0.3,2.4,1,3.1c0.6,0.7,1.5,1,2.5,1c0.5,0,1.1-0.1,1.7-0.4v-2.1
			c0-0.5,0-0.7-0.1-0.9c0-0.1-0.1-0.1-0.2-0.2c-0.1,0-0.4-0.1-0.9-0.2c-0.1,0-0.1,0-0.3-0.1V57c1,0,1.8,0.1,2.4,0.1
			C247.1,57.1,247.9,57.1,249.2,57z"/>
		<path class="st0" d="M260.7,52.9v-0.5c1.1,0,2.3,0.1,3.6,0.1c1.5,0,3,0,4.6-0.1c0,0.9,0.1,1.8,0.2,2.5h-0.6
			c-0.1-0.1-0.1-0.3-0.1-0.3c-0.2-0.6-0.4-1-0.5-1.1c-0.1-0.1-0.4-0.2-0.9-0.2h-2.6c0,0.8-0.1,1.9-0.1,3.3l1.2,0
			c0.6,0,1-0.1,1.1-0.2c0.1-0.1,0.3-0.5,0.5-1.2h0.6c0,0.7-0.1,1.3-0.1,1.8c0,0.5,0,1.1,0.1,1.8h-0.6c-0.1-0.7-0.3-1.1-0.4-1.3
			c-0.1-0.1-0.5-0.2-1.1-0.2h-1.3v3.8h2.7c0.3,0,0.5,0,0.6-0.1c0.2-0.1,0.3-0.2,0.4-0.3c0.3-0.3,0.6-0.8,1-1.4h0.6
			c-0.3,0.7-0.5,1.6-0.9,2.7c-1.5-0.1-3.2-0.1-4.9-0.1c-0.8,0-1.8,0-3.2,0.1v-0.5c0.8-0.1,1.2-0.2,1.3-0.3c0.1-0.1,0.2-0.4,0.2-0.8
			v-0.2l0-2.7v-2.2l0-1c0-0.5,0-0.8-0.1-0.9c0-0.1-0.1-0.2-0.3-0.3C261.8,53.1,261.4,53,260.7,52.9z"/>
	</g>
	<rect x="92.1" y="41.3" class="st0" width="217.9" height="2.1"/>
	<g>
		<path class="st1" d="M47.8,13.7c0,0-0.9,1.6-1,2.3c0,0,9.8-1.5,12.1-1.2c2.4,0.3,5.1-0.3,6.4-2.4l-2.3-0.6c0,0,4.3-4.1,1.4-9.3
			c0,0-2.1,5-13.7,8.4C50.8,10.7,50.1,13.7,47.8,13.7z"/>
		<path class="st1" d="M33.8,9.2c2.8,3.3,0.1,3.7,0.1,3.7c-2.6,0.6-6.5-1.7-6.5-1.7c-0.4,3.4,4.7,3.4,4.7,3.4c1.8,0.2,1.4,0.5,0.6,1
			c-0.9,0.5-3.2-0.4-4.9-0.2c-1.7,0.1-1.3,0.7-0.7,1.2c0.6,0.4-0.9,1-0.9,1c-3.8,1.4-3.5,3.7-3.5,3.7l4.5,1.4
			c-0.1,0.9-1.5,2.5-1.5,2.5c0.5,0.3,2.5,0.3,2.5,0.3c0.8-0.4,1.1,0.3,1.1,0.3L29,27.2l1.4,0.3c1.1-0.3,1.4,1,1.4,1
			c-0.2,1.2,2.6,3.4,2.6,3.4c-0.4-0.8,0.9-2.4,0.9-2.4c0.6,0.4,4,1.4,4,1.4c-0.6-0.8,0-4,0-4c2.4,1.1,3.7-0.3,3.7-0.3
			c-2.4-1.6-2.4-7.8,0.2-8.3c2.6-0.5,3.2-5.7,3.2-5.7c3.3,0.8,3.4-2.8,3.4-2.8c-0.3,0.4-5.7-0.2-7.1-1.3c-1.4-1.1-5.7-3.3-6.7-2.6
			c-1,0.7-2.6-0.3-2.6-0.3c-4.6-1.1-5.6,2.4-5.6,2.4C33.4,8.1,33.8,9.2,33.8,9.2z M39,8.6c0,0-2.2-0.5-2.6-0.8
			C36.4,7.8,37.7,6.8,39,8.6z M41.3,16c0,0-2.7,3.7-5.4-0.7C35.9,15.3,38,17.8,41.3,16z"/>
		<path class="st1" d="M69.7,11.9c0,0-4.1,4.3-14.6,4.2c0,0-7.9,0-10.3,2.5c-2.4,2.5-3.4,5.9,0.5,8.3c0,0,0,2.9-4.7,1.3
			c0,0-0.6,2.3,0.6,3.8l-5-1l-0.3,1.6c0,0,3.4,1.8,4.2,2.6c0.8,0.8,0.1-0.8,0.1-0.8s0,0,0,0c0,0,0,0,0,0c0,0,0,0,0,0c0,0,0,0,0,0
			c0,0,0,0,0,0c0,0,0.1,0,0.1,0.1c0,0,0,0,0,0c0,0,0,0,0.1,0c0,0,0,0,0,0c0.5,0.4,1.7,1.3,3.1,1.8c0,0,0,0,0,0c0.1,0,0.1,0,0.2,0.1
			c0.6,0.2,1.2,0.4,1.8,0.4c0,0-0.1-0.3-0.2-0.7c0,0,0-0.1,0-0.1c0,0,0,0,0,0c0,0,0-0.1,0-0.1c0,0,0,0,0,0c0,0,0-0.1,0-0.1
			c0,0,0,0,0,0c0,0,0-0.1,0-0.1c0,0,0,0,0,0c0,0,0-0.1,0-0.1c0,0,0,0,0,0c0,0,0,0,0-0.1c0,0,0,0,0,0c0,0,0,0,0-0.1c0,0,0,0,0,0
			c0,0,0,0,0-0.1c0,0,0,0,0,0c0,0,0,0,0,0c0,0,0,0,0,0c0,0,0,0,0,0c0,0,0,0,0,0c0,0,0,0,0,0c0,0,0,0,0,0c0,0,0,0,0.1,0c0,0,0,0,0,0
			c0,0,0,0,0.1,0c0,0,0,0,0,0c0,0,0,0,0.1,0c0,0,0,0,0,0c0,0,0,0,0.1,0c0,0,0,0,0,0c0,0,0.1,0,0.1,0.1c0.1,0.1,0.2,0.1,0.2,0.1
			c0,0,0,0,0,0c0.1,0,0.2,0.1,0.3,0.1c0,0,0,0,0,0c0.1,0,0.2,0.1,0.3,0.1c1.2,0.4,2.6,0.4,2.9,0.3c0,0-0.2-0.2-0.3-0.5
			c0,0,0-0.1,0-0.1c0,0,0,0,0,0c0,0,0-0.1,0-0.1c0,0,0,0,0,0c0-0.1,0-0.1-0.1-0.2c0,0,0,0,0,0c0,0,0,0,0-0.1c0,0,0,0,0,0
			c0,0,0,0,0-0.1c0,0,0,0,0,0c0,0,0,0,0-0.1c0,0,0,0,0,0c0,0,0,0,0-0.1c0,0,0,0,0,0c0,0,0,0,0,0c0,0,0,0,0,0c0,0,0,0,0,0
			c0,0,0,0,0,0c0,0,0,0,0,0c0,0,0,0,0,0c0,0,0,0,0.1,0c0,0,0,0,0,0c0,0,0,0,0.1,0c0,0,0,0,0,0c0,0,0,0,0.1,0c0,0,0,0,0,0
			c0,0,0.1,0,0.1,0c0,0,0,0,0,0c0,0,0.1,0,0.1,0c1.5,0.3,3.1-0.5,3.1-0.5s-2-2-0.6-1.7c1.4,0.3,3,0.1,3.1-0.4
			c0.1-0.5-1.6-1.3-0.7-1.5c0.9-0.2,3.3,0.5,4.9-1.4c0,0-3-1.9-1.9-2.1c0,0,3.6,0,4.2-1.3c0,0-1.7-1.3-0.5-1.5
			c1.3-0.1,4.4-1.6,5.1-3.5c0,0-1.4-0.5-0.9-1.2C65.5,19.7,69.8,18.2,69.7,11.9z"/>
		<path class="st1" d="M33.9,11.7c1.2,0-0.1-1.6-0.1-1.6C33.1,9,31.4,8.9,29.9,9c-1.5,0.1-3.5-1.1-3.5-1.1
			C25.8,11.5,33.9,11.7,33.9,11.7z"/>
		<path class="st1" d="M79.6,24.2c0,0-2.5,2.2-4-0.2c0,0-4.6-5.4-9.3-1.7c0,0-3.5,2-6.9,12.7c0,0-1-0.6-2.2-0.8
			c-4.9-1.2-7.9,2.3-8.2,4.8c-0.2,1.8,0.6,3.7,1.2,4.8c-0.8,0.3-1.6,0.4-2.2,0.5c-1.2-5.1-6.8-6-6.8-6c-0.4-1.2-3.6-3.5-5.8-4.1
			c-2.3-0.6-4.1-3.3-4.4-3.9c-0.3-0.6-0.9-1.8-2.3-1.6c0,0-2,0.8-1.8-0.6l0.3-1.4c0,0-4.2-2.6-5.1,1.2c0,0-1.4,3.3,4.5,7.7
			c0,0,4.3,2.1,3.4,5.2c-0.9,3-1.4,4.8-0.2,6.6c1.2,1.8,1.1,2.7,0,4.6c-1.1,1.9,1.8,3.9,2.2,3.7c0.4-0.1-0.3-2.5,1.7-2.6
			c2-0.1,4.2,2.5,7.5,1.4c0.2-0.1,0.4-0.1,0.5-0.1c3.9-0.1,5.1,1,5.1,1s1.5-3.1,1.6-7.1c2.6-0.7,6.6-2.1,7.7-4.1c0,0,0,0,0,0
			c0.5-0.4,1-0.8,1.5-1.3c0,0,1.2-0.9,2.7-3.3c0,0,1-2.3,2.3-0.4c1.3,1.9,1.3,2.8,1.3,2.8s2.1-3.3,0.7-5c0,0-2.3-0.6-2.4-2.3
			c0,0,0.3-9.3,7.8-11.1c0,0,4.1,0.9,2.9,2.4c0,0-1.5,0.7-1.6,2.8c0,0-0.6,2.9-2.6,2c0,0,3.4,3.3,7.4,0c0,0,1.3-1.3,1.2-3.1
			c0,0,0.1-0.5,0.9-0.6C78.3,26.9,79.8,26.6,79.6,24.2z M53.7,36.8c1-0.3,1.9-0.1,2.6,0.2c0.4,0.4,0.6,0.8,0.6,0.8s-0.5,1.6-1.9,3.2
			c-0.4,0.3-0.6,0.6-1.3,0.8C50.3,41.8,51.5,38,53.7,36.8z"/>
		<path class="st1" d="M54.9,50.4c0.2-1.6,0.4-4.2-0.7-3.4c-1.6,1.1-4.9,2.1-4.9,2.1c-0.5,5-2.2,7.5-2.2,7.5s0,0-2-0.7
			c-2-0.7-3.4-0.1-3.4-0.1c-1.9-0.4-3.9-0.3-4.6,1c0,0,1.1,0.5,1.4,0.7c0,0-1.5,0.9-1.8,2.2c0,0,1.4,0.1,1.8,0.6
			c0,0-0.3,1.1-0.2,1.8c0,0,0.5-0.4,1.7-0.3c0,0,2.3-0.9,6.2-2.2c3.8-1.3,3.7-4.1,5.6-2.9c0.6,0.4,0.9,0.7,1.1,0.9l0.7-2.5v0.4
			c0.2-0.3,0.5-0.7,0.9-1.2c1.3-1.3,1.5-3.3,0.6-4.2C55.2,50.1,55.1,50.2,54.9,50.4z"/>
		<path class="st1" d="M27.8,45.4c-0.3-0.8,1.5-5.7,1.5-5.7c-4.9,1.9-7.7-0.7-8-0.8c-0.3-0.1-2.8-2.2-4.7-0.3
			c-1.9,1.9-0.5,1.7-0.5,1.7c1.7-0.5,2.9,1.3,1.7,1.8c-1.2,0.5-3.6,3.4-4.1,4.9c-0.5,1.4-2.8-0.9-2.8-0.9c-4.5-2.2-7-2.4-8.9-2.3
			C0.2,43.9,2.2,45,2.2,45c0.9,0.2-0.2,1.3-1.8,1.7C-1.1,47.1,2,47.8,2,47.8c0.9,0.1-1.8,2.8-0.9,2.1c0.9-0.7,3.4,0.9,3.4,0.9
			c1,2,4.8,1,4.8,1c3.5-1.4,6.7,3.2,6.7,3.2c2.2-1.2,0.4-5.5,0.4-5.5c-0.9-1.6,3.8-1.4,3.8-1.4c1.7,0.9,0.7,3.1,0.7,3.1
			c3.9,1.2,4.6-3.1,4.6-3.1c0.3-0.7,3.6,0,3.6,0C28.6,47.9,28.1,46.2,27.8,45.4z"/>
		<path class="st1" d="M8.6,20.9L7.3,23c0,0,1.2,0.2,1.9,0.6c0.7,0.4,1,1.2,2.2,1.2c1.2,0,4.9-1.6,6.1-0.4c1.1,1.2,0.6,1.9,0.6,1.9
			s1,2.7,3.2,1.7c0,0-0.2-2.6,1.8-3.2c0,0,1.6-0.2,1.9-1.8c0,0-4.8-0.6-3.6-2.5c1.3-2,2.2-3.2,4.1-3.9c0,0-4.2-2,1.3-2.1
			c0,0-5.3-3.4-3.5-9.7c0,0,0-3-3.7-4.2c0,0,0.4,2.3-1.2,0.8c0,0-2.7-1.2-2.4-0.4c0,0,1.1,2.4,0.2,2c0,0-3.5-0.9-3.5-0.2
			c0,0,2,1.7,1.5,2.7c0,0-0.8,0.9,1,2.3c1.8,1.5,3.6,2.3,2.7,4.6l-0.3,1.2c0,0,2.2,0.4,2.3,1.2c0.1,0.9,0.4,2.2,0.9,2.4
			c0,0,0,1-0.5,1.1c0,0-2.9,1.7-4.4-0.4c0,0-1-3-4.6-2.7c0,0-0.8-0.1-1.5-0.4c0,0,2,2,0.7,1.5c0,0-3.4-0.1-3.3,1.3
			C7.1,17.7,9.6,19.2,8.6,20.9z"/>
	</g>
	<path class="st0" d="M257.3,31.7c-0.5-0.2-0.9-0.5-1.3-0.8c-0.3-0.3-0.6-0.6-0.8-0.9c-0.2-0.3-0.3-0.5-0.4-0.6
		c-0.4-0.8-0.7-1.5-1-2.1c-0.3-0.6-0.6-1.4-0.9-2.3c-0.7-1.9-1.4-3.7-2.1-5.7c-0.7-1.9-1.4-3.9-2.2-5.9c-0.8-2-1.5-4.2-2.4-6.4
		c-0.8-2.2-1.7-4.5-2.6-7h-0.4c-0.1,0.2-0.3,0.5-0.5,0.8c-0.2,0.3-0.5,0.7-0.8,1c-0.3,0.4-0.7,0.7-1.1,1c-0.4,0.3-0.9,0.6-1.4,0.8
		l0.4,1c-0.7,1.7-1.5,3.4-2.3,5.3c-0.8,1.9-1.6,3.8-2.4,5.7c-0.8,1.9-1.6,3.7-2.4,5.5c-0.8,1.8-1.5,3.4-2.1,4.7
		c-0.7,1.5-1.3,2.7-1.7,3.4c-0.5,0.8-0.8,1.3-1,1.5c-0.1,0.1-0.4,0.3-0.9,0.7c-0.6,0.3-1.2,0.5-2,0.6v0.5h9.4v-0.4
		c-0.4-0.1-0.3-0.1-0.6-0.2c-0.3-0.1-0.5-0.1-0.7-0.2c-1.3-0.8-1.3-1.5-1.1-2.3c0.1-0.3,1.6-4,3.3-8.3h10.6c0.7,0.9,1,1.5,1.3,2.5
		c0.4,1.1,0.7,2,1,2.9c0.3,0.9,0.5,1.6,0.7,2.2c0.2,0.6,0.2,1,0.2,1.3c0,0.4-0.1,0.8-0.4,1c-0.3,0.3-0.6,0.5-1,0.6
		c-0.4,0.1-0.7,0.3-1.1,0.3c-0.3,0.1-0.6,0.1-0.6,0.1v0.4h12.9v-0.5C258.4,32.1,257.8,32,257.3,31.7z M236.1,19.5c2-4.8,4.1-10,5-12
		c0.1,0.3,0.1,0.6,0.3,0.9c0.4,1,0.8,2.1,1.3,3.4c0.5,1.2,1,2.5,1.5,3.8c0.5,1.3,1,2.7,1.5,4H236.1z"/>
	<path class="st0" d="M149.4,9L148,0.1c-0.7,0.2-1.3,0.3-2,0.4c-0.6,0.1-1.4,0.2-2.4,0.2c-1.1,0-2.1,0-3,0c-0.9,0-1.7,0-2.6,0
		c-0.8,0-1.7,0-2.6,0c-0.9,0-7.6,0-8.4,0c-0.8,0-1.7,0-2.6,0c-0.9,0-1.9,0-3-0.1c-1.1,0-1.9-0.1-2.5-0.2c-0.6-0.1-1.2-0.1-1.9-0.3
		L115.7,9l0.4,0.1c0,0,3.4-5.7,5.2-6.1c0.7-0.2,4.5-0.2,8.8-0.2v13.8c0,0.8,0,1.6,0,2.5c0,0.9,0,1.7,0,2.6c0,0.8,0,1.6,0,2.3
		c0,0.7,0,1.2,0,1.6c0,0.5,0,1,0,1.5c0,0.5,0,1-0.1,1.4c0,0.4-0.1,0.8-0.2,1.2c-0.1,0.3-0.2,0.6-0.3,0.7c-0.7,0.8-1.4,1.3-2.1,1.5
		c-0.7,0.2-1.4,0.4-2.2,0.4v0.4h14.4v-0.4c-0.7-0.1-1.4-0.3-2.2-0.5c-0.8-0.2-1.4-0.7-1.9-1.3c-0.2-0.3-0.4-0.9-0.4-1.7
		c0-0.8-0.1-1.6-0.1-2.5v-9.8c0-0.9,0-2,0-3.4c0-1.4,0-2.7,0-4.1c0-1.4,0-2.7,0-4c0-0.9,0-1.5,0-2.1c4.4,0.1,8.3,0.1,8.7,0.1
		c1,0,2.3,1.1,5.3,6.1l0,0l0.3-0.1L149.4,9z"/>
	<path class="st0" d="M306.4,30.9c-1-0.7-2.1-1.8-3.2-3.4c-0.7-1-1.5-2.2-2.4-3.5c-0.9-1.3-1.7-2.5-2.5-3.6
		c-0.4-0.6-0.9-1.2-1.4-1.7c-0.5-0.5-1-0.9-1.5-1.2v-0.1c1-0.3,1.9-0.7,2.8-1.2c0.9-0.5,1.7-1,2.3-1.7c0.7-0.7,1.2-1.4,1.6-2.3
		c0.4-0.9,0.6-1.9,0.6-2.9c0-1.8-0.4-3.2-1.2-4.4c-0.8-1.2-1.8-2.1-3.1-2.8c-1.3-0.7-2.7-1.1-4.2-1.2c-1.5-0.1-3.3-0.2-5.3-0.2
		c-0.8,0-1.8,0-3.1,0c-1.3,0-2.5,0-3.8,0c-1.3,0-2.4,0-3.4,0c-1,0-1.6,0-1.8,0v0.4c0.8,0.1,1.5,0.3,2,0.4c0.5,0.2,1,0.5,1.5,1
		c0.2,0.2,0.3,0.5,0.4,0.9c0.1,0.4,0.2,0.8,0.2,1.3c0,0.5,0.1,1,0.1,1.6c0,0.5,0,1.1,0,1.6v8.6c0,0.8,0,1.7,0,2.6c0,0.9,0,1.8,0,2.6
		c0,0.8,0,1.6,0,2.3c0,0.7,0,1.3,0,1.7c0,0.5,0,1,0,1.5c0,0.5-0.1,1-0.1,1.4c0,0.4-0.1,0.8-0.2,1.2s-0.2,0.6-0.4,0.8
		c-0.4,0.5-0.9,0.8-1.6,1.1c-0.7,0.2-1.4,0.4-2.1,0.5v0.4h14.2v-0.4c-1.2-0.1-2.2-0.3-2.8-0.7c-0.7-0.4-1.1-0.8-1.4-1.2
		c-0.3-0.4-0.5-1-0.5-1.7c0-0.7-0.1-1.5-0.1-2.4c0-1,0-2.2,0-3.6c0-1.4,0-2.5,0-4.5c0.5,0,2.1-0.2,2.6,0c0.8,0.2,1.2,0.2,1.9,0.8
		c0.7,0.6,1.3,1.2,1.9,1.9c0.7,0.8,1.3,1.6,1.8,2.2c0.5,0.7,1,1.3,1.4,2c0.4,0.7,0.9,1.3,1.3,2c0.4,0.7,0.9,1.4,1.5,2.2
		c0.5,0.7,0.8,1.2,1,1.5c0.2,0.3,0.4,0.6,0.6,0.8c0.1,0.2,0.3,0.3,0.4,0.5c0.1,0.1,0.3,0.3,0.6,0.6h9.1v-0.4
		C308.6,32,307.4,31.6,306.4,30.9z M292.3,16.3c-1,0.3-2,0.5-3,0.6c-1,0.1-2.2,0.2-3.4,0.2c0-0.2,0-0.8,0-1.7c0-0.9,0-2,0-3.2
		c0-1.2,0-2.5,0-3.8c0-1.3,0-2.5,0.1-3.5c0-0.7,0.1-1.2,0.1-1.6c0-0.4,0-0.7,0-0.9c0-0.1,0-0.3,0-0.4c1.6-0.1,6.8-0.4,9,1.3
		c0,0,0,0,0,0c0,0,0,0,0,0c0.5,0.5,1,1,1.4,1.5c0.7,1.2,1.1,2.5,1.1,3.9c0,0.8-0.1,1.6-0.3,2.3c-0.2,0.7-0.5,1.4-1,2.1
		c-0.4,0.6-1,1.2-1.7,1.7C294,15.6,293.2,16,292.3,16.3z"/>
	<path class="st0" d="M112.4,18.7c-1.1-1.4-2.7-2.5-4.7-3.2c-0.6-0.2-1.1-0.4-1.6-0.6c-0.5-0.2-1-0.3-1.5-0.5
		c-0.5-0.2-1-0.3-1.5-0.5c-0.5-0.2-1.1-0.4-1.7-0.6c0,0,0,0-0.1,0c-0.6-0.3-5.1-2.3-4.8-6.3c0.3-4.3,4.8-6.6,8.6-5.4S112,9,112,9
		h0.5V0.8H112c-0.2,0.4-0.5,0.7-0.8,1.1c-0.3,0.4-0.5,0.3-0.6,0.3c0,0-0.2-0.1-0.5-0.3c-0.3-0.2-0.8-0.5-1.4-0.7
		c-0.6-0.3-1.4-0.5-2.3-0.7C105.5,0.1,104.4,0,103,0c-1.4,0-2.8,0.2-4.1,0.6c-1.3,0.4-2.4,0.9-3.4,1.7c-1,0.8-1.8,2-2.3,3.2
		c-0.6,1.2-0.9,2.5-0.9,4.1c0,0.9,0.2,1.8,0.5,2.7c0.3,0.8,0.8,1.6,1.3,2.3c0.5,0.7,1.2,1.3,1.9,1.8c0.7,0.5,1.4,0.9,2.2,1.2
		c0.7,0.3,1.3,0.5,1.8,0.6c0.5,0.2,1,0.3,1.4,0.5c0.5,0.2,1,0.3,1.5,0.5c0.5,0.2,1.2,0.4,1.9,0.7c0.7,0.3,1.4,0.6,2,0.9
		c0.6,0.3,1.2,0.7,1.6,1.2c0.2,0.2,0.3,0.3,0.4,0.5c1.8,2.7,1.1,8.8-5,9.5c-5.7,0.6-9.3-4.5-9.8-5.3c-0.1-0.2-0.2-0.3-0.3-0.5
		c-0.4-0.8-0.8-1.5-1-2.3h-0.4l0.1,8.8h0.4c0.2-0.3,0.5-0.7,0.8-1c0.3-0.4,0.5-0.3,0.6-0.3c0.1,0,0.3,0.1,0.6,0.3
		c0.3,0.2,0.8,0.4,1.5,0.7c0.7,0.3,1.5,0.5,2.6,0.6c1,0.2,2.3,0.3,3.7,0.3c1.7,0,3.2-0.2,4.7-0.6c1.4-0.4,2.6-1,3.7-1.8
		c1-0.8,1.8-1.8,2.4-2.9c0.6-1.1,0.9-2.4,0.9-3.8C114.1,22.1,113.5,20.1,112.4,18.7z"/>
</g>
</svg>
